<?xml version="1.0" standalone="no"?>
<!DOCTYPE svg PUBLIC "-//W3C//DTD SVG 20010904//EN"
 "http://www.w3.org/TR/2001/REC-SVG-20010904/DTD/svg10.dtd">
<svg version="1.0" xmlns="http://www.w3.org/2000/svg"
 width="400.000000pt" height="400.000000pt" viewBox="0 0 400.000000 400.000000"
 preserveAspectRatio="xMidYMid meet">
<metadata>
Created by potrace 1.11, written by Peter Selinger 2001-2013
</metadata>
<g transform="translate(0.000000,400.000000) scale(0.100000,-0.100000)"
fill="#000000" stroke="none">
<path d="M870 3993 c-222 -36 -416 -132 -568 -280 -140 -136 -218 -274 -280
-493 -14 -48 -16 -196 -18 -1185 -2 -713 0 -1148 7 -1180 5 -27 12 -63 15 -79
30 -171 171 -406 315 -527 77 -63 126 -99 138 -99 6 0 11 -3 11 -7 0 -16 166
-86 275 -116 l80 -22 1150 0 c1063 0 1155 1 1222 18 351 85 626 336 734 670
48 151 48 140 48 1307 -1 1167 -1 1167 -50 1313 -54 161 -161 325 -280 431
-126 111 -306 201 -472 236 -87 18 -147 19 -1197 18 -608 0 -1116 -3 -1130 -5z"/>
</g>
</svg>
