<svg width="36" height="36" viewBox="0 0 36 36" fill="none" xmlns="http://www.w3.org/2000/svg">
    <path d="M5.922 9.84578C7.62222 7.9697 9.71001 6.53272 12.0168 5.61957H3.91225C3.62067 5.61957 3.38428 5.38318 3.38428 5.0916C3.38428 4.80001 3.62067 4.56362 3.91225 4.56362H16.3598C16.3977 4.56327 16.4348 4.56693 16.4708 4.57431C16.4736 4.57487 16.4762 4.57579 16.479 4.57635C16.4929 4.57944 16.5067 4.58275 16.5203 4.58697C16.5285 4.5895 16.5364 4.59273 16.5444 4.59561C16.5523 4.5985 16.5603 4.60103 16.5679 4.60426C16.5781 4.60855 16.588 4.61354 16.5979 4.6184C16.6031 4.621 16.6086 4.62325 16.6137 4.62599C16.6238 4.6314 16.6335 4.63752 16.6433 4.64357C16.648 4.64645 16.6528 4.64905 16.6574 4.65208C16.6663 4.65805 16.6747 4.66459 16.6833 4.67106C16.6882 4.67486 16.6935 4.67837 16.6984 4.68238C16.7056 4.68829 16.7124 4.69475 16.7193 4.70101C16.725 4.70615 16.7309 4.71107 16.7363 4.71648C16.7419 4.72197 16.7469 4.72787 16.7522 4.73364C16.7585 4.74039 16.765 4.74707 16.7709 4.75417C16.775 4.75902 16.7786 4.76429 16.7825 4.76929C16.789 4.77772 16.7956 4.78609 16.8017 4.79495C16.8048 4.79952 16.8074 4.80437 16.8103 4.80901C16.8165 4.81872 16.8227 4.82835 16.8282 4.83847C16.8311 4.84361 16.8333 4.84895 16.8359 4.85422C16.841 4.86421 16.8461 4.87412 16.8505 4.88453C16.8534 4.89128 16.8557 4.89838 16.8583 4.90527C16.8617 4.91441 16.8654 4.92348 16.8684 4.9329C16.8715 4.94268 16.8737 4.95287 16.8763 4.96293C16.878 4.96982 16.8801 4.9765 16.8815 4.98346C16.8841 4.99611 16.8858 5.00905 16.8876 5.02206C16.8882 5.02677 16.8893 5.03127 16.8898 5.03598C16.8898 5.03612 16.8898 5.03626 16.8898 5.03647C16.8905 5.04343 16.8905 5.05061 16.8909 5.05764C16.8916 5.06882 16.8926 5.08 16.8926 5.09111V5.09118C16.8926 5.09202 16.8924 5.09279 16.8924 5.09357C16.8924 5.11072 16.8916 5.12781 16.8899 5.14461C16.8894 5.14947 16.8884 5.15411 16.8878 5.15889C16.8862 5.1714 16.8846 5.18385 16.8821 5.19615C16.8802 5.20558 16.8775 5.21465 16.8751 5.22386C16.8732 5.23117 16.8717 5.23862 16.8695 5.24579C16.8656 5.25831 16.861 5.27047 16.8563 5.28264C16.8549 5.28622 16.8538 5.28995 16.8523 5.29354C16.8466 5.30718 16.8402 5.3204 16.8334 5.33347C16.8325 5.33544 16.8316 5.33748 16.8306 5.33938C16.8235 5.35281 16.8156 5.36582 16.8073 5.37854C16.8064 5.37995 16.8056 5.3815 16.8046 5.3829C16.7964 5.39528 16.7875 5.40716 16.7782 5.4189C16.777 5.42052 16.7759 5.42228 16.7745 5.42383C16.7655 5.43486 16.756 5.44534 16.7461 5.45575C16.7442 5.45772 16.7425 5.45983 16.7406 5.46179C16.731 5.47157 16.7208 5.48071 16.7104 5.48971C16.7079 5.49182 16.7057 5.49414 16.7032 5.49625C16.6927 5.50511 16.6815 5.51333 16.6702 5.52135C16.6676 5.52318 16.6653 5.52522 16.6627 5.52697C16.6502 5.53555 16.6372 5.54336 16.6239 5.55088C16.6224 5.55172 16.621 5.55278 16.6194 5.55362C16.5578 5.58765 16.4888 5.60966 16.4154 5.61662C12.6842 6.00798 9.23554 7.7615 6.70443 10.5544C4.15462 13.368 2.75034 17.0105 2.75034 20.8109C2.75034 21.1025 2.51395 21.3389 2.22236 21.3389C1.93078 21.3389 1.69439 21.1025 1.69439 20.8109C1.69439 16.7484 3.19577 12.854 5.922 9.84578Z" fill="#3A4D51"/>
    <path d="M19.2775 5.4177C19.2691 5.40694 19.2609 5.39604 19.2533 5.38458C19.2516 5.38205 19.2502 5.37938 19.2486 5.37685C19.2411 5.36517 19.2338 5.35343 19.2272 5.34113C19.2255 5.33782 19.2241 5.33438 19.2224 5.33107C19.2164 5.3194 19.2107 5.30759 19.2055 5.29535C19.2033 5.29001 19.2017 5.28446 19.1995 5.27911C19.1956 5.26871 19.1915 5.25837 19.1882 5.24754C19.1853 5.23819 19.1832 5.22849 19.1808 5.21892C19.1792 5.21189 19.177 5.20507 19.1756 5.1979C19.1725 5.18285 19.1703 5.16746 19.1685 5.15192C19.1683 5.15002 19.1679 5.14819 19.1677 5.14629C19.1645 5.1143 19.1645 5.08167 19.1672 5.04849C19.1675 5.04504 19.1674 5.0416 19.1678 5.03822C19.1678 5.03794 19.1678 5.03766 19.1678 5.03738C19.1688 5.02845 19.1706 5.01987 19.1719 5.01108C19.1733 5.0025 19.1742 4.99385 19.1759 4.98542C19.1784 4.97339 19.1818 4.96172 19.1851 4.94998C19.1865 4.94506 19.1875 4.93992 19.1889 4.935C19.1938 4.91946 19.1994 4.90435 19.2056 4.88944C19.2059 4.8886 19.2062 4.88775 19.2065 4.88691C19.2397 4.8083 19.2912 4.74017 19.3551 4.68694C19.3559 4.68631 19.3565 4.6856 19.3573 4.68497C19.3685 4.67576 19.3802 4.66718 19.3922 4.65889C19.3942 4.65741 19.3962 4.65579 19.3983 4.65439C19.4094 4.64693 19.4209 4.64018 19.4326 4.63357C19.4358 4.63174 19.4388 4.62964 19.4421 4.62788C19.4537 4.62162 19.4657 4.61606 19.4779 4.61065C19.4814 4.6091 19.4847 4.60728 19.4882 4.6058C19.5017 4.6001 19.5156 4.59518 19.5297 4.59061C19.5319 4.58991 19.5341 4.58892 19.5363 4.58822C19.5875 4.57233 19.6416 4.5641 19.6974 4.5646H32.1453C32.4369 4.5646 32.6732 4.80099 32.6732 5.09257C32.6732 5.38416 32.4369 5.62055 32.1453 5.62055H24.0408C26.3477 6.5337 28.4354 7.97067 30.1356 9.84675C32.8618 12.8549 34.3633 16.7493 34.3633 20.8123C34.3633 21.1039 34.1269 21.3402 33.8353 21.3402C33.5437 21.3402 33.3073 21.1039 33.3073 20.8123C33.3073 17.0118 31.903 13.3693 29.3532 10.5557C26.8221 7.76283 23.3734 6.00931 19.6422 5.61795C19.5688 5.61099 19.4999 5.58905 19.4384 5.55509C19.4361 5.55382 19.4339 5.55228 19.4316 5.55094C19.4192 5.54384 19.407 5.53653 19.3952 5.52844C19.3918 5.52612 19.3888 5.52352 19.3855 5.5212C19.375 5.51367 19.3646 5.50608 19.3547 5.49785C19.3514 5.49518 19.3485 5.49216 19.3453 5.48935C19.3357 5.48098 19.3263 5.47247 19.3173 5.46347C19.3146 5.4608 19.3123 5.45785 19.3097 5.4551C19.3007 5.44554 19.2917 5.43591 19.2834 5.42564C19.2813 5.4229 19.2796 5.42023 19.2775 5.4177Z" fill="#3A4D51"/>
    <path d="M33.8088 2.8512C35.017 2.8512 36 3.83416 36 5.04234C36 6.25059 35.017 7.23356 33.8088 7.23356C32.6005 7.23356 31.6176 6.25059 31.6176 5.04234C31.6176 3.83416 32.6006 2.8512 33.8088 2.8512Z" fill="#FF6137"/>
    <path d="M2.2497 2.8512C3.45795 2.8512 4.44092 3.83416 4.44092 5.04242C4.44092 6.25067 3.45795 7.23363 2.2497 7.23363C1.04145 7.23363 0.0584812 6.25067 0.0584812 5.04242C0.0584812 3.83416 1.04145 2.8512 2.2497 2.8512Z" fill="#FF6137"/>
    <path d="M32.1441 20.3029H35.472C35.7636 20.3029 36 20.5392 36 20.8308V24.1588C36 24.4504 35.7636 24.6868 35.472 24.6868H32.1441C31.8525 24.6868 31.6161 24.4504 31.6161 24.1588V20.8308C31.6162 20.5392 31.8525 20.3029 32.1441 20.3029Z" fill="#FFD039"/>
    <path d="M0.527769 20.3029H3.85581C4.1474 20.3029 4.38379 20.5392 4.38379 20.8308V24.1588C4.38379 24.4504 4.1474 24.6868 3.85581 24.6868H0.527769C0.236182 24.6868 -0.000209808 24.4504 -0.000209808 24.1588V20.8308C-0.000209808 20.5392 0.236182 20.3029 0.527769 20.3029Z" fill="#FFD039"/>
    <path d="M8.44975 21.764L17.5756 6.43545C17.6708 6.27556 17.8431 6.17761 18.0292 6.17761C18.2152 6.17761 18.3876 6.27563 18.4828 6.43545L27.6088 21.764C27.7078 21.9303 27.7079 22.1374 27.609 22.3038L23.782 28.7439C23.6868 28.904 23.5144 29.0021 23.3282 29.0021H12.7303C12.544 29.0021 12.3716 28.904 12.2764 28.7439L8.44947 22.3038C8.35061 22.1374 8.35075 21.9303 8.44975 21.764ZM18.0292 18.8602C17.1546 18.8602 16.4455 19.5692 16.4455 20.4438C16.4455 21.3184 17.1546 22.0275 18.0292 22.0275C18.9038 22.0275 19.6128 21.3184 19.6128 20.4438C19.6129 19.5693 18.9039 18.8602 18.0292 18.8602Z" fill="#FFD039"/>
    <path d="M8.44978 21.764L17.5756 6.43545C17.6708 6.27556 17.8432 6.17761 18.0292 6.17761C18.2153 6.17761 18.3877 6.27563 18.4828 6.43545L19.2163 7.66746L10.6631 22.0341L14.8038 29.0021H12.7303C12.5441 29.0021 12.3716 28.904 12.2765 28.7439L8.4495 22.3038C8.35064 22.1374 8.35078 21.9303 8.44978 21.764Z" fill="#FFAE47"/>
    <path d="M11.1167 27.9456H24.9413C25.2328 27.9456 25.4692 28.1819 25.4692 28.4735V32.6913C25.4692 32.9829 25.2328 33.2193 24.9413 33.2193H11.1167C10.8251 33.2193 10.5887 32.9829 10.5887 32.6913V28.4735C10.5887 28.1819 10.8251 27.9456 11.1167 27.9456Z" fill="#546F7A"/>
    <path d="M11.1171 27.9456H12.877V33.2192H11.1171C10.8255 33.2192 10.5891 32.9828 10.5891 32.6912V28.4735C10.5891 28.1819 10.8255 27.9456 11.1171 27.9456Z" fill="#475D63"/>
    <path d="M18.1092 6.18427C18.1251 6.18673 18.1408 6.18976 18.1562 6.19355C18.1615 6.19489 18.1668 6.19616 18.172 6.19763C18.19 6.2027 18.2078 6.2086 18.2252 6.21556C18.2269 6.21627 18.2288 6.21676 18.2305 6.21753C18.2499 6.22555 18.2688 6.23483 18.2871 6.24502C18.2908 6.24706 18.2942 6.24938 18.2978 6.25149C18.3118 6.25979 18.3254 6.26872 18.3387 6.27828C18.3437 6.2818 18.3485 6.28545 18.3532 6.28911C18.3662 6.29916 18.3786 6.30985 18.3906 6.32124C18.3937 6.32413 18.397 6.32673 18.3999 6.32968C18.4143 6.34388 18.4279 6.35907 18.4407 6.37503C18.4438 6.3789 18.4466 6.38298 18.4496 6.38691C18.4595 6.39999 18.4688 6.41356 18.4776 6.42777C18.5277 6.50848 18.5571 6.60348 18.5571 6.7055V18.8601C18.5571 18.8901 18.554 18.9193 18.5493 18.9479C18.3863 18.8912 18.2115 18.8601 18.0292 18.8601C17.847 18.8601 17.6721 18.8913 17.5092 18.9479C17.5044 18.9192 17.5013 18.89 17.5013 18.8601V6.7055C17.5013 6.60341 17.5307 6.50855 17.5808 6.42777C17.5896 6.41363 17.599 6.40006 17.6089 6.38691C17.6119 6.38298 17.6147 6.3789 17.6178 6.37503C17.6305 6.35914 17.6441 6.34395 17.6585 6.32975C17.6616 6.3268 17.6649 6.32413 17.668 6.32124C17.6799 6.30999 17.6924 6.2993 17.7053 6.28918C17.7101 6.28545 17.7149 6.28187 17.7198 6.27835C17.733 6.26879 17.7466 6.25986 17.7607 6.25156C17.7643 6.24945 17.7677 6.24713 17.7714 6.24509C17.7897 6.23483 17.8086 6.22562 17.828 6.2176C17.8297 6.2169 17.8316 6.21634 17.8333 6.21563C17.8506 6.20874 17.8685 6.20284 17.8866 6.19777C17.8918 6.1963 17.8971 6.19503 17.9024 6.1937C17.9178 6.1899 17.9335 6.1868 17.9493 6.18441C17.9549 6.18357 17.9604 6.18252 17.966 6.18188C17.9868 6.17935 18.008 6.17773 18.0293 6.17773C18.0506 6.17773 18.0717 6.17935 18.0926 6.18188C18.0981 6.18245 18.1036 6.18343 18.1092 6.18427Z" fill="#E89842"/>
    <path d="M18.1093 6.18427C18.1166 6.1854 18.1237 6.18716 18.1309 6.18856C18.1393 6.19025 18.1479 6.19152 18.1562 6.19355C18.1615 6.19489 18.1668 6.19616 18.172 6.19763C18.1732 6.19798 18.1744 6.19855 18.1757 6.1989C18.1924 6.20375 18.2091 6.20909 18.2252 6.21556C18.2269 6.21627 18.2288 6.21676 18.2305 6.21753C18.2499 6.22555 18.2688 6.23483 18.2871 6.24502C18.2907 6.24706 18.2942 6.24938 18.2977 6.25149C18.3074 6.25726 18.3167 6.26373 18.3261 6.27005C18.3302 6.27287 18.3346 6.27533 18.3386 6.27828C18.3434 6.28187 18.3483 6.28538 18.3531 6.28911C18.366 6.29916 18.3785 6.30992 18.3906 6.32124C18.3936 6.32412 18.3969 6.32673 18.3998 6.32961C18.4143 6.34381 18.4278 6.359 18.4407 6.37496C18.4438 6.37883 18.4465 6.38284 18.4496 6.38677C18.4554 6.39444 18.4605 6.40259 18.4659 6.41061C18.4698 6.4163 18.4739 6.42172 18.4776 6.42763C18.5277 6.50834 18.5571 6.60334 18.5571 6.70536V8.77451L17.5012 10.5481V6.7055C17.5012 6.60341 17.5306 6.50855 17.5808 6.42777C17.5844 6.42186 17.5886 6.41652 17.5924 6.41075C17.5979 6.40273 17.6031 6.39458 17.6088 6.38691C17.6118 6.38298 17.6146 6.3789 17.6177 6.3751C17.6305 6.35921 17.644 6.34395 17.6585 6.32975C17.6614 6.3268 17.6647 6.3242 17.6677 6.32131C17.6749 6.31463 17.6825 6.30852 17.69 6.30226C17.695 6.29797 17.6999 6.29333 17.7051 6.28925C17.7099 6.28552 17.7148 6.28194 17.7196 6.27842C17.7237 6.27547 17.7281 6.27301 17.7322 6.2702C17.7415 6.2638 17.7507 6.25733 17.7605 6.25163C17.7641 6.24952 17.7675 6.2472 17.7712 6.24516C17.7895 6.2349 17.8084 6.22569 17.8278 6.21767C17.8295 6.21697 17.8312 6.21648 17.8329 6.21577C17.8428 6.21184 17.8532 6.20888 17.8634 6.20551C17.8711 6.20298 17.8785 6.19995 17.8863 6.19777C17.8915 6.1963 17.8969 6.19503 17.9022 6.1937C17.9176 6.1899 17.9333 6.1868 17.9491 6.18441C17.9547 6.18357 17.9602 6.18252 17.9658 6.18188C17.9867 6.17935 18.0078 6.17773 18.0291 6.17773C18.0504 6.17773 18.0715 6.17935 18.0924 6.18188C18.0983 6.18245 18.1038 6.18343 18.1093 6.18427Z" fill="#CE843C"/>
    <path d="M16.3652 2.78076H19.6932C19.9848 2.78076 20.2212 3.01715 20.2212 3.30874V6.6367C20.2212 6.92828 19.9848 7.16468 19.6932 7.16468H16.3652C16.0737 7.16468 15.8373 6.92828 15.8373 6.6367V3.30874C15.8373 3.01715 16.0737 2.78076 16.3652 2.78076Z" fill="#FFD039"/>
</svg>
