<?xml version="1.0" encoding="utf-8"?>
<!-- Generator: Adobe Illustrator 23.0.1, SVG Export Plug-In . SVG Version: 6.00 Build 0)  -->
<svg version="1.1" xmlns="http://www.w3.org/2000/svg" xmlns:xlink="http://www.w3.org/1999/xlink" x="0px" y="0px"
	 viewBox="0 0 500 500" style="enable-background:new 0 0 500 500;" xml:space="preserve">
<style type="text/css">
	.st0{fill:#EBEBEB;}
	.st1{fill:#F5F5F5;}
	.st2{fill:#FAFAFA;}
	.st3{fill:#E0E0E0;}
	.st4{display:none;}
	.st5{display:inline;fill:#F5F5F5;}
	.st6{fill:#263238;}
	.st7{fill:#007A5E;}
	.st8{opacity:0.3;}
	.st9{fill:#455A64;}
	.st10{fill:#B78876;}
	.st11{fill:#A3796C;}
	.st12{opacity:0.4;}
	.st13{opacity:0.2;}
</style>
<g id="Background_Complete">
	<g>
		<g>
			<path class="st0" d="M209.1,106.7c1-7.2-9.2-13.2-16.9-13.8c-3.7-0.3-7.4,0.3-10.9-0.9c-7.5-2.6-10.5-12.3-17.8-15.4
				c-5.5-2.3-11.8-0.3-17.1,2.4c-5.3,2.7-10.5,6-16.5,6.4c-5.2,0.3-10.7-1.6-15.3,0.9c-3.4,1.9-5.1,5.7-8.2,8c-3,2.2-7,2.7-10.7,2.9
				c-3.8,0.2-7.7,0.2-11.1,1.8c-3.4,1.6-6.3,5.2-5.5,8.9L209.1,106.7z"/>
		</g>
		<g>
			<path class="st0" d="M112.4,161.1c-0.1,0.1-3-5.2-6.5-11.8c-3.4-6.6-6.1-12-6-12c0.1-0.1,3,5.2,6.5,11.8
				C109.8,155.6,112.5,161,112.4,161.1z"/>
		</g>
		<g>
			<path class="st0" d="M162.8,178.7c-0.1,0.1-3-5.2-6.5-11.8c-3.4-6.6-6.1-12-6-12c0.1-0.1,3,5.2,6.5,11.8
				C160.2,173.3,162.9,178.7,162.8,178.7z"/>
		</g>
		<g>
			<path class="st0" d="M213.2,196.4c-0.1,0.1-3-5.2-6.5-11.8c-3.5-6.6-6.1-12-6-12c0.1-0.1,3,5.2,6.5,11.8
				C210.6,191,213.3,196.3,213.2,196.4z"/>
		</g>
		<g>
			<path class="st0" d="M263.6,214.1c-0.1,0.1-3-5.2-6.5-11.8c-3.5-6.6-6.1-12-6-12c0.1-0.1,3,5.2,6.5,11.8
				C261,208.6,263.7,214,263.6,214.1z"/>
		</g>
		<g>
			<path class="st0" d="M314,231.8c-0.1,0.1-3-5.2-6.5-11.8c-3.5-6.6-6.1-12-6-12c0.1-0.1,3,5.2,6.5,11.8
				C311.4,226.3,314.1,231.7,314,231.8z"/>
		</g>
		<g>
			<path class="st0" d="M364.4,249.5c-0.1,0.1-3-5.2-6.5-11.8c-3.4-6.6-6.1-12-6-12c0.1-0.1,3,5.2,6.5,11.8
				C361.8,244,364.5,249.4,364.4,249.5z"/>
		</g>
		<g>
			<path class="st0" d="M325.9,194.7c-0.1,0.1-3-5.2-6.5-11.8c-3.5-6.6-6.1-12-6-12c0.1-0.1,3,5.2,6.5,11.8
				C323.4,189.2,326,194.6,325.9,194.7z"/>
		</g>
		<g>
			<path class="st0" d="M222.3,262.9c-0.1,0.1-3-5.2-6.5-11.8c-3.4-6.6-6.1-12-6-12s3,5.2,6.5,11.8
				C219.8,257.5,222.5,262.9,222.3,262.9z"/>
		</g>
		<g>
			<path class="st0" d="M156.5,230.7c-0.1,0.1-3-5.2-6.5-11.8c-3.4-6.6-6.1-12-6-12c0.1-0.1,3,5.2,6.5,11.8
				C153.9,225.2,156.6,230.6,156.5,230.7z"/>
		</g>
		<g>
			<path class="st0" d="M271,169.2c-0.1,0.1-3-5.2-6.5-11.8c-3.4-6.6-6.1-12-6-12c0.1-0.1,3,5.2,6.5,11.8
				C268.5,163.7,271.2,169.1,271,169.2z"/>
		</g>
		<g>
			<path class="st0" d="M332.2,148c-0.1,0.1-3-5.2-6.5-11.8c-3.4-6.6-6.1-12-6-12c0.1-0.1,3,5.2,6.5,11.8
				C329.6,142.6,332.3,148,332.2,148z"/>
		</g>
		<g>
			<path class="st0" d="M383.3,143.9c-0.1,0.1-3-5.2-6.5-11.8c-3.4-6.6-6.1-12-6-12c0.1-0.1,3,5.2,6.5,11.8
				C380.7,138.4,383.4,143.8,383.3,143.9z"/>
		</g>
		<g>
			<path class="st0" d="M334.7,96.1c-0.1,0.1-3-5.2-6.5-11.8c-3.5-6.6-6.1-12-6-12c0.1-0.1,3,5.2,6.5,11.8
				C332.2,90.6,334.9,96,334.7,96.1z"/>
		</g>
		<g>
			<path class="st0" d="M216.1,143.6c-0.1,0.1-3-5.2-6.5-11.8c-3.4-6.6-6.1-12-6-12c0.1-0.1,3,5.2,6.5,11.8
				C213.6,138.1,216.3,143.5,216.1,143.6z"/>
		</g>
		<g>
			<path class="st0" d="M247.2,103.8c-0.1,0.1-3-5.2-6.5-11.8c-3.4-6.6-6.1-12-6-12c0.1-0.1,3,5.2,6.5,11.8
				C244.7,98.3,247.4,103.7,247.2,103.8z"/>
		</g>
		<g>
			<path class="st0" d="M162.8,131.7c-0.1,0.1-3-5.2-6.5-11.8c-3.4-6.6-6.1-12-6-12c0.1-0.1,3,5.2,6.5,11.8
				C160.2,126.2,162.9,131.6,162.8,131.7z"/>
		</g>
		<g>
			<path class="st1" d="M370.2,74.1c1.1-8.3-10.5-15.1-19.3-15.8c-4.2-0.3-8.5,0.3-12.5-1.1c-8.6-3-12-14.1-20.4-17.6
				c-6.3-2.6-13.5-0.3-19.6,2.8s-12.1,6.9-18.9,7.3c-5.9,0.4-12.3-1.8-17.5,1.1c-3.9,2.2-5.9,6.6-9.4,9.2c-3.5,2.6-8,3.1-12.3,3.3
				c-4.3,0.2-8.8,0.3-12.7,2.1c-3.9,1.8-7.2,5.9-6.4,10.2L370.2,74.1z"/>
		</g>
		<g>
			<path class="st2" d="M336.3,125.7c0.7-5-6.3-9-11.6-9.5c-2.5-0.2-5.1,0.2-7.5-0.6c-5.1-1.8-7.2-8.4-12.2-10.6
				c-3.8-1.6-8.1-0.2-11.7,1.7c-3.6,1.8-7.2,4.1-11.3,4.4c-3.5,0.2-7.4-1.1-10.5,0.6c-2.3,1.3-3.5,3.9-5.6,5.5
				c-2.1,1.5-4.8,1.9-7.4,2c-2.6,0.1-5.2,0.2-7.6,1.2c-2.3,1.1-4.3,3.6-3.8,6.1L336.3,125.7z"/>
		</g>
	</g>
	<path class="st0" d="M112.7,453.8c8.7,13.3,27.1,19.2,41.9,13.4c7-2.7,12.9-7.6,19.8-10.5c9.4-4,20.2-4.1,30.3-2.4
		c10.1,1.7,19.9,5.2,29.7,8c22.1,6.3,45,9.7,67.9,10.1c14.3,0.2,28.9-0.9,42.2-6.2c13.3-5.4,25.1-15.6,29.7-29.1
		c0,0-269.5-1.5-271,0c-1.5,1.5-3.2,3.2-3.2,3.2L112.7,453.8z"/>
	<g>
		<g>
			<g>
				<g>
					<g>
						<path class="st1" d="M115.2,416.2c20.8-9.8,29.1-33.2,32.1-55c0.5-3.6,1.5-7.4,0.4-10.8c-1.2-3.5-4.8-6.3-8.3-5.3
							c-2.9,0.8-4.6,3.7-6.5,6.1c-2.6,3.1-6,5.4-9.9,6.7c-2.5,0.8-5.5,1-7.5-0.6c-2.8-2.3-2.5-6.6-1.8-10.2
							c1.2-6.7,2.4-13.4,3.6-20.1c0.6-3.6,1.3-7.3,0.7-10.9c-0.5-3.6-2.5-7.2-5.7-8.7c-3.3-1.5-7.8-0.3-9.1,3.1
							c-0.6,1.4-0.5,3-0.9,4.5c-0.4,1.5-1.3,3-2.8,3.2c-1.5,0.2-2.8-1.1-3.7-2.3c-3.1-4.3-4.8-9.4-6.4-14.4
							c-1.6-5.1-3-10.2-5.7-14.7c-2.7-4.5-6.8-8.5-11.9-9.6c-5.1-1.2-11.1,1.1-13.3,5.9c-2.2,4.8-0.1,10.5,2.4,15.2
							c3.7,6.9,8.5,13.3,14,18.8c1,1,2.1,2.1,2.3,3.5c0.4,2.5-2.3,4.5-4.8,4.9c-2.8,0.4-5.7-0.3-8.6-0.5c-2.9-0.1-6.1,0.6-7.6,3
							c-2.1,3.4,0.3,7.8,2.9,10.8c5.2,6.1,11.4,11.3,18.4,15.2c2.5,1.4,5.1,2.7,6.9,5c1.8,2.2,2.6,5.7,0.8,8
							c-1.7,2.3-5.2,2.6-7.9,1.6c-2.7-1-4.9-2.9-7.4-4.4c-4.6-2.7-11.1-3.5-15,0.3c-2.6,2.5-3.4,6.3-2.9,9.9
							c0.5,3.5,2.1,6.8,3.9,9.8c6.3,10.6,15.2,19.9,26,25.8C92.6,415.6,103.1,418.4,115.2,416.2"/>
					</g>
				</g>
			</g>
		</g>
		<g>
			<g>
				<g>
					<g>
						<g>
							<path class="st3" d="M111.9,401.7c-1.3-11.5-3.8-23.9-6.9-36.9c-0.8-3.2-1.5-6.4-2.3-9.6c-0.8-3.1-1.5-6.3-2.4-9.3
								c-1.8-6-4-11.7-6.3-16.9c-2.3-5.3-4.6-10.2-6.8-14.8c-2.2-4.6-4.4-8.8-6.5-12.6c-4.3-7.6-8.4-13.3-11.4-17.1
								c-1.5-1.9-2.7-3.3-3.5-4.3c-0.4-0.5-0.7-0.8-1-1.1c-0.2-0.2-0.3-0.4-0.3-0.4c0,0,0.1,0.1,0.3,0.4c0.2,0.3,0.5,0.7,0.9,1.1
								c0.8,1,2,2.5,3.4,4.4c2.9,3.8,7,9.6,11.2,17.2c2.1,3.8,4.2,8,6.5,12.6c2.2,4.6,4.5,9.5,6.8,14.8c2.3,5.3,4.4,10.9,6.3,16.9
								c0.9,3,1.7,6.1,2.4,9.2c0.8,3.1,1.5,6.3,2.3,9.6c3.1,12.9,5.6,25.4,6.9,36.8"/>
						</g>
					</g>
				</g>
			</g>
		</g>
		<g>
			<g>
				<g>
					<g>
						<g>
							<path class="st3" d="M100.1,345.9c0,0,0.3-0.5,0.6-1.5c0.4-1,0.8-2.4,1.4-4.1c1.1-3.5,2.5-8.4,4-13.8
								c1.5-5.4,2.9-10.2,4.1-13.7c0.6-1.7,1.1-3.1,1.4-4.1c0.3-1,0.5-1.5,0.5-1.5c0,0-0.3,0.5-0.7,1.4c-0.4,0.9-1,2.3-1.6,4
								c-1.3,3.4-2.8,8.3-4.3,13.7c-1.5,5.3-2.8,10.1-3.8,13.8c-0.5,1.7-0.9,3.1-1.2,4.2C100.2,345.3,100,345.9,100.1,345.9z"/>
						</g>
					</g>
				</g>
			</g>
		</g>
		<g>
			<g>
				<g>
					<g>
						<g>
							<path class="st3" d="M55.3,329.4c0,0,0.6,0.2,1.8,0.5c1.2,0.3,2.9,0.7,4.9,1.4c4.2,1.2,9.8,3,16,5.3
								c6.2,2.3,11.7,4.6,15.6,6.4c2,0.9,3.6,1.6,4.6,2.2c1.1,0.5,1.7,0.8,1.7,0.8c0,0-0.6-0.4-1.6-1c-1.1-0.6-2.6-1.4-4.6-2.4
								c-3.9-1.9-9.4-4.3-15.6-6.6c-6.2-2.3-11.9-4.1-16.1-5.1c-2.1-0.5-3.8-0.9-5-1.1C56,329.4,55.3,329.3,55.3,329.4z"/>
						</g>
					</g>
				</g>
			</g>
		</g>
		<g>
			<g>
				<g>
					<g>
						<g>
							<path class="st3" d="M111.5,400.7c0,0,0.2-0.2,0.4-0.5c0.3-0.4,0.6-0.9,1.1-1.5c0.9-1.3,2.2-3.3,3.8-5.8
								c3.1-4.9,7.2-11.8,11.7-19.6c4.4-7.7,8.5-14.7,11.5-19.6c1.5-2.4,2.7-4.4,3.6-5.9c0.4-0.6,0.7-1.2,1-1.6
								c0.2-0.4,0.3-0.6,0.3-0.6c0,0-0.2,0.2-0.4,0.5c-0.3,0.4-0.6,0.9-1.1,1.5c-0.9,1.3-2.2,3.3-3.8,5.8
								c-3.1,4.9-7.2,11.8-11.7,19.6c-4.4,7.7-8.5,14.7-11.5,19.6c-1.5,2.4-2.7,4.4-3.6,5.9c-0.4,0.6-0.7,1.2-1,1.6
								C111.6,400.5,111.5,400.7,111.5,400.7z"/>
						</g>
					</g>
				</g>
			</g>
		</g>
		<g>
			<g>
				<g>
					<g>
						<g>
							<path class="st3" d="M53.4,370.5c0,0,0.2,0.1,0.6,0.4c0.5,0.2,1,0.5,1.7,0.9c1.6,0.8,3.7,1.9,6.2,3.3
								c5.2,2.7,12.5,6.6,20.4,10.9c8,4.3,15.2,8.1,20.5,10.8c2.7,1.3,4.8,2.4,6.3,3.1c0.7,0.3,1.3,0.6,1.7,0.8
								c0.4,0.2,0.6,0.3,0.6,0.2c0,0-0.2-0.1-0.6-0.4c-0.5-0.2-1-0.5-1.7-0.9c-1.6-0.8-3.7-1.9-6.2-3.3c-5.3-2.7-12.5-6.6-20.4-10.9
								c-8-4.3-15.2-8.1-20.5-10.8c-2.7-1.3-4.8-2.4-6.3-3.1c-0.7-0.3-1.3-0.6-1.7-0.8C53.6,370.5,53.4,370.4,53.4,370.5z"/>
						</g>
					</g>
				</g>
			</g>
		</g>
	</g>
</g>
<g id="Background_Simple" class="st4">
	<path class="st5" d="M444.3,163c-16-39.5-46.6-74.7-87-88.1S267,74,243.9,109.8c-14,21.8-17,48.6-25.6,73
		c-5.5,15.6-14.1,31.1-28.7,38.9c-12.7,6.8-27.9,6.6-42.4,7c-34.9,0.9-72.7,7.7-96.3,33.4c-25.3,27.5-27.1,71.3-11.4,105.2
		c15.7,33.9,47.6,48.3,80.2,66.5l183.8,1.7C360,422.2,410,383.3,436.7,331.7C463.3,280.1,466.2,216.8,444.3,163z"/>
	<path class="st5" d="M174.6,96.3c-15.1-16.6-41.5-21.8-61.6-11.8c-11.2-2.5-29.9,19.3-35.3,29.4c-5.4,10.1-5.1,22.5-1.5,33.4
		c7,21.3,26.9,37.9,49.2,40.5c22.3,2.6,45.7-9.2,56.5-28.9S189.7,112.9,174.6,96.3z"/>
</g>
<g id="Floor">
	<g>
		<path class="st6" d="M464.7,435.5c0,0.1-97.9,0.3-218.7,0.3c-120.8,0-218.7-0.1-218.7-0.3c0-0.1,97.9-0.3,218.7-0.3
			C366.8,435.2,464.7,435.3,464.7,435.5z"/>
	</g>
</g>
<g id="Character">
	<g>
		<g>
			<g>
				<g>
					<path class="st7" d="M110.1,371.1l-20.2,31.3c0,0-38.6-10-42.9-4.5l59.4,41.3l33.4-47.5L110.1,371.1z"/>
					<path class="st8" d="M110.1,371.1l-20.2,31.3c0,0-38.6-10-42.9-4.5l59.4,41.3l33.4-47.5L110.1,371.1z"/>
					<g>
						<path class="st3" d="M110.1,412.7c0.9,1.1,0.8,3-0.2,3.9c-1.1,1-3,0.9-3.9-0.2c-0.9-1.1-0.9-3.3,0.3-4.2
							c1.2-0.8,3.4-0.6,4,0.7"/>
					</g>
					<path class="st3" d="M106.4,439.2l3.3-4.7l-58.3-37.9c0,0-3.4-0.7-4.4,1.4L106.4,439.2z"/>
					<g>
						<path class="st6" d="M89.2,401.5c-0.2,0.3,1.2,1.4,1.9,3.4c0.8,1.9,0.7,3.7,1,3.7c0.3,0.1,1.1-1.9,0.1-4.2
							C91.3,402.1,89.3,401.2,89.2,401.5z"/>
					</g>
					<g>
						<path class="st6" d="M81.2,399.8c-0.3,0.2,0.7,1.6,0.8,3.5c0.2,1.9-0.5,3.4-0.2,3.6c0.2,0.2,1.6-1.3,1.4-3.7
							C83,400.8,81.4,399.5,81.2,399.8z"/>
					</g>
					<g>
						<path class="st6" d="M72.4,404.8c0.2,0.2,1.6-0.9,2-3c0.4-2.1-0.6-3.7-0.8-3.5c-0.3,0.1,0,1.6-0.4,3.3
							C72.9,403.2,72.2,404.5,72.4,404.8z"/>
					</g>
					<g>
						<path class="st6" d="M94.6,394.9c-0.1,0.3,1.5,0.9,3.1,2.1c1.6,1.2,2.5,2.7,2.8,2.5c0.3-0.1-0.2-2-2-3.5
							C96.6,394.6,94.6,394.6,94.6,394.9z"/>
					</g>
				</g>
				<g>
					<path class="st6" d="M98.8,388.6c-0.1,0.1,0.9,1.1,3,2.1c1,0.5,2.3,0.9,3.8,1.2c0.7,0.1,1.5,0.2,2.3,0.3c0.4,0,0.8,0.1,1.4-0.1
						c0.5-0.1,1.2-0.7,1.2-1.5c0-0.7-0.4-1.2-0.8-1.5c-0.4-0.3-0.8-0.5-1.2-0.6c-0.8-0.3-1.5-0.5-2.3-0.7c-1.5-0.3-2.9-0.3-4-0.1
						c-2.3,0.3-3.5,1.1-3.4,1.2c0.1,0.2,1.4-0.3,3.5-0.3c1.1,0,2.3,0,3.7,0.3c0.7,0.2,1.4,0.4,2.1,0.7c0.7,0.3,1.3,0.6,1.2,1
						c0,0.1,0,0.2-0.3,0.3c-0.3,0.1-0.6,0.1-1,0.1c-0.8,0-1.5-0.1-2.2-0.2c-1.4-0.2-2.6-0.5-3.6-0.9
						C100,389.2,98.9,388.5,98.8,388.6z"/>
				</g>
				<g>
					<path class="st6" d="M98.8,389.3c0.1,0.1,1.4-0.5,2.8-2.3c0.7-0.9,1.4-2.1,1.9-3.5c0.2-0.7,0.4-1.5,0.5-2.3
						c0.1-0.8,0.2-1.9-0.9-2.8c-0.6-0.4-1.4-0.3-1.8,0c-0.5,0.3-0.8,0.6-1.1,0.9c-0.6,0.6-1.1,1.3-1.4,2c-0.7,1.4-0.9,2.8-0.9,4
						c0.1,2.3,1.1,3.5,1.2,3.5c0.2-0.1-0.4-1.3-0.3-3.4c0.1-1,0.3-2.3,1-3.4c0.3-0.6,0.7-1.2,1.2-1.7c0.5-0.6,1.1-0.9,1.3-0.7
						c0.3,0.2,0.5,1,0.4,1.7c-0.1,0.7-0.2,1.5-0.4,2.1c-0.4,1.3-0.9,2.5-1.5,3.4C99.8,388.3,98.7,389.2,98.8,389.3z"/>
				</g>
			</g>
		</g>
		<g>
			<g>
				<g>
					<path class="st7" d="M116.3,400.1l-20.2,31.3c0,0-38.6-10-42.9-4.5l59.4,41.3l33.4-47.5L116.3,400.1z"/>
					<g>
						<path class="st3" d="M116.3,441.6c0.9,1.1,0.8,3-0.2,3.9c-1.1,1-3,0.9-3.9-0.2c-0.9-1.1-0.9-3.3,0.3-4.2
							c1.2-0.8,3.4-0.6,4,0.7"/>
					</g>
					<path class="st3" d="M112.6,468.2l3.3-4.7l-58.3-37.9c0,0-3.4-0.7-4.4,1.4L112.6,468.2z"/>
					<g>
						<path class="st6" d="M95.4,430.5c-0.2,0.3,1.2,1.4,1.9,3.4c0.8,1.9,0.7,3.7,1,3.7c0.3,0.1,1.1-1.9,0.1-4.2
							C97.5,431,95.5,430.1,95.4,430.5z"/>
					</g>
					<g>
						<path class="st6" d="M87.4,428.7c-0.3,0.2,0.7,1.6,0.8,3.5c0.2,1.9-0.5,3.4-0.2,3.6c0.2,0.2,1.6-1.3,1.4-3.7
							C89.2,429.7,87.6,428.4,87.4,428.7z"/>
					</g>
					<g>
						<path class="st6" d="M78.7,433.7c0.2,0.2,1.6-0.9,2-3c0.4-2.1-0.6-3.7-0.8-3.5c-0.3,0.1,0,1.6-0.4,3.3
							C79.2,432.2,78.4,433.5,78.7,433.7z"/>
					</g>
					<g>
						<path class="st6" d="M100.8,423.8c-0.1,0.3,1.5,0.9,3.1,2.1c1.6,1.2,2.5,2.7,2.8,2.5c0.3-0.1-0.2-2-2-3.5
							C102.8,423.5,100.8,423.5,100.8,423.8z"/>
					</g>
				</g>
				<g>
					<path class="st6" d="M105,417.6c-0.1,0.1,0.9,1.1,3,2.1c1,0.5,2.3,0.9,3.8,1.2c0.7,0.1,1.5,0.2,2.3,0.3c0.4,0,0.8,0.1,1.4-0.1
						c0.5-0.1,1.2-0.7,1.2-1.5c0-0.7-0.4-1.2-0.8-1.5c-0.4-0.3-0.8-0.5-1.2-0.6c-0.8-0.3-1.5-0.5-2.3-0.7c-1.5-0.3-2.9-0.3-4-0.1
						c-2.3,0.3-3.5,1.1-3.4,1.2c0.1,0.2,1.4-0.3,3.5-0.3c1.1,0,2.3,0,3.7,0.3c0.7,0.2,1.4,0.4,2.1,0.7c0.7,0.3,1.3,0.6,1.2,1
						c0,0.1,0,0.2-0.3,0.3c-0.3,0.1-0.6,0.1-1,0.1c-0.8,0-1.5-0.1-2.2-0.2c-1.4-0.2-2.6-0.5-3.6-0.9
						C106.3,418.1,105.1,417.4,105,417.6z"/>
				</g>
				<g>
					<path class="st6" d="M105.1,418.2c0.1,0.1,1.4-0.5,2.8-2.3c0.7-0.9,1.4-2.1,1.9-3.5c0.2-0.7,0.4-1.5,0.5-2.3
						c0.1-0.8,0.2-1.9-0.9-2.8c-0.6-0.4-1.4-0.3-1.8,0c-0.5,0.3-0.8,0.6-1.1,0.9c-0.6,0.6-1.1,1.3-1.4,2c-0.7,1.4-0.9,2.8-0.9,4
						c0.1,2.3,1.1,3.5,1.2,3.5c0.2-0.1-0.4-1.3-0.3-3.4c0.1-1,0.3-2.3,1-3.4c0.3-0.6,0.7-1.2,1.2-1.7c0.5-0.6,1.1-0.9,1.3-0.7
						c0.3,0.2,0.5,1,0.4,1.7c-0.1,0.7-0.2,1.5-0.4,2.1c-0.4,1.3-0.9,2.5-1.5,3.4C106,417.2,104.9,418.1,105.1,418.2z"/>
				</g>
			</g>
		</g>
		<g>
			<path class="st6" d="M107.8,406.4c0,0,17.4-32.6,15-29.3c-6.4,8.8,31.3-44.8,48.4-72.3c5.5-8.8,14.7-14.7,25.1-15.9v0
				c10.5-1.2,20.9,2.5,28.3,10.1l97.2,99.7l45.2,26.3c0,0-11.1,23.7-47,28.7c-35.8,5-57.9-24.1-76-42.5
				c-21.3-21.8-42.6-51.1-42.6-51.1l-56.6,74.7C144.7,434.9,109.6,408.6,107.8,406.4z"/>
			<path class="st6" d="M177.5,294.8L177.5,294.8c-13.2,3.2-24.9,11-32.9,22.1l-49.9,68.6l24.1,16.5L177.5,294.8z"/>
			<g>
				<path class="st9" d="M169.2,302.6c0,0-0.1,0.1-0.2,0.3c-0.2,0.2-0.3,0.4-0.6,0.7c-0.3,0.3-0.6,0.7-1,1.1c-0.4,0.4-0.8,1-1.2,1.6
					c-1.9,2.4-4.3,6.1-7.2,10.7c-5.8,9.3-13.3,22.3-21.5,36.8c-8.1,14.5-15.5,27.7-20.9,37.2c-2.7,4.7-4.9,8.6-6.4,11.3
					c-0.8,1.3-1.3,2.3-1.8,3c-0.2,0.3-0.3,0.6-0.5,0.8c-0.1,0.2-0.2,0.3-0.2,0.3c0,0,0-0.1,0.1-0.3c0.1-0.2,0.2-0.5,0.4-0.8
					c0.4-0.7,1-1.8,1.7-3.1c1.5-2.7,3.6-6.6,6.2-11.3c5.3-9.6,12.6-22.8,20.8-37.3c8.2-14.5,15.8-27.6,21.6-36.8
					c3-4.6,5.4-8.3,7.3-10.7c0.5-0.6,0.9-1.2,1.3-1.6c0.4-0.4,0.7-0.8,1-1.1c0.3-0.3,0.5-0.5,0.6-0.7
					C169.1,302.7,169.2,302.6,169.2,302.6z"/>
			</g>
			<g>
				<path class="st9" d="M199.9,341.9c0.1,0,0.1,1.1,0.1,2.8c0,1.7,0.1,4,0.4,6.6c0.3,2.6,0.7,4.9,1.1,6.5c0.4,1.7,0.6,2.7,0.6,2.7
					c-0.1,0-0.5-1-0.9-2.6c-0.5-1.6-1-4-1.3-6.6c-0.3-2.6-0.3-5-0.2-6.7C199.7,342.9,199.8,341.9,199.9,341.9z"/>
			</g>
			<g>
				<path class="st9" d="M206.5,339.8c0.1,0-0.3,1.1-0.8,2.9c-0.5,1.8-1.2,4.3-1.9,7.1c-0.6,2.8-1,5.3-1.3,7.2c-0.3,1.9-0.4,3-0.5,3
					c-0.1,0-0.1-1.2,0.1-3c0.2-1.9,0.5-4.5,1.1-7.3c0.6-2.8,1.4-5.3,2-7.1C206,340.8,206.5,339.8,206.5,339.8z"/>
			</g>
		</g>
		<g>
			<g>
				<g>
					<g>
						<g>
							<g>
								<g>
									<g>
										<g>
											<g>
												<g>
													<g>
														<g>
															<g>
																<g>
																	<g>
																		<g>
																			<path class="st10" d="M272.1,170.5l26,60.8c4.4,10.3-0.7,22.3-11.2,26.2l0,0c-9.8,3.6-20.8-1.1-24.9-10.7
																				c-2-4.6-3.6-8.4-3.8-8.8c0,0-16.1,5.2-23.8-9.7c-3.7-7.2-10.1-22.5-15.8-36.5c-6.1-15,0.4-32.2,14.9-39.5
																				l1.4-0.7C250.9,144.6,265.7,154.3,272.1,170.5z"/>
																		</g>
																	</g>
																</g>
															</g>
														</g>
													</g>
												</g>
											</g>
										</g>
										<g>
											<g>
												<g>
													<g>
														<g>
															<g>
																<g>
																	<g>
																		<g>
																			<path class="st11" d="M258,237.6c0,0,9.8-4,16.7-15.3c0,0,0.8,13-14.8,19.2L258,237.6z"/>
																		</g>
																	</g>
																</g>
															</g>
														</g>
													</g>
												</g>
											</g>
										</g>
									</g>
								</g>
							</g>
							<g>
								<g>
									<g>
										<g>
											<g>
												<g>
													<g>
														<g>
															<g>
																<g>
																	<g>
																		<g>
																			<g>
																				<g>
																					<g>
																						<path class="st6" d="M227.8,200.8c0.5,1.1,1.9,1.6,3.1,1.1c1.2-0.5,1.8-1.9,1.2-3c-0.5-1.1-1.9-1.6-3.1-1.1
																							C227.8,198.3,227.3,199.7,227.8,200.8z"/>
																					</g>
																				</g>
																			</g>
																		</g>
																	</g>
																</g>
															</g>
														</g>
													</g>
													<g>
														<g>
															<g>
																<g>
																	<g>
																		<g>
																			<g>
																				<g>
																					<g>
																						<g>
																							<path class="st6" d="M224.9,198c0.4,0.1,1.4-1.9,3.7-3c2.3-1.2,4.6-0.8,4.7-1.2c0.1-0.2-0.5-0.6-1.5-0.7
																								c-1-0.2-2.5-0.1-3.9,0.7c-1.4,0.7-2.4,1.9-2.8,2.7C224.6,197.3,224.7,197.9,224.9,198z"/>
																						</g>
																					</g>
																				</g>
																			</g>
																		</g>
																	</g>
																</g>
															</g>
														</g>
													</g>
												</g>
												<g>
													<g>
														<g>
															<g>
																<g>
																	<g>
																		<g>
																			<g>
																				<g>
																					<g>
																						<path class="st6" d="M250.3,189.9c0.5,1.1,1.9,1.6,3.1,1.1c1.2-0.5,1.8-1.9,1.2-3c-0.5-1.1-1.9-1.6-3.1-1.1
																							C250.3,187.4,249.7,188.8,250.3,189.9z"/>
																					</g>
																				</g>
																			</g>
																		</g>
																	</g>
																</g>
															</g>
														</g>
													</g>
													<g>
														<g>
															<g>
																<g>
																	<g>
																		<g>
																			<g>
																				<g>
																					<g>
																						<g>
																							<path class="st6" d="M248.1,186.7c0.4,0.2,1.7-1.7,4.1-2.5c2.4-0.9,4.6-0.2,4.8-0.6c0.1-0.2-0.4-0.6-1.4-0.9
																								c-1-0.3-2.4-0.4-4,0.1c-1.5,0.5-2.6,1.5-3.1,2.4C247.9,186,247.9,186.6,248.1,186.7z"/>
																						</g>
																					</g>
																				</g>
																			</g>
																		</g>
																	</g>
																</g>
															</g>
														</g>
													</g>
												</g>
												<g>
													<g>
														<g>
															<g>
																<g>
																	<g>
																		<g>
																			<g>
																				<g>
																					<g>
																						<path class="st6" d="M248.5,207.7c-0.1-0.1-1.6,0.3-4.1,1.2c-0.6,0.2-1.2,0.4-1.5,0c-0.4-0.4-0.4-1.1-0.5-1.9
																							c-0.2-1.7-0.3-3.5-0.5-5.3c-0.8-7.6-1.7-13.6-2-13.6c-0.3,0,0.1,6.2,0.9,13.7c0.2,1.9,0.4,3.6,0.6,5.3
																							c0.1,0.8,0.1,1.7,0.8,2.5c0.4,0.4,1,0.5,1.4,0.4c0.4-0.1,0.8-0.2,1.1-0.4
																							C247.1,208.5,248.5,207.8,248.5,207.7z"/>
																					</g>
																				</g>
																			</g>
																		</g>
																	</g>
																</g>
															</g>
														</g>
													</g>
												</g>
											</g>
										</g>
									</g>
									<g>
										<g>
											<g>
												<g>
													<g>
														<g>
															<g>
																<g>
																	<g>
																		<path class="st6" d="M256.9,177.7c-0.4-0.6-2.8,0.1-5.9,0.2c-3,0.2-5.6-0.3-5.9,0.4c-0.1,0.3,0.4,0.9,1.5,1.4
																			c1.1,0.5,2.7,0.9,4.5,0.8c1.8-0.1,3.4-0.6,4.4-1.3C256.6,178.7,257,178,256.9,177.7z"/>
																	</g>
																</g>
															</g>
														</g>
													</g>
												</g>
											</g>
										</g>
									</g>
									<g>
										<g>
											<g>
												<g>
													<g>
														<g>
															<g>
																<g>
																	<g>
																		<path class="st6" d="M228.2,189.6c-0.7-0.2-1.8,1.2-3.6,2.4c-1.7,1.3-3.5,1.8-3.5,2.6c0,0.3,0.6,0.7,1.5,0.7
																			c0.9,0,2.3-0.3,3.5-1.2c1.2-0.8,2-2,2.2-2.9C228.7,190.4,228.6,189.7,228.2,189.6z"/>
																	</g>
																</g>
															</g>
														</g>
													</g>
												</g>
											</g>
										</g>
									</g>
								</g>
							</g>
							<g>
								<g>
									<g>
										<g>
											<g>
												<g>
													<g>
														<g>
															<g>
																<g>
																	<path class="st10" d="M276.5,182.2c0.2-0.2,8.7-8.2,13.5,2.2c4.8,10.4-6.6,13-6.8,12.7
																		C283.1,196.8,276.5,182.2,276.5,182.2z"/>
																</g>
															</g>
														</g>
													</g>
												</g>
											</g>
										</g>
									</g>
								</g>
								<g>
									<g>
										<g>
											<g>
												<g>
													<g>
														<g>
															<g>
																<g>
																	<g>
																		<path class="st11" d="M284.6,191.7c0-0.1,0.2,0,0.6,0c0.4,0,0.9-0.1,1.4-0.6c0.9-0.9,1-3.1,0.2-5
																			c-0.4-1-1-1.8-1.7-2.4c-0.7-0.6-1.4-0.9-2-0.8c-0.6,0.1-0.8,0.6-0.8,1c0,0.4,0.2,0.5,0.1,0.6c0,0-0.3-0.1-0.4-0.5
																			c-0.1-0.2,0-0.5,0.1-0.8c0.2-0.3,0.5-0.6,0.9-0.7c0.8-0.3,1.9,0.1,2.6,0.7c0.8,0.6,1.5,1.5,2,2.6
																			c0.9,2.1,0.7,4.6-0.6,5.7c-0.6,0.5-1.4,0.6-1.8,0.5C284.7,191.9,284.6,191.7,284.6,191.7z"/>
																	</g>
																</g>
															</g>
														</g>
													</g>
												</g>
											</g>
										</g>
									</g>
								</g>
							</g>
						</g>
					</g>
					<g>
						<g>
							<g>
								<g>
									<g>
										<path class="st6" d="M282,179c-1.7,0.4-3.7,3.2-3.6,5c0.1,1.8,0.7,3.5,0.8,5.3c0.1,1.8-0.8,3.9-2.5,4.3
											c-1.2,0.3-2.5-0.3-3.3-1.3c-0.8-0.9-1.3-2.1-1.7-3.3c-1.8-5.1-3.2-10.3-5.4-15.2c-2.2-4.9-5.4-9.5-10-12.4
											c-4.6-2.8-10.7-3.5-15.3-0.7c-3,1.8-5.1,5-8,7c-3.5,2.4-8.1,3.1-12.1,1.7c-0.1,0-0.4-0.1-0.7-0.1
											c-1.4-0.2-2.5-1.3-2.6-2.7c0-0.5,0-0.9,0.1-1.3c3.3-8.9,13.8-16.2,23.1-18.2c9.3-2.1,20-0.1,27.4,5.8
											C275.7,158.9,280,170.1,282,179"/>
									</g>
								</g>
							</g>
						</g>
					</g>
				</g>
			</g>
			<g>
				<path class="st6" d="M256.9,210.5c0,0.2-0.6,0.2-1.3,0.3c-0.8,0.1-1.8,0.5-2.8,1.2c-1,0.7-1.7,1.5-2.1,2.2
					c-0.4,0.7-0.7,1.1-0.8,1.1c-0.1,0-0.2-0.6,0.2-1.4c0.3-0.8,1-1.9,2.2-2.7c1.1-0.8,2.4-1.1,3.3-1
					C256.4,210.1,256.9,210.4,256.9,210.5z"/>
			</g>
			<g>
				<path class="st11" d="M258.7,188.4c0.1,0-0.1,1.3-1.2,2.3c-1.1,1-2.5,1.1-2.4,1c0-0.1,1.1-0.4,2.1-1.4
					C258.2,189.5,258.6,188.4,258.7,188.4z"/>
			</g>
		</g>
		<g>
			<g>
				<path class="st10" d="M175.6,206.9l15.8-28.9l13-10.5l16.8,2.3c0,0,4.8,5.5,3,8.2c-1.9,2.7-3.5,9.5-5.4,7.1
					c-1.9-2.5-2.3-7.7-2.3-7.7l-4.4-0.2l0,7.8l8.9,2.7c0,0,8.8-7.3,9.7-5.7c0.9,1.6,0.1,4.6-4.9,8.9c-5,4.3-11.2,10.9-11.2,10.9
					l-7.9,1.9l-7.1,11.4L175.6,206.9z"/>
				<g>
					<path class="st7" d="M264.7,244l-82.9,25.2l19.4-55.3l-26.3-8.2L145,267c-9,21.2-6.6,30.6,1.8,39.9l0,0
						c6.7,7.4,24.5,3.8,34.3,1.9l72.5-11.3L264.7,244z"/>
					<path class="st12" d="M264.7,244l-82.9,25.2l19.4-55.3l-26.3-8.2L145,267c-9,21.2-6.6,30.6,1.8,39.9l0,0
						c6.7,7.4,24.5,3.8,34.3,1.9l72.2-11.3L264.7,244z"/>
				</g>
			</g>
			<g>
				<path class="st2" d="M166.7,238.6c0,0.1-1.7,0.1-3.7-0.1c-2-0.2-3.7-0.5-3.7-0.7c0-0.1,1.7-0.1,3.7,0.1
					C165.1,238.2,166.7,238.5,166.7,238.6z"/>
			</g>
			<g>
				<path class="st2" d="M168,235.7c0,0.1-1.6-0.2-3.4-0.7c-1.9-0.5-3.3-1.1-3.3-1.2c0-0.1,1.6,0.2,3.4,0.7
					C166.6,235,168,235.6,168,235.7z"/>
			</g>
		</g>
		<g>
			<path class="st7" d="M249.2,290.6c0,0,33.4,53.9,33.2,61.9c-0.2,8,15.5,25.6,22.4,32.5c6.9,6.9,46.9,40,62.1,40
				c0,0,19.6-28.3,18.2-44.9c-1.4-16.6-32.2-104.2-32.2-104.2s-23.9-50.2-46-55.1c-5.6-1.2-14.6-3.2-14.6-3.2
				c0,0.4,1.3,11.4-9.8,18.2c-15.6,9.5-34.1,16.3-34.1,16.3L249.2,290.6z"/>
			<path class="st7" d="M288.1,236.8l-50,14.4l-43.6,9.1l19.4-55.3l-27.8-8.7l-28.5,61.9c-9,21.2-6.6,30.6,1.8,39.9l0,0
				c6.7,7.4,24.5,3.8,34.3,1.9l85.1-8L288.1,236.8z"/>
			<path class="st10" d="M188.2,196.8l15.1-27.6l13-10.5l16.8,2.3c0,0,4.8,5.5,3,8.2c-1.9,2.7-3.5,9.5-5.4,7.1
				c-1.9-2.5-2.3-7.7-2.3-7.7l-4.4-0.2l0,7.8l8.9,2.7c0,0,8.8-7.3,9.7-5.7c0.9,1.6,0.1,4.6-4.9,8.9s-11.2,10.9-11.2,10.9l-7.9,1.9
				l-6.2,9.9L188.2,196.8z"/>
			<g>
				<path class="st11" d="M212.4,204.6c0,0,0-0.1,0.1-0.2c0.1-0.1,0.2-0.3,0.3-0.5c0.3-0.5,0.7-1.1,1.2-1.9c1.1-1.7,2.6-4.2,4.5-7.3
					l0,0l0.1,0c2.3-0.6,5-1.2,7.9-1.9l-0.1,0c3.3-3.6,7.3-7.7,12.2-11.8c1.2-1.1,2.3-2.3,3.2-3.7c0.4-0.7,0.8-1.5,0.9-2.3
					c0.1-0.4,0.1-0.8,0-1.2c0-0.2-0.1-0.4-0.2-0.5c0-0.1-0.2-0.1-0.4-0.1c-0.8,0.1-1.6,0.6-2.3,1c-0.8,0.5-1.5,1-2.2,1.5
					c-1.5,1.1-2.9,2.2-4.4,3.4l-0.1,0.1l-0.1,0c-2.8-0.9-5.8-1.8-8.9-2.7l-0.2-0.1l0-0.2c0-2.5,0-5.1,0-7.8l0-0.3l0.3,0
					c1.4,0.1,2.9,0.2,4.4,0.2l0.2,0l0,0.2c0.2,2.1,0.6,4.3,1.5,6.3c0.2,0.4,0.4,0.8,0.6,1.1c0.2,0.4,0.5,0.6,0.8,0.6
					c0.3,0,0.6-0.4,0.8-0.7c0.2-0.3,0.5-0.7,0.7-1.1c0.8-1.6,1.4-3.2,2.3-4.8c0.1-0.2,0.2-0.4,0.3-0.6c0.1-0.2,0.2-0.4,0.3-0.5
					c0-0.1,0.1-0.2,0.1-0.3l0.1-0.3c0.1-0.2,0.1-0.4,0.1-0.6c0-0.8-0.3-1.6-0.6-2.4c-0.7-1.5-1.7-2.9-2.7-4.2l0.2,0.1
					c-5.9-0.8-11.5-1.6-16.8-2.3l0.2,0c-4.7,3.8-9.1,7.3-13,10.4l0.1-0.1c-4.7,8.4-8.5,15.3-11.1,20.1c-1.3,2.4-2.3,4.2-3.1,5.5
					c-0.3,0.6-0.6,1.1-0.8,1.4c-0.2,0.3-0.3,0.5-0.3,0.5s0.1-0.2,0.2-0.5c0.2-0.3,0.4-0.8,0.8-1.5c0.7-1.3,1.7-3.2,3-5.5
					c2.6-4.8,6.4-11.7,10.9-20.2l0,0l0,0c3.9-3.2,8.3-6.7,13-10.5l0.1-0.1l0.1,0c5.3,0.7,10.9,1.5,16.8,2.3l0.1,0l0.1,0.1
					c1.1,1.3,2.1,2.7,2.8,4.3c0.3,0.8,0.6,1.7,0.6,2.6c0,0.2,0,0.5-0.1,0.7l-0.1,0.3c0,0.1-0.1,0.2-0.2,0.3
					c-0.1,0.2-0.2,0.4-0.3,0.6c-0.1,0.2-0.2,0.4-0.3,0.6c-0.8,1.5-1.4,3.2-2.3,4.8c-0.2,0.4-0.4,0.8-0.7,1.2
					c-0.3,0.4-0.6,0.8-1.2,0.9c-0.3,0.1-0.6-0.1-0.8-0.2c-0.2-0.2-0.4-0.4-0.5-0.6c-0.3-0.4-0.5-0.8-0.7-1.2
					c-0.9-2.1-1.3-4.4-1.5-6.5l0.2,0.2c-1.5-0.1-3-0.2-4.4-0.2l0.3-0.3c0,2.7,0,5.3,0,7.8l-0.2-0.2c3.1,0.9,6.1,1.9,8.9,2.7l-0.2,0
					c1.5-1.2,2.9-2.3,4.4-3.4c0.7-0.5,1.5-1,2.3-1.5c0.8-0.4,1.5-0.9,2.5-1.1c0.2,0,0.6,0,0.8,0.3c0.1,0.2,0.2,0.4,0.3,0.7
					c0.1,0.5,0.1,0.9,0,1.4c-0.1,0.9-0.5,1.7-1,2.4c-0.9,1.5-2.1,2.7-3.3,3.7c-4.9,4.1-8.9,8.2-12.2,11.7l0,0l0,0
					c-3,0.7-5.6,1.3-7.9,1.8l0.1-0.1c-2,3.1-3.5,5.6-4.6,7.3c-0.5,0.8-0.9,1.4-1.2,1.9c-0.1,0.2-0.2,0.4-0.3,0.5
					C212.4,204.6,212.4,204.6,212.4,204.6z"/>
			</g>
			<g>
				<path class="st6" d="M283.5,304.7c0,0-0.5-0.3-1.2-0.8c-0.4-0.3-0.8-0.6-1.4-1c-0.6-0.4-1.2-0.8-1.9-1.2
					c-1.4-0.9-3.2-1.8-5.2-2.7c-2-0.9-4.3-1.7-6.8-2.3c-4.9-1.3-9.6-1.6-12.9-1.6c-1.7,0-3,0-4,0c-0.9,0-1.5,0-1.5,0
					s0.5-0.1,1.4-0.2c0.9-0.1,2.3-0.2,4-0.2c3.4,0,8,0.2,13,1.5c2.5,0.6,4.8,1.5,6.8,2.4c2,0.9,3.8,1.9,5.2,2.8
					c0.7,0.4,1.3,0.9,1.9,1.3c0.5,0.4,1,0.7,1.3,1.1C283.1,304.3,283.5,304.7,283.5,304.7z"/>
			</g>
			<g>
				<path class="st6" d="M278,239.4c0,0-0.5,0.2-1.5,0.6c-1.1,0.3-2.5,0.8-4.1,1.3c-3.5,1.1-8.4,2.6-13.7,4.1
					c-5.4,1.6-10.2,3-13.8,4c-1.7,0.5-3.1,0.9-4.2,1.2c-1,0.3-1.6,0.4-1.6,0.4s0.5-0.2,1.5-0.5c1.1-0.3,2.5-0.8,4.1-1.3
					c3.5-1.1,8.4-2.6,13.7-4.1c5.4-1.6,10.2-3,13.8-4c1.7-0.5,3.1-0.9,4.2-1.2C277.4,239.5,278,239.4,278,239.4z"/>
			</g>
			<g>
				<path class="st6" d="M356.8,383c0,0-0.2,0.2-0.5,0.6c-0.2,0.2-0.4,0.4-0.7,0.7c-0.3,0.3-0.6,0.6-1,0.9c-1.6,1.3-4.2,2.8-7.7,3.7
					c-3.5,0.9-8,1.1-12.7,0.1c-4.7-1-9.5-3.4-14.1-6.5c-4.6-3.1-8.5-6.6-12.1-9.7c-3.6-3.2-6.8-6-9.7-8.1c-2.9-2.2-5.3-3.7-7.1-4.7
					c-0.9-0.5-1.6-0.9-2-1.1c-0.5-0.2-0.7-0.4-0.7-0.4c0,0,0.3,0.1,0.8,0.3c0.5,0.2,1.2,0.6,2.1,1c1.8,0.9,4.3,2.5,7.2,4.6
					c2.9,2.1,6.2,4.9,9.8,8.1c3.6,3.1,7.6,6.6,12.1,9.7c4.5,3.1,9.3,5.4,13.9,6.4c4.6,1,9,0.9,12.5,0c3.5-0.8,6.1-2.3,7.7-3.5
					c0.4-0.3,0.7-0.6,1-0.8c0.3-0.2,0.5-0.5,0.7-0.7C356.6,383.1,356.8,383,356.8,383z"/>
			</g>
			<g>
				<path class="st6" d="M337.9,326.2c0,0-0.4,0.1-1,0.1c-0.6,0-1.6,0-2.7-0.1c-1.1-0.1-2.5-0.3-4-0.7c-1.5-0.4-3-0.9-4.6-1.7
					c-1.6-0.8-3-1.6-4.3-2.5c-1.2-0.9-2.3-1.8-3.1-2.6c-0.8-0.8-1.4-1.5-1.8-2c-0.4-0.5-0.6-0.8-0.6-0.8c0.1-0.1,1,1,2.6,2.6
					c0.8,0.8,1.9,1.6,3.1,2.5c1.2,0.8,2.6,1.7,4.2,2.4c1.6,0.7,3.1,1.3,4.5,1.7c1.4,0.4,2.8,0.7,3.9,0.8
					C336.5,326.1,337.9,326.1,337.9,326.2z"/>
			</g>
			<g class="st13">
				<path d="M299.8,365.2c4.1-1.7,8.8-0.4,12.5,2c3.7,2.4,6.7,5.7,10,8.5c3.3,2.9,7.3,5.4,11.7,5.5c6.3,0.2,12-4.5,18.4-4.5
					c2.4,0,5.2,1.3,5.3,3.6c0.1,1.8-1.4,3.3-3,4.3c-6.9,4.5-11.5,7.6-26.5,1.8C317.7,380.9,308.3,373.7,299.8,365.2z"/>
			</g>
			<g>
				<path class="st6" d="M283.2,352.4c-0.1,0.1-7.2-12.8-15.9-28.7c-8.7-15.9-15.6-28.9-15.4-28.9c0.1-0.1,7.2,12.8,15.9,28.7
					C276.4,339.4,283.4,352.3,283.2,352.4z"/>
			</g>
			<g>
				<path class="st2" d="M235.2,295.8c0,0-0.3-0.5-0.7-1.5c-0.4-1-1-2.4-1.7-4.3c-1.3-3.6-3-8.7-4.3-14.4c-1.4-5.7-2.2-11-2.6-14.8
					c-0.2-1.9-0.4-3.5-0.4-4.5c-0.1-1.1-0.1-1.7-0.1-1.7c0,0,0.1,0.6,0.3,1.7c0.1,1.1,0.3,2.6,0.6,4.5c0.5,3.8,1.4,9.1,2.8,14.8
					c1.4,5.7,2.9,10.8,4.2,14.4c0.6,1.8,1.1,3.3,1.5,4.3C235.1,295.2,235.3,295.7,235.2,295.8z"/>
			</g>
			<g>
				<path class="st2" d="M241.1,295.7c0,0-0.3-0.6-0.7-1.6c-0.4-1-1-2.6-1.6-4.5c-1.3-3.8-2.8-9.1-4-15.1c-1.2-6-2-11.5-2.3-15.5
					c-0.2-2-0.3-3.6-0.3-4.7c0-1.1-0.1-1.7,0-1.7c0,0,0.1,0.6,0.2,1.7c0.1,1.1,0.3,2.7,0.5,4.7c0.4,4,1.2,9.4,2.4,15.4
					c1.2,6,2.7,11.3,3.9,15.1c0.6,1.9,1.1,3.4,1.4,4.5C240.9,295.1,241.1,295.7,241.1,295.7z"/>
			</g>
			<g>
				<path class="st2" d="M316,316.9c0,0-0.2,0.1-0.5,0.2c-0.4,0.1-0.8,0.2-1.4,0.3c-1.2,0.3-3,0.7-5.2,1.1
					c-4.4,0.8-10.5,1.8-17.3,2.3c-6.8,0.5-13,0.6-17.5,0.4c-2.2-0.1-4-0.2-5.3-0.3c-0.6-0.1-1-0.1-1.4-0.1c-0.3,0-0.5-0.1-0.5-0.1
					c0,0,0.2,0,0.5,0c0.4,0,0.9,0,1.4,0c1.2,0,3.1,0.1,5.3,0.1c4.5,0.1,10.6,0,17.4-0.6c6.8-0.5,12.9-1.4,17.3-2.1
					c2.2-0.4,4-0.7,5.2-0.9c0.6-0.1,1-0.2,1.4-0.3C315.9,316.9,316,316.9,316,316.9z"/>
			</g>
			<g>
				<path class="st2" d="M358.3,300.1c0,0-0.4,0.4-1.3,1c-0.8,0.7-2.1,1.6-3.7,2.6c-3.2,2.1-7.7,4.9-12.9,7.5
					c-5.2,2.6-10.2,4.4-13.8,5.6c-1.8,0.6-3.3,1-4.3,1.3c-1,0.3-1.6,0.4-1.6,0.4c0,0,0.5-0.2,1.6-0.6c1-0.3,2.5-0.8,4.3-1.5
					c3.6-1.3,8.5-3.2,13.7-5.7c5.2-2.6,9.8-5.2,13-7.3c1.6-1,2.9-1.9,3.8-2.5C357.7,300.4,358.2,300.1,358.3,300.1z"/>
			</g>
			<g>
				<path class="st2" d="M357.4,291.3c0,0-0.1,0.1-0.2,0.2c-0.2,0.1-0.4,0.3-0.6,0.4c-0.6,0.4-1.4,1-2.3,1.7
					c-0.5,0.4-1.1,0.8-1.7,1.2c-0.6,0.4-1.3,0.9-2.1,1.3c-1.5,0.9-3.2,2.1-5.2,3.1c-1,0.6-2,1.1-3.1,1.7c-1.1,0.6-2.2,1.1-3.4,1.7
					c-2.3,1.2-4.9,2.3-7.7,3.5c-5.5,2.3-11.7,4.4-18.3,6.1c-6.7,1.7-13.1,2.7-19,3.3c-3,0.2-5.8,0.5-8.4,0.5c-1.3,0-2.6,0.1-3.8,0.1
					c-1.2,0-2.4,0-3.5-0.1c-2.2,0-4.3-0.2-6-0.3c-0.9-0.1-1.7-0.1-2.5-0.2c-0.8-0.1-1.4-0.2-2.1-0.3c-1.2-0.2-2.2-0.3-2.9-0.4
					c-0.3,0-0.5-0.1-0.7-0.1c-0.2,0-0.3,0-0.3-0.1c0,0,0.1,0,0.3,0c0.2,0,0.4,0,0.7,0.1c0.7,0.1,1.7,0.2,2.9,0.3
					c0.6,0.1,1.3,0.1,2.1,0.2c0.8,0.1,1.6,0.1,2.5,0.1c1.8,0.1,3.8,0.3,6,0.2c1.1,0,2.3,0,3.5,0c1.2,0,2.5-0.1,3.8-0.1
					c2.6,0,5.4-0.3,8.4-0.6c5.9-0.6,12.3-1.7,18.9-3.3c6.6-1.7,12.8-3.8,18.2-6.1c2.7-1.2,5.3-2.3,7.6-3.5c1.2-0.6,2.3-1.1,3.4-1.7
					c1.1-0.6,2.1-1.2,3.1-1.7c2-1,3.7-2.2,5.2-3.1c0.8-0.5,1.5-0.9,2.1-1.3c0.6-0.4,1.2-0.8,1.7-1.2c1-0.7,1.8-1.2,2.4-1.6
					c0.3-0.2,0.5-0.3,0.6-0.4C357.3,291.3,357.4,291.3,357.4,291.3z"/>
			</g>
			<g>
				<path class="st2" d="M206.6,225.6c0,0.1-6.8-1.7-15-4.1c-8.3-2.4-14.9-4.5-14.9-4.6c0-0.1,6.8,1.7,15,4.1
					C200,223.4,206.7,225.5,206.6,225.6z"/>
			</g>
			<g>
				<path class="st2" d="M205.3,229.4c0,0.1-6.9-1.7-15.3-4.2c-8.4-2.4-15.1-4.5-15.1-4.7c0-0.1,6.9,1.7,15.3,4.2
					C198.6,227.2,205.4,229.3,205.3,229.4z"/>
			</g>
			<g class="st8">
				<path d="M291.6,321.3c-0.4-8.8-6.4-16.8-14.1-21.1c-7.7-4.4-16.6-5.6-25.5-5.1l22.5,39c2.8,0.1,5,0.1,7.7-0.4
					c2.8-0.6,5.5-1.9,7.2-4.2C291.2,327.2,291.7,324.2,291.6,321.3z"/>
			</g>
		</g>
	</g>
</g>
<g id="Plant">
	<g>
		<g>
			<g>
				<g>
					<g>
						<g>
							<g>
								<g>
									<g>
										<path class="st6" d="M411.6,400.4c0,0,0.1-0.2,0.2-0.6c0.2-0.4,0.5-1,0.8-1.7c0.7-1.5,1.6-3.8,2.3-6.8
											c1.6-6.1,2.1-15.3-0.2-26.3c-1.1-5.5-2.8-11.4-4.9-17.7c-2.1-6.3-4.5-12.9-6.4-20.1c-1.9-7.2-3.5-15-3.2-23.1
											c0.3-8.2,2.7-16.4,5.4-24.5c2.7-8.1,5.4-16.1,6.2-24.1c0.9-8-0.8-15.8-4.4-22.3c-3.5-6.5-8-12.1-11.3-17.8
											c-3.4-5.7-5.5-11.6-6.8-17.1c-2.5-11.1-1.6-20.4-0.4-26.5c1.3-6.2,2.8-9.4,2.8-9.4c0,0,0,0.2-0.2,0.6
											c-0.1,0.4-0.3,1-0.6,1.8c-0.5,1.6-1.1,3.9-1.7,7c-1.1,6.1-1.9,15.4,0.7,26.3c1.3,5.4,3.4,11.3,6.8,16.9
											c3.3,5.7,7.8,11.2,11.4,17.8c3.7,6.5,5.5,14.6,4.6,22.7c-0.8,8.1-3.6,16.2-6.3,24.3c-2.7,8.1-5.1,16.2-5.4,24.3
											c-0.3,8,1.2,15.8,3.1,22.9c1.9,7.2,4.3,13.8,6.3,20.1c2.1,6.3,3.8,12.2,4.8,17.8c2.2,11.1,1.6,20.4-0.1,26.5
											c-0.8,3-1.8,5.3-2.5,6.8c-0.4,0.7-0.7,1.3-0.9,1.7C411.7,400.3,411.6,400.4,411.6,400.4z"/>
									</g>
								</g>
							</g>
						</g>
					</g>
				</g>
				<g>
					<g>
						<g>
							<g>
								<g>
									<g>
										<path class="st7" d="M400.7,221c0,0-6.7-21.6,5.4-34.2c0.4-0.4,1.2-0.2,1.3,0.4C408,190.8,408.8,201.6,400.7,221z"/>
									</g>
								</g>
							</g>
						</g>
					</g>
					<g>
						<g>
							<g>
								<g>
									<g>
										<g>
											<path class="st6" d="M404.8,194c0.1,0-0.1,1.5-0.5,4c-0.4,2.7-1,6-1.5,9.5c-0.6,3.6-1.1,6.8-1.5,9.5
												c-0.4,2.4-0.6,3.9-0.7,3.9c-0.1,0-0.1-1.5,0.1-4c0.2-2.5,0.7-5.9,1.3-9.6c0.6-3.7,1.3-7.1,1.8-9.5
												C404.3,195.5,404.7,194,404.8,194z"/>
										</g>
									</g>
								</g>
							</g>
						</g>
					</g>
				</g>
				<g>
					<g>
						<g>
							<g>
								<g>
									<g>
										<path class="st7" d="M408.6,271.9c0,0,4.1-22.2,20.7-27.7c0.6-0.2,1.1,0.3,1,0.9C429.2,248.6,424.9,258.5,408.6,271.9z"/>
									</g>
								</g>
							</g>
						</g>
					</g>
					<g>
						<g>
							<g>
								<g>
									<g>
										<g>
											<path class="st6" d="M424.9,249.9c0.1,0.1-0.8,1.3-2.3,3.3c-1.7,2.2-3.6,4.8-5.8,7.7c-2.2,2.9-4.1,5.5-5.8,7.7
												c-1.5,2-2.4,3.2-2.5,3.1c-0.1-0.1,0.6-1.4,2-3.5c1.3-2.1,3.3-4.9,5.6-7.9c2.3-3,4.4-5.7,6-7.5
												C423.7,251,424.8,249.9,424.9,249.9z"/>
										</g>
									</g>
								</g>
							</g>
						</g>
					</g>
				</g>
				<g>
					<g>
						<g>
							<g>
								<g>
									<g>
										<path class="st7" d="M404.2,327.6c0,0-2.5-22.5,11.8-32.5c0.5-0.4,1.2,0,1.2,0.6C417.1,299.3,415.8,310.1,404.2,327.6z"/>
									</g>
								</g>
							</g>
						</g>
					</g>
					<g>
						<g>
							<g>
								<g>
									<g>
										<g>
											<path class="st6" d="M413.3,301.9c0.1,0-0.4,1.5-1.2,3.8c-1,2.6-2.1,5.7-3.3,9c-1.2,3.4-2.3,6.4-3.3,9
												c-0.8,2.3-1.3,3.8-1.5,3.7c-0.1,0,0.2-1.5,0.9-3.9c0.7-2.4,1.8-5.6,3.1-9.2c1.3-3.5,2.6-6.7,3.6-9
												C412.5,303.2,413.2,301.9,413.3,301.9z"/>
										</g>
									</g>
								</g>
							</g>
						</g>
					</g>
				</g>
				<g>
					<g>
						<g>
							<g>
								<g>
									<g>
										<path class="st7" d="M416.7,383.7c0,0-1.7-22.5,12.9-32.1c0.5-0.3,1.2,0,1.2,0.7C430.6,355.9,428.9,366.6,416.7,383.7z"/>
									</g>
								</g>
							</g>
						</g>
					</g>
					<g>
						<g>
							<g>
								<g>
									<g>
										<g>
											<path class="st6" d="M426.7,358.3c0.1,0-0.4,1.5-1.3,3.8c-1.1,2.6-2.3,5.6-3.6,8.9c-1.4,3.3-2.6,6.4-3.6,8.9
												c-0.9,2.3-1.5,3.7-1.6,3.7c-0.1,0,0.3-1.5,1-3.9c0.8-2.4,2-5.6,3.4-9c1.4-3.5,2.8-6.6,3.9-8.8
												C425.9,359.6,426.6,358.3,426.7,358.3z"/>
										</g>
									</g>
								</g>
							</g>
						</g>
					</g>
				</g>
				<g>
					<g>
						<g>
							<g>
								<g>
									<g>
										<path class="st7" d="M391,202.1c0,0-20-10.5-20.4-27.9c0-0.6,0.7-1,1.2-0.6C374.8,175.6,383,182.7,391,202.1z"/>
									</g>
								</g>
							</g>
						</g>
					</g>
					<g>
						<g>
							<g>
								<g>
									<g>
										<g>
											<path class="st6" d="M374.8,180.2c0.1-0.1,1,1.1,2.5,3.1c1.6,2.2,3.5,4.9,5.6,7.8c2.1,2.9,4,5.5,5.7,7.8
												c1.5,2,2.4,3.2,2.3,3.3c-0.1,0.1-1.2-1-2.8-2.9c-1.6-1.9-3.7-4.6-5.9-7.7c-2.2-3.1-4.1-5.9-5.5-8
												C375.4,181.5,374.7,180.2,374.8,180.2z"/>
										</g>
									</g>
								</g>
							</g>
						</g>
					</g>
				</g>
				<g>
					<g>
						<g>
							<g>
								<g>
									<g>
										<path class="st7" d="M412.5,248.4c0,0-20.6-9.2-22.1-26.7c-0.1-0.6,0.6-1,1.1-0.7C394.7,222.9,403.3,229.5,412.5,248.4z"
											/>
									</g>
								</g>
							</g>
						</g>
					</g>
					<g>
						<g>
							<g>
								<g>
									<g>
										<g>
											<path class="st6" d="M395,227.5c0.1-0.1,1.1,1.1,2.7,3c1.8,2.1,3.8,4.7,6.1,7.5c2.3,2.8,4.4,5.3,6.1,7.4
												c1.6,1.9,2.6,3.1,2.5,3.1c-0.1,0.1-1.2-0.9-2.9-2.7c-1.7-1.8-4-4.4-6.3-7.3c-2.4-2.9-4.5-5.6-5.9-7.6
												C395.7,228.8,394.9,227.6,395,227.5z"/>
										</g>
									</g>
								</g>
							</g>
						</g>
					</g>
				</g>
				<g>
					<g>
						<g>
							<g>
								<g>
									<g>
										<path class="st7" d="M400.7,300.1c0,0-14.2-17.6-7.5-33.8c0.2-0.6,1-0.6,1.3-0.1C396.4,269.2,401.1,279,400.7,300.1z"/>
									</g>
								</g>
							</g>
						</g>
					</g>
					<g>
						<g>
							<g>
								<g>
									<g>
										<g>
											<path class="st6" d="M394.6,273.5c0.1,0,0.5,1.5,1,3.9c0.6,2.7,1.3,5.9,2,9.4c0.8,3.5,1.5,6.7,2.1,9.4
												c0.5,2.4,0.9,3.9,0.8,3.9c-0.1,0-0.7-1.4-1.4-3.8c-0.7-2.4-1.5-5.7-2.3-9.4c-0.8-3.7-1.4-7-1.8-9.5
												C394.6,275,394.4,273.5,394.6,273.5z"/>
										</g>
									</g>
								</g>
							</g>
						</g>
					</g>
				</g>
				<g>
					<g>
						<g>
							<g>
								<g>
									<g>
										<path class="st7" d="M414.7,360.9c0,0-20.5-9.6-21.6-27c0-0.6,0.6-1,1.1-0.7C397.3,335.1,405.8,341.8,414.7,360.9z"/>
									</g>
								</g>
							</g>
						</g>
					</g>
					<g>
						<g>
							<g>
								<g>
									<g>
										<g>
											<path class="st6" d="M397.5,339.7c0.1-0.1,1.1,1.1,2.6,3c1.7,2.2,3.7,4.7,6,7.6c2.2,2.8,4.3,5.4,6,7.5
												c1.5,1.9,2.5,3.1,2.4,3.2c-0.1,0.1-1.2-1-2.9-2.8c-1.7-1.8-3.9-4.4-6.2-7.4c-2.3-3-4.4-5.7-5.8-7.7
												C398.2,341,397.4,339.7,397.5,339.7z"/>
										</g>
									</g>
								</g>
							</g>
						</g>
					</g>
				</g>
				<g>
					<g>
						<g>
							<g>
								<g>
									<g>
										<g>
											<path class="st6" d="M455.5,272c0,0,0,0.2,0,0.5c0,0.4,0,0.9,0,1.4c-0.1,1.4-0.1,3.2-0.2,5.5c-0.3,4.8-0.6,11.5-1.1,19.6
												l0,0l0,0c-1.5,8.2-5.6,17.2-11.2,26c-4.1,6.5-8.4,12.4-12.1,17.9c-3.7,5.5-6.9,10.5-9.1,15c-2.2,4.5-3.5,8.3-4.2,11
												c-0.4,1.3-0.6,2.4-0.8,3.1c-0.2,0.7-0.3,1.1-0.3,1.1s0-0.4,0.1-1.1c0.1-0.7,0.3-1.8,0.6-3.2c0.7-2.7,1.9-6.6,4-11.2
												c2.1-4.6,5.3-9.7,9-15.2c3.7-5.5,8-11.4,12-17.9c5.6-8.8,9.7-17.7,11.2-25.7l0,0c0.6-8,1-14.7,1.4-19.5
												c0.2-2.3,0.3-4.1,0.4-5.5c0.1-0.6,0.1-1,0.1-1.4C455.4,272.2,455.5,272,455.5,272z"/>
										</g>
									</g>
								</g>
							</g>
						</g>
					</g>
					<g>
						<g>
							<g>
								<g>
									<g>
										<g>
											<path class="st7" d="M443.3,323.4c0,0,8.7-20.9-2.2-34.5c-0.4-0.5-1.1-0.3-1.3,0.3C438.8,292.6,437,303.4,443.3,323.4z"
												/>
										</g>
									</g>
								</g>
							</g>
						</g>
						<g>
							<g>
								<g>
									<g>
										<g>
											<g>
												<path class="st6" d="M441.7,296.2c0.1,0,0.4,1.5,0.7,3.9c0.3,2.5,0.6,5.8,0.9,9.6c0.3,3.8,0.4,7.2,0.4,9.7
													c0,2.5-0.1,4-0.2,4c-0.1,0-0.2-1.5-0.4-4c-0.2-2.8-0.4-6-0.6-9.6c-0.3-3.6-0.5-6.8-0.7-9.6
													C441.6,297.7,441.6,296.2,441.7,296.2z"/>
											</g>
										</g>
									</g>
								</g>
							</g>
						</g>
						<g class="st8">
							<g>
								<g>
									<g>
										<g>
											<path d="M443.3,323.4c0,0,8.7-20.9-2.2-34.5c-0.4-0.5-1.1-0.3-1.3,0.3C438.8,292.6,437,303.4,443.3,323.4z"/>
										</g>
									</g>
								</g>
							</g>
						</g>
					</g>
					<g>
						<g>
							<g>
								<g>
									<g>
										<g>
											<path class="st7" d="M416.4,373.7c0,0,6.9-21.5-5-34.2c-0.4-0.4-1.2-0.2-1.3,0.4C409.4,343.4,408.5,354.2,416.4,373.7z"
												/>
										</g>
									</g>
								</g>
							</g>
						</g>
						<g>
							<g>
								<g>
									<g>
										<g>
											<g>
												<path class="st6" d="M412.6,346.7c0.1,0,0.5,1.5,1,3.9c0.5,2.4,1.1,5.8,1.7,9.5c0.6,3.7,1,7.1,1.2,9.6
													c0.2,2.5,0.2,4,0.1,4c-0.1,0-0.3-1.5-0.7-3.9c-0.4-2.7-0.9-6-1.4-9.5c-0.5-3.6-1-6.8-1.4-9.5
													C412.7,348.2,412.5,346.7,412.6,346.7z"/>
											</g>
										</g>
									</g>
								</g>
							</g>
						</g>
						<g class="st8">
							<g>
								<g>
									<g>
										<g>
											<path d="M416.4,373.7c0,0,6.9-21.5-5-34.2c-0.4-0.4-1.2-0.2-1.3,0.4C409.4,343.4,408.5,354.2,416.4,373.7z"/>
										</g>
									</g>
								</g>
							</g>
						</g>
					</g>
					<g>
						<g>
							<g>
								<g>
									<g>
										<g>
											<path class="st7" d="M454.3,297.9c0,0,18.5-13,16.6-30.3c-0.1-0.6-0.8-0.9-1.2-0.5C467,269.5,459.8,277.6,454.3,297.9z"
												/>
										</g>
									</g>
								</g>
							</g>
						</g>
						<g class="st8">
							<g>
								<g>
									<g>
										<g>
											<path d="M454.3,297.9c0,0,18.5-13,16.6-30.3c-0.1-0.6-0.8-0.9-1.2-0.5C467,269.5,459.8,277.6,454.3,297.9z"/>
										</g>
									</g>
								</g>
							</g>
						</g>
						<g>
							<g>
								<g>
									<g>
										<g>
											<g>
												<path class="st6" d="M467.6,274.1c0.1,0.1-0.5,1.5-1.5,3.7c-1.1,2.2-2.6,5.3-4.4,8.6c-1.8,3.3-3.5,6.3-4.8,8.4
													c-1.3,2.1-2.3,3.3-2.4,3.2c-0.1-0.1,0.6-1.4,1.8-3.6c1.3-2.4,2.9-5.3,4.6-8.5c1.7-3.2,3.3-6,4.6-8.5
													C466.7,275.3,467.5,274,467.6,274.1z"/>
											</g>
										</g>
									</g>
								</g>
							</g>
						</g>
					</g>
					<g>
						<g>
							<g>
								<g>
									<g>
										<g>
											<path class="st7" d="M423.9,352.4c0,0,22.3-3.5,28.3-19.9c0.2-0.6-0.3-1.2-0.9-1C447.8,332.5,437.7,336.6,423.9,352.4z"
												/>
										</g>
									</g>
								</g>
							</g>
						</g>
						<g class="st8">
							<g>
								<g>
									<g>
										<g>
											<path d="M423.9,352.4c0,0,22.3-3.5,28.3-19.9c0.2-0.6-0.3-1.2-0.9-1C447.8,332.5,437.7,336.6,423.9,352.4z"/>
										</g>
									</g>
								</g>
							</g>
						</g>
						<g>
							<g>
								<g>
									<g>
										<g>
											<g>
												<path class="st6" d="M446.3,336.8c0.1,0.1-1.1,1.1-3,2.6c-1.9,1.5-4.7,3.6-7.7,5.8c-3.1,2.2-5.9,4.1-8,5.4
													c-2.1,1.3-3.5,2-3.5,1.9c-0.1-0.1,1.2-1,3.2-2.4c2.3-1.6,4.9-3.5,7.9-5.6c2.9-2.1,5.6-4,7.9-5.6
													C445,337.6,446.3,336.7,446.3,336.8z"/>
											</g>
										</g>
									</g>
								</g>
							</g>
						</g>
					</g>
				</g>
			</g>
			<g>
				<g>
					<g>
						<g>
							<g>
								<polygon class="st9" points="397.5,393.5 403.9,435.5 429.5,435.4 438.1,393.5 								"/>
							</g>
						</g>
					</g>
				</g>
			</g>
		</g>
		<g>
			<g>
				<g>
					<path class="st6" d="M434.3,409.7c0,0-0.1,0.1-0.2,0.2c-0.2,0.1-0.4,0.2-0.7,0.4c-0.6,0.3-1.6,0.7-2.9,0.9
						c-1.3,0.2-2.9,0.1-4.7-0.4c-1.8-0.6-3.7-1.7-5.1-3.7c-0.7-1-1.1-2.2-1.2-3.5c-0.1-1.3,0.4-2.8,1.7-3.6c1.3-0.8,3-0.5,4.3,0.4
						c1.3,0.9,2.1,2.3,2.5,3.9c0.4,1.5,0.4,3.1,0.3,4.7c-0.1,1.6-0.4,3.3-1,4.9c-0.6,1.6-1.6,3.1-3,4.2c-1.3,1.1-3.1,2-4.9,2.1
						c-1.9,0.1-3.6-0.6-5.1-1.5c-1.5-0.9-2.8-2.1-3.8-3.5c-1-1.3-1.8-2.9-1.9-4.6c-0.1-1.7,0.5-3.4,1.8-4.4c1.3-1.1,3.2-1,4.5-0.3
						c1.4,0.7,2.4,2,2.6,3.4c0.5,2.9-1.2,5.5-3.2,6.6c-2.1,1.2-4.4,1.2-6.2,0.9c-1.8-0.4-3.3-1.1-4.4-1.7c-1.1-0.7-1.9-1.3-2.5-1.7
						c-0.5-0.4-0.8-0.7-0.8-0.7c0,0,0.3,0.2,0.9,0.6c0.6,0.4,1.4,0.9,2.5,1.5c1.1,0.6,2.6,1.3,4.3,1.6c1.7,0.3,3.9,0.2,5.9-0.9
						c1.9-1.1,3.4-3.6,2.9-6.1c-0.2-1.3-1.1-2.4-2.3-3c-1.2-0.6-2.8-0.7-3.9,0.2c-1.1,0.9-1.6,2.4-1.5,3.9c0.1,1.5,0.8,3,1.8,4.2
						c1,1.3,2.2,2.4,3.6,3.3c1.4,0.9,3,1.5,4.7,1.4c1.7-0.1,3.3-0.8,4.5-1.9c1.3-1.1,2.2-2.5,2.8-4c0.6-1.5,0.9-3.1,1-4.6
						c0.1-1.6,0.1-3.1-0.3-4.5c-0.3-1.4-1-2.8-2.2-3.5c-1.1-0.8-2.6-1-3.7-0.4c-1.1,0.6-1.6,1.9-1.5,3.1c0.1,1.2,0.5,2.3,1.1,3.3
						c1.3,1.9,3.1,3,4.8,3.6c1.7,0.6,3.3,0.7,4.5,0.5C433.1,410.5,434.3,409.6,434.3,409.7z"/>
				</g>
			</g>
		</g>
	</g>
</g>
</svg>
