<svg width="34" height="34" viewBox="0 0 34 34" fill="none" xmlns="http://www.w3.org/2000/svg">
    <path d="M23.9062 27.0938H31.3438C31.6255 27.0938 31.8958 27.2057 32.0951 27.4049C32.2943 27.6042 32.4062 27.8745 32.4062 28.1562V29.2188C32.4062 29.5005 32.2943 29.7708 32.0951 29.9701C31.8958 30.1693 31.6255 30.2812 31.3438 30.2812H17.9405C17.6702 30.2812 7.17659 28.1562 6.90625 28.1562H1.59375V18.5938H9.5625C12.2188 18.5938 17.5312 23.375 17.5312 23.375L22.8438 24.9688C22.8438 24.9688 23.9062 25.5 23.9062 26.0312V27.0938C23.9062 27.3755 23.7943 27.6458 23.5951 27.8451C23.3958 28.0443 23.1255 28.1562 22.8438 28.1562L17.5312 27.0938L13.8125 24.9688" fill="#FBDAC1"/>
    <path d="M22.8438 28.1562L17.5312 27.0938L13.8125 24.9688L10.625 24.4375V25.5L13.8125 26.0312L17.5312 27.625L22.8438 28.6875C23.1255 28.6875 23.3958 28.5756 23.5951 28.3763C23.7943 28.177 23.9062 27.9068 23.9062 27.625V27.0938C23.9062 27.3755 23.7943 27.6458 23.5951 27.8451C23.3958 28.0443 23.1255 28.1562 22.8438 28.1562Z" fill="#EFBFA7"/>
    <path d="M1.59375 17.5312H4.78125V29.2188H1.59375V17.5312Z" fill="#C3C6C7"/>
    <path d="M21.4233 17L19.125 15.7295L16.8267 17L17.2656 14.3091L15.4062 12.4034L17.9758 12.0108L19.125 9.5625L20.2742 12.0108L22.8438 12.4034L20.9844 14.3091L21.4233 17Z" fill="#F7CC38"/>
    <path d="M12.9233 12.2188L10.625 10.9483L8.32668 12.2188L8.76562 9.52784L6.90625 7.62211L9.47584 7.22952L10.625 4.78125L11.7742 7.22952L14.3438 7.62211L12.4844 9.52784L12.9233 12.2188Z" fill="#F7CC38"/>
    <path d="M29.9233 21.7812L27.625 20.5108L25.3267 21.7812L25.7656 19.0903L23.9062 17.1846L26.4758 16.792L27.625 14.3438L28.7742 16.792L31.3438 17.1846L29.4844 19.0903L29.9233 21.7812Z" fill="#F7CC38"/>
</svg>
