<?xml version="1.0" encoding="utf-8"?>
<!-- Generator: Adobe Illustrator 23.0.1, SVG Export Plug-In . SVG Version: 6.00 Build 0)  -->
<svg version="1.1" id="Layer_1" xmlns="http://www.w3.org/2000/svg" xmlns:xlink="http://www.w3.org/1999/xlink" x="0px" y="0px"
	 viewBox="0 0 283.3 51.8" style="enable-background:new 0 0 283.3 51.8;" xml:space="preserve">
<style type="text/css">
	.st0{fill:#9FA6B3;}
</style>
<g id="Layer_3">
	<g>
		<g>
			<path class="st0" d="M171.3,12.5h7.7c2.6,0,4.9,0.5,6.9,1.6s3.4,2.6,4.5,4.5c1,1.9,1.6,4.2,1.6,6.6c0,2.5-0.5,4.7-1.6,6.6
				c-1,1.9-2.5,3.4-4.5,4.5s-4.2,1.6-6.9,1.6h-7.7V12.5z M179,35.2c3,0,5.4-0.9,7.2-2.6c1.8-1.7,2.6-4.2,2.6-7.3s-0.9-5.5-2.6-7.3
				c-1.8-1.7-4.2-2.6-7.2-2.6h-4.7v19.8H179z"/>
			<path class="st0" d="M199.3,37.4c-1.4-0.8-2.5-2-3.2-3.4c-0.8-1.5-1.1-3-1.1-4.8s0.4-3.3,1.1-4.8c0.8-1.5,1.9-2.6,3.2-3.4
				s2.9-1.2,4.7-1.2c1.7,0,3.3,0.4,4.7,1.2s2.5,2,3.2,3.4c0.8,1.5,1.1,3,1.1,4.8s-0.4,3.3-1.1,4.8c-0.8,1.5-1.9,2.6-3.2,3.4
				c-1.4,0.8-3,1.2-4.7,1.2S200.7,38.3,199.3,37.4z M207,35.1c0.9-0.5,1.7-1.3,2.2-2.3c0.6-1,0.8-2.2,0.8-3.5s-0.3-2.5-0.8-3.5
				s-1.3-1.8-2.2-2.3s-1.9-0.8-3-0.8c-1,0-2,0.3-3,0.8c-0.9,0.5-1.7,1.3-2.2,2.3c-0.6,1-0.8,2.2-0.8,3.5s0.3,2.5,0.8,3.5
				c0.6,1,1.3,1.8,2.2,2.3s1.9,0.8,3,0.8C205.1,35.9,206,35.7,207,35.1z"/>
			<path class="st0" d="M218.6,36.8c-1.1-1.3-1.7-3-1.7-5.2V20.4h3v10.7c0,3.2,1.5,4.9,4.4,4.9c1,0,1.9-0.3,2.6-0.8
				c0.8-0.5,1.4-1.3,1.8-2.1c0.4-0.9,0.6-1.8,0.6-2.8v-9.9h3v17.7h-2.9v-2.6h-0.1c-0.5,0.9-1.3,1.7-2.4,2.3c-1,0.6-2.2,0.9-3.4,0.9
				C221.4,38.7,219.7,38.1,218.6,36.8z"/>
			<path class="st0" d="M239.7,37.9c-1-0.5-1.9-1.2-2.4-2.1s-0.9-2-0.9-3.1c0-1.9,0.7-3.3,2.1-4.4c1.4-1,3.2-1.6,5.4-1.6
				c1.1,0,2.1,0.1,3,0.4c0.9,0.2,1.6,0.5,2.1,0.8V27c0-0.8-0.2-1.6-0.7-2.3s-1-1.2-1.8-1.6c-0.7-0.4-1.5-0.5-2.4-0.5
				c-2,0-3.6,0.8-4.6,2.5l-2.5-1.7c0.7-1.1,1.7-2,2.9-2.6s2.6-0.9,4.1-0.9c2.4,0,4.4,0.6,5.7,2c1.4,1.3,2.1,3.1,2.1,5.3v11h-2.9
				v-2.6h-0.1c-0.6,0.9-1.4,1.7-2.3,2.3c-1,0.6-2.1,0.9-3.4,0.9C241.8,38.7,240.7,38.4,239.7,37.9z M246.1,35.3
				c0.8-0.5,1.6-1.2,2.1-2s0.8-1.8,0.8-2.8c-1.3-0.8-2.9-1.3-4.6-1.3c-1.5,0-2.7,0.3-3.6,1s-1.4,1.6-1.4,2.6c0,0.9,0.4,1.7,1.2,2.3
				c0.8,0.6,1.7,0.9,2.7,0.9C244.3,36,245.2,35.8,246.1,35.3z"/>
			<path class="st0" d="M256.7,12.5h3v25.6h-3V12.5z"/>
			<path class="st0" d="M267,37.9c-1-0.5-1.9-1.2-2.4-2.1s-0.9-2-0.9-3.1c0-1.9,0.7-3.3,2.1-4.4c1.4-1,3.2-1.6,5.4-1.6
				c1.1,0,2.1,0.1,3,0.4c0.9,0.2,1.6,0.5,2.1,0.8V27c0-0.8-0.2-1.6-0.7-2.3s-1-1.2-1.8-1.6c-0.7-0.4-1.5-0.5-2.4-0.5
				c-2,0-3.6,0.8-4.6,2.5l-2.5-1.7c0.7-1.1,1.7-2,2.9-2.6c1.2-0.6,2.6-0.9,4.1-0.9c2.4,0,4.4,0.6,5.7,2c1.4,1.3,2.1,3.1,2.1,5.3v11
				h-2.9v-2.6h-0.1c-0.6,0.9-1.4,1.7-2.3,2.3c-1,0.6-2.1,0.9-3.4,0.9C269.2,38.7,268.1,38.4,267,37.9z M273.5,35.3
				c0.8-0.5,1.6-1.2,2.1-2s0.8-1.8,0.8-2.8c-1.3-0.8-2.9-1.3-4.6-1.3c-1.5,0-2.7,0.3-3.6,1s-1.4,1.6-1.4,2.6c0,0.9,0.4,1.7,1.2,2.3
				s1.7,0.9,2.7,0.9C271.7,36,272.6,35.8,273.5,35.3z"/>
		</g>
	</g>
	<g>
		<g>
			<path class="st0" d="M34.4,40.1c-1,1.8-2.9,2.8-4.9,2.8c-0.9,0-1.9-0.2-2.8-0.7L7,30.8c-2.7-1.6-3.6-5-2.1-7.7
				c1-1.8,2.9-2.8,4.9-2.8c0.9,0,1.9,0.2,2.8,0.7l19.8,11.4C35,34,36,37.4,34.4,40.1z"/>
			<path class="st0" d="M44.3,11.7c1-1.8,2.9-2.8,4.9-2.8c0.9,0,1.9,0.2,2.8,0.7L71.7,21c2.7,1.6,3.6,5,2.1,7.7
				c-1,1.8-2.9,2.8-4.9,2.8c-0.9,0-1.9-0.2-2.8-0.7L46.4,19.4C43.7,17.8,42.7,14.4,44.3,11.7z"/>
			<path class="st0" d="M32.4,19.4l-9.9,5.7l-9.1-5.3c-0.8-0.5-1.8-0.8-2.7-0.9l16-9.3c0.9-0.5,1.9-0.7,2.8-0.7c1.9,0,3.8,1,4.9,2.8
				C36,14.4,35,17.8,32.4,19.4z"/>
			<path class="st0" d="M46.4,32.4l9.9-5.7l9.1,5.3c0.8,0.5,1.8,0.8,2.7,0.9L52,42.2c-0.9,0.5-1.9,0.7-2.8,0.7c-1.9,0-3.8-1-4.9-2.8
				C42.7,37.4,43.7,34,46.4,32.4z"/>
		</g>
		<g>
			<g>
				<path class="st0" d="M96.5,37.2c-2-1.1-3.5-2.7-4.7-4.7c-1.1-2-1.7-4.2-1.7-6.6c0-2.4,0.6-4.6,1.7-6.6s2.7-3.5,4.7-4.7
					c2-1.1,4.1-1.7,6.4-1.7c1.8,0,3.5,0.3,5.1,1c1.6,0.6,2.9,1.6,4,2.7l-2.1,2.1c-0.8-1-1.8-1.7-3-2.2s-2.5-0.8-3.9-0.8
					c-1.8,0-3.4,0.4-4.9,1.3c-1.5,0.8-2.7,2-3.6,3.6c-0.9,1.5-1.4,3.3-1.4,5.3s0.4,3.8,1.4,5.3c0.9,1.5,2.1,2.7,3.7,3.6
					c1.5,0.8,3.1,1.3,4.9,1.3c1.7,0,3-0.3,4.2-0.8c1.1-0.5,2.1-1.2,2.9-2.1c0.6-0.6,1.1-1.4,1.5-2.3c0.4-0.9,0.6-1.9,0.7-3h-9.1
					v-2.7h11.9c0.1,0.6,0.2,1.3,0.2,1.8c0,1.5-0.2,3-0.7,4.4c-0.5,1.5-1.3,2.7-2.3,3.8c-2.3,2.5-5.3,3.7-9.1,3.7
					C100.6,38.9,98.5,38.3,96.5,37.2z"/>
				<path class="st0" d="M118.7,13.6h7.4c2.5,0,4.7,0.5,6.6,1.6c1.9,1,3.3,2.5,4.4,4.4c1,1.9,1.5,4,1.5,6.4s-0.5,4.6-1.5,6.4
					c-1,1.9-2.5,3.3-4.4,4.4c-1.9,1-4.1,1.6-6.6,1.6h-7.4V13.6z M126.1,35.5c2.9,0,5.2-0.8,7-2.5c1.7-1.7,2.6-4,2.6-7
					s-0.8-5.4-2.6-7c-1.7-1.7-4-2.5-7-2.5h-4.6v19.1L126.1,35.5L126.1,35.5z"/>
				<path class="st0" d="M147.4,37.2c-2-1.1-3.5-2.7-4.7-4.7c-1.1-2-1.7-4.2-1.7-6.6c0-2.4,0.6-4.6,1.7-6.6c1.1-2,2.7-3.5,4.7-4.7
					c2-1.1,4.1-1.7,6.4-1.7c1.8,0,3.5,0.3,5.1,1c1.6,0.6,2.9,1.6,4,2.7l-2.1,2.1c-0.8-1-1.8-1.7-3-2.2s-2.5-0.8-3.9-0.8
					c-1.8,0-3.4,0.4-4.9,1.3c-1.5,0.8-2.7,2-3.6,3.6c-0.9,1.5-1.4,3.3-1.4,5.3s0.4,3.8,1.4,5.3c0.9,1.5,2.1,2.7,3.7,3.6
					c1.5,0.8,3.1,1.3,4.9,1.3c1.7,0,3-0.3,4.2-0.8c1.1-0.5,2.1-1.2,2.9-2.1c0.6-0.6,1.1-1.4,1.5-2.3c0.4-0.9,0.6-1.9,0.7-3h-9.1
					v-2.7h11.9c0.1,0.6,0.2,1.3,0.2,1.8c0,1.5-0.2,3-0.7,4.4c-0.5,1.5-1.3,2.7-2.3,3.8c-2.3,2.5-5.3,3.7-9.1,3.7
					C151.5,38.9,149.4,38.3,147.4,37.2z"/>
			</g>
		</g>
	</g>
</g>
</svg>
