<svg width="687" height="636" fill="none" xmlns="http://www.w3.org/2000/svg"><path d="M563.972 457.013c10.278-83.76-39.489-195.098-91.096-241.06-93.144-83.006-170.527-66.954-230.709-37.223-60.181 29.732-68.796 128.968-110.345 173.874-41.55 44.906-65.21 105.301-2.144 165.436 63.067 60.134 113.918 29.566 179.843 25.766 65.924-3.801 153.325 26.205 200.604.096 33.045-18.22 49.313-49.859 53.847-86.889z" fill="#007A5E"/><path opacity=".7" d="M563.972 457.013c10.278-83.76-39.489-195.098-91.096-241.06-93.144-83.006-170.527-66.954-230.709-37.223-60.181 29.732-68.796 128.968-110.345 173.874-41.55 44.906-65.21 105.301-2.144 165.436 63.067 60.134 113.918 29.566 179.843 25.766 65.924-3.801 153.325 26.205 200.604.096 33.045-18.22 49.313-49.859 53.847-86.889z" fill="#fff"/><path d="M303.118 454.063V145.446M102.212 457.123h194.957l296.193 95.464" stroke="#263238" stroke-linecap="round" stroke-linejoin="round"/><path d="M190.986 449.879h-13.465V227.532h27.796l-11.995-43.231h-35.999l-11.995 43.231h27.796v222.347h-13.506a13.199 13.199 0 00-9.232 3.775 13.16 13.16 0 00-3.945 9.149V463.009c.399 3.101 13.149 5.598 28.854 5.598s28.456-2.497 28.854-5.598a13.164 13.164 0 00-3.868-9.277 13.197 13.197 0 00-9.295-3.853z" fill="#263238"/><path d="M370.417 130.148v261.805l197.402 32.434V97.714l-197.402 32.434zm192.277 74.966l-100.302 5.68v-90.963l100.302-15.943v101.226zm-100.302 15.243l100.302-4.596v91.457l-100.302-4.678v-82.183zm-8.134 81.799l-80.53-3.746v-73.992l80.462-3.677.068 81.415zm0-181.036v90.168l-80.53 4.514v-81.895l80.53-12.787zm-80.53 185.906l80.462 4.624v89.331l-80.462-12.787v-81.168zm88.596 95.244v-90.154l100.302 5.763v100.334L462.324 402.27z" fill="#68D391" stroke="#263238" stroke-linecap="round" stroke-linejoin="round"/><path d="M302.335 584.403c87.228 0 157.941-21.996 157.941-49.131 0-27.134-70.713-49.131-157.941-49.131-87.229 0-157.941 21.997-157.941 49.131 0 27.135 70.712 49.131 157.941 49.131z" fill="#007A5E"/><path opacity=".5" d="M302.335 584.403c87.228 0 157.941-21.996 157.941-49.131 0-27.134-70.713-49.131-157.941-49.131-87.229 0-157.941 21.997-157.941 49.131 0 27.135 70.712 49.131 157.941 49.131z" fill="#fff"/><path d="M288.993 318.633s-35.792-4.239-59.343 14.104c-23.55 18.344-43.803 94.998-43.336 131.712.467 36.715 14.139 55.031 48.516 70.068 34.378 15.038 98.42 9.412 134.213-1.879 35.792-11.292 47.567-50.764 47.1-71.948-.467-21.184-24.017-45.619-32.028-50.764-8.01-5.145-30.612-15.984-41.907-32.928-11.294-16.944-27.796-53.659-53.215-58.365z" fill="#007A5E"/><path opacity=".13" d="M375.61 530.1c-13.534-1.825-29.582-5.488-41.728-12.856-25.653-15.545-32.055-44.823-41.22-55.799-9.165-10.976-25.653-10.057-32.976-21.952-7.323-11.895 4.575-99.69-16.488-105.178a47.99 47.99 0 00-13.149-1.879c-.124.109-.275.192-.399.302-23.55 18.343-43.803 94.997-43.336 131.712.467 36.714 14.139 55.03 48.516 70.068 34.378 15.037 98.42 9.411 134.213-1.88a56.653 56.653 0 006.567-2.538z" fill="#000"/><path d="M288.993 318.633s-35.792-4.239-59.343 14.104c-23.55 18.344-43.803 94.998-43.336 131.712.467 36.715 14.139 55.031 48.516 70.068 34.378 15.038 98.42 9.412 134.213-1.879 35.792-11.292 47.567-50.764 47.1-71.948-.467-21.184-24.017-45.619-32.028-50.764-8.01-5.145-30.612-15.984-41.907-32.928-11.294-16.944-27.796-53.659-53.215-58.365z" stroke="#004231" stroke-linecap="round" stroke-linejoin="round"/><path d="M274.896 335.207s-23.358 4.459-27.48 8.575-21.297 68.6-21.297 68.6a25.595 25.595 0 0114.427.686c6.87 2.744 7.557 9.947 8.244 13.377a122.38 122.38 0 011.031 12.348s69.428-6.188 84.198-9.604c14.771-3.416 37.249-5.008 37.249-5.008s-37.977-85.53-43.816-88.617c-5.84-3.087-30.228-3.43-33.663-2.744-3.435.686-18.893 2.387-18.893 2.387z" fill="#68D391" stroke="#263238" stroke-linecap="round" stroke-linejoin="round"/><path d="M251.882 414.44l5.839-47.677M256.347 379.454l7.901-10.29M280.049 385.628s22.327-7.203 37.098-7.203" stroke="#fff" stroke-linecap="round" stroke-linejoin="round"/><path d="M301.126 365.967l-1.498 11.429s3.779 0 4.122 1.715a4.56 4.56 0 01-1.374 3.43s10.649 5.831 12.023 12.691" stroke="#fff" stroke-linecap="round" stroke-linejoin="round"/><path d="M287.715 322.42s-12.819 4.116-14.66 7.313c-1.841 3.197-.454 25.615-.454 28.359 0 2.744 1.608-1.605 2.982-4.802 1.374-3.197 6.183-8.012 7.777-7.546 1.594.466 2.528 2.278 2.528 5.255s3.655 7.093 6.87 9.371a198.567 198.567 0 016.183 4.582s6.636-9.604 8.244-12.128c1.608-2.525 1.374-7.766 1.594-9.604.22-1.839 4.355 5.035 5.276 3.21.921-1.825-2.061-3.43-5.276-8.465s-2.281-10.29-7.09-13.953c-4.809-3.664-10.305-2.525-13.974-1.592z" fill="#fff"/><path d="M273.055 329.719c-1.209 2.14-1.017 12.815-.742 20.58 2.927-3.759 8.958-10.866 12.448-9.522 4.452 1.715 6.156 14.352 6.156 14.352l-3.009-32.709h-.192s-12.82 4.116-14.661 7.299z" fill="#0F4C81"/><path opacity=".5" d="M273.055 329.719c-1.209 2.14-1.017 12.815-.742 20.58 2.927-3.759 8.958-10.866 12.448-9.522 4.452 1.715 6.156 14.352 6.156 14.352l-3.009-32.709h-.192s-12.82 4.116-14.661 7.299z" fill="#fff"/><path d="M287.715 322.42s-12.819 4.116-14.66 7.313c-1.841 3.197-.454 25.615-.454 28.359 0 2.744 1.608-1.605 2.982-4.802 1.374-3.197 6.183-8.012 7.777-7.546 1.594.466 2.528 2.278 2.528 5.255s3.655 7.093 6.87 9.371a198.567 198.567 0 016.183 4.582s6.636-9.604 8.244-12.128c1.608-2.525 1.374-7.766 1.594-9.604.22-1.839 4.355 5.035 5.276 3.21.921-1.825-2.061-3.43-5.276-8.465s-2.281-10.29-7.09-13.953c-4.809-3.664-10.305-2.525-13.974-1.592z" stroke="#263238" stroke-linecap="round" stroke-linejoin="round"/><path d="M257.378 415.126s-7.901-11.319-17.519-12.348c-9.618-1.029-21.297 6.86-21.64 9.604-.344 2.744-2.748 17.493-1.031 19.551 1.718 2.058 8.244 3.773 20.954-.343 12.709-4.116 17.862-9.261 19.236-16.464z" fill="#fff"/><path d="M225.24 431.576s-2.748-7.848-1.374-10.578c1.374-2.73 6.87-6.86 10.263-10.976 3.394-4.116-8.01 2.319-8.56 0-.425-1.866 6.032-5.598 8.574-6.983-7.996 1.536-15.65 7.093-15.924 9.302-.344 2.744-2.748 17.493-1.031 19.551.879 1.056 3.064 2.03 6.705 2.154.825-1.413 1.347-2.47 1.347-2.47z" fill="#0F4C81"/><path opacity=".5" d="M225.24 431.576s-2.748-7.848-1.374-10.578c1.374-2.73 6.87-6.86 10.263-10.976 3.394-4.116-8.01 2.319-8.56 0-.425-1.866 6.032-5.598 8.574-6.983-7.996 1.536-15.65 7.093-15.924 9.302-.344 2.744-2.748 17.493-1.031 19.551.879 1.056 3.064 2.03 6.705 2.154.825-1.413 1.347-2.47 1.347-2.47z" fill="#fff"/><path d="M257.378 415.126s-7.901-11.319-17.519-12.348c-9.618-1.029-21.297 6.86-21.64 9.604-.344 2.744-2.748 17.493-1.031 19.551 1.718 2.058 8.244 3.773 20.954-.343 12.709-4.116 17.862-9.261 19.236-16.464z" stroke="#263238" stroke-linecap="round" stroke-linejoin="round"/><path d="M230.584 418.213s-12.888 5.104-13.396 15.092c-.289 5.488 8.931 7.889 18.549 7.889s23.358-12.005 32.289-17.15c8.931-5.145 29.541-17.15 31.945-18.179 2.405-1.029 10.649 1.715 14.084 2.744a46.455 46.455 0 009.962 1.029s4.809 7.546 7.213 7.546c2.405 0-5.152-11.319-6.183-13.72-1.03-2.401-17.862-7.889-19.923-7.889s-50.151 12.005-57.365 14.749c-7.213 2.744-17.175 7.889-17.175 7.889z" fill="#fff"/><path d="M257.529 416.786c19.634-9.81 47.595-21.211 47.595-21.211-2.061 0-50.151 12.005-57.364 14.749-7.214 2.744-17.176 7.889-17.176 7.889s-12.888 5.104-13.396 15.092c-.289 5.488 8.931 7.889 18.549 7.889s23.358-12.005 32.289-17.15l5.414-3.128c-13.122 1.66-30.668 3.224-15.911-4.13z" fill="#0F4C81"/><path opacity=".5" d="M257.529 416.786c19.634-9.81 47.595-21.211 47.595-21.211-2.061 0-50.151 12.005-57.364 14.749-7.214 2.744-17.176 7.889-17.176 7.889s-12.888 5.104-13.396 15.092c-.289 5.488 8.931 7.889 18.549 7.889s23.358-12.005 32.289-17.15l5.414-3.128c-13.122 1.66-30.668 3.224-15.911-4.13z" fill="#fff"/><path d="M230.584 418.213s-12.888 5.104-13.396 15.092c-.289 5.488 8.931 7.889 18.549 7.889s23.358-12.005 32.289-17.15c8.931-5.145 29.541-17.15 31.945-18.179 2.405-1.029 10.649 1.715 14.084 2.744a46.455 46.455 0 009.962 1.029s4.809 7.546 7.213 7.546c2.405 0-5.152-11.319-6.183-13.72-1.03-2.401-17.862-7.889-19.923-7.889s-50.151 12.005-57.365 14.749c-7.213 2.744-17.175 7.889-17.175 7.889z" stroke="#263238" stroke-linecap="round" stroke-linejoin="round"/><path d="M331.051 341.93l-10.469 58.79 75.57.343 11.239-55.758a3.472 3.472 0 00-3.298-4.116l-69.524-2.085a3.46 3.46 0 00-3.518 2.826v0z" fill="#fff" stroke="#263238" stroke-linecap="round" stroke-linejoin="round"/><path d="M320.582 400.72l-36.796 25.986 84.157-2.401 28.209-23.242-75.57-.343z" fill="#fff"/><path d="M320.582 400.72l-36.796 25.986 84.157-2.401 28.209-23.242-75.57-.343z" fill="#0F4C81"/><path opacity=".5" d="M320.582 400.72l-36.796 25.986 84.157-2.401 28.209-23.242-75.57-.343z" fill="#fff"/><path d="M320.582 400.72l-36.796 25.986 84.157-2.401 28.209-23.242-75.57-.343z" stroke="#263238" stroke-linecap="round" stroke-linejoin="round"/><path d="M348.405 426.445s30.228-26.411 60.113-35.329c29.884-8.918 36.067-7.546 35.38 5.831-.687 13.377-15.114 83.349-24.732 101.185-9.618 17.836-21.64 50.421-21.297 56.595.344 6.174 12.023 24.353 22.328 30.87 10.305 6.517 9.274 14.406 2.748 15.778-6.527 1.372-14.084 3.773-36.411-10.633-22.328-14.406-31.602-34.986-30.228-40.131 1.374-5.145 15.801-12.005 21.64-22.295 5.84-10.29 15.458-48.706 16.145-66.199a103.784 103.784 0 016.87-32.242s-37.785 6.86-48.777 13.72l-3.779-17.15z" fill="#fff"/><path d="M348.405 426.445s30.228-26.411 60.113-35.329c29.884-8.918 36.067-7.546 35.38 5.831-.687 13.377-15.114 83.349-24.732 101.185-9.618 17.836-21.64 50.421-21.297 56.595.344 6.174 12.023 24.353 22.328 30.87 10.305 6.517 9.274 14.406 2.748 15.778-6.527 1.372-14.084 3.773-36.411-10.633-22.328-14.406-31.602-34.986-30.228-40.131 1.374-5.145 15.801-12.005 21.64-22.295 5.84-10.29 15.458-48.706 16.145-66.199a103.784 103.784 0 016.87-32.242s-37.785 6.86-48.777 13.72l-3.779-17.15z" fill="#0F4C81"/><path opacity=".5" d="M348.405 426.445s30.228-26.411 60.113-35.329c29.884-8.918 36.067-7.546 35.38 5.831-.687 13.377-15.114 83.349-24.732 101.185-9.618 17.836-21.64 50.421-21.297 56.595.344 6.174 12.023 24.353 22.328 30.87 10.305 6.517 9.274 14.406 2.748 15.778-6.527 1.372-14.084 3.773-36.411-10.633-22.328-14.406-31.602-34.986-30.228-40.131 1.374-5.145 15.801-12.005 21.64-22.295 5.84-10.29 15.458-48.706 16.145-66.199a103.784 103.784 0 016.87-32.242s-37.785 6.86-48.777 13.72l-3.779-17.15z" fill="#fff"/><path d="M348.405 426.445s30.228-26.411 60.113-35.329c29.884-8.918 36.067-7.546 35.38 5.831-.687 13.377-15.114 83.349-24.732 101.185-9.618 17.836-21.64 50.421-21.297 56.595.344 6.174 12.023 24.353 22.328 30.87 10.305 6.517 9.274 14.406 2.748 15.778-6.527 1.372-14.084 3.773-36.411-10.633-22.328-14.406-31.602-34.986-30.228-40.131 1.374-5.145 15.801-12.005 21.64-22.295 5.84-10.29 15.458-48.706 16.145-66.199a103.784 103.784 0 016.87-32.242s-37.785 6.86-48.777 13.72l-3.779-17.15z" stroke="#263238" stroke-linecap="round" stroke-linejoin="round"/><path d="M377.946 528.316c-.44.768-.934 1.509-1.456 2.25a35.326 35.326 0 0119.318 8.04 60.487 60.487 0 014.699 4.541 299.8 299.8 0 0118.659-45.015c9.618-17.836 24.045-87.808 24.732-101.185.687-13.377-5.496-14.749-35.38-5.831-29.885 8.918-60.113 35.329-60.113 35.329l3.779 17.15c10.992-6.86 48.777-13.72 48.777-13.72a103.784 103.784 0 00-6.87 32.242c-.687 17.493-10.305 55.909-16.145 66.199z" fill="#fff" stroke="#263238" stroke-linecap="round" stroke-linejoin="round"/><path d="M377.946 528.316c-.44.768-.934 1.509-1.456 2.25a35.326 35.326 0 0119.318 8.04 60.487 60.487 0 014.699 4.541c6.582-8.835 13.987-36.701 22.341-48.171 21.586-29.621 20.363-84.652 21.05-98.029.687-13.377-5.496-14.749-35.38-5.831-29.885 8.918-60.113 35.329-60.113 35.329l3.779 17.15c10.992-6.86 48.777-13.72 48.777-13.72a103.784 103.784 0 00-6.87 32.242c-.687 17.493-10.305 55.909-16.145 66.199z" fill="#68D391"/><path opacity=".53" d="M377.946 528.316c-.44.768-.934 1.509-1.456 2.25a35.326 35.326 0 0119.318 8.04 60.487 60.487 0 014.699 4.541c6.582-8.835 13.987-36.701 22.341-48.171 21.586-29.621 20.363-84.652 21.05-98.029.687-13.377-5.496-14.749-35.38-5.831-29.885 8.918-60.113 35.329-60.113 35.329l3.779 17.15c10.992-6.86 48.777-13.72 48.777-13.72a103.784 103.784 0 00-6.87 32.242c-.687 17.493-10.305 55.909-16.145 66.199z" fill="#fff"/><path opacity=".14" d="M429.375 395.136c-.536-4.871-53.669 17.589-76.079 27.275-3.105 2.47-4.891 4.034-4.891 4.034l3.779 17.15c10.992-6.86 48.777-13.72 48.777-13.72a103.784 103.784 0 00-6.87 32.242c-.687 17.493-10.305 55.909-16.145 66.199-.44.768-.934 1.509-1.456 2.25a38.977 38.977 0 0110.992 2.84c8.23-17.534 17.092-37.936 21.283-53.892 7.557-28.812 21.297-78.204 20.61-84.378z" fill="#000"/><path d="M400.96 429.875s10.305-20.923 19.236-29.498M377.946 528.316c-.44.768-.934 1.509-1.456 2.25a35.326 35.326 0 0119.318 8.04 60.487 60.487 0 014.699 4.541c6.582-8.835 13.987-36.701 22.341-48.171 21.586-29.621 20.363-84.652 21.05-98.029.687-13.377-5.496-14.749-35.38-5.831-29.885 8.918-60.113 35.329-60.113 35.329l3.779 17.15c10.992-6.86 48.777-13.72 48.777-13.72a103.784 103.784 0 00-6.87 32.242c-.687 17.493-10.305 55.909-16.145 66.199z" stroke="#263238" stroke-linecap="round" stroke-linejoin="round"/><path d="M303.118 454.132a118.33 118.33 0 0032.495-6.105c15.54-5.653-12.723-15.998-23.55-10.345a16.079 16.079 0 00-7.12 6.79 16.05 16.05 0 00-1.825 9.66v0z" fill="#68D391" stroke="#263238" stroke-linecap="round" stroke-linejoin="round"/><path d="M258.408 431.933s-10.992 6.174-14.77 13.034c-3.779 6.86 12.476 18.289 29.651 17.603 17.175-.686 48.667-19.318 48.667-19.318s.343 30.184 6.183 41.16c5.839 10.976 32.632 37.73 43.281 44.59 10.648 6.86 46.372 32.585 51.868 36.701 5.496 4.116 15.801 11.662 18.206 12.005 2.404.343 27.48-30.184 33.319-40.474 5.84-10.29 10.992-31.899 8.931-36.701-2.061-4.802-6.183-.686-10.305 2.744s-41.907 28.469-45.342 30.184a37.761 37.761 0 01-5.839 2.401s-30.915-29.498-47.403-52.136-17.862-51.793-24.045-62.769c-6.183-10.976-15.114-15.778-28.511-14.406-13.396 1.372-41.22 8.575-63.891 25.382z" fill="#fff"/><path d="M403.75 551.544c9.178 6.558 17.161 12.348 19.538 14.132 5.496 4.116 15.801 11.662 18.206 12.005.851.123 4.561-3.65 9.247-9.014l-39.338-25.273-7.653 8.15z" fill="#0F4C81"/><path opacity=".5" d="M403.75 551.544c9.178 6.558 17.161 12.348 19.538 14.132 5.496 4.116 15.801 11.662 18.206 12.005.851.123 4.561-3.65 9.247-9.014l-39.338-25.273-7.653 8.15z" fill="#fff"/><path d="M258.408 431.933s-10.992 6.174-14.77 13.034c-3.779 6.86 12.476 18.289 29.651 17.603 17.175-.686 48.667-19.318 48.667-19.318s.343 30.184 6.183 41.16c5.839 10.976 32.632 37.73 43.281 44.59 10.648 6.86 46.372 32.585 51.868 36.701 5.496 4.116 15.801 11.662 18.206 12.005 2.404.343 27.48-30.184 33.319-40.474 5.84-10.29 10.992-31.899 8.931-36.701-2.061-4.802-6.183-.686-10.305 2.744s-41.907 28.469-45.342 30.184a37.761 37.761 0 01-5.839 2.401s-30.915-29.498-47.403-52.136-17.862-51.793-24.045-62.769c-6.183-10.976-15.114-15.778-28.511-14.406-13.396 1.372-41.22 8.575-63.891 25.382z" stroke="#263238" stroke-linecap="round" stroke-linejoin="round"/><path d="M420.128 533.804c-7.268-7.079-34.515-43.588-45.273-64.58-15.76-30.76-17.464-41.242-23.647-52.218-6.183-10.976-15.512-11.827-28.854-10.455-13.341 1.372-37.373 3.855-66.776 20.511 0 0-12.366 6.696-16.131 13.556-3.765 6.86 9.989 24.133 33.897 21.952 17.12-1.564 48.667-19.318 48.667-19.318s.343 30.184 6.183 41.16c5.839 10.976 32.632 37.73 43.281 44.59 6.746 4.349 23.578 16.286 36.397 25.478 3.16-11.484 8.835-17.767 12.256-20.676z" fill="#68D391"/><path opacity=".53" d="M420.128 533.804c-7.268-7.079-34.515-43.588-45.273-64.58-15.76-30.76-17.464-41.242-23.647-52.218-6.183-10.976-15.512-11.827-28.854-10.455-13.341 1.372-37.373 3.855-66.776 20.511 0 0-12.366 6.696-16.131 13.556-3.765 6.86 9.989 24.133 33.897 21.952 17.12-1.564 48.667-19.318 48.667-19.318s.343 30.184 6.183 41.16c5.839 10.976 32.632 37.73 43.281 44.59 6.746 4.349 23.578 16.286 36.397 25.478 3.16-11.484 8.835-17.767 12.256-20.676z" fill="#fff"/><path opacity=".14" d="M351.057 485.002c-10.305-26.068-4.122-78.204-32.976-71.344-21.022 4.994-59.563 22.748-78.923 32.009 2.295 7.875 14.936 18.659 34.131 16.903 17.12-1.564 48.667-19.318 48.667-19.318s.343 30.184 6.183 41.16c5.839 10.976 32.632 37.73 43.281 44.59 6.746 4.349 23.578 16.286 36.397 25.478a49.018 49.018 0 014.795-11.484c-25.584-18.892-55.798-43.437-61.555-57.994z" fill="#000"/><path d="M321.956 443.252l-1.031-17.836M420.128 533.804c-7.268-7.079-34.515-43.588-45.273-64.58-15.76-30.76-17.464-41.242-23.647-52.218-6.183-10.976-15.512-11.827-28.854-10.455-13.341 1.372-37.373 3.855-66.776 20.511 0 0-12.366 6.696-16.131 13.556-3.765 6.86 9.989 24.133 33.897 21.952 17.12-1.564 48.667-19.318 48.667-19.318s.343 30.184 6.183 41.16c5.839 10.976 32.632 37.73 43.281 44.59 6.746 4.349 23.578 16.286 36.397 25.478 3.16-11.484 8.835-17.767 12.256-20.676z" stroke="#263238" stroke-linecap="round" stroke-linejoin="round"/><path d="M423.288 565.703c5.496 4.116 15.801 11.662 18.206 12.005 2.404.343 27.48-30.184 33.319-40.474 5.84-10.29 10.992-31.899 8.931-36.701-2.061-4.802-6.183-.686-10.305 2.744s-41.907 28.469-45.342 30.184c-.907.453-1.731.823-2.459 1.139-.99 1.879-2.199 4.788-1.374 6.75 1.374 3.087 7.213 7.203 7.213 7.203l-10.401 15.559 2.212 1.591z" fill="#68D391" stroke="#263238" stroke-linecap="round" stroke-linejoin="round"/><path d="M474.813 537.234c5.84-10.29 10.992-31.899 8.931-36.701-1.195-2.744-3.078-2.566-5.262-1.221 1.442 6.407 0 18.769-7.104 32.091-6.334 11.882-25.9 32.928-35.724 43.108a23.04 23.04 0 005.867 3.197c2.377.343 27.453-30.184 33.292-40.474z" fill="#fff"/><path d="M441.837 577.612l.303-.151.082-.069c.166-.094.322-.204.467-.329l.165-.137.398-.329.22-.206.536-.494.33-.316.453-.439.385-.384.385-.384.975-1.029.165-.165.605-.658.247-.261a182.64 182.64 0 002.281-2.538v-.069l.852-.96-6.005-3.855a566.107 566.107 0 01-9.109 9.672l.92.604.138.082.852.535 1.374.782.384.22.385.206.44.219.288.137c.138.069.28.129.426.179l.206.082c.159.066.325.112.495.137a.524.524 0 00.261 0l.096-.082z" fill="#0F4C81"/><path opacity=".5" d="M441.837 577.612l.303-.151.082-.069c.166-.094.322-.204.467-.329l.165-.137.398-.329.22-.206.536-.494.33-.316.453-.439.385-.384.385-.384.975-1.029.165-.165.605-.658.247-.261a182.64 182.64 0 002.281-2.538v-.069l.852-.96-6.005-3.855a566.107 566.107 0 01-9.109 9.672l.92.604.138.082.852.535 1.374.782.384.22.385.206.44.219.288.137c.138.069.28.129.426.179l.206.082c.159.066.325.112.495.137a.524.524 0 00.261 0l.096-.082z" fill="#fff"/><path d="M474.813 537.234c5.84-10.29 10.992-31.899 8.931-36.701-1.195-2.744-3.078-2.566-5.262-1.221 1.442 6.407 0 18.769-7.104 32.091-6.334 11.882-25.9 32.928-35.724 43.108a23.04 23.04 0 005.867 3.197c2.377.343 27.453-30.184 33.292-40.474z" stroke="#263238" stroke-linecap="round" stroke-linejoin="round"/><path d="M420.197 585.597c-10.305-6.517-21.984-24.696-22.328-30.87a9.748 9.748 0 01.165-2.017 9.834 9.834 0 00-5.661 2.017 131.385 131.385 0 00-13.396-10.633 28.09 28.09 0 00-12.366-3.691c-4.988 4.116-9.618 7.409-10.347 10.208-1.374 5.145 7.901 25.725 30.228 40.131 22.328 14.406 29.885 12.005 36.411 10.633 6.527-1.372 7.599-9.261-2.706-15.778z" fill="#68D391" stroke="#263238" stroke-linecap="round" stroke-linejoin="round"/><path d="M420.197 585.597a44.847 44.847 0 01-9.151-8.232c-7.09-3.018-16.557-6.86-24.856-12.019-8.931-5.488-6.87-8.918-12.022-14.063-3.957-3.951-11.734-4.459-15.114-4.486a9.484 9.484 0 00-2.748 3.8c-1.374 5.145 7.9 25.725 30.228 40.131 22.327 14.406 29.884 12.005 36.411 10.633 6.526-1.372 7.557-9.247-2.748-15.764z" fill="#fff"/><path d="M420.197 585.597a44.847 44.847 0 01-9.151-8.232c-7.09-3.018-16.557-6.86-24.856-12.019-8.931-5.488-6.87-8.918-12.022-14.063-3.957-3.951-11.734-4.459-15.114-4.486a9.484 9.484 0 00-2.748 3.8c-1.374 5.145 7.9 25.725 30.228 40.131 22.327 14.406 29.884 12.005 36.411 10.633 6.526-1.372 7.557-9.247-2.748-15.764z" fill="#0F4C81"/><path opacity=".5" d="M420.197 585.597a44.847 44.847 0 01-9.151-8.232c-7.09-3.018-16.557-6.86-24.856-12.019-8.931-5.488-6.87-8.918-12.022-14.063-3.957-3.951-11.734-4.459-15.114-4.486a9.484 9.484 0 00-2.748 3.8c-1.374 5.145 7.9 25.725 30.228 40.131 22.327 14.406 29.884 12.005 36.411 10.633 6.526-1.372 7.557-9.247-2.748-15.764z" fill="#fff"/><path d="M420.197 585.597a44.847 44.847 0 01-9.151-8.232c-7.09-3.018-16.557-6.86-24.856-12.019-8.931-5.488-6.87-8.918-12.022-14.063-3.957-3.951-11.734-4.459-15.114-4.486a9.484 9.484 0 00-2.748 3.8c-1.374 5.145 7.9 25.725 30.228 40.131 22.327 14.406 29.884 12.005 36.411 10.633 6.526-1.372 7.557-9.247-2.748-15.764z" stroke="#263238" stroke-linecap="round" stroke-linejoin="round"/><path d="M421.914 587.998c-8.931-5.145-27.136-8.575-38.815-16.464-11.679-7.889-8.588-14.749-17.175-20.237a8.741 8.741 0 00-9.618-.549c-1.196 5.351 8.106 25.698 30.228 39.994 22.121 14.296 29.884 12.005 36.411 10.633 4.341-.919 6.224-4.706 3.984-9.055a18.729 18.729 0 00-5.015-4.322z" fill="#68D391"/><path opacity=".53" d="M421.914 587.998c-8.931-5.145-27.136-8.575-38.815-16.464-11.679-7.889-8.588-14.749-17.175-20.237a8.741 8.741 0 00-9.618-.549c-1.196 5.351 8.106 25.698 30.228 39.994 22.121 14.296 29.884 12.005 36.411 10.633 4.341-.919 6.224-4.706 3.984-9.055a18.729 18.729 0 00-5.015-4.322z" fill="#fff"/><path d="M421.914 587.998c-8.931-5.145-27.136-8.575-38.815-16.464-11.679-7.889-8.588-14.749-17.175-20.237a8.741 8.741 0 00-9.618-.549c-1.196 5.351 8.106 25.698 30.228 39.994 22.121 14.296 29.884 12.005 36.411 10.633 4.341-.919 6.224-4.706 3.984-9.055a18.729 18.729 0 00-5.015-4.322v0z" stroke="#263238" stroke-linecap="round" stroke-linejoin="round"/><path d="M250.741 522.389s6.595-7.999 7.53-1.88c.934 6.12-.467 17.397-5.18 21.623-4.713 4.226-7.063-2.346-7.063-2.346l2.831-3.759s2.349 4.706 4.232-2.827c1.882-7.532-3.765-6.585-3.765-6.585l1.415-4.226z" fill="#fff" stroke="#263238" stroke-linecap="round" stroke-linejoin="round"/><path d="M245.699 552.491c-3.902 2.881-16.626 2.881-20.514 0-8.244-6.106-6.87-35.604-6.87-35.604h34.158s1.483 29.498-6.774 35.604z" fill="#fff" stroke="#263238" stroke-linecap="round" stroke-linejoin="round"/><path d="M222.052 511.098c0-3.705 3.449-3.705 3.449-7.423s-3.449-3.718-3.449-7.423c0-3.704 3.449-3.718 3.449-7.436s-3.449-3.718-3.449-7.436 3.449-3.718 3.449-7.436M233.855 511.097c0-2.744 3.448-2.744 3.448-5.638 0-2.895-3.448-2.813-3.448-5.639 0-2.827 3.448-2.813 3.448-5.639 0-2.827-3.448-2.827-3.448-5.653 0-2.826 3.448-2.813 3.448-5.639M246.839 511.098c0-3.705 3.435-3.705 3.435-7.423s-3.435-3.718-3.435-7.423c0-3.704 3.435-3.718 3.435-7.436s-3.435-3.718-3.435-7.436 3.435-3.718 3.435-7.436" stroke="#263238" stroke-linecap="round" stroke-linejoin="round"/><path d="M252.5 516.887c0 .865-7.64 1.551-17.079 1.551s-17.079-.686-17.079-1.551c0-.864 7.64-1.55 17.079-1.55s17.079.686 17.079 1.55z" fill="#fff" stroke="#263238" stroke-linecap="round" stroke-linejoin="round"/><path d="M284.033 304.584s1.608 17.328 2.281 22.803c.673 5.474 2.198 21.197 3.779 26.397 1.58 5.2 10.195 14.241 10.992 12.156.796-2.086 5.083-16.231 3.38-24.696-1.704-8.465-2.226-15.696-1.168-17.836 1.058-2.14 4.864-4.541 4.864-4.541a138.304 138.304 0 01-12.902-7.505c-6.073-4.034-10.374-8.603-11.226-6.778z" fill="#fff"/><path d="M306.086 319.799l-1.374-2.661c-2.528-1.372-6.046-3.403-9.384-5.639-6.115-4.116-10.415-8.74-11.267-6.86 0 0 1.607 17.328 2.281 22.802.673 5.475 2.198 21.198 3.778 26.398a17.717 17.717 0 002.212 4.28c-1.662-10.345.138-29.031.138-29.031l13.616-9.289z" fill="#0F4C81"/><path opacity=".5" d="M306.086 319.799l-1.374-2.661c-2.528-1.372-6.046-3.403-9.384-5.639-6.115-4.116-10.415-8.74-11.267-6.86 0 0 1.607 17.328 2.281 22.802.673 5.475 2.198 21.198 3.778 26.398a17.717 17.717 0 002.212 4.28c-1.662-10.345.138-29.031.138-29.031l13.616-9.289z" fill="#fff"/><path d="M284.033 304.584s1.608 17.328 2.281 22.803c.673 5.474 2.198 21.197 3.779 26.397 1.58 5.2 10.195 14.241 10.992 12.156.796-2.086 5.083-16.231 3.38-24.696-1.704-8.465-2.226-15.696-1.168-17.836 1.058-2.14 4.864-4.541 4.864-4.541a138.304 138.304 0 01-12.902-7.505c-6.073-4.034-10.374-8.603-11.226-6.778z" stroke="#263238" stroke-linecap="round" stroke-linejoin="round"/><path d="M283.401 307.095s9.893 8.232 17.477 11.25c7.585 3.019 19.236 2.826 20.899-1.111 1.663-3.938-2.885-35.123-6.801-43.328-3.916-8.204-8.093-8.342-15.004-8.973-6.912-.631-20.734 4.994-23.166 11.662-2.432 6.668.344 16.107 2.35 21.705a41.113 41.113 0 004.245 8.795z" fill="#fff"/><path d="M301.167 306.724c-3.504-10.372-4.383-26.699-4.383-31.048 0-3.361 8.766-7.052 12.764-8.561-2.624-1.619-5.674-1.825-9.618-2.182-6.87-.617-20.733 4.994-23.165 11.662-2.432 6.668.343 16.108 2.349 21.705a41.117 41.117 0 004.246 8.795s9.893 8.232 17.477 11.25a31.528 31.528 0 0016.488 1.578c-5.427-2.044-13.822-6.27-16.158-13.199z" fill="#0F4C81"/><path opacity=".5" d="M301.167 306.724c-3.504-10.372-4.383-26.699-4.383-31.048 0-3.361 8.766-7.052 12.764-8.561-2.624-1.619-5.674-1.825-9.618-2.182-6.87-.617-20.733 4.994-23.165 11.662-2.432 6.668.343 16.108 2.349 21.705a41.117 41.117 0 004.246 8.795s9.893 8.232 17.477 11.25a31.528 31.528 0 0016.488 1.578c-5.427-2.044-13.822-6.27-16.158-13.199z" fill="#fff"/><path d="M283.401 307.095s9.893 8.232 17.477 11.25c7.585 3.019 19.236 2.826 20.899-1.111 1.663-3.938-2.885-35.123-6.801-43.328-3.916-8.204-8.093-8.342-15.004-8.973-6.912-.631-20.734 4.994-23.166 11.662-2.432 6.668.344 16.107 2.35 21.705a41.113 41.113 0 004.245 8.795v0z" stroke="#263238" stroke-linecap="round" stroke-linejoin="round"/><path d="M315.718 286.748c.165 3.951-2.322 7.258-5.496 7.381-3.174.124-5.95-2.963-6.101-6.86-.151-3.896 2.322-7.258 5.496-7.395 3.174-.137 5.95 2.881 6.101 6.874zM323.495 285.211c.164 3.952-1.113 7.203-2.845 7.272-1.731.069-3.27-3.073-3.421-7.025-.151-3.951 1.127-7.216 2.858-7.285 1.731-.069 3.256 3.087 3.408 7.038z" stroke="#263238" stroke-linecap="round" stroke-linejoin="round"/><path d="M316.13 285.294s11.349 2.154 10.25 4.884c-1.099 2.73-8.766 5.68-8.766 5.68" fill="#fff"/><path d="M316.13 285.294s11.349 2.154 10.25 4.884c-1.099 2.73-8.766 5.68-8.766 5.68M315.429 284.004s.165-1.372 1.91-.508M303.764 287.818l-20.638 8.109" stroke="#263238" stroke-linecap="round" stroke-linejoin="round"/><path d="M304.039 281.15a5.236 5.236 0 015.138-3.1M317.779 278.146l-3.174 1.193" stroke="#263238" stroke-width="2" stroke-linecap="round" stroke-linejoin="round"/><path d="M310.62 287.462c.193 1.372 0 2.551-.563 2.62-.563.069-1.058-.988-1.251-2.374-.192-1.385.069-2.538.578-2.606.508-.069 1.058.988 1.236 2.36z" fill="#263238"/><path d="M285.05 295.982s-1.374 2.744 2.501 2.881c3.874.137 6.512-1.743 4.63-4.116-1.882-2.374-4.672-4.596-1.8-7.697s8.45-5.708 5.317-9.165c-3.132-3.458-14.66-.316-11.775-3.115 2.886-2.798 16.213-5.721 22.204-5.35 5.991.37 17.175-4.267 19.635-10.332 2.459-6.064-.976-17.273-9.028-16.669-8.051.603-14.056 7.724-17.628 8.232-3.572.507-10.896-3.458-17.038 0-6.141 3.457-6.348 13.39-6.87 14.611-.522 1.222-8.848 3.033-10.318 11.443a22.39 22.39 0 005.798 18.947c3.449 3.746 5.001 5.173 5.001 5.173l9.371-4.843z" fill="#68D391" stroke="#263238" stroke-linecap="round" stroke-linejoin="round"/><path d="M267.573 280.78a6.507 6.507 0 00.879 3.649M302.596 259.061s-2.995-6.544 4.644-6.544 8.739 9.604.824 13.088c-7.914 3.485-25.13 4.363-34.418 8.466a12.07 12.07 0 00-4.727 3.334M288.76 282.303c-2.748.988-6.307 2.36-9.921 4.033-7.653 3.554-6.018 7.094-6.018 7.094M293.857 280.615s-.673.192-1.813.563" stroke="#fff" stroke-width=".75" stroke-linecap="round" stroke-linejoin="round"/><path d="M286.355 298.918s-4.438-6.394-9.109-3.828c-4.672 2.565-1.045 11.689 1.772 14.859 2.817 3.169 8.244-2.744 8.808-4.226" fill="#fff"/><path d="M286.355 298.918s-4.438-6.394-9.109-3.828c-4.672 2.565-1.045 11.689 1.772 14.859 2.817 3.169 8.244-2.744 8.808-4.226" fill="#0F4C81"/><path opacity=".5" d="M286.355 298.918s-4.438-6.394-9.109-3.828c-4.672 2.565-1.045 11.689 1.772 14.859 2.817 3.169 8.244-2.744 8.808-4.226" fill="#fff"/><path d="M286.355 298.918s-4.438-6.394-9.109-3.828c-4.672 2.565-1.045 11.689 1.772 14.859 2.817 3.169 8.244-2.744 8.808-4.226" stroke="#263238" stroke-linecap="round" stroke-linejoin="round"/><path d="M230.31 293.087h-98.488c-3.886 0-7.035 3.145-7.035 7.024v71.893c0 3.88 3.149 7.025 7.035 7.025h98.488c3.885 0 7.035-3.145 7.035-7.025v-71.893c0-3.879-3.15-7.024-7.035-7.024z" fill="#fff" stroke="#263238" stroke-linecap="round" stroke-linejoin="round"/><path d="M235.201 354.909l65.952 17.15-65.952-32.242" fill="#fff"/><path d="M235.201 354.909l65.952 17.15-65.952-32.242" stroke="#263238" stroke-linecap="round" stroke-linejoin="round"/><path d="M160.36 301.346h-26.477v69.423h26.477v-69.423zM231.505 301.346h-3.311v69.423h3.311v-69.423z" fill="#007A5E" stroke="#004231" stroke-linecap="round" stroke-linejoin="round"/><path d="M231.505 333.08h-3.311v5.927h3.311v-5.927z" fill="#68D391" stroke="#263238" stroke-linecap="round" stroke-linejoin="round"/><path d="M168.645 302.992h52.143M168.645 310.429h52.143M168.645 317.879h52.143M168.645 325.315h52.143M168.645 343.494h52.143M168.645 350.107h52.143M168.645 356.72h52.143M168.645 370.44h52.143M133.883 370.756l26.49-69.41" stroke="#263238" stroke-linecap="round" stroke-linejoin="round"/><path d="M532.933 562.877c12.696 0 22.987-4.607 22.987-10.29 0-5.683-10.291-10.29-22.987-10.29-12.695 0-22.987 4.607-22.987 10.29 0 5.683 10.292 10.29 22.987 10.29z" fill="#0F4C81"/><path opacity=".5" d="M532.933 562.877c12.696 0 22.987-4.607 22.987-10.29 0-5.683-10.291-10.29-22.987-10.29-12.695 0-22.987 4.607-22.987 10.29 0 5.683 10.292 10.29 22.987 10.29z" fill="#fff"/><path d="M506.044 400.322c2.46 1.07 8.478.933 8.478.933s-1.292-3.938-1.374-4.116c-1.374-2.744-5.496-7.313-8.89-6.86a4.146 4.146 0 00-1.559.63 4.123 4.123 0 00-1.776 2.769 4.105 4.105 0 00.079 1.677c.508 2.305 2.94 4.048 5.042 4.967z" fill="#263238"/><path d="M584.857 379.866c-3.408-.357-7.461 4.294-8.711 7.093-.11.247-1.374 4.212-1.292 4.212h.069c-.646.727-1.374 1.523-2.047 2.401a75.556 75.556 0 00-4.315 5.625 70.703 70.703 0 00-4.465 7.107 52.696 52.696 0 00-3.82 8.589.255.255 0 000 .11v-4.034c-.398-3.019-2.94-8.657-6.32-9.275a4.129 4.129 0 00-4.225 2.197 4.113 4.113 0 00-.447 1.617c-.192 2.401 1.553 4.816 3.256 6.339 1.924 1.715 7.255 3.375 7.681 3.499a74.088 74.088 0 00-2.253 9.302c-.33 1.838-.591 3.69-.852 5.556v-1.756c-.399-3.032-2.941-8.657-6.307-9.275a4.121 4.121 0 00-4.685 3.801c-.193 2.415 1.552 4.816 3.256 6.339 1.704 1.522 6.252 3.059 7.461 3.443-.082.714-.179 1.372-.275 2.141-.412 3.43-.797 6.86-1.291 10.221-.179 1.18-.385 2.332-.591 3.485v-1.509c-.399-3.033-2.94-8.658-6.321-9.289a4.125 4.125 0 00-4.671 3.814c-.192 2.415 1.552 4.816 3.256 6.339 1.704 1.523 5.812 2.909 7.241 3.361a85.763 85.763 0 01-.797 3.499c-.22.768-.384 1.523-.645 2.278-.262.754-.481 1.509-.729 2.25-.508 1.372-1.03 2.881-1.566 4.239-.371.96-.742 1.866-1.099 2.744.178-1.18.494-3.485.494-3.677a15.705 15.705 0 00-2.102-7.656 6.309 6.309 0 000-.891 4.11 4.11 0 00-1.732-2.793 4.114 4.114 0 00-3.228-.637c-3.311.878-5.414 6.681-5.578 9.727 0 .192.11 2.154.206 3.389l-.495-2.154a217.009 217.009 0 00-1.154-4.473c-.234-.755-.454-1.509-.687-2.264-.234-.754-.536-1.536-.797-2.318-.66-1.784-1.374-3.568-2.212-5.351 1.291-.302 5.826-1.454 7.653-2.854 1.827-1.399 3.737-3.663 3.71-6.078a4.039 4.039 0 00-4.37-4.116c-3.421.371-6.375 5.79-6.993 8.781 0 .192-.234 2.387-.33 3.595a110.11 110.11 0 00-1.484-3.197c-1.525-3.06-3.16-6.106-4.781-9.165a107.32 107.32 0 01-1.471-2.813c.454-.096 5.881-1.372 7.915-2.922 1.813-1.372 3.737-3.663 3.723-6.078a4.102 4.102 0 00-1.298-3.007 4.12 4.12 0 00-3.085-1.109c-3.407.37-6.361 5.79-6.98 8.781 0 .219-.33 3.389-.371 4.198-1.071-2.072-2.116-4.116-3.077-6.215a71.554 71.554 0 01-3.339-8.616c.206 0 5.88-1.372 7.969-2.936 1.814-1.372 3.737-3.664 3.723-6.078a4.101 4.101 0 00-1.298-3.007 4.11 4.11 0 00-3.085-1.109c-3.407.37-6.361 5.79-6.98 8.78 0 .247-.357 3.65-.371 4.267 0-.178-.123-.343-.178-.521a51.69 51.69 0 01-1.731-9.11c-.193-1.688-.275-3.334-.33-4.926 1.085-.123 6.004-.782 8.051-2.016 2.048-1.235 4.123-3.225 4.37-5.639a4.11 4.11 0 00-.949-3.147 4.134 4.134 0 00-2.953-1.449c-3.435 0-6.967 5.062-7.915 7.957 0 .165-.384 1.825-.618 3.046v-2.154c0-2.579.165-4.953.33-7.052.11-1.194.22-2.264.343-3.279.99-.673 4.947-3.471 6.17-5.488 1.223-2.017 2.171-4.761 1.277-6.997a4.014 4.014 0 00-.881-1.441 4.05 4.05 0 00-4.697-.851c-3.05 1.564-3.847 7.684-3.353 10.702 0 .261 1.196 4.253 1.251 4.226-.124.96-.261 2.003-.385 3.128-.206 2.099-.426 4.473-.481 7.079a73.051 73.051 0 00.193 8.383 53.025 53.025 0 001.566 9.261.255.255 0 000 .11c-.536-.837-2.13-3.156-2.267-3.32-2.006-2.319-7.227-5.598-10.388-4.267a4.12 4.12 0 00-2.316 4.153c.061.561.236 1.105.516 1.596 1.168 2.126 3.958 3.169 6.225 3.498 2.542.371 7.914-1.18 8.34-1.303a72.948 72.948 0 003.256 8.986 122.38 122.38 0 002.363 5.104c-.494-.713-.934-1.372-1.003-1.372-2.006-2.305-7.241-5.598-10.387-4.267a4.118 4.118 0 00-1.8 5.763c1.168 2.113 3.957 3.169 6.211 3.498 2.253.33 6.87-.905 8.12-1.248.316.645.632 1.289.962 1.934 1.552 3.101 3.119 6.174 4.561 9.234a46.69 46.69 0 011.374 3.251 26.46 26.46 0 00-.865-1.248c-2.006-2.305-7.241-5.598-10.388-4.267a4.115 4.115 0 00-1.8 5.762c1.168 2.113 3.958 3.156 6.211 3.485 2.253.33 6.458-.782 7.9-1.18.44 1.125.893 2.25 1.264 3.362.248.754.536 1.468.729 2.25.192.782.426 1.523.645 2.277.344 1.468.715 2.978 1.031 4.405.22 1.001.412 1.948.604 2.908-.494-1.084-1.511-3.169-1.607-3.334-1.635-2.593-6.307-6.64-9.618-5.79a4.04 4.04 0 00-2.953 3.756c-.019.57.084 1.137.301 1.664.825 2.264 3.421 3.718 5.606 4.39 2.418.727 7.749 0 8.409 0 .316 1.592.618 3.142.866 4.61a197.51 197.51 0 011.799 12.348c0 .535.11 1.002.165 1.454h-10.318l3.311 64.622a9.237 9.237 0 002.872 6.225 9.255 9.255 0 0012.745-.001 9.228 9.228 0 002.863-6.224l3.325-64.622h-9.618c.069-.151.138-.288.22-.439 1.374-2.744 3.147-6.695 5.125-11.511a192.88 192.88 0 001.896-4.857c.646.138 5.922 1.208 8.382.645 2.239-.494 4.932-1.756 5.935-3.951a4.107 4.107 0 00-.823-4.698 4.122 4.122 0 00-1.416-.914c-3.257-1.083-8.244 2.607-10.03 5.063-.11.137-1.086 1.852-1.69 2.936.247-.7.508-1.372.769-2.085.522-1.372.989-2.827 1.511-4.363.22-.741.454-1.496.674-2.264.219-.768.412-1.578.618-2.374.44-1.852.797-3.745 1.113-5.666 1.236.453 5.661 1.989 7.955 1.825 2.295-.165 5.139-1.002 6.458-3.019a4.098 4.098 0 00.595-3.235 4.126 4.126 0 00-1.969-2.637c-3.05-1.578-8.505 1.372-10.676 3.471-.137.138-1.525 1.866-2.267 2.827.192-1.166.371-2.319.522-3.485.426-3.403.742-6.86 1.072-10.29l.33-3.142c.439.165 5.661 2.099 8.244 1.921 2.28-.165 5.138-1.002 6.457-3.019a4.098 4.098 0 00.595-3.235 4.11 4.11 0 00-1.969-2.637c-3.05-1.578-8.518 1.372-10.676 3.471-.164.165-2.157 2.648-2.624 3.307.234-2.319.509-4.624.866-6.86a72.142 72.142 0 011.965-9.042c.206.083 5.647 2.127 8.244 1.935 2.28-.151 5.138-.988 6.457-3.018a4.103 4.103 0 00.595-3.236 4.11 4.11 0 00-1.969-2.637c-3.05-1.564-8.505 1.372-10.676 3.485-.165.165-2.308 2.84-2.651 3.348 0-.165.082-.357.137-.521a51.863 51.863 0 013.586-8.562c.77-1.523 1.608-2.936 2.446-4.28.975.48 5.496 2.648 7.832 2.744 2.335.096 5.207-.426 6.746-2.292a4.108 4.108 0 00-.701-5.995c-2.858-1.894-8.601.384-10.992 2.291-.123.11-1.374 1.372-2.198 2.195l1.154-1.825c1.443-2.154 2.885-4.033 4.122-5.693.742-.947 1.443-1.77 2.088-2.552 1.21 0 6.06-.165 8.176-1.153 2.116-.988 4.438-2.744 4.932-5.145a4.097 4.097 0 00-.51-3.384 4.116 4.116 0 00-2.897-1.829zm-37.744 91.43a209.612 209.612 0 01-5.317 11.278l-.742 1.468h-.234c-.069-.522-.137-1.098-.233-1.743a196.848 196.848 0 00-2.075-12.348c-.33-1.619-.701-3.348-1.099-5.104a48.442 48.442 0 004.699-2.195 29.056 29.056 0 006.87 4.391c-.66 1.44-1.264 2.894-1.869 4.253z" fill="#263238"/><path d="M566.899 401.639s1.085-3.992 1.126-4.253c.426-3.032-.549-9.124-3.627-10.619a4.133 4.133 0 00-3.278.032 4.125 4.125 0 00-2.218 2.41c-.824 2.277.22 5.063 1.47 6.983 1.429 2.25 6.513 5.447 6.527 5.447z" fill="#263238"/><g clip-path="url(#clip0)"><path fill-rule="evenodd" clip-rule="evenodd" d="M177.258 329.351v7.387h2.72v1.274h-4.168v-8.661h1.448zm7.832 3.675v-.78h1.372v5.767h-1.372v-.78a1.89 1.89 0 01-.787.68c-.34.165-.682.248-1.026.248-.446 0-.853-.081-1.222-.241a2.872 2.872 0 01-.951-.663 3.06 3.06 0 01-.837-2.128 3.084 3.084 0 01.837-2.128c.268-.283.591-.508.951-.662a3.022 3.022 0 011.222-.241c.344 0 .686.082 1.026.247.34.165.602.392.787.681zm-.126 2.809c.084-.226.127-.465.126-.706 0-.247-.042-.482-.126-.705a1.714 1.714 0 00-.901-.978 1.688 1.688 0 00-.711-.148 1.648 1.648 0 00-1.247.544c-.153.17-.271.367-.345.582a2.041 2.041 0 00-.12.705c0 .247.039.483.119.705a1.689 1.689 0 00.888.978c.21.099.445.149.705.149a1.673 1.673 0 001.259-.545c.154-.17.274-.367.353-.581zm2.581 2.177v-5.766h3.727v1.327h-2.355v4.44h-1.372v-.001zm8.701-4.986v-.78h1.373v5.767h-1.373v-.78a1.884 1.884 0 01-.787.68c-.34.165-.682.248-1.026.248-.445 0-.852-.081-1.221-.241a2.862 2.862 0 01-.951-.663 3.076 3.076 0 01-.837-2.128 3.084 3.084 0 01.837-2.128c.267-.283.591-.508.951-.662a3.02 3.02 0 011.221-.241c.344 0 .686.082 1.026.247.34.165.603.392.787.681zm-.126 2.809a1.98 1.98 0 00.126-.706c0-.247-.042-.482-.126-.705a1.783 1.783 0 00-.352-.582 1.688 1.688 0 00-1.259-.544 1.649 1.649 0 00-1.247.544c-.154.17-.271.367-.346.582a2.065 2.065 0 00-.12.705c0 .247.04.483.12.705a1.686 1.686 0 00.887.978c.21.099.445.149.706.149a1.673 1.673 0 001.259-.545c.154-.17.274-.367.352-.581zm7.001-3.589h1.39l-2.252 5.767h-1.725l-2.253-5.767h1.39l1.725 4.416 1.725-4.416zm4.384-.148c1.869 0 3.143 1.627 2.904 3.532h-4.553c0 .498.511 1.459 1.725 1.459 1.043 0 1.743-.902 1.743-.903l.928.706c-.829.869-1.508 1.269-2.571 1.269-1.9 0-3.187-1.181-3.187-3.032a3.01 3.01 0 013.011-3.031zm-1.646 2.53h3.29c-.011-.111-.189-1.459-1.655-1.459s-1.624 1.348-1.635 1.459zm5.444 3.384v-8.661h1.372v8.661h-1.372z" fill="#FF2D20"/></g><defs><clipPath id="clip0"><path fill="#fff" d="M175.701 329.057h37.185v9.295h-37.185z"/></clipPath></defs></svg>
