<svg width="581" height="521" viewBox="0 0 581 521" fill="none" xmlns="http://www.w3.org/2000/svg">
<path d="M534.561 88.1494C522.888 54.7197 496.129 25.9795 464.366 10.3195C420.435 -11.3803 362.07 2.24235 332.248 41.085C315.993 62.2543 308.299 88.5231 297.723 113.008C287.148 137.492 271.833 162.11 247.317 172.67C219.376 184.726 186.841 175.539 157.007 181.555C110.291 190.982 77.4183 239.421 78.1901 287.076C78.6242 312.079 87.174 335.792 100.957 356.443C118.817 383.182 145.105 403.146 175.253 414.382C234.763 436.552 307.346 449.813 368.352 437.6C438.608 423.592 509.442 368.884 536.032 302.411C549.189 269.511 549.562 228.378 549.743 192.935C549.924 157.492 546.246 121.567 534.561 88.1494Z" fill="#007A5E"/>
<path opacity="0.7" d="M534.561 88.1494C522.888 54.7197 496.129 25.9795 464.366 10.3195C420.435 -11.3803 362.07 2.24235 332.248 41.085C315.993 62.2543 308.299 88.5231 297.723 113.008C287.148 137.492 271.833 162.11 247.317 172.67C219.376 184.726 186.841 175.539 157.007 181.555C110.291 190.982 77.4183 239.421 78.1901 287.076C78.6242 312.079 87.174 335.792 100.957 356.443C118.817 383.182 145.105 403.146 175.253 414.382C234.763 436.552 307.346 449.813 368.352 437.6C438.608 423.592 509.442 368.884 536.032 302.411C549.189 269.511 549.562 228.378 549.743 192.935C549.924 157.492 546.246 121.567 534.561 88.1494Z" fill="white"/>
<path d="M0 380.663L4.49799 396.468L433.447 521L580.988 423.653V410.379L0 380.663Z" fill="#E0E0E0"/>
<path d="M153.872 309.222L580.988 410.379L433.447 506.63L0 380.663L153.872 309.222Z" fill="#EBEBEB"/>
<path d="M444.565 499.975C442.948 503.532 441.145 507.001 439.163 510.367C437.361 513.836 435.373 517.205 433.206 520.458C436.621 513.427 440.413 506.586 444.565 499.963V499.975Z" fill="#EBEBEB"/>
<path d="M458.662 490.801C457.045 494.358 455.242 497.826 453.26 501.193C451.459 504.662 449.47 508.03 447.303 511.283C450.718 504.253 454.51 497.411 458.662 490.789V490.801Z" fill="#EBEBEB"/>
<path d="M472.759 481.591C471.142 485.147 469.339 488.616 467.357 491.983C465.559 495.454 463.57 498.822 461.399 502.073C464.815 495.043 468.607 488.201 472.759 481.579V481.591Z" fill="#EBEBEB"/>
<path d="M486.88 472.405C485.263 475.961 483.46 479.43 481.478 482.796C479.676 486.265 477.688 489.634 475.521 492.887C478.936 485.856 482.728 479.015 486.88 472.393V472.405Z" fill="#EBEBEB"/>
<path d="M500.953 463.218C499.336 466.775 497.532 470.243 495.55 473.61C493.749 477.079 491.76 480.447 489.593 483.7C491.206 480.138 493.009 476.665 494.996 473.297C496.795 469.831 498.784 466.466 500.953 463.218Z" fill="#EBEBEB"/>
<path d="M515.049 454.02C513.432 457.576 511.629 461.045 509.647 464.412C507.849 467.883 505.86 471.251 503.69 474.502C507.105 467.472 510.897 460.63 515.049 454.008V454.02Z" fill="#EBEBEB"/>
<path d="M529.147 444.834C527.53 448.39 525.726 451.859 523.744 455.226C521.943 458.695 519.954 462.063 517.787 465.316C521.202 458.285 524.994 451.444 529.147 444.822V444.834Z" fill="#EBEBEB"/>
<path d="M543.243 435.648C541.62 439.201 539.817 442.67 537.841 446.039C536.041 449.506 534.053 452.87 531.884 456.118C533.495 452.559 535.298 449.09 537.286 445.726C539.086 442.26 541.074 438.895 543.243 435.648Z" fill="#EBEBEB"/>
<path d="M557.34 426.449C555.723 430.006 553.92 433.474 551.938 436.841C550.137 440.31 548.148 443.678 545.981 446.931C549.396 439.901 553.188 433.06 557.34 426.437V426.449Z" fill="#EBEBEB"/>
<path d="M571.437 417.263C569.82 420.82 568.017 424.288 566.035 427.655C564.234 431.128 562.245 434.501 560.078 437.757C561.69 434.195 563.493 430.722 565.48 427.354C567.279 423.883 569.268 420.515 571.437 417.263Z" fill="#EBEBEB"/>
<path d="M581 416.25C580.139 418.439 579.09 420.548 577.865 422.555C576.814 424.669 575.58 426.686 574.175 428.583C575.03 426.392 576.079 424.282 577.31 422.278C578.352 420.16 579.587 418.142 581 416.25Z" fill="#EBEBEB"/>
<path d="M429.672 519.734C428.77 519.006 427.934 518.2 427.176 517.323C425.693 515.744 423.715 513.502 421.629 510.958C419.543 508.414 417.722 506.039 416.455 504.291C415.72 503.386 415.077 502.408 414.538 501.374C415.364 502.196 416.122 503.083 416.805 504.026L422.111 510.56L427.501 517.022C428.297 517.866 429.022 518.773 429.672 519.734Z" fill="#EBEBEB"/>
<path d="M409.787 514.02C408.878 513.301 408.041 512.493 407.291 511.609C405.808 510.03 403.83 507.799 401.744 505.256C399.658 502.712 397.837 500.337 396.571 498.589C395.836 497.678 395.194 496.697 394.653 495.659C395.475 496.485 396.233 497.371 396.92 498.312L402.226 504.858C404.264 507.269 406.109 509.499 407.617 511.319C408.413 512.159 409.139 513.062 409.787 514.02Z" fill="#EBEBEB"/>
<path d="M389.902 508.366C388.992 507.647 388.156 506.839 387.406 505.955C385.923 504.376 383.945 502.145 381.859 499.602C379.773 497.058 377.952 494.683 376.685 492.935C375.948 492.027 375.305 491.045 374.768 490.006C375.594 490.827 376.352 491.714 377.035 492.658L382.341 499.204L387.731 505.666C388.524 506.508 389.25 507.411 389.902 508.366Z" fill="#EBEBEB"/>
<path d="M370.017 502.724C369.111 502.001 368.275 501.193 367.521 500.313C366.037 498.734 364.06 496.492 361.973 493.948C359.887 491.404 358.066 489.029 356.8 487.281C356.064 486.376 355.422 485.398 354.883 484.364C355.713 485.182 356.471 486.069 357.15 487.016L362.456 493.55L367.846 500.012C368.646 500.852 369.372 501.76 370.017 502.724Z" fill="#EBEBEB"/>
<path d="M350.132 497.07C349.222 496.351 348.386 495.543 347.635 494.659C346.152 493.08 344.174 490.85 342.088 488.306C340.002 485.762 338.181 483.387 336.915 481.639C336.18 480.729 335.538 479.747 334.998 478.71C335.824 479.531 336.582 480.418 337.265 481.362L342.571 487.908C344.609 490.319 346.454 492.549 347.961 494.37C348.762 495.205 349.488 496.109 350.132 497.07Z" fill="#EBEBEB"/>
<path d="M330.246 491.416C329.337 490.697 328.5 489.889 327.75 489.005C326.267 487.426 324.289 485.195 322.203 482.652C320.117 480.108 318.296 477.733 317.03 475.985C316.292 475.077 315.649 474.095 315.112 473.056C315.94 473.88 316.698 474.771 317.379 475.72L322.685 482.254L328.076 488.716C328.873 489.554 329.599 490.457 330.246 491.416Z" fill="#EBEBEB"/>
<path d="M310.361 485.774C309.451 485.055 308.615 484.247 307.865 483.363C306.382 481.784 304.404 479.553 302.318 476.998C300.232 474.442 298.411 472.079 297.144 470.331C296.409 469.426 295.766 468.448 295.227 467.414C296.057 468.232 296.815 469.119 297.494 470.066L302.8 476.6L308.19 483.061C308.99 483.902 309.716 484.809 310.361 485.774Z" fill="#EBEBEB"/>
<path d="M290.476 478.999C289.566 478.28 288.73 477.472 287.98 476.588C286.508 475.008 284.519 472.778 282.432 470.235C280.346 467.691 278.525 465.316 277.259 463.568C276.521 462.66 275.879 461.678 275.342 460.638C276.168 461.46 276.926 462.347 277.609 463.291L282.915 469.837L288.305 476.298C289.103 477.137 289.829 478.04 290.476 478.999Z" fill="#EBEBEB"/>
<path d="M268.348 472.851C267.432 472.134 266.592 471.326 265.839 470.44C264.368 468.86 262.391 466.63 260.292 464.086C258.194 461.543 256.385 459.168 255.131 457.42C254.401 456.503 253.755 455.523 253.202 454.49C254.034 455.309 254.796 456.196 255.481 457.142L260.775 463.689C262.825 466.1 264.67 468.342 266.177 470.15C266.973 470.989 267.699 471.893 268.348 472.851Z" fill="#EBEBEB"/>
<path d="M246.208 466.69C245.298 465.971 244.462 465.163 243.712 464.279C242.228 462.7 240.251 460.47 238.164 457.926C236.078 455.382 234.257 453.007 232.991 451.247C232.255 450.342 231.613 449.364 231.074 448.33C231.903 449.148 232.662 450.035 233.341 450.982C234.824 452.814 236.645 455.045 238.647 457.528L244.037 463.978C244.837 464.818 245.563 465.726 246.208 466.69Z" fill="#EBEBEB"/>
<path d="M223.995 459.554C223.085 458.834 222.249 458.027 221.498 457.142C220.027 455.563 218.038 453.333 215.951 450.789C213.865 448.246 211.936 445.834 210.73 444.086C209.995 443.176 209.353 442.195 208.812 441.157C209.639 441.978 210.397 442.865 211.08 443.809L216.386 450.355L221.776 456.817C222.592 457.665 223.334 458.58 223.995 459.554Z" fill="#EBEBEB"/>
<path d="M201.662 453.321C200.752 452.602 199.916 451.794 199.166 450.91C197.694 449.331 195.705 447.1 193.618 444.557C191.532 442.013 189.711 439.638 188.445 437.89C187.71 436.979 187.068 435.998 186.528 434.96C187.354 435.782 188.112 436.669 188.795 437.613C190.29 439.445 192.099 441.687 194.101 444.159L199.503 450.62C200.3 451.456 201.022 452.36 201.662 453.321Z" fill="#EBEBEB"/>
<path d="M179.256 446.775C178.347 446.055 177.511 445.248 176.76 444.364C175.277 442.784 173.299 440.554 171.201 438.01C169.103 435.467 167.306 433.092 166.04 431.332C165.309 430.42 164.663 429.444 164.11 428.414C164.947 429.23 165.709 430.117 166.389 431.067L171.695 437.613L177.086 444.062C177.881 444.907 178.607 445.814 179.256 446.775Z" fill="#EBEBEB"/>
<path d="M157.671 440.711C156.761 439.992 155.925 439.184 155.174 438.3C153.691 436.721 151.713 434.49 149.627 431.947C147.541 429.403 145.72 427.028 144.454 425.268C143.718 424.363 143.076 423.385 142.537 422.351C143.362 423.172 144.12 424.059 144.804 425.003C146.287 426.835 148.108 429.065 150.11 431.549L155.5 437.999C156.295 438.843 157.021 439.75 157.671 440.711Z" fill="#EBEBEB"/>
<path d="M135.53 434.924C134.621 434.205 133.785 433.397 133.034 432.513C131.563 430.934 129.585 428.704 127.487 426.16C125.389 423.616 123.58 421.241 122.314 419.481C121.583 418.572 120.941 417.595 120.396 416.564C121.229 417.383 121.991 418.27 122.676 419.216L127.97 425.762L133.372 432.224C134.172 433.057 134.894 433.961 135.53 434.924Z" fill="#EBEBEB"/>
<path d="M116.079 428.438C115.17 427.719 114.334 426.912 113.583 426.027C112.112 424.448 110.134 422.218 108.036 419.674C105.938 417.13 104.129 414.756 102.863 412.995C102.146 412.069 101.52 411.076 100.994 410.03C101.83 410.845 102.593 411.733 103.273 412.682L108.567 419.228L113.969 425.678C114.753 426.533 115.46 427.457 116.079 428.438Z" fill="#EBEBEB"/>
<path d="M96.6281 421.953C95.7217 421.23 94.8859 420.422 94.1319 419.542C92.6607 417.962 90.683 415.732 88.5848 413.176C86.4865 410.621 84.6777 408.258 83.4115 406.51C82.681 405.6 82.0389 404.624 81.4941 403.592C82.3303 404.408 83.093 405.295 83.7733 406.244L89.0672 412.779L94.4696 419.24C95.2682 420.079 95.9906 420.986 96.6281 421.953Z" fill="#EBEBEB"/>
<path d="M78.9982 417.13C78.0886 416.411 77.2524 415.604 76.502 414.719C75.0188 413.14 73.0411 410.91 70.9549 408.366C68.8687 405.822 67.0478 403.448 65.7816 401.687C65.0457 400.782 64.4034 399.805 63.8643 398.77C64.6899 399.592 65.4481 400.479 66.1313 401.422L71.4373 407.956L76.8759 414.382C77.6559 415.24 78.3656 416.159 78.9982 417.13Z" fill="#EBEBEB"/>
<path d="M58.7873 411.609C57.8776 410.89 57.0415 410.082 56.2911 409.198C54.8078 407.619 52.8302 405.388 50.744 402.833C48.6578 400.277 46.8369 397.914 45.5707 396.166C44.8348 395.261 44.1924 394.283 43.6533 393.249C44.483 394.067 45.2415 394.954 45.9204 395.901L51.2263 402.435L56.6167 408.824C57.4197 409.688 58.146 410.619 58.7873 411.609Z" fill="#EBEBEB"/>
<path d="M40.3975 406.268C39.4882 405.544 38.6485 404.737 37.8892 403.857C36.418 402.29 34.4404 400.048 32.3421 397.504C30.2439 394.96 28.435 392.585 27.1809 390.837C26.4443 389.926 25.7981 388.945 25.2515 387.908C26.0855 388.73 26.848 389.621 27.5306 390.572L32.8245 397.106L38.2872 403.52C39.063 404.378 39.7687 405.297 40.3975 406.268Z" fill="#EBEBEB"/>
<path d="M19.608 399.783C18.7045 399.056 17.869 398.249 17.1118 397.371C15.6285 395.792 13.6508 393.562 11.5526 391.018C9.45432 388.475 7.65754 386.1 6.39135 384.352C5.65815 383.437 5.01219 382.457 4.46191 381.422C5.29596 382.244 6.05844 383.135 6.74106 384.086L12.047 390.62L17.4373 397.082C18.2319 397.923 18.9578 398.826 19.608 399.783Z" fill="#EBEBEB"/>
<path d="M88.4041 390.512C86.4718 389.695 84.8009 388.364 83.5737 386.663C82.3464 384.962 81.6098 382.957 81.4444 380.866C81.2789 378.776 81.6909 376.68 82.6353 374.807C83.5798 372.934 85.0205 371.357 86.8003 370.247C92.6198 366.759 99.181 364.693 105.95 364.219C113.258 363.54 120.613 364.882 127.21 368.101C135.518 372.152 135.723 385.328 126.342 389.933C112.872 396.479 101.488 396.118 88.4041 390.512Z" fill="#263238"/>
<path d="M102.32 228.547L103.526 228.415L107.469 228.041H107.554V228.125C107.916 243.93 108.832 300.988 109.809 368.872C109.809 369.017 109.809 369.162 109.809 369.282V369.584H109.519L105.094 369.945H104.768V369.62L102.923 269.56C102.706 256.853 102.537 246.582 102.417 239.421C102.417 235.901 102.332 233.164 102.308 231.284C102.308 230.38 102.308 229.68 102.308 229.186C102.308 228.692 102.308 228.475 102.308 228.475C102.308 228.475 102.308 228.74 102.308 229.222C102.308 229.704 102.308 230.428 102.38 231.368C102.38 233.261 102.489 236.021 102.585 239.578C102.742 246.703 102.983 256.998 103.273 269.716C103.864 295.262 104.611 330.464 105.419 369.656L105.082 369.343L109.495 368.981L109.206 369.294V368.885C108.229 301 107.518 243.93 107.421 228.125L107.506 228.197L103.598 228.475L102.32 228.547Z" fill="#263238"/>
<path d="M93.7583 241.904L94.3854 241.47L96.3269 240.168L103.852 235.226L131.587 216.901L223.923 156.142L224.2 155.961L224.369 156.238L227.166 160.747L227.456 161.217L227.613 161.483L227.359 161.651C163.543 202.869 110.086 237.263 96.2424 246.039L96.1701 246.076V246.015L94.3733 242.905C93.9874 242.242 93.8307 241.916 93.8307 241.916C93.8307 241.916 94.0477 242.254 94.4457 242.917C94.8436 243.58 95.4707 244.581 96.2907 245.943H96.1942C109.893 236.925 163.242 202.35 227.046 161.133L226.949 161.567C226.862 161.405 226.765 161.248 226.66 161.097C225.707 159.542 224.755 158.011 223.862 156.576L224.308 156.672L131.985 217.058L104.081 235.226L96.4836 240.168L94.4939 241.446C94.0357 241.772 93.7583 241.904 93.7583 241.904Z" fill="#263238"/>
<path d="M111.123 238.758C111.168 240.088 110.817 241.401 110.115 242.532C109.413 243.662 108.391 244.559 107.179 245.109C105.967 245.659 104.619 245.837 103.306 245.621C101.992 245.405 100.773 244.805 99.8007 243.895C98.8288 242.986 98.1485 241.809 97.8458 240.513C97.543 239.218 97.6315 237.861 98.1001 236.616C98.5686 235.37 99.3961 234.292 100.478 233.516C101.56 232.741 102.847 232.304 104.177 232.26C105.96 232.202 107.693 232.853 108.996 234.072C110.298 235.29 111.064 236.976 111.123 238.758Z" fill="#263238"/>
<path d="M219.051 166.944C219.051 166.944 202.928 176.094 214.094 214.611C214.094 214.611 258.146 214.056 274.618 188.909C274.618 188.909 258.942 156.154 239.105 159.385L219.051 166.944Z" fill="#007A5E"/>
<path d="M219.557 160.108L216.024 150.838C215.651 149.862 215.487 148.82 215.544 147.777C215.601 146.735 215.876 145.716 216.353 144.786C216.83 143.857 217.497 143.039 218.31 142.385C219.124 141.73 220.067 141.255 221.077 140.988C222.849 140.516 224.733 140.714 226.368 141.544C228.003 142.373 229.275 143.777 229.94 145.485L233.895 155.684L219.557 160.108Z" fill="#007A5E"/>
<path d="M219.039 166.932L219.328 159.518L233.123 153.707L239.105 159.385L219.039 166.932Z" fill="#263238"/>
<path d="M131.985 372.441C132.017 372.661 132.017 372.884 131.985 373.104C131.948 373.744 131.867 374.38 131.744 375.009C131.266 377.33 130.264 379.511 128.814 381.386C126.611 384.134 123.737 386.268 120.469 387.583C116.492 389.176 112.26 390.038 107.976 390.126C105.709 390.223 103.49 390.126 101.356 390.066C99.3 389.974 97.2531 389.741 95.2297 389.367C91.7385 388.824 88.4773 387.288 85.8358 384.942C84.0639 383.332 82.8057 381.236 82.2181 378.915C82.0827 378.289 82.01 377.65 82.0011 377.01C81.9808 376.789 81.9808 376.567 82.0011 376.347C82.0886 377.19 82.2255 378.027 82.4111 378.854C83.0511 381.074 84.3051 383.067 86.0288 384.605C88.6415 386.836 91.8304 388.286 95.2297 388.788C97.2226 389.141 99.237 389.358 101.259 389.439C103.37 389.548 105.576 389.584 107.807 389.439C112.017 389.368 116.182 388.551 120.107 387.028C123.31 385.779 126.141 383.734 128.332 381.085C129.779 379.276 130.816 377.174 131.37 374.924C131.877 373.357 131.913 372.441 131.985 372.441Z" fill="#455A64"/>
<path d="M267.817 180.976C267.696 181.15 267.554 181.307 267.395 181.446L266.117 182.652C265.562 183.195 264.911 183.858 264.018 184.557C263.126 185.256 262.246 186.112 261.124 186.968C260.003 187.824 258.833 188.752 257.507 189.68C256.18 190.609 254.697 191.561 253.153 192.55C249.734 194.608 246.19 196.452 242.541 198.071C238.867 199.638 235.097 200.971 231.254 202.061C229.47 202.519 227.793 202.99 226.177 203.267C224.562 203.544 223.078 203.87 221.704 204.087C220.329 204.304 219.087 204.448 217.989 204.569C216.892 204.689 215.939 204.774 215.168 204.81L213.383 204.894C213.175 204.923 212.964 204.923 212.756 204.894C212.954 204.828 213.162 204.791 213.371 204.786L215.144 204.581C215.915 204.509 216.856 204.412 217.941 204.231C219.027 204.05 220.281 203.942 221.631 203.665C222.982 203.387 224.489 203.158 226.069 202.773C227.649 202.387 229.337 201.965 231.098 201.495C238.714 199.304 246.012 196.127 252.804 192.043C254.347 191.067 255.842 190.175 257.169 189.234C258.495 188.294 259.738 187.438 260.787 186.606C261.836 185.774 262.861 184.979 263.717 184.292C264.573 183.604 265.309 183.002 265.888 182.483L267.238 181.278C267.416 181.15 267.611 181.049 267.817 180.976Z" fill="white"/>
<path d="M415.31 276.371L413.754 277.179C412.894 297.408 412.034 317.633 411.174 337.854C410.704 349.005 410.269 360.373 414.418 371.308L481.188 389.089C483.846 384.561 485.454 379.493 485.891 374.261C488.036 351.866 488.712 329.355 487.917 306.871C487.724 299.831 488.351 283.508 481.888 279.144C470.95 271.802 460.833 274.321 449.775 271.838C438.717 269.355 427.357 275.322 416.01 275.202" fill="#263238"/>
<path d="M383.173 347.715L363.493 316.564C362.673 316.564 305.441 328.04 305.441 328.04C305.441 328.04 265.574 331.488 264.597 332.139C263.62 332.79 251.477 355.262 251.477 355.262C259.508 356.576 262.788 346.244 262.788 346.244L270.832 341.651L280.672 342.857C277.862 344.134 275.486 345.412 274.763 346.304C272.628 348.92 271.483 354.008 272.797 354.177C274.112 354.345 276.499 350.56 282.686 349.74C288.872 348.92 304.561 345.641 304.561 345.641L310.192 346.304L383.173 347.715Z" fill="#B78876"/>
<path d="M290.5 338.782C288.682 339.682 286.818 340.487 284.917 341.193C283.098 342.101 281.23 342.906 279.321 343.604C280.948 342.358 282.753 341.362 284.675 340.651C286.51 339.733 288.474 339.102 290.5 338.782Z" fill="#A36957"/>
<path d="M333.9 158.312C335.829 180.434 337.518 203.99 327.062 223.592C329.396 223.109 331.459 221.761 332.839 219.819C331.983 227.161 331.126 234.599 332.332 241.88C333.538 249.162 337.156 256.347 343.342 260.337C343.426 259.421 343.523 258.505 343.607 257.6C346.019 273.2 359.742 286.341 375.443 288.053C382.22 288.8 390.01 287.052 393.604 281.265C396.341 276.853 396.016 271.271 395.557 266.112L387.116 165.34C386.332 155.961 385.367 146.112 380.001 138.396C376.959 133.993 372.673 130.597 367.69 128.642C362.708 126.687 357.255 126.261 352.03 127.419C346.804 128.577 342.042 131.267 338.353 135.144C334.664 139.021 332.215 143.91 331.319 149.186" fill="#263238"/>
<path d="M379.036 223.086C379.036 223.086 362.721 232.537 357.74 240.373C352.76 248.209 354.617 270.186 354.617 270.186C352.58 277.857 351.43 285.737 351.192 293.67C351.192 306.365 361.02 315.672 363.529 322.483C366.037 329.294 364.312 360.409 364.312 360.409L457.166 362.676V298.71L469.515 299.831C469.515 299.831 473.53 237.384 454.863 229.487C436.196 221.591 413.742 213.755 413.742 213.755L379.036 223.086Z" fill="#007A5E"/>
<path d="M469.997 281.506C469.792 281.879 469.546 282.227 469.262 282.543C468.467 283.472 467.506 284.245 466.428 284.822C464.721 285.737 462.838 286.28 460.905 286.413C458.343 286.567 455.777 286.19 453.368 285.304C450.478 284.228 447.689 282.897 445.035 281.326C442.033 279.52 438.863 278.01 435.569 276.817C431.89 275.648 427.96 275.514 424.21 276.431C420.198 277.526 416.298 278.996 412.561 280.819C408.785 282.666 404.834 284.132 400.767 285.195C396.904 286.11 392.862 285.913 389.106 284.629C385.799 283.354 382.65 281.699 379.724 279.698C377.196 277.972 374.562 276.406 371.838 275.009C369.569 273.881 367.12 273.163 364.602 272.887C362.718 272.686 360.812 272.837 358.983 273.333C357.421 273.782 355.959 274.527 354.678 275.527C354.97 275.217 355.293 274.938 355.642 274.695C356.637 273.988 357.741 273.45 358.91 273.104C360.766 272.549 362.71 272.357 364.638 272.537C367.185 272.794 369.667 273.496 371.97 274.611C374.733 275.969 377.404 277.507 379.965 279.216C382.873 281.168 385.992 282.786 389.263 284.038C391.978 284.947 394.853 285.279 397.704 285.015C398.681 284.906 399.658 284.737 400.634 284.544C404.659 283.48 408.569 282.023 412.307 280.192C416.082 278.355 420.023 276.882 424.077 275.792C427.928 274.85 431.965 274.997 435.738 276.214C439.066 277.43 442.265 278.973 445.289 280.819C447.909 282.393 450.661 283.736 453.513 284.834C455.862 285.729 458.369 286.14 460.881 286.039C462.791 285.966 464.664 285.494 466.38 284.653C467.449 284.113 468.412 283.386 469.226 282.507C469.756 281.856 469.997 281.482 469.997 281.506Z" fill="#FAFAFA"/>
<path d="M467.031 258.24C466.963 258.321 466.887 258.394 466.802 258.457C466.645 258.577 466.428 258.782 466.09 259.011C465.126 259.663 464.063 260.155 462.943 260.47C460.036 261.362 455.406 261.217 450.401 259.095C447.905 258.047 445.325 256.6 442.527 255.153C439.614 253.518 436.466 252.342 433.193 251.669C429.549 251.09 425.83 251.184 422.22 251.947C418.323 252.748 414.5 253.869 410.788 255.298C406.941 256.708 403.203 258.155 399.464 259.24C395.884 260.352 392.166 260.961 388.418 261.048C382.055 260.961 375.804 259.357 370.185 256.371C366.381 254.431 362.75 252.168 359.332 249.608C358.126 248.692 357.21 247.98 356.595 247.474L355.908 246.907C355.751 246.775 355.666 246.702 355.678 246.69C355.69 246.678 355.775 246.69 355.944 246.859L356.667 247.378L359.477 249.403C362.917 251.873 366.546 254.07 370.33 255.973C375.904 258.863 382.079 260.403 388.358 260.47C392.042 260.359 395.693 259.747 399.211 258.649C402.901 257.576 406.639 256.118 410.486 254.707C414.23 253.271 418.086 252.146 422.015 251.344C425.698 250.574 429.492 250.492 433.205 251.103C436.534 251.809 439.731 253.029 442.684 254.719C445.481 256.19 448.038 257.649 450.498 258.71C455.394 260.856 459.928 261.06 462.786 260.265C464.317 259.867 465.758 259.179 467.031 258.24Z" fill="#FAFAFA"/>
<path d="M425.379 318.685C425.171 318.814 424.953 318.927 424.728 319.023C424.306 319.216 423.667 319.505 422.835 319.855C420.495 320.861 418.075 321.668 415.599 322.266C411.889 323.262 407.966 323.14 404.324 321.916C400.224 320.494 396.438 317.576 392.362 314.912C388.579 312.318 384.273 310.586 379.748 309.837C377.773 309.542 375.775 309.421 373.779 309.475C372.042 309.535 370.312 309.732 368.606 310.066C366.126 310.549 363.715 311.338 361.431 312.417C359.803 313.164 358.959 313.694 358.922 313.622C359.099 313.455 359.298 313.313 359.513 313.2C360.096 312.825 360.7 312.483 361.322 312.175C363.603 310.988 366.038 310.124 368.557 309.608C370.289 309.239 372.047 309.01 373.815 308.92C375.831 308.856 377.848 308.965 379.845 309.246C384.464 309.974 388.863 311.72 392.724 314.358C396.824 317.058 400.55 319.939 404.529 321.35C408.071 322.557 411.885 322.716 415.515 321.808C417.978 321.231 420.396 320.477 422.75 319.553L424.68 318.83C424.905 318.748 425.14 318.7 425.379 318.685Z" fill="#FAFAFA"/>
<path d="M425.174 341.53C425.174 341.591 424.318 341.362 422.762 341.133C420.564 340.833 418.34 340.777 416.13 340.964C412.866 341.27 409.636 341.876 406.483 342.772C402.865 343.749 399.006 345.063 394.834 346.208C390.914 347.357 386.859 347.978 382.775 348.052C379.422 348.054 376.102 347.391 373.007 346.099C370.927 345.224 369.035 343.955 367.436 342.362C367.002 341.925 366.599 341.457 366.23 340.964C366.096 340.799 365.979 340.621 365.88 340.433C365.941 340.433 366.447 341.108 367.581 342.181C369.21 343.685 371.103 344.874 373.164 345.69C376.215 346.895 379.47 347.501 382.751 347.474C386.779 347.364 390.776 346.731 394.641 345.593C398.789 344.472 402.684 343.182 406.314 342.218C409.52 341.336 412.803 340.767 416.118 340.518C418.36 340.372 420.611 340.498 422.823 340.891C423.421 341.002 424.013 341.147 424.595 341.325C424.798 341.363 424.993 341.433 425.174 341.53Z" fill="#FAFAFA"/>
<path d="M425.054 313.188C424.885 313.188 424.74 304.448 424.74 293.67C424.74 282.893 424.885 274.153 425.054 274.153C425.223 274.153 425.379 282.893 425.379 293.67C425.379 304.448 425.235 313.188 425.054 313.188Z" fill="#263238"/>
<path d="M416.287 325.003C416.128 325.057 415.96 325.082 415.792 325.075C415.454 325.075 414.972 325.147 414.333 325.135C412.547 325.147 410.765 324.973 409.015 324.617C403.155 323.516 397.775 320.642 393.604 316.383C389.432 312.125 386.671 306.687 385.693 300.807C385.375 299.05 385.237 297.264 385.283 295.479C385.283 294.84 385.355 294.358 385.379 294.032C385.379 293.86 385.408 293.689 385.464 293.526C385.49 295.951 385.711 298.37 386.127 300.759C387.21 306.501 389.969 311.793 394.058 315.969C398.146 320.144 403.38 323.015 409.099 324.219C411.47 324.672 413.874 324.934 416.287 325.003Z" fill="#263238"/>
<g opacity="0.3">
<path opacity="0.3" d="M367.267 354.647C380.761 346.618 398.849 347.98 410.993 338.035C416.721 333.345 420.435 326.594 422.666 319.542C424.897 312.489 425.729 305.075 426.561 297.757L428.876 338.649C429.033 341.434 429.093 344.532 427.272 346.666C425.741 348.463 423.257 349.077 420.953 349.584L391.361 356.166C383.354 357.938 374.804 359.686 367.146 356.745" fill="black"/>
</g>
<g opacity="0.2">
<path opacity="0.2" d="M405.868 253.02C403.323 256.154 400.743 259.361 399.356 263.158C397.969 266.956 397.981 271.488 400.405 274.719C403.046 278.24 408.014 279.397 412.331 278.541C416.648 277.685 420.435 275.129 423.86 272.381C425.572 271.006 427.477 269.499 429.636 269.548C430.918 269.729 432.184 270.012 433.422 270.391C436.98 271.018 440.501 268.704 442.527 265.726C444.553 262.748 445.457 259.18 446.603 255.756C447.748 252.332 449.316 248.872 452.21 246.715C454.899 244.713 458.65 243.906 460.314 241C462.412 237.384 459.675 232.489 455.828 230.789C451.981 229.089 447.58 229.668 443.431 230.259" fill="black"/>
</g>
<g opacity="0.2">
<path opacity="0.2" d="M412.283 324.532C412.513 324.882 412.223 325.605 411.258 326.449C409.84 327.586 408.147 328.33 406.35 328.607C403.665 329.06 400.907 328.815 398.343 327.896C395.25 326.752 392.482 324.874 390.276 322.423C388.165 320.094 386.472 317.419 385.271 314.514C384.333 312.274 383.63 309.943 383.173 307.558C382.462 303.52 382.606 300.976 383.414 300.735C384.222 300.494 385.657 302.664 387.394 306.148C389.13 309.632 391.313 314.334 394.882 318.203C396.484 319.991 398.396 321.473 400.526 322.579C402.274 323.445 404.159 324 406.097 324.219C409.486 324.569 411.777 323.761 412.283 324.532Z" fill="black"/>
</g>
<path d="M469.563 299.831C469.563 300 459.566 299.24 447.278 298.119C434.99 296.998 425.042 295.961 425.054 295.78C425.066 295.599 435.051 296.371 447.339 297.492C459.627 298.613 469.575 299.65 469.563 299.831Z" fill="#263238"/>
<path d="M395.859 125.184C401.346 130.006 405.591 133.791 411.403 137.456C417.216 141.121 423.233 145.497 425.392 152.031C426.959 156.769 426.38 162.399 429.528 166.281C432.217 169.596 436.763 170.572 440.538 172.574C443.84 174.391 446.595 177.059 448.519 180.3C450.442 183.541 451.463 187.238 451.475 191.006C451.475 195.828 449.799 200.94 452.066 205.171C454.044 208.86 458.469 210.669 460.664 214.237C462.859 217.806 462.449 221.953 461.761 225.883C460.712 231.91 458.481 238.396 453.103 241.29C451.23 242.193 449.187 242.689 447.108 242.745C445.03 242.801 442.963 242.416 441.044 241.615C437.219 239.994 433.786 237.572 430.975 234.514C425.376 228.812 421.009 222.021 418.144 214.563C414.719 205.666 413.55 196.082 411.898 186.69C408.857 169.466 404.153 152.578 397.849 136.263C396.305 132.284 393.556 128.764 395.883 125.184" fill="#263238"/>
<path d="M441.285 200.663C441.285 200.663 441.611 200.446 442.238 200.048C443.147 199.468 444.024 198.84 444.867 198.167C446.191 197.115 447.378 195.899 448.4 194.551C449.751 192.761 450.627 190.658 450.944 188.438C451.273 185.745 450.59 183.026 449.027 180.807C448.166 179.588 446.979 178.635 445.602 178.059C444.092 177.543 442.507 177.278 440.911 177.275C439.149 177.28 437.414 176.836 435.871 175.985C434.323 174.94 433.209 173.367 432.735 171.561C432.215 169.745 432.047 167.846 432.241 165.967C432.422 164.074 432.796 162.206 433.061 160.313C433.356 158.468 433.356 156.588 433.061 154.744C432.693 152.977 431.953 151.308 430.89 149.849C428.802 147.096 426.108 144.86 423.016 143.315C420.11 141.736 417.179 140.506 414.575 139.108C408.58 135.989 403.028 132.085 398.066 127.498C397.029 126.546 396.257 125.762 395.75 125.232L395.172 124.617C395.039 124.472 394.979 124.4 394.991 124.388L395.208 124.569L395.835 125.147C396.378 125.654 397.173 126.353 398.247 127.317C401.217 129.961 404.382 132.379 407.713 134.551C410.008 136.053 412.383 137.429 414.828 138.674C417.445 140.036 420.375 141.241 423.329 142.833C426.504 144.413 429.275 146.698 431.433 149.511C432.548 151.043 433.325 152.793 433.712 154.647C434.026 156.559 434.026 158.51 433.712 160.422C433.459 162.338 433.073 164.195 432.904 166.039C432.714 167.841 432.87 169.661 433.362 171.404C433.789 173.074 434.809 174.531 436.232 175.503C437.693 176.301 439.332 176.715 440.996 176.709C442.64 176.728 444.269 177.018 445.819 177.564C447.278 178.186 448.531 179.205 449.437 180.506C451.053 182.842 451.744 185.694 451.378 188.511C451.017 190.796 450.084 192.952 448.665 194.78C447.624 196.139 446.407 197.355 445.047 198.396C444.19 199.064 443.283 199.664 442.334 200.193C442.009 200.385 441.755 200.506 441.587 200.59C441.492 200.634 441.389 200.658 441.285 200.663Z" fill="#263238"/>
<path d="M326.146 192.248L347.104 179.578C347.517 179.329 348.012 179.254 348.48 179.37C348.948 179.485 349.351 179.781 349.601 180.193C349.849 180.605 349.924 181.1 349.809 181.567C349.694 182.035 349.398 182.438 348.986 182.688L328.027 195.358L326.146 192.248Z" fill="#007A5E"/>
<g opacity="0.4">
<path opacity="0.4" d="M348.986 182.688L347.104 179.578C347.517 179.329 348.012 179.254 348.48 179.37C348.948 179.485 349.351 179.781 349.601 180.193C349.849 180.605 349.924 181.1 349.809 181.567C349.694 182.035 349.398 182.438 348.986 182.688Z" fill="black"/>
</g>
<g opacity="0.4">
<path opacity="0.4" d="M327.446 194.334L348.384 181.678L347.86 180.811L326.922 193.468L327.446 194.334Z" fill="black"/>
</g>
<path d="M328.027 195.358L322.685 196.455L326.146 192.248L328.027 195.358Z" fill="#007A5E"/>
<g opacity="0.5">
<path opacity="0.5" d="M328.027 195.358L322.685 196.455L326.146 192.248L328.027 195.358Z" fill="white"/>
</g>
<path d="M324.421 196.094L323.806 195.093L322.685 196.456L324.421 196.094Z" fill="#263238"/>
<path d="M359.296 132.754C352.061 135.131 346.02 140.202 342.427 146.914C338.834 153.626 337.966 161.464 340.002 168.8C343.282 180.615 347.044 193.393 349.914 200.795C356.607 218.011 370.764 217.323 370.764 217.323C370.764 217.323 373.417 228.439 375.744 239.023C377.951 249.126 388.551 255.587 399.428 253.49C410.185 251.404 417.203 241.675 415.165 231.633L397.414 154.237C396.491 150.226 394.74 146.451 392.275 143.153C389.81 139.856 386.684 137.109 383.097 135.087C379.51 133.066 375.541 131.814 371.442 131.413C367.344 131.011 363.208 131.468 359.296 132.754Z" fill="#B78876"/>
<path d="M346.875 174.731C347.014 175.322 347.37 175.839 347.873 176.178C348.376 176.518 348.989 176.656 349.588 176.564C349.883 176.523 350.167 176.423 350.423 176.271C350.679 176.119 350.902 175.918 351.079 175.679C351.257 175.44 351.385 175.168 351.456 174.879C351.527 174.59 351.54 174.29 351.494 173.996C351.371 173.399 351.02 172.873 350.516 172.531C350.011 172.189 349.393 172.057 348.793 172.164C348.496 172.202 348.21 172.299 347.952 172.45C347.694 172.601 347.469 172.802 347.29 173.041C347.111 173.281 346.982 173.554 346.911 173.844C346.84 174.135 346.828 174.436 346.875 174.731Z" fill="#263238"/>
<path d="M345.308 171.947C345.658 172.188 347.117 170.536 349.577 170.006C352.037 169.475 354.111 170.319 354.304 170.006C354.412 169.849 354.002 169.379 353.098 168.969C351.873 168.462 350.521 168.344 349.227 168.631C347.947 168.911 346.786 169.585 345.911 170.56C345.284 171.247 345.139 171.85 345.308 171.947Z" fill="#263238"/>
<path d="M372.079 170.235C372.201 170.832 372.552 171.358 373.057 171.7C373.561 172.042 374.18 172.174 374.78 172.067C375.076 172.029 375.362 171.932 375.62 171.781C375.879 171.63 376.104 171.429 376.283 171.189C376.461 170.95 376.59 170.677 376.662 170.386C376.733 170.096 376.745 169.794 376.697 169.499C376.559 168.909 376.202 168.392 375.699 168.052C375.196 167.713 374.584 167.575 373.984 167.667C373.688 167.707 373.404 167.805 373.147 167.957C372.89 168.108 372.667 168.309 372.489 168.549C372.311 168.788 372.184 169.061 372.113 169.35C372.043 169.64 372.031 169.941 372.079 170.235Z" fill="#263238"/>
<path d="M371.186 167.293C371.536 167.534 372.995 165.871 375.455 165.352C377.915 164.834 379.989 165.666 380.182 165.352C380.291 165.196 379.881 164.713 378.976 164.316C377.753 163.803 376.4 163.685 375.106 163.978C373.824 164.248 372.663 164.92 371.789 165.895C371.114 166.594 371.018 167.197 371.186 167.293Z" fill="#263238"/>
<path d="M366.194 187.474C364.811 187.349 363.417 187.398 362.046 187.619C361.407 187.691 360.78 187.691 360.575 187.281C360.38 186.645 360.38 185.965 360.575 185.328C360.84 183.689 361.105 181.953 361.395 180.144C362.504 172.778 363.167 166.775 362.866 166.727C362.564 166.678 361.431 172.622 360.321 179.988C360.068 181.796 359.815 183.532 359.586 185.183C359.346 186.024 359.418 186.924 359.791 187.715C359.927 187.914 360.106 188.08 360.314 188.201C360.523 188.322 360.756 188.395 360.997 188.414C361.364 188.433 361.733 188.405 362.094 188.33C363.492 188.227 364.871 187.939 366.194 187.474Z" fill="#263238"/>
<path d="M370.788 216.962C379.216 215.274 387.01 211.28 393.302 205.425C393.302 205.425 390.155 218.927 371.946 221.097L370.788 216.962Z" fill="#A36957"/>
<path d="M377.3 158.336C377.119 158.843 375.166 158.601 372.826 158.734C370.487 158.867 368.558 159.277 368.34 158.734C368.123 158.192 369.98 156.938 372.73 156.805C375.479 156.673 377.481 157.866 377.3 158.336Z" fill="#263238"/>
<path d="M352.097 160.663C352.097 161.193 350.107 161.676 347.744 162.387C345.38 163.098 343.415 163.737 343.137 163.279C342.86 162.821 344.572 161.338 347.213 160.578C349.854 159.819 352.097 160.157 352.097 160.663Z" fill="#263238"/>
<path d="M444.131 225.087C444.131 225.087 434.484 214.454 435.219 202.254C435.955 190.054 432.192 182.145 425.367 179.349C420.543 177.384 418.674 172.453 417.939 168.342C416.789 161.438 414.763 154.709 411.909 148.318C407.665 139.156 402.009 129.716 394.134 123.785C383.896 116.07 367.822 110.91 357.958 119.059C353.363 122.845 350.662 123.448 346.562 129.909C346.562 129.909 341.63 131.633 339.085 132.79C330.331 136.769 327.123 148.197 328.051 155.696C330.198 172.947 340.653 175.129 344.741 186.136C344.741 186.136 339.833 162.182 340.219 155.587C340.686 150.717 342.855 146.167 346.345 142.736C353.291 141.531 356.969 144.774 360.96 150.596C364.952 156.419 367.556 161.181 374.104 163.857C380.267 166.365 385.753 171.935 394.098 166.027C396.762 169.014 398.493 172.714 399.079 176.672C399.669 182.7 393.773 186.015 398.102 195.262C402.431 204.508 410.523 210.777 411.367 214.454" fill="#263238"/>
<path d="M370.728 192.441C371.021 191.873 371.453 191.389 371.985 191.035C372.517 190.681 373.13 190.468 373.767 190.416C374.226 190.367 374.69 190.411 375.131 190.545C375.572 190.68 375.982 190.902 376.335 191.199C376.681 191.484 376.929 191.869 377.045 192.301C377.162 192.733 377.141 193.191 376.987 193.61C376.728 194.039 376.349 194.383 375.896 194.597C375.444 194.812 374.938 194.888 374.442 194.816C373.406 194.663 372.41 194.307 371.512 193.767C371.246 193.653 371.004 193.49 370.8 193.285C370.703 193.185 370.638 193.058 370.612 192.921C370.586 192.784 370.601 192.642 370.656 192.513" fill="#007A5E"/>
<path d="M375.19 187.896C374.852 187.896 375.286 190.162 373.706 192.127C372.127 194.092 369.691 194.309 369.739 194.623C369.787 194.936 370.354 194.948 371.367 194.78C372.675 194.541 373.855 193.844 374.695 192.815C375.505 191.828 375.899 190.566 375.793 189.294C375.696 188.354 375.334 187.848 375.19 187.896Z" fill="#263238"/>
<path d="M398.042 194.635C400.395 197.018 402.079 199.978 402.926 203.218C403.772 206.457 403.751 209.863 402.865 213.092C401.659 217.323 398.946 221.085 398.331 225.437C397.571 230.741 400.019 235.901 402.057 240.856C404.095 245.81 405.807 251.488 403.637 256.383C402.745 258.432 401.225 260.168 400.297 262.206C399.368 264.243 399.175 266.907 400.731 268.511C401.932 269.525 403.452 270.084 405.024 270.09C410.841 270.497 416.647 269.151 421.692 266.226C426.737 263.302 430.789 258.932 433.326 253.683L435.738 258.927C440.989 251.002 443.368 241.519 442.479 232.055C441.591 222.591 437.488 213.717 430.854 206.907" fill="#263238"/>
<path d="M390.915 169.668C390.649 168.463 393.073 165.509 394.243 165.196C396.944 164.497 401.647 164.557 403.794 171.971C406.869 182.568 395.919 182.266 395.811 181.965C395.702 181.663 391.843 173.84 390.915 169.668Z" fill="#B78876"/>
<path d="M397.209 177.203C397.209 177.203 397.426 177.287 397.788 177.336C398.281 177.395 398.779 177.261 399.175 176.962C400.176 176.226 400.598 174.177 400.104 172.26C399.88 171.344 399.451 170.491 398.849 169.765C398.656 169.461 398.391 169.209 398.078 169.03C397.765 168.852 397.413 168.752 397.053 168.74C396.826 168.75 396.61 168.837 396.439 168.985C396.268 169.134 396.153 169.337 396.112 169.56C396.052 169.909 396.184 170.09 396.112 170.126C396.04 170.163 395.835 170.018 395.786 169.56C395.769 169.28 395.85 169.003 396.016 168.776C396.242 168.47 396.58 168.266 396.956 168.21C397.417 168.169 397.882 168.247 398.304 168.437C398.726 168.627 399.093 168.922 399.368 169.295C400.083 170.078 400.592 171.027 400.851 172.055C401.406 174.213 400.851 176.528 399.489 177.42C399.227 177.585 398.932 177.689 398.626 177.724C398.319 177.76 398.008 177.726 397.716 177.625C397.306 177.456 397.173 177.239 397.209 177.203Z" fill="#A36957"/>
<path d="M447.953 199.976C447.821 199.976 447.953 199.469 447.953 198.613C447.993 197.373 447.762 196.139 447.278 194.997C446.514 193.221 445.316 191.667 443.793 190.476C441.664 188.947 439.302 187.77 436.799 186.992C433.559 186.014 430.425 184.718 427.441 183.122C425.693 182.107 424.167 180.75 422.955 179.132C421.755 177.419 420.823 175.533 420.194 173.538C419.518 171.597 418.988 169.632 418.228 167.8C417.578 166.008 416.517 164.393 415.129 163.086C412.319 160.591 407.894 160.048 403.516 160.386C399.139 160.723 394.544 161.832 389.853 161.458C387.528 161.277 385.258 160.659 383.161 159.638C381.217 158.674 379.409 157.458 377.782 156.021C374.957 153.38 372.356 150.509 370.004 147.438C368.038 144.887 365.816 142.544 363.372 140.446C361.683 138.92 359.69 137.768 357.525 137.066C355.359 136.364 353.07 136.127 350.807 136.371C349.569 136.539 348.37 136.919 347.261 137.492C346.477 137.878 346.055 138.119 345.995 138.035C345.935 137.95 346.2 137.553 346.912 136.962C347.971 136.106 349.206 135.492 350.529 135.166C352.642 134.654 354.842 134.621 356.969 135.069C359.791 135.67 362.439 136.907 364.711 138.686C367.373 140.77 369.799 143.139 371.946 145.75C374.296 148.628 376.859 151.324 379.615 153.815C382.489 156.46 386.156 158.083 390.046 158.433C394.098 158.734 398.488 157.709 403.227 157.299C405.643 157.079 408.078 157.196 410.462 157.649C412.924 158.095 415.221 159.19 417.119 160.82C418.848 162.459 420.165 164.483 420.965 166.727C421.761 168.8 422.28 170.801 422.883 172.646C423.391 174.389 424.155 176.046 425.15 177.565C426.119 178.922 427.349 180.074 428.768 180.952C431.565 182.553 434.504 183.892 437.547 184.955C440.213 185.926 442.689 187.354 444.866 189.174C446.518 190.638 447.736 192.527 448.388 194.635C448.803 195.96 448.853 197.371 448.532 198.722C448.291 199.614 448.026 200.012 447.953 199.976Z" fill="#455A64"/>
<path d="M384.777 120.229C383.663 119.167 382.774 117.892 382.162 116.479C381.551 115.067 381.231 113.546 381.219 112.007C381.228 110.467 381.62 108.954 382.359 107.603C383.098 106.252 384.16 105.106 385.452 104.267C387.252 103.224 389.345 102.801 391.409 103.062C393.158 103.247 394.835 103.854 396.298 104.831C397.76 105.807 398.962 107.125 399.802 108.669C400.642 110.214 401.094 111.939 401.119 113.697C401.144 115.455 400.742 117.193 399.946 118.76C399.15 120.328 397.986 121.679 396.552 122.697C395.118 123.715 393.458 124.37 391.716 124.604C389.973 124.839 388.199 124.647 386.547 124.044C384.895 123.442 383.414 122.447 382.232 121.145" fill="#263238"/>
<path d="M395.316 123.17C394.594 123.366 393.839 123.415 393.098 123.315C391.288 123.196 389.516 122.738 387.876 121.965C386.242 121.191 384.766 120.12 383.523 118.806C382.969 118.302 382.529 117.685 382.232 116.998C383.895 118.843 385.908 120.339 388.154 121.398C390.4 122.458 392.835 123.06 395.316 123.17Z" fill="#007A5E"/>
<path d="M339.266 179.65C339.251 179.006 339.279 178.362 339.35 177.721C339.32 175.97 339.073 174.228 338.615 172.537C337.86 170.038 336.925 167.596 335.817 165.232C334.432 162.314 333.33 159.27 332.525 156.142C332.15 154.49 332.004 152.795 332.091 151.103C332.194 149.522 332.573 147.971 333.212 146.522C334.279 144.067 335.961 141.928 338.096 140.313C339.539 139.214 341.175 138.397 342.92 137.902C343.385 137.764 343.861 137.667 344.343 137.613C344.681 137.565 344.849 137.565 344.849 137.613C344.849 137.685 344.174 137.77 342.992 138.167C340.94 138.87 339.06 139.997 337.475 141.477C335.889 142.956 334.634 144.753 333.791 146.751C333.193 148.146 332.842 149.635 332.754 151.151C332.677 152.771 332.823 154.393 333.188 155.973C333.986 159.064 335.068 162.075 336.42 164.967C337.512 167.361 338.407 169.841 339.097 172.381C339.529 174.114 339.716 175.9 339.652 177.685C339.592 178.312 339.495 178.806 339.447 179.132C339.399 179.457 339.29 179.662 339.266 179.65Z" fill="#455A64"/>
<path d="M350.397 265.762C350.15 265.639 349.912 265.498 349.685 265.34C349.016 264.922 348.375 264.459 347.768 263.954C345.553 262.074 343.684 259.822 342.245 257.299C340.123 253.537 338.724 249.412 338.121 245.135C337.457 239.928 337.522 234.653 338.314 229.463C339.074 223.918 340.207 218.734 341.099 213.996C341.941 209.815 342.541 205.588 342.896 201.338C343.116 198.477 343.116 195.603 342.896 192.742C342.727 190.705 342.522 189.596 342.595 189.584C342.676 189.848 342.737 190.118 342.776 190.391C342.896 190.91 343.005 191.693 343.137 192.718C343.454 195.592 343.518 198.489 343.33 201.374C343.028 205.647 342.469 209.899 341.654 214.105C340.786 218.854 339.676 224.038 338.929 229.548C338.139 234.696 338.054 239.928 338.676 245.099C339.238 249.326 340.575 253.412 342.619 257.154C344.003 259.668 345.796 261.933 347.925 263.857C349.408 265.111 350.433 265.69 350.397 265.762Z" fill="#455A64"/>
<path d="M404.168 263.243C404.168 263.243 404.168 263.158 404.385 263.026L405.072 262.447C405.687 261.941 406.579 261.241 407.701 260.205C410.887 257.428 413.751 254.302 416.239 250.886C419.969 245.847 422.258 239.887 422.859 233.646C423.197 229.978 422.753 226.28 421.556 222.797C420.351 219.18 417.879 215.973 415.853 212.393C414.803 210.629 414.018 208.719 413.525 206.727C413.107 204.779 412.949 202.785 413.055 200.795C413.212 196.901 413.911 193.237 413.983 189.716C414.097 186.385 413.723 183.055 412.874 179.831C412.132 177.021 410.877 174.373 409.172 172.019C406.694 168.59 403.149 166.08 399.091 164.882C397.593 164.497 396.055 164.286 394.508 164.255H394.81H395.714C396.873 164.284 398.025 164.437 399.151 164.713C403.314 165.848 406.973 168.354 409.534 171.826C411.289 174.214 412.592 176.902 413.381 179.759C414.274 183.029 414.68 186.412 414.586 189.801C414.586 193.417 413.839 197.034 413.694 200.892C413.589 202.825 413.743 204.763 414.152 206.654C414.634 208.592 415.398 210.448 416.419 212.164C418.409 215.684 420.917 218.927 422.159 222.664C423.376 226.227 423.82 230.007 423.462 233.755C422.831 240.093 420.46 246.134 416.612 251.211C414.079 254.629 411.148 257.733 407.882 260.458C406.676 261.422 405.82 262.133 405.18 262.604L404.445 263.134C404.356 263.178 404.263 263.214 404.168 263.243Z" fill="#455A64"/>
<path d="M404.336 178.806C404.336 178.806 404.722 178.999 405.265 179.53C406.056 180.283 406.62 181.244 406.893 182.302C407.062 183.109 407.042 183.944 406.833 184.741C406.623 185.539 406.231 186.276 405.687 186.896C405.049 187.683 404.223 188.296 403.285 188.68C402.347 189.063 401.327 189.204 400.321 189.09C399.318 188.935 398.373 188.519 397.582 187.885C396.79 187.25 396.179 186.418 395.811 185.473C395.496 184.643 395.417 183.742 395.581 182.869C395.726 182.116 396.035 181.404 396.486 180.783C397.115 179.879 398.027 179.209 399.078 178.879C399.461 178.728 399.878 178.682 400.284 178.746C400.284 178.806 399.874 178.843 399.199 179.108C398.25 179.502 397.443 180.175 396.884 181.037C396.464 181.649 396.199 182.354 396.113 183.091C396.027 183.828 396.122 184.576 396.389 185.268C396.732 186.108 397.284 186.846 397.994 187.412C398.703 187.977 399.546 188.352 400.441 188.499C401.344 188.596 402.257 188.468 403.098 188.127C403.94 187.787 404.684 187.243 405.265 186.546C405.765 185.995 406.133 185.337 406.342 184.623C406.551 183.909 406.595 183.157 406.471 182.423C406.246 181.418 405.773 180.486 405.096 179.711C404.821 179.428 404.567 179.126 404.336 178.806Z" fill="#007A5E"/>
<path d="M398.379 129.138C398.37 129.321 398.342 129.503 398.295 129.68C398.295 129.885 398.198 130.102 398.138 130.343L397.849 131.224C397.144 133.074 396.055 134.755 394.653 136.154C392.588 138.268 389.945 139.727 387.056 140.349C385.344 140.702 383.582 140.735 381.858 140.446C380.029 140.113 378.248 139.558 376.553 138.794C373.068 137.251 370.053 135.262 367.147 133.84C364.631 132.468 361.869 131.607 359.019 131.308C357.096 131.132 355.157 131.396 353.351 132.079C352.145 132.598 351.482 133.068 351.446 133.02C351.568 132.88 351.711 132.758 351.868 132.658C352.306 132.349 352.77 132.079 353.255 131.85C355.079 131.068 357.062 130.729 359.043 130.862C361.963 131.091 364.806 131.912 367.4 133.273C370.366 134.695 373.429 136.661 376.806 138.167C378.45 138.944 380.183 139.515 381.967 139.867C383.613 140.176 385.302 140.176 386.947 139.867C389.743 139.292 392.314 137.924 394.352 135.925C395.746 134.586 396.861 132.984 397.632 131.211L397.981 130.368L398.186 129.741C398.283 129.343 398.355 129.138 398.379 129.138Z" fill="#455A64"/>
<path d="M374.599 392.284L298.929 428.848L160.191 391.018L228.288 353.827L374.599 392.284Z" fill="#263238"/>
<path d="M291.163 390.729L311.253 397.371L329.848 387.257L298.893 377.335L280.816 386.702L291.163 390.729Z" fill="#455A64"/>
<path d="M142.537 288.896C143.164 291.416 160.191 391.03 160.191 391.03L298.869 428.848L280.672 322.302L142.537 288.896Z" fill="#263238"/>
<path d="M288.836 370.03C289.004 370.03 291.404 383.146 294.19 399.385C296.975 415.623 299.098 428.824 298.929 428.848C298.76 428.872 296.36 415.744 293.575 399.493C290.789 383.242 288.667 370.054 288.836 370.03Z" fill="#455A64"/>
<path d="M216.311 361.737C220.062 360.284 221.734 355.574 220.046 351.215C218.357 346.857 213.947 344.501 210.196 345.953C206.445 347.405 204.773 352.116 206.461 356.475C208.15 360.833 212.56 363.189 216.311 361.737Z" fill="#455A64"/>
<path d="M357.74 377.54C357.74 377.54 438.981 384.496 452.427 374.755C465.873 365.014 465.885 299.626 465.885 299.626L425.632 295.913L425.053 341.362C422.28 343.676 352.229 355.274 346.2 354.816C346.2 354.816 309.481 358.734 307.479 358.734C305.477 358.734 292.188 373.863 292.188 374.562C292.234 375.092 292.387 375.606 292.637 376.074C292.888 376.543 293.232 376.955 293.647 377.287C293.189 377.863 292.955 378.586 292.988 379.322C293.021 380.058 293.32 380.756 293.828 381.289C293.828 381.289 293.285 383.845 295.287 384.388C297.289 384.93 297.47 385.846 299.833 384.388C302.197 382.929 313.846 373.863 313.846 373.863L322.589 373.128C322.589 373.128 301.292 385.316 303.113 388.052C304.934 390.789 309.143 387.691 313.846 385.135C318.549 382.579 326.411 378.046 327.858 377.673C329.305 377.299 357.74 377.54 357.74 377.54Z" fill="#B78876"/>
<path d="M319.26 366.087C319.26 366.208 317.572 366.196 314.967 366.871C311.588 367.817 308.409 369.369 305.586 371.452C302.777 373.572 300.14 375.91 297.699 378.444C296.714 379.533 295.659 380.556 294.54 381.506C294.741 381.164 294.98 380.845 295.251 380.554C295.745 379.975 296.457 379.143 297.373 378.143C299.741 375.475 302.371 373.051 305.224 370.91C308.104 368.774 311.385 367.241 314.871 366.401C315.929 366.163 317.007 366.026 318.091 365.991C318.483 365.959 318.878 365.992 319.26 366.087Z" fill="#A36957"/>
<path d="M314.69 363.11C314.69 363.23 313.231 363.206 310.988 363.821C308.074 364.658 305.348 366.045 302.957 367.908C300.566 369.799 298.343 371.892 296.312 374.165C295.492 375.133 294.606 376.044 293.659 376.889C294.339 375.811 295.119 374.798 295.987 373.863C297.944 371.484 300.152 369.322 302.571 367.414C305.019 365.491 307.853 364.118 310.879 363.387C311.793 363.175 312.727 363.058 313.665 363.038C314.008 363 314.355 363.025 314.69 363.11Z" fill="#A36957"/>
<path d="M437.824 355.165C437.715 355.165 437.45 354.092 436.727 352.453C434.809 348.154 431.465 344.649 427.26 342.531C425.656 341.736 424.571 341.41 424.607 341.326C425.598 341.43 426.562 341.712 427.453 342.158C429.651 343.13 431.635 344.528 433.291 346.27C434.946 348.012 436.241 350.064 437.1 352.308C437.511 353.209 437.756 354.177 437.824 355.165Z" fill="#AA6550"/>
<path d="M367.882 428.848C364.349 429.704 362.769 434.261 363.963 437.697C365.157 441.133 368.256 443.52 371.427 445.304C380.954 450.668 393.628 451.934 402.491 445.533C406.374 442.724 409.413 437.757 407.809 433.248C406.398 429.306 402.069 427.221 398.029 426.16C387.131 423.253 375.566 424.159 365.253 428.728" fill="#E0E0E0"/>
<path d="M362.673 400.313C362.673 400.313 356.137 443.712 386.513 442.374C414.96 441.06 404.988 398.77 404.988 398.77L362.673 400.313Z" fill="#455A64"/>
<path d="M400.224 430.319C402.617 431.892 405.355 432.864 408.205 433.149C411.054 433.435 413.931 433.026 416.588 431.958C419.224 430.841 421.535 429.078 423.31 426.832C425.084 424.586 426.265 421.929 426.742 419.107C427.153 416.275 426.818 413.385 425.772 410.721C424.725 408.057 423.002 405.713 420.773 403.917C418.496 402.181 415.792 401.093 412.947 400.768C410.103 400.444 407.223 400.894 404.614 402.073L404.167 407.028C405.795 406.293 407.591 406.012 409.366 406.213C411.14 406.415 412.827 407.092 414.249 408.173C415.64 409.292 416.715 410.755 417.369 412.417C418.022 414.078 418.231 415.882 417.975 417.649C417.676 419.41 416.94 421.068 415.834 422.471C414.728 423.873 413.287 424.976 411.644 425.678C409.985 426.342 408.19 426.596 406.411 426.417C404.633 426.239 402.924 425.633 401.43 424.653L400.224 430.319Z" fill="#455A64"/>
<path d="M404.999 398.77C405.132 401.458 395.738 404.074 384.04 404.617C372.343 405.159 362.744 403.411 362.624 400.723C362.503 398.034 371.885 395.406 383.582 394.876C395.279 394.345 404.878 396.069 404.999 398.77Z" fill="#007A5E"/>
<g opacity="0.2">
<path opacity="0.2" d="M406.266 406.413C405.027 406.862 403.942 407.655 403.139 408.7C402.336 409.744 401.848 410.996 401.731 412.308C401.618 414.963 402.235 417.598 403.516 419.927C403.866 420.65 404.469 421.482 405.253 421.337C406.036 421.193 406.29 420.24 406.386 419.469C406.993 415.199 406.949 410.862 406.254 406.606" fill="black"/>
</g>
<path d="M398.524 402.64C408.376 400.012 378.024 401.097 368.244 403.845C368.244 403.833 384.379 406.413 398.524 402.64Z" fill="#263238"/>
</svg>
