<svg version="1.1" xmlns="http://www.w3.org/2000/svg" xmlns:xlink="http://www.w3.org/1999/xlink" x="0px" y="0px"
	 viewBox="0 0 750 500" style="enable-background:new 0 0 750 500;" xml:space="preserve">
<style type="text/css">
	.st0{fill:#E0E0E0;}
	.st1{fill:#EBEBEB;}
	.st2{fill:#F5F5F5;}
	.st3{display:none;}
	.st4{display:inline;fill:#E0E0E0;}
	.st5{fill:#007A5E;}
	.st6{fill:#263238;}
	.st7{fill:#455A64;}
	.st8{fill:#FAFAFA;}
	.st9{opacity:0.3;}
	.st10{opacity:0.5;}
	.st11{fill:#B78876;}
	.st12{opacity:0.2;}
	.st13{opacity:0.6;}
	.st14{fill:#FFFFFF;}
	.st15{fill:#A3796C;}
</style>
<g id="Background_Complete">
	<g>
		<path class="st0" d="M291.3,444.9c-5.2-12-15-22-26.8-27.6c-11.9-5.6-38.4-3-38.4-3l-69.6-0.1c1.4,6.1,6,21.8,9.3,27.1
			c3.4,5.3,8.4,9.7,14.4,11.4c7.4,2.1,15.2-0.1,22.9-0.6c13.5-0.9,26.7,3.5,39.7,7.2c13,3.7,26.8,6.9,39.9,3.8
			c3.7-0.9,7.6-2.6,9.5-6C294.2,453.5,293,448.8,291.3,444.9z"/>
	</g>
	<g>
		<g>
			<g>
				<g>
					<path class="st1" d="M77.6,198.1c0,0-7.9-0.6-7.2,17.2c0.7,17.8,2.5,27.2,2.5,27.2s-0.2,3.9-3.3,3.2c-3.1-0.8-8.8-4.6-11.6-1.7
						c-2.9,3-1.9,7.5,2,12.9c3.9,5.4,12,17.4,12.7,18.5c0.7,1.1,1,3.1-1.2,2.9c-2.2-0.2-16.8-5.1-18.7,1.9
						c-1.9,7.1,11.4,20.2,12.8,21.7c1.4,1.5,1.5,2.4,0.9,3.3c-0.6,0.9-5.3-1.2-9.5-2.5c-4.2-1.2-9.3-1.9-10.1,2.2
						c-0.8,4.2,5.1,16.4,27.1,29.2l10.6,5.3l10-6.4c20.6-15,25.2-27.7,24-31.8c-1.2-4.1-6.2-2.9-10.3-1.2c-4.1,1.7-8.6,4.2-9.2,3.4
						c-0.7-0.8-0.7-1.8,0.6-3.4c1.3-1.6,13.2-16,10.6-22.9c-2.6-6.8-16.7-0.5-18.8,0c-2.1,0.4-2-1.6-1.4-2.8
						c0.6-1.2,7.5-14,10.8-19.7c3.3-5.7,3.9-10.4,0.7-13c-3.1-2.6-8.4,1.8-11.4,2.9c-3,1.1-3.6-2.8-3.6-2.8s0.9-9.6-0.2-27.3
						c-1.1-17.7-9.1-16.3-9.1-16.3"/>
				</g>
			</g>
			<g>
				<g>
					<g>
						<path class="st0" d="M78.2,214c0,0,0,0.1,0,0.4c0,0.3,0,0.6,0.1,1.1c0.1,1,0.2,2.4,0.3,4.2c0.2,3.6,0.6,8.9,0.9,15.4
							c0.7,13,1.6,31.1,2.4,51c0.9,19.9,1.7,37.9,2.3,51c0.3,6.5,0.6,11.8,0.8,15.4c0.1,1.8,0.2,3.2,0.2,4.2c0,0.5,0,0.8,0,1.1
							c0,0.2,0,0.4,0,0.4s0-0.1,0-0.4c0-0.3,0-0.6-0.1-1.1c-0.1-1-0.2-2.4-0.3-4.2c-0.2-3.6-0.6-8.9-0.9-15.4
							c-0.7-13-1.6-31.1-2.4-51c-0.9-19.9-1.7-37.9-2.3-51c-0.3-6.5-0.6-11.8-0.8-15.4c-0.1-1.8-0.2-3.2-0.2-4.2c0-0.5,0-0.8,0-1.1
							C78.2,214.1,78.2,214,78.2,214z"/>
					</g>
				</g>
			</g>
			<g>
				<g>
					<g>
						<path class="st0" d="M65.8,249.6c0,0,0.3,0.2,0.7,0.5c0.4,0.4,1,0.9,1.7,1.6c1.4,1.4,3.3,3.3,5.3,5.5c2,2.2,3.8,4.1,5.2,5.7
							c0.6,0.7,1.1,1.2,1.6,1.7c0.4,0.4,0.6,0.6,0.6,0.7c0,0-0.3-0.2-0.7-0.5c-0.4-0.4-1-0.9-1.7-1.6c-1.4-1.4-3.2-3.4-5.3-5.6
							c-2-2.2-3.8-4.1-5.2-5.6c-0.6-0.7-1.1-1.2-1.6-1.7C66,249.9,65.8,249.7,65.8,249.6z"/>
					</g>
				</g>
			</g>
			<g>
				<g>
					<g>
						<path class="st0" d="M81.8,265c-0.1-0.1,3.8-4.1,8.6-9c4.8-4.9,8.8-8.8,8.9-8.8c0.1,0.1-3.8,4.1-8.6,9
							C85.9,261.2,81.9,265.1,81.8,265z"/>
					</g>
				</g>
			</g>
			<g>
				<g>
					<g>
						<path class="st0" d="M81.7,295.6c0,0,0.3-0.2,0.7-0.5c0.6-0.3,1.3-0.7,2.1-1.2c1.7-1,4.1-2.3,6.7-3.9c2.6-1.6,4.9-3.1,6.6-4.2
							c0.8-0.5,1.4-1,2-1.3c0.5-0.3,0.7-0.5,0.8-0.4c0,0-0.2,0.2-0.7,0.6c-0.4,0.3-1.1,0.8-1.9,1.4c-1.6,1.2-3.9,2.7-6.5,4.3
							c-2.6,1.6-5,2.9-6.8,3.8c-0.9,0.5-1.6,0.8-2.1,1C82,295.5,81.8,295.7,81.7,295.6z"/>
					</g>
				</g>
			</g>
			<g>
				<g>
					<g>
						<path class="st0" d="M64.2,284.9c0,0,0.3,0.1,0.7,0.3c0.5,0.2,1.1,0.6,1.9,1.1c1.6,0.9,3.8,2.2,6.2,3.6
							c2.4,1.4,4.6,2.8,6.2,3.7c0.8,0.5,1.4,0.9,1.9,1.2c0.4,0.3,0.7,0.5,0.7,0.5c0,0-0.3-0.1-0.7-0.3c-0.5-0.2-1.1-0.6-1.9-1.1
							c-1.6-0.9-3.8-2.2-6.2-3.6c-2.4-1.4-4.6-2.8-6.2-3.7c-0.8-0.5-1.4-0.9-1.9-1.2C64.5,285.1,64.2,284.9,64.2,284.9z"/>
					</g>
				</g>
			</g>
			<g>
				<g>
					<g>
						<path class="st0" d="M60.8,311.9c0,0,0.3,0.1,0.9,0.4c0.7,0.4,1.5,0.8,2.5,1.4c2.1,1.2,4.9,2.8,8,4.6c3.1,1.8,5.9,3.5,8,4.7
							c1,0.6,1.8,1.1,2.4,1.5c0.6,0.4,0.9,0.6,0.9,0.6c0,0-0.3-0.1-0.9-0.4c-0.7-0.4-1.5-0.8-2.5-1.4c-2.1-1.2-4.9-2.8-8-4.6
							c-3.1-1.8-5.9-3.5-8-4.7c-1-0.6-1.8-1.1-2.4-1.5C61.1,312.2,60.8,312,60.8,311.9z"/>
					</g>
				</g>
			</g>
			<g>
				<g>
					<g>
						<path class="st0" d="M83,324.7c0,0,0.3-0.2,0.9-0.6c0.7-0.4,1.5-0.9,2.6-1.6c2.2-1.3,5.2-3.2,8.4-5.3c3.2-2.1,6.1-4.1,8.2-5.6
							c1-0.7,1.8-1.3,2.5-1.7c0.6-0.4,0.9-0.6,0.9-0.6c0,0-0.3,0.3-0.8,0.7c-0.6,0.4-1.4,1.1-2.4,1.8c-2,1.5-4.9,3.5-8.2,5.7
							c-3.2,2.1-6.3,3.9-8.5,5.2c-1.1,0.6-2,1.1-2.6,1.5C83.3,324.5,83,324.7,83,324.7z"/>
					</g>
				</g>
			</g>
		</g>
		<g>
			<g>
				<g>
					<g>
						<polygon class="st0" points="98.9,342.9 69.6,342.9 79.2,415.1 89.3,415.1 						"/>
					</g>
				</g>
			</g>
			<g>
				<g>
					<g>
						<g>
							<path class="st2" d="M71.1,351.8c0,0,0,0.1,0.2,0.3c0.1,0.2,0.4,0.4,0.7,0.5c0.7,0.3,1.9,0.3,3.1-0.4
								c1.2-0.7,2.2-1.9,3.8-2.5c1.6-0.6,3.5-0.5,5.4,0.1c1.9,0.6,3.5,1.5,5,2.4c1.5,0.9,2.8,1.7,4.1,2.2c1.2,0.5,2.3,0.8,3,0.9
								c0.4,0,0.7,0.1,0.8,0.1c0.2,0,0.3,0,0.3,0c0-0.1-1.7-0.1-4-1.2c-1.2-0.5-2.5-1.3-4-2.3c-1.5-0.9-3.1-1.9-5.1-2.5
								c-1.9-0.6-4-0.7-5.7-0.1c-0.8,0.3-1.5,0.8-2.1,1.3c-0.6,0.5-1.1,1-1.7,1.3c-1.1,0.7-2.2,0.7-2.8,0.5
								C71.4,352.1,71.2,351.7,71.1,351.8z"/>
						</g>
					</g>
				</g>
			</g>
			<g>
				<g>
					<g>
						<g>
							<path class="st2" d="M72.2,365.1c0,0,0.2-0.3,0.7-0.8c0.5-0.5,1.2-1.1,2.3-1.5c1.1-0.4,2.5-0.7,4.1-0.6
								c1.6,0.1,3.3,0.4,5.1,0.7c1.8,0.3,3.6,0.4,5.2,0.2c1.6-0.2,3-0.7,4.1-1.2c1.1-0.5,1.9-1.1,2.5-1.5c0.5-0.4,0.8-0.7,0.8-0.7
								c-0.1-0.1-1.2,0.9-3.4,1.9c-1.1,0.5-2.5,0.9-4,1c-1.6,0.2-3.3,0.1-5.1-0.3c-1.8-0.3-3.5-0.6-5.2-0.7c-1.6,0-3.1,0.3-4.2,0.7
								c-1.1,0.5-1.9,1.2-2.3,1.7c-0.2,0.3-0.4,0.5-0.4,0.6C72.2,365,72.2,365.1,72.2,365.1z"/>
						</g>
					</g>
				</g>
			</g>
			<g>
				<g>
					<g>
						<g>
							<path class="st2" d="M95.5,372.2c0,0-0.3-0.2-0.8-0.4c-0.5-0.2-1.4-0.4-2.4-0.5c-1-0.1-2.3,0-3.7,0.2
								c-1.4,0.2-2.8,0.6-4.4,0.9c-1.5,0.3-3,0.5-4.4,0.5c-1.3,0-2.5-0.3-3.5-0.7c-1.9-0.8-2.6-2-2.6-2c0,0,0.1,0.3,0.5,0.8
								c0.4,0.5,1,1,2,1.5c0.9,0.5,2.2,0.8,3.6,0.9c1.4,0.1,2.9-0.1,4.5-0.5c1.6-0.3,3-0.7,4.3-1c1.3-0.2,2.6-0.3,3.6-0.3
								C94.3,371.7,95.5,372.3,95.5,372.2z"/>
						</g>
					</g>
				</g>
			</g>
			<g>
				<g>
					<g>
						<g>
							<path class="st2" d="M74.8,382.2c0,0.1,1-0.7,2.8-0.3c0.9,0.2,1.9,0.6,3,1.1c1.1,0.5,2.4,1,3.9,1.1c2.9,0.3,5.4-0.7,7-1.6
								c0.8-0.5,1.4-1,1.7-1.3c0.4-0.4,0.5-0.6,0.5-0.6c-0.1-0.1-0.8,0.8-2.4,1.7c-1.6,0.9-4,1.7-6.8,1.4c-2.8-0.2-4.9-1.8-6.8-2
								c-0.9-0.1-1.7,0-2.2,0.2C75,382,74.8,382.2,74.8,382.2z"/>
						</g>
					</g>
				</g>
			</g>
			<g>
				<g>
					<g>
						<g>
							<path class="st2" d="M76.4,396.1c0,0.1,1,0,2.4-0.5c1.5-0.5,3.3-1.6,5.4-2.5c1.1-0.4,2.1-0.7,3.1-0.7c1,0,1.8,0.2,2.5,0.6
								c1.3,0.7,1.7,1.6,1.8,1.6c0,0,0-0.2-0.3-0.6c-0.2-0.4-0.7-0.8-1.4-1.2c-0.7-0.4-1.6-0.7-2.7-0.7c-1,0-2.2,0.2-3.3,0.6
								c-2.2,0.9-4,2-5.4,2.6C77.3,395.9,76.4,396,76.4,396.1z"/>
						</g>
					</g>
				</g>
			</g>
			<g>
				<g>
					<g>
						<g>
							<path class="st2" d="M77.8,402.5c0,0.1,0.7,0.3,1.9,0.6c1.2,0.3,2.8,0.6,4.6,0.8c1.8,0.2,3.5,0.2,4.7,0.1
								c1.2-0.1,1.9-0.2,1.9-0.2c0-0.1-3,0-6.6-0.4C80.8,403.1,77.9,402.4,77.8,402.5z"/>
						</g>
					</g>
				</g>
			</g>
		</g>
	</g>
	<g>
		<g>

				<rect x="539.5" y="230.2" transform="matrix(0.9749 -0.2228 0.2228 0.9749 -43.4255 136.9214)" class="st2" width="91.2" height="61.5"/>
		</g>
		<g>
			<g>
				<g>
					<path class="st0" d="M623.2,221.5c0,0-0.2,0.4-0.6,1c-0.5,0.7-1.2,1.6-2,2.7c-1.8,2.4-4.3,5.8-7.4,10
						c-6.4,8.4-15.1,20-24.8,32.8l-0.2,0.3l-0.3-0.1c-0.2-0.1-0.5-0.2-0.7-0.4c-14.6-7.1-27.8-13.5-37.5-18.2
						c-4.7-2.3-8.6-4.2-11.3-5.6c-1.3-0.6-2.3-1.2-3.1-1.6c-0.7-0.4-1.1-0.6-1-0.6s0.4,0.1,1.1,0.4c0.8,0.4,1.8,0.8,3.1,1.4
						c2.8,1.3,6.7,3.1,11.4,5.4c9.7,4.6,22.9,11,37.6,18c0.3,0.1,0.5,0.2,0.7,0.4l-0.5,0.1c9.7-12.7,18.5-24.2,25-32.7
						c3.2-4.1,5.8-7.4,7.6-9.8c0.9-1.1,1.6-2,2.1-2.6C622.9,221.7,623.2,221.4,623.2,221.5z"/>
				</g>
			</g>
		</g>
		<g>
			<g>
				<path class="st0" d="M548,301.7c-0.2-0.1,4.6-9.8,10.7-21.8c6.1-11.9,11.3-21.5,11.5-21.4c0.2,0.1-4.6,9.8-10.7,21.8
					C553.3,292.2,548.2,301.8,548,301.7z"/>
			</g>
		</g>
		<g>
			<g>
				<path class="st0" d="M599.6,251.1c0.1-0.2,8.6,6.5,18.9,14.8c10.3,8.4,18.5,15.3,18.4,15.5c-0.1,0.2-8.6-6.5-18.9-14.8
					C607.7,258.2,599.5,251.2,599.6,251.1z"/>
			</g>
		</g>
	</g>
	<g>
		<g>

				<rect x="230.7" y="54.7" transform="matrix(0.225 -0.9744 0.9744 0.225 113.3177 305.6377)" class="st2" width="36.2" height="53.8"/>
		</g>
		<g>
			<g>
				<g>
					<path class="st0" d="M279.1,70.4c0,0-0.2,0.1-0.6,0.4c-0.4,0.2-1,0.6-1.8,0.9c-1.6,0.8-3.8,2-6.5,3.4
						c-5.6,2.8-13.2,6.7-21.6,11l-0.2,0.1l-0.1-0.2c-0.1-0.1-0.2-0.2-0.3-0.4c-5.9-7.5-11.3-14.3-15.2-19.3
						c-1.9-2.5-3.5-4.5-4.6-5.9c-0.5-0.7-0.9-1.2-1.2-1.6c-0.3-0.4-0.4-0.6-0.4-0.6c0,0,0.2,0.2,0.5,0.5c0.3,0.4,0.8,0.9,1.3,1.6
						c1.1,1.4,2.7,3.4,4.7,5.8c3.9,5,9.3,11.7,15.3,19.2c0.1,0.1,0.2,0.3,0.3,0.4l-0.3-0.1c8.4-4.3,16.1-8.1,21.6-10.9
						c2.7-1.4,5-2.5,6.6-3.2c0.7-0.4,1.3-0.6,1.8-0.9C278.9,70.5,279.1,70.4,279.1,70.4z"/>
				</g>
			</g>
		</g>
		<g>
			<g>
				<path class="st0" d="M218.6,93.7c-0.1-0.1,5-4,11.3-8.8c6.3-4.7,11.5-8.5,11.6-8.4c0.1,0.1-5,4-11.3,8.8
					C223.9,90,218.7,93.8,218.6,93.7z"/>
			</g>
		</g>
		<g>
			<g>
				<path class="st0" d="M259,80.1c0.1-0.1,2.9,5.6,6.2,12.7c3.3,7.1,5.9,12.9,5.8,12.9c-0.1,0.1-2.9-5.6-6.2-12.7
					C261.5,85.9,258.9,80.1,259,80.1z"/>
			</g>
		</g>
	</g>
	<g>
		<g>

				<rect x="524.4" y="73.8" transform="matrix(0.9188 -0.3948 0.3948 0.9188 9.6226 222.4007)" class="st2" width="41.7" height="28.1"/>
		</g>
		<g>
			<g>
				<g>
					<path class="st0" d="M559.1,66.9c0,0-0.1,0.2-0.2,0.5c-0.2,0.4-0.4,0.8-0.7,1.4c-0.6,1.2-1.5,3-2.5,5.1
						c-2.2,4.3-5.1,10.2-8.4,16.8l-0.1,0.1l-0.1,0c-0.1,0-0.2-0.1-0.4-0.1c-7.1-2-13.6-3.8-18.3-5.1c-2.3-0.7-4.2-1.2-5.5-1.6
						c-0.6-0.2-1.1-0.3-1.5-0.4c-0.3-0.1-0.5-0.2-0.5-0.2c0,0,0.2,0,0.5,0.1c0.4,0.1,0.9,0.2,1.5,0.4c1.4,0.4,3.3,0.9,5.6,1.5
						c4.7,1.3,11.2,3,18.4,5c0.1,0,0.2,0.1,0.4,0.1l-0.2,0.1c3.3-6.5,6.3-12.4,8.5-16.7c1.1-2.1,2-3.8,2.6-5c0.3-0.6,0.5-1,0.7-1.4
						C559,67.1,559.1,66.9,559.1,66.9z"/>
				</g>
			</g>
		</g>
		<g>
			<g>
				<path class="st0" d="M531.9,109.2c-0.1,0,1.3-4.8,3-10.7c1.8-5.9,3.3-10.6,3.4-10.6c0.1,0-1.3,4.8-3,10.7
					C533.5,104.5,532,109.2,531.9,109.2z"/>
			</g>
		</g>
		<g>
			<g>
				<path class="st0" d="M550.9,82.2c0.1-0.1,4.4,2.2,9.7,5.1c5.3,2.9,9.6,5.4,9.5,5.4c-0.1,0.1-4.4-2.2-9.7-5.1
					C555.1,84.7,550.9,82.3,550.9,82.2z"/>
			</g>
		</g>
	</g>
</g>
<g id="Background_Simple" class="st3">
	<path class="st4" d="M191.7,414.9h312.8c20.3-11.7,38.8-26.5,55-44.7c50.7-57.3,69.4-154.1,43.3-225.9l-2.4-5.2
		c-19.3-41.6-59.7-70.3-105.9-73.7c-6.5-0.5-13-0.5-19.5,0.1c-43.3,3.6-83.9,30.1-104,68c-11.8,22.3-17.7,48.9-37,65.4
		c-25.1,21.4-62.7,17.5-95.6,12.5c-32.9-5.1-70.6-8.9-95.6,12.7c-15.7,13.5-22.7,34.6-24.1,55C115.1,332.5,146.7,384.7,191.7,414.9z
		"/>
</g>
<g id="Plant">
	<g>
		<g>
			<g>
				<g>
					<path class="st5" d="M609.5,327.8c-4.1-2.6-8.8-4.2-13.5-4.7c-2.2-0.2-4.6-0.2-6.4,1.2c-0.4,0.3-0.7,0.7-0.7,1.2
						c0.1,0.3,0.4,0.6,0.6,0.8C595,330.4,603.4,331,609.5,327.8"/>
				</g>
			</g>
			<g>
				<g>
					<path class="st5" d="M609.2,327.4c-3.1-2.4-6.2-4.8-8.8-7.7c-2.6-2.9-4.7-6.3-5.5-10.1c-0.2-1.2-0.3-2.5,0.4-3.4
						C602.3,311.6,607.8,318.6,609.2,327.4"/>
				</g>
			</g>
			<g>
				<g>
					<path class="st5" d="M609.4,327.7c-0.5-3.8-0.7-7.7,0.2-11.5c0.9-3.8,2.9-7.3,6.1-9.5c1.2,2.8,0.7,6.1-0.2,9
						c-1.3,4.5-3.4,8.9-6.1,12.8"/>
				</g>
			</g>
			<g>
				<g>
					<path class="st5" d="M616.3,340c-4.2,0.5-7.8,2.7-10.9,5.5c-3.1,2.8-5.3,6.6-6.2,10.7c4.1-0.3,7.5-3.1,10-6.3
						C611.7,346.6,613.5,343,616.3,340"/>
				</g>
			</g>
			<g>
				<g>
					<path class="st5" d="M617.8,341.9c-3.3-8.2-2.1-18.2,3.1-25.3C623.2,325,622.4,334.5,617.8,341.9"/>
				</g>
			</g>
			<g>
				<g>
					<path class="st5" d="M626.8,352.7c-3.8-0.2-7.6,0.7-10.9,2.5c-3.3,1.9-6,4.7-7.7,8.1c-0.2,0.5-0.4,1-0.1,1.5
						c0.3,0.4,0.8,0.4,1.2,0.4c3.7-0.2,6.9-2.4,9.6-4.9C621.6,357.7,623.9,354.8,626.8,352.7"/>
				</g>
			</g>
			<g>
				<g>
					<path class="st5" d="M626.5,352.1c-1.9-6.2-2.1-13-0.3-19.3c0.7-2.5,1.8-5.1,4.1-6.3c0.2-0.1,0.4-0.2,0.6-0.1
						c0.2,0.1,0.3,0.3,0.4,0.5c0.8,1.7,1.1,3.6,1,5.5s-0.5,3.7-0.9,5.6c-0.7,3.4-1.1,7.1-3,10c-0.4,0.7-0.8,1.5-1.2,2.2
						c-0.4,0.8-0.4,1-0.7,1.6"/>
				</g>
			</g>
			<g>
				<g>
					<path class="st5" d="M650.4,355.6c-1.8-6.7,0.1-14.9,4.4-20.4c0.3-0.4,0.7-0.8,1.2-0.8c0.8,0.1,1,1.1,0.9,1.9
						C656.7,343.2,654.4,350,650.4,355.6"/>
				</g>
			</g>
			<g>
				<g>
					<path class="st5" d="M652.6,357.1c8.2,2.1,17.6,0.1,24.4-5c-4-2-8.8-2.6-13.2-1.6C659.4,351.5,655.3,353.5,652.6,357.1"/>
				</g>
			</g>
			<g>
				<g>
					<path class="st5" d="M654.4,352.6c4.6-7.5,13.4-12.4,22.1-12.8c-1,3.6-3.9,6.3-7.2,8c-3.3,1.7-7,2.4-10.6,3.1
						C657.3,351.2,655.3,351.5,654.4,352.6"/>
				</g>
			</g>
			<g>
				<g>
					<path class="st5" d="M650.9,330.9c1.2-4.3,2.5-8.5,2.8-13c0.3-4.4-0.3-9-2.6-12.8c-4.3,8.3-4.7,18-0.4,26.2"/>
				</g>
			</g>
			<g>
				<g>
					<path class="st5" d="M665.3,323.6c5-9.1,15.2-16.4,25.6-17.4C686.9,316.1,676,323.8,665.3,323.6"/>
				</g>
			</g>
			<g>
				<g>
					<path class="st5" d="M662.2,325.4c7.5,1.1,13.8,5.9,20.8,8.8c1.5,0.6,3.1,1.1,4.7,0.9c1.6-0.2,3.2-1.3,3.5-2.9
						c0.3-1.3-0.3-2.7-1.2-3.7s-2.2-1.6-3.4-2.1c-7.6-3.2-15.8-3.2-23.8-1.3"/>
				</g>
			</g>
			<g>
				<g>
					<path class="st5" d="M657.8,330.6c1.7,0.5,2.3,1.4,3.6,2.5c4.5,3.9,10,6.7,15.8,8.1c0.6,0.1,1.4,0.2,1.7-0.3
						c0.3-0.5-0.1-1.1-0.4-1.5c-2.4-3-5.9-5.1-9.5-6.5c-3.6-1.4-6.8-3-11.1-2.6"/>
				</g>
			</g>
			<g>
				<g>
					<path class="st5" d="M653,299c6.1,5.7,14.6,8.6,22.9,7.8c0.4,0,0.8-0.1,1-0.4c0.6-0.6-0.1-1.6-0.8-2.1
						C669.4,299,661.2,296.8,653,299"/>
				</g>
			</g>
			<g>
				<g>
					<path class="st5" d="M658.7,296.8c8-6,19-7.8,28.6-4.7c-3.6,3.5-8.6,5.5-13.6,6C668.7,298.6,663.6,298.1,658.7,296.8"/>
				</g>
			</g>
			<g>
				<g>
					<path class="st5" d="M656.4,282.3c-0.7-6.7-0.2-12-0.7-18.8c0-0.5-0.2-1.2-0.7-1.4c-0.7-0.3-1.3,0.6-1.5,1.3
						c-2,6.2-0.9,13.4,2.9,18.7"/>
				</g>
			</g>
			<g>
				<g>
					<path class="st5" d="M656,283c4.6-2.8,8-6.5,11.1-10.8c2.2-3,4.1-6.6,3.6-10.3c-3.1-0.1-6,1.6-8,4c-2,2.3-3.2,5.3-4.1,8.2
						C657.6,277.1,657,280.1,656,283"/>
				</g>
			</g>
			<g>
				<g>
					<path class="st5" d="M666.9,280c10-3.7,19.3-9.2,27.4-16.2c-3.3-1.3-7-0.5-10.3,0.8c-7.5,3-13.6,8.1-17.2,15.3"/>
				</g>
			</g>
			<g>
				<g>
					<path class="st5" d="M659,286.7c5.1,0.6,10.2,0.9,15.2,0.1c4.9-0.8,9.6-2.8,14.2-4.7c0.4-0.2,0.8-0.4,1-0.7
						c0.2-0.4,0-0.9-0.3-1.2c-0.3-0.3-0.8-0.4-1.2-0.6c-5-1.4-10.4-0.7-15.3,0.9C667.6,282.1,663.5,284.1,659,286.7"/>
				</g>
			</g>
			<g>
				<g>
					<path class="st5" d="M630.1,299.2c-3.5-7-3.2-15.1-0.2-22.3c2.1,3.2,2.4,7.3,2,11.1c-0.4,3.8-1.5,7.7-1.6,11.5"/>
				</g>
			</g>
			<g>
				<g>
					<path class="st5" d="M616.4,292.2c-8.6-0.2-17.2,3.5-23.1,9.8c4.3,0.7,8.7-0.4,12.6-2.3c3.9-1.9,7.4-4.6,10.8-7.3"/>
				</g>
			</g>
			<g>
				<g>
					<path class="st5" d="M607.1,289.1c-4.2-0.3-8.3-0.9-12.3,0.4c-4.1,1.2-7.7,4.1-9.4,8c3.9,0.4,7.9-0.5,11.6-2.2
						C600.5,293.7,603.8,291.4,607.1,289.1"/>
				</g>
			</g>
			<g>
				<g>
					<path class="st5" d="M620.8,289.3c-3.8-2.5-7.7-5-12.1-6c-4.4-1-9.5-0.3-12.6,3.1c3.6,2.1,7.9,2.3,12.1,2.3
						c4.1,0,9.2-0.1,13.1,1.3"/>
				</g>
			</g>
			<g>
				<g>
					<path class="st5" d="M620.8,289.5c-6.5-6.4-8.9-17.8-6.3-26.5C619.6,270.7,621.9,280.3,620.8,289.5"/>
				</g>
			</g>
			<g>
				<g>
					<path class="st5" d="M638.7,271.4c1.2-2.8,2.1-5.8,3.2-8.7c1.1-2.9,2.5-5.7,4.5-8c2.1-2.3,4.9-4,8-4.2
						c-1.9,8.8-7.8,16.6-15.6,21"/>
				</g>
			</g>
			<g>
				<g>
					<path class="st5" d="M635.4,275.2c-2-2.8-4.4-6.6-7.1-8.6c-2.7-2.1-6.3-3.3-9.7-2.5C622.1,270.1,628.5,274.4,635.4,275.2"/>
				</g>
			</g>
			<g>
				<g>
					<path class="st5" d="M636.1,271.7c-1.3-3.4-2.7-6.8-3.2-10.4c-0.5-3.6-0.2-7.4,1.6-10.5c3.6,6.7,4.7,13.9,1.8,21"/>
				</g>
			</g>
			<g>
				<g>
					<path class="st5" d="M638.7,250.8c2-6.7,8.1-11.6,14.7-13.8c0.8-0.3,1.7-0.5,2.6-0.4c0.9,0.1,1.7,0.7,1.9,1.6
						c0.2,1.1-0.7,2.2-1.6,2.9C651.2,245.4,645.1,248.8,638.7,250.8"/>
				</g>
			</g>
			<g>
				<g>
					<path class="st5" d="M638.8,245.3c0.3-4.3,0.5-8.7,1.9-12.7c1.4-4.1,4.1-7.9,8-9.7c0.7,4.3-1.2,8.7-3.6,12.4
						c-2.3,3.7-5.1,7.3-6.5,11.4"/>
				</g>
			</g>
			<g>
				<g>
					<path class="st5" d="M638.7,248.3c-1.7-4.9-1.8-11-4.7-15.3c-2-3-5.3-5-7-8.1c-1.2,2.9-0.8,6.3,0.4,9.2
						c1.2,2.9,3.2,5.4,5.4,7.7C634.8,244.1,636.7,245.9,638.7,248.3"/>
				</g>
			</g>
			<g>
				<g>
					<g>
						<path class="st6" d="M638.7,391.4c-0.1,0-0.2-32.4-0.3-72.4c0-40,0.1-72.4,0.2-72.4s0.2,32.4,0.3,72.4
							C638.9,359,638.8,391.4,638.7,391.4z"/>
					</g>
				</g>
			</g>
			<g>
				<g>
					<g>
						<path class="st6" d="M667,294.3c0,0-0.4,0.2-1.2,0.5c-0.9,0.3-2,0.7-3.4,1.1c-2.8,1-6.7,2.4-10.9,4.1
							c-4.2,1.8-8.1,3.2-10.4,5.2c-1.1,1-1.8,2-2.1,2.8c-0.3,0.8-0.4,1.2-0.4,1.2c0,0,0-0.1,0-0.3c0-0.2,0.1-0.5,0.2-0.9
							c0.3-0.8,0.9-1.9,2-2.9c1.1-1,2.7-2,4.5-2.8c1.8-0.8,3.8-1.7,5.9-2.6c4.2-1.7,8.1-3.1,11-4c1.4-0.4,2.6-0.8,3.4-1
							C666.6,294.4,667,294.3,667,294.3z"/>
					</g>
				</g>
			</g>
			<g>
				<g>
					<g>
						<path class="st6" d="M676.3,271.5c0,0-0.1,0.1-0.3,0.4c-0.3,0.3-0.6,0.6-1,1c-1,0.9-2.3,2.1-3.9,3.5c-3.4,3-7.9,7-12.9,11.5
							c-5,4.5-9.4,8.8-12.4,12c-1.5,1.6-2.7,3-3.5,3.9c-0.4,0.4-0.7,0.8-0.9,1.1c-0.2,0.2-0.3,0.4-0.4,0.4c0,0,0.1-0.2,0.3-0.4
							c0.2-0.3,0.5-0.6,0.9-1.1c0.8-1,1.9-2.3,3.4-4c3-3.3,7.3-7.6,12.4-12.1c5.1-4.5,9.7-8.5,13-11.4c1.6-1.4,3-2.6,4-3.4
							c0.4-0.4,0.8-0.7,1.1-0.9C676.2,271.6,676.3,271.5,676.3,271.5z"/>
					</g>
				</g>
			</g>
			<g>
				<g>
					<g>
						<path class="st6" d="M652.7,292.4c-0.1-0.1,0.9-2.5,2-5.6c1.1-3.1,1.6-5.7,1.7-5.7c0.1,0-0.2,2.7-1.2,5.8
							c-0.5,1.6-1.1,2.9-1.6,3.9C653.1,291.9,652.7,292.5,652.7,292.4z"/>
					</g>
				</g>
			</g>
			<g>
				<g>
					<g>
						<path class="st6" d="M638.7,312c0,0-0.3-0.3-0.8-0.9c-0.5-0.7-1.2-1.5-2-2.6c-1.7-2.2-4-5.1-6.6-8.4c-2.6-3.3-5-6.2-6.7-8.3
							c-0.8-1-1.5-1.9-2-2.5c-0.5-0.6-0.7-0.9-0.7-1c0,0,0.3,0.3,0.8,0.8c0.5,0.6,1.3,1.4,2.2,2.4c1.8,2.1,4.2,5,6.8,8.2
							c2.6,3.3,4.9,6.3,6.5,8.5c0.8,1.1,1.4,2,1.9,2.6C638.5,311.7,638.8,312,638.7,312z"/>
					</g>
				</g>
			</g>
			<g>
				<g>
					<g>
						<path class="st6" d="M632.5,304.1c-0.1,0.1-1.7-1.9-2.6-4.9c-0.6-2.1-0.7-4-0.6-4.9l0.2,0c-0.1,0.4-0.2,0.6-0.2,0.6
							c0,0,0-0.2,0-0.6l0.2,0c0.1,0.9,0.2,2.7,0.8,4.8C631.2,302,632.6,304,632.5,304.1z"/>
					</g>
				</g>
			</g>
			<g>
				<g>
					<g>
						<path class="st6" d="M624.5,294c-0.1,0.1-0.6-0.6-1.8-1.1c-1.2-0.5-3-0.6-5-0.4c-2,0.1-3.8,0.5-5.1,0.8
							c-1.3,0.3-2.1,0.6-2.1,0.5c0-0.1,0.7-0.4,2-0.8c1.3-0.4,3.1-0.8,5.1-1c2-0.2,3.9,0,5.2,0.6C624.1,293.2,624.5,294,624.5,294z"
							/>
					</g>
				</g>
			</g>
			<g>
				<g>
					<g>
						<path class="st6" d="M622.6,291.5c0,0.1-1.1-0.4-2.8-1c-1.7-0.6-4.2-1.2-6.9-1.4c-2.8-0.2-5.3,0-7.1,0.4
							c-1.8,0.3-2.9,0.7-2.9,0.6c0,0,0.3-0.1,0.7-0.3c0.5-0.2,1.2-0.4,2.1-0.6c1.8-0.4,4.4-0.7,7.2-0.5c2.8,0.2,5.3,0.9,7,1.6
							c0.9,0.3,1.5,0.7,2,0.9C622.4,291.4,622.6,291.5,622.6,291.5z"/>
					</g>
				</g>
			</g>
			<g>
				<g>
					<g>
						<path class="st6" d="M638.7,281.2c-0.1,0-1-3.1-2-7.1c-1-3.9-1.7-7.1-1.6-7.2c0.1,0,1,3.1,2,7.1
							C638.1,278,638.8,281.2,638.7,281.2z"/>
					</g>
				</g>
			</g>
			<g>
				<g>
					<g>
						<path class="st6" d="M638.8,281.2c-0.1,0-0.7-2.1-2.2-4.2c-1.5-2.2-3.4-3.3-3.3-3.4c0,0,0.5,0.1,1.3,0.7
							c0.7,0.5,1.6,1.4,2.4,2.5C638.5,279,638.9,281.2,638.8,281.2z"/>
					</g>
				</g>
			</g>
			<g>
				<g>
					<g>
						<path class="st6" d="M638.7,374.1c-0.1,0-0.1-0.8-0.5-2.2c-0.4-1.4-1-3.3-2.2-5.6c-2.2-4.6-6.3-10.4-11.5-16.2
							c-2.6-2.9-5.1-5.7-7.2-8.3c-2.1-2.6-3.9-5.2-5.1-7.4c-1.3-2.2-2.1-4.1-2.6-5.5c-0.2-0.7-0.4-1.2-0.5-1.6
							c-0.1-0.4-0.1-0.6-0.1-0.6c0,0,0.3,0.7,0.8,2.1c0.5,1.3,1.4,3.2,2.7,5.4c1.3,2.2,3.1,4.7,5.2,7.3c2.1,2.6,4.6,5.4,7.2,8.3
							c5.2,5.8,9.3,11.7,11.4,16.4c1.1,2.3,1.7,4.3,2,5.7c0.2,0.7,0.3,1.2,0.3,1.6C638.7,373.9,638.7,374.1,638.7,374.1z"/>
					</g>
				</g>
			</g>
			<g>
				<g>
					<g>
						<path class="st6" d="M664.3,345.2c0,0-0.5,0.3-1.3,0.8c-0.9,0.5-2.1,1.2-3.5,2.3c-1.4,1.1-3,2.5-4.6,4.2
							c-1.6,1.7-3.3,3.7-4.9,5.8c-3.4,4.2-6.5,8-8.4,11c-1,1.5-1.7,2.7-2.1,3.6c-0.5,0.9-0.7,1.4-0.7,1.4c0,0,0-0.1,0.1-0.4
							c0.1-0.2,0.2-0.6,0.5-1.1c0.4-0.9,1.1-2.2,2-3.7c1.8-3.1,5-6.9,8.3-11.1c1.7-2.1,3.4-4.1,5-5.8c1.6-1.7,3.2-3.1,4.7-4.1
							c1.4-1.1,2.7-1.8,3.6-2.2c0.4-0.2,0.8-0.4,1-0.5C664.2,345.2,664.3,345.2,664.3,345.2z"/>
					</g>
				</g>
			</g>
			<g>
				<g>
					<g>
						<path class="st6" d="M664.8,354.6c0,0.1-1.1,0.2-2.8,0.4c-1.7,0.2-4.2,0.5-6.7,1.3c-2.5,0.8-4.6,2.1-6,3.2
							c-1.4,1.1-2,2-2.1,1.9c0,0,0.1-0.3,0.4-0.7c0.3-0.4,0.8-0.9,1.5-1.5c1.4-1.2,3.5-2.5,6.1-3.3c2.6-0.8,5.1-1.1,6.8-1.2
							C663.7,354.5,664.8,354.5,664.8,354.6z"/>
					</g>
				</g>
			</g>
			<g>
				<g>
					<g>
						<path class="st6" d="M647.9,360.4c-0.1-0.1,1.1-2,2.1-4.7c0.9-2.6,1.1-5,1.3-4.9c0.1,0,0.1,0.6,0,1.5
							c-0.1,0.9-0.3,2.2-0.8,3.6c-0.5,1.4-1.1,2.5-1.6,3.3C648.3,359.9,648,360.4,647.9,360.4z"/>
					</g>
				</g>
			</g>
			<g>
				<g>
					<g>
						<path class="st6" d="M672.6,320c0,0-0.2,0.1-0.5,0.2c-0.4,0.2-0.8,0.4-1.3,0.6c-0.6,0.3-1.3,0.6-2.1,1
							c-0.8,0.4-1.7,0.8-2.7,1.4c-0.5,0.3-1,0.6-1.5,0.9c-0.5,0.3-1.1,0.7-1.6,1c-1.1,0.7-2.3,1.5-3.5,2.4c-2.4,1.8-4.9,4-7.3,6.4
							c-2.4,2.5-4.4,5.1-6.2,7.5c-0.8,1.2-1.6,2.4-2.3,3.6c-0.3,0.6-0.7,1.1-1,1.7c-0.3,0.5-0.6,1.1-0.8,1.6c-0.6,1-0.9,1.9-1.3,2.8
							c-0.4,0.8-0.7,1.5-0.9,2.1c-0.2,0.5-0.4,1-0.6,1.4c-0.1,0.3-0.2,0.5-0.2,0.5c0,0,0-0.2,0.1-0.5c0.1-0.4,0.3-0.8,0.5-1.4
							c0.2-0.6,0.5-1.3,0.8-2.2c0.4-0.8,0.7-1.8,1.3-2.8c0.3-0.5,0.5-1,0.8-1.6c0.3-0.6,0.6-1.1,1-1.7c0.6-1.2,1.4-2.4,2.3-3.6
							c1.7-2.5,3.8-5.1,6.2-7.6c2.4-2.5,5-4.6,7.4-6.5c1.2-0.9,2.4-1.7,3.6-2.4c0.6-0.3,1.1-0.7,1.7-1c0.5-0.3,1.1-0.6,1.6-0.9
							c1-0.6,1.9-1,2.8-1.4c0.8-0.4,1.5-0.7,2.1-0.9c0.6-0.2,1-0.4,1.4-0.5C672.4,320.1,672.6,320,672.6,320z"/>
					</g>
				</g>
			</g>
			<g>
				<g>
					<g>
						<path class="st6" d="M652.3,333.6c0,0,0.2-0.8,1.1-1.7c0.9-0.9,2.6-1.7,4.5-1.7c1.9-0.1,3.6,0.5,4.7,0.9
							c1.1,0.4,1.8,0.8,1.8,0.9c0,0.1-0.7-0.2-1.9-0.6c-1.2-0.4-2.8-0.8-4.6-0.8c-1.8,0.1-3.4,0.8-4.3,1.5
							C652.7,332.9,652.4,333.6,652.3,333.6z"/>
					</g>
				</g>
			</g>
			<g>
				<g>
					<g>
						<path class="st6" d="M649.3,336.7c-0.1-0.1,1-1.7,1.3-4.1c0.3-2.4-0.4-4.3-0.3-4.3c0.1,0,0.3,0.4,0.5,1.2
							c0.2,0.8,0.4,1.9,0.2,3.2c-0.1,1.2-0.6,2.3-0.9,3C649.7,336.4,649.3,336.7,649.3,336.7z"/>
					</g>
				</g>
			</g>
		</g>
		<g>
			<g>
				<path class="st7" d="M616.3,378.8c0.7,12.4,4.4,25,10.2,37.7h25c5.5-12.6,9-25.2,9.6-37.7H616.3z"/>
			</g>
		</g>
		<g>
			<g>
				<g>
					<path class="st8" d="M657,398.8c0,0.1-8.2,0.2-18.4,0.2c-10.1,0-18.4-0.1-18.4-0.2c0-0.1,8.2-0.2,18.4-0.2
						C648.8,398.6,657,398.7,657,398.8z"/>
				</g>
			</g>
		</g>
		<g>
			<g>
				<g>
					<path class="st8" d="M656.4,403.3c0,0.1-7.7,0.2-17.2,0.2c-9.5,0-17.2-0.1-17.2-0.2c0-0.1,7.7-0.2,17.2-0.2
						C648.7,403.1,656.4,403.2,656.4,403.3z"/>
				</g>
			</g>
		</g>
	</g>
</g>
<g id="Device">
	<g>
		<g>
			<g>
				<g>
					<g>
						<g>
							<g>
								<g>
									<g>
										<g>
											<g>
												<path class="st7" d="M545.8,410.6H190.5c-8,0-14.6-6.5-14.6-14.6V170.9c0-8,6.5-14.6,14.6-14.6h355.4
													c8,0,14.6,6.5,14.6,14.6V396C560.4,404.1,553.9,410.6,545.8,410.6z"/>
											</g>
										</g>
									</g>
								</g>
							</g>
							<g>
								<g>
									<g>
										<g>
											<g>
												<path class="st7" d="M559.7,416.4h-381c-9.8,0-17.8-8-17.8-17.8v-4.5h416.6v4.5C577.5,408.4,569.5,416.4,559.7,416.4z"
													/>
											</g>
										</g>
									</g>
								</g>
							</g>
							<g>
								<g>
									<g>
										<g>
											<g>
												<rect x="186.2" y="166.4" class="st6" width="362.8" height="214.7"/>
											</g>
										</g>
									</g>
								</g>
							</g>
							<g>
								<g>
									<g>
										<g>
											<g>
												<polygon class="st6" points="330.2,391.8 335.4,400 408.2,400 413,391.8 												"/>
											</g>
										</g>
									</g>
								</g>
							</g>
						</g>
						<g>
							<g>
								<g>
									<g>
										<g>
											<g>
												<g>
													<g>
														<g>
															<path class="st1" d="M539,380.5H197c-1.8,0-3.3-1.5-3.3-3.3V176.9c0-1.8,1.5-3.3,3.3-3.3H539c1.8,0,3.3,1.5,3.3,3.3
																v200.2C542.3,379,540.8,380.5,539,380.5z"/>
														</g>
													</g>
												</g>
											</g>
										</g>
									</g>
									<g>
										<g>
											<g>
												<g>
													<g>
														<g>
															<polygon class="st8" points="541.9,380.8 193.3,380.8 193.7,189.1 541.9,189.1 															"/>
														</g>
													</g>
												</g>
											</g>
										</g>
									</g>
									<g>
										<g>
											<g>
												<g>
													<g>
														<g>
															<path class="st6" d="M222.3,181.7c0,1.5-1.2,2.8-2.8,2.8c-1.5,0-2.8-1.2-2.8-2.8c0-1.5,1.2-2.8,2.8-2.8
																C221,178.9,222.3,180.1,222.3,181.7z"/>
														</g>
													</g>
												</g>
											</g>
										</g>
									</g>
									<g>
										<g>
											<g>
												<g>
													<g>
														<g>
															<path class="st6" d="M205.4,181.7c0,1.5-1.2,2.8-2.8,2.8c-1.5,0-2.8-1.2-2.8-2.8c0-1.5,1.2-2.8,2.8-2.8
																C204.2,178.9,205.4,180.1,205.4,181.7z"/>
														</g>
													</g>
												</g>
											</g>
										</g>
									</g>
									<g>
										<g>
											<g>
												<g>
													<g>
														<g>
															<path class="st6" d="M213.5,181.7c0,1.5-1.2,2.8-2.8,2.8c-1.5,0-2.8-1.2-2.8-2.8c0-1.5,1.2-2.8,2.8-2.8
																C212.3,178.9,213.5,180.1,213.5,181.7z"/>
														</g>
													</g>
												</g>
											</g>
										</g>
									</g>
								</g>
							</g>
						</g>
						<g>
							<g>
								<g>
									<g>
										<g>
											<path class="st6" d="M557.1,391.8c0,0.1-85.3,0.2-190.6,0.2c-105.3,0-190.6-0.1-190.6-0.2c0-0.1,85.3-0.2,190.6-0.2
												C471.8,391.5,557.1,391.6,557.1,391.8z"/>
										</g>
									</g>
								</g>
							</g>
						</g>
					</g>
				</g>
			</g>
		</g>
		<g>
			<g>
				<g>
					<g>
						<g>
							<g>
								<g>
									<g>
										<polygon class="st5" points="305.3,264 447.1,262.7 451.3,359.1 304.4,358 										"/>
									</g>
								</g>
							</g>
							<g>
								<g>
									<g>
										<path class="st5" d="M305.3,264l67-54.5c2.8-2.3,6.9-2.3,9.7,0l65.1,53.1"/>
									</g>
								</g>
							</g>
							<g class="st9">
								<g>
									<g>
										<path d="M305.3,264l67-54.5c2.8-2.3,6.9-2.3,9.7,0l65.1,53.1"/>
									</g>
								</g>
							</g>
							<g>
								<g>
									<g>
										<g>
											<path class="st6" d="M304.4,358c-0.2-0.2,11.2-12.6,25.3-27.7c14.2-15.2,25.8-27.3,25.9-27.1
												c0.2,0.2-11.1,12.6-25.3,27.7C316.2,346,304.6,358.2,304.4,358z"/>
										</g>
									</g>
								</g>
							</g>
							<g>
								<g>
									<g>
										<g>
											<path class="st6" d="M451.3,359.1c-0.2,0.2-11.3-12-24.8-27.1c-13.5-15.1-24.3-27.5-24.1-27.7c0.2-0.2,11.3,12,24.8,27.1
												C440.7,346.5,451.5,358.9,451.3,359.1z"/>
										</g>
									</g>
								</g>
							</g>
							<g class="st10">
								<g>
									<g>
										<polyline points="447.1,262.7 376,319.7 305.3,264 										"/>
									</g>
								</g>
							</g>
						</g>
						<g>
							<g>
								<g>
									<g>
										<polygon class="st8" points="312.5,269.2 312.2,224.9 436.3,223.2 437.8,269.8 376,319 										"/>
									</g>
									<g>
										<g>
											<path class="st6" d="M312.5,269.2c0,0,0.4,0.3,1.2,0.9c0.8,0.6,1.9,1.5,3.4,2.6c3,2.3,7.3,5.7,12.9,10
												c11.1,8.6,27,21,46.3,36.1l-0.3,0c17.8-14.2,38.9-31,61.8-49.2l-0.1,0.2c-0.3-8.9-0.6-18.2-0.9-27.7
												c-0.2-6.4-0.4-12.7-0.6-18.9l0.3,0.3c-50,0.7-94.2,1.2-124.2,1.6l0.2-0.2c0.1,13.9,0.1,25,0.1,32.6c0,3.8,0,6.7,0,8.7
												c0,1,0,1.7,0,2.2C312.5,269,312.5,269.2,312.5,269.2s0-0.2,0-0.7c0-0.5,0-1.3,0-2.2c0-2-0.1-4.9-0.1-8.7
												c-0.1-7.6-0.2-18.7-0.3-32.6l0-0.2l0.2,0c30-0.4,74.1-1.1,124.2-1.8l0.3,0l0,0.3c0.2,6.2,0.4,12.5,0.6,18.9
												c0.3,9.5,0.6,18.8,0.9,27.7l0,0.1L438,270c-22.9,18.2-44,35-61.8,49.1l-0.1,0.1l-0.1-0.1c-19.3-15.1-35.1-27.6-46.2-36.3
												c-5.5-4.3-9.8-7.7-12.8-10.1c-1.5-1.2-2.6-2-3.3-2.6C312.8,269.6,312.5,269.2,312.5,269.2z"/>
										</g>
									</g>
								</g>
							</g>
						</g>
					</g>
				</g>
			</g>
			<g>
				<g>
					<path class="st6" d="M416.8,245.6c0,0.1-19,0.4-42.4,0.6c-23.4,0.2-42.4,0.2-42.4,0.1c0-0.1,19-0.4,42.4-0.6
						C397.8,245.5,416.8,245.4,416.8,245.6z"/>
				</g>
			</g>
			<g>
				<g>
					<path class="st6" d="M416.8,258.1c0,0.1-19,0.4-42.4,0.6c-23.4,0.2-42.4,0.2-42.4,0.1c0-0.1,19-0.4,42.4-0.6
						C397.8,258,416.8,257.9,416.8,258.1z"/>
				</g>
			</g>
			<g>
				<g>
					<path class="st6" d="M416.8,272.5c0,0.1-19,0.4-42.4,0.6c-23.4,0.2-42.4,0.2-42.4,0.1c0-0.1,19-0.4,42.4-0.6
						C397.8,272.4,416.8,272.3,416.8,272.5z"/>
				</g>
			</g>
			<g>
				<g>
					<path class="st6" d="M416.8,286.9c0,0.1-18.1,0.4-40.5,0.6c-22.4,0.2-40.5,0.2-40.5,0.1c0-0.1,18.1-0.4,40.5-0.6
						C398.7,286.8,416.8,286.8,416.8,286.9z"/>
				</g>
			</g>
			<g>
				<g>
					<path class="st6" d="M401,299.6c0,0-0.2,0-0.5,0.1c-0.4,0-0.9,0-1.4,0.1c-1.3,0-3.1,0.1-5.2,0.1c-4.5,0.1-10.6,0.2-17.3,0.3
						c-6.8,0.1-12.9,0.2-17.3,0.2c-2.2,0-3.9,0-5.2,0c-0.6,0-1,0-1.4,0c-0.3,0-0.5,0-0.5,0c0,0,0.2,0,0.5-0.1c0.4,0,0.9,0,1.4-0.1
						c1.3,0,3.1-0.1,5.2-0.1c4.5-0.1,10.6-0.2,17.3-0.3c6.8-0.1,12.9-0.2,17.3-0.2c2.2,0,3.9,0,5.2,0c0.6,0,1,0,1.4,0
						C400.8,299.6,401,299.6,401,299.6z"/>
				</g>
			</g>
			<g>
				<g>
					<path class="st6" d="M385,311.8c0,0.1-4,0.3-9,0.3c-5,0-9-0.1-9-0.2c0-0.1,4-0.3,9-0.3C381,311.6,385,311.7,385,311.8z"/>
				</g>
			</g>
		</g>
	</g>
</g>
<g id="Floor">
	<g>
		<g>
			<path class="st6" d="M709,415.6c0,0.1-149.5,0.3-334,0.3c-184.5,0-334-0.1-334-0.3c0-0.1,149.5-0.3,334-0.3
				C559.4,415.3,709,415.4,709,415.6z"/>
		</g>
	</g>
</g>
<g id="Envelope_3">
	<g>
		<g>
			<g>
				<path class="st6" d="M401.8,222.8c0.1,0,0.2,0.6,0.1,1.3c-0.1,0.7-0.2,1.2-0.4,1.2c-0.1,0-0.2-0.6-0.1-1.3
					C401.4,223.4,401.6,222.8,401.8,222.8z"/>
			</g>
		</g>
		<g>
			<g>
				<path class="st6" d="M403.1,213.1c0.1,0,0.1,1.1-0.1,2.5c-0.2,1.3-0.5,2.4-0.6,2.4c-0.1,0-0.1-1.1,0.1-2.5
					C402.7,214.1,402.9,213.1,403.1,213.1z"/>
			</g>
		</g>
		<g>
			<g>
				<path class="st6" d="M405.1,203.5c0.1,0,0,1.1-0.3,2.5c-0.3,1.3-0.6,2.4-0.8,2.3c-0.1,0,0-1.1,0.3-2.5
					C404.6,204.5,404.9,203.4,405.1,203.5z"/>
			</g>
		</g>
		<g>
			<g>
				<path class="st6" d="M407.7,194c0.1,0-0.1,1.1-0.5,2.4c-0.4,1.3-0.8,2.3-1,2.3c-0.1,0,0.1-1.1,0.5-2.4
					C407.2,195,407.6,193.9,407.7,194z"/>
			</g>
		</g>
		<g>
			<g>
				<path class="st6" d="M411.1,184.8c0.1,0.1-0.2,1.1-0.7,2.4c-0.5,1.3-1,2.2-1.2,2.2c-0.1,0,0.2-1.1,0.7-2.4
					C410.5,185.7,411,184.7,411.1,184.8z"/>
			</g>
		</g>
		<g>
			<g>
				<path class="st6" d="M415.4,175.9c0.1,0.1-0.3,1.1-0.9,2.3c-0.6,1.2-1.2,2.1-1.4,2.1c-0.1-0.1,0.3-1.1,0.9-2.3
					C414.7,176.8,415.3,175.9,415.4,175.9z"/>
			</g>
		</g>
		<g>
			<g>
				<path class="st6" d="M420.5,167.6c0.1,0.1-0.4,1.1-1.2,2.2c-0.7,1.1-1.4,2-1.5,1.9c-0.1-0.1,0.4-1.1,1.1-2.2
					C419.7,168.3,420.4,167.5,420.5,167.6z"/>
			</g>
		</g>
		<g>
			<g>
				<path class="st6" d="M426.6,159.8c0.1,0.1-0.5,1-1.4,2.1c-0.9,1-1.7,1.8-1.8,1.7c-0.1-0.1,0.5-1,1.4-2.1
					C425.7,160.5,426.5,159.7,426.6,159.8z"/>
			</g>
		</g>
		<g>
			<g>
				<path class="st6" d="M433.5,152.8c0.1,0.1-0.6,0.9-1.6,1.9c-1,0.9-1.9,1.6-2,1.5c-0.1-0.1,0.6-0.9,1.6-1.9
					C432.6,153.4,433.4,152.7,433.5,152.8z"/>
			</g>
		</g>
		<g>
			<g>
				<path class="st6" d="M441.3,146.8c0.1,0.1-0.7,0.9-1.8,1.7c-1.1,0.8-2,1.4-2.1,1.2c-0.1-0.1,0.7-0.9,1.8-1.7
					C440.2,147.2,441.2,146.7,441.3,146.8z"/>
			</g>
		</g>
		<g>
			<g>
				<path class="st6" d="M449.7,141.8c0.1,0.1-0.8,0.8-2,1.4c-1.2,0.6-2.2,1.1-2.3,0.9c-0.1-0.1,0.8-0.8,2-1.4
					C448.7,142.1,449.7,141.7,449.7,141.8z"/>
			</g>
		</g>
		<g>
			<g>
				<path class="st6" d="M458.8,138.1c0,0.1-1,0.6-2.2,1.1c-1.3,0.5-2.3,0.7-2.4,0.6c-0.1-0.1,0.9-0.6,2.2-1.1
					C457.7,138.2,458.8,138,458.8,138.1z"/>
			</g>
		</g>
		<g>
			<g>
				<path class="st6" d="M468.4,135.9c0,0.1-1,0.4-2.4,0.7c-1.3,0.3-2.4,0.4-2.5,0.3c0-0.1,1-0.5,2.4-0.8
					C467.3,135.8,468.4,135.7,468.4,135.9z"/>
			</g>
		</g>
		<g>
			<g>
				<path class="st6" d="M478.2,135.3c0,0.1-1.1,0.3-2.5,0.3c-1.4,0-2.5-0.1-2.5-0.2c0-0.1,1.1-0.3,2.5-0.3
					C477.1,135.1,478.2,135.2,478.2,135.3z"/>
			</g>
		</g>
		<g>
			<g>
				<path class="st6" d="M488,136.5c0,0.1-1.1,0.1-2.5-0.1c-1.3-0.2-2.4-0.5-2.4-0.6c0-0.1,1.1-0.1,2.5,0.1
					C486.9,136.1,488,136.3,488,136.5z"/>
			</g>
		</g>
		<g>
			<g>
				<path class="st6" d="M497.4,139.3c-0.1,0.1-1.1-0.1-2.4-0.6c-1.3-0.4-2.3-0.9-2.2-1.1c0-0.1,1.1,0.1,2.4,0.6
					C496.4,138.7,497.4,139.2,497.4,139.3z"/>
			</g>
		</g>
		<g>
			<g>
				<path class="st6" d="M506.1,143.8c-0.1,0.1-1.1-0.3-2.3-1c-1.2-0.7-2.1-1.3-2-1.4c0.1-0.1,1.1,0.3,2.3,1
					C505.3,143,506.2,143.6,506.1,143.8z"/>
			</g>
		</g>
		<g>
			<g>
				<path class="st6" d="M513.8,149.8c-0.1,0.1-1-0.5-2-1.4c-1-0.9-1.8-1.7-1.7-1.8c0.1-0.1,1,0.5,2,1.4
					C513.2,148.9,513.9,149.7,513.8,149.8z"/>
			</g>
		</g>
		<g>
			<g>
				<path class="st6" d="M518.7,155.4c-0.1,0.1-0.6-0.3-1-0.8c-0.4-0.5-0.7-1.1-0.6-1.1c0.1-0.1,0.5,0.3,1,0.8
					C518.6,154.8,518.8,155.4,518.7,155.4z"/>
			</g>
		</g>
	</g>
	<g>
		<g>
			<g>
				<path class="st6" d="M564.9,215.7c-0.1,0.1-1.1-0.2-2.4-0.8c-1.3-0.6-2.2-1.2-2.2-1.3c0.1-0.1,1.1,0.2,2.4,0.8
					C564,215,565,215.6,564.9,215.7z"/>
			</g>
		</g>
		<g>
			<g>
				<path class="st6" d="M574.4,219c0,0.1-1.1-0.1-2.5-0.5c-1.3-0.4-2.4-0.8-2.3-1c0-0.1,1.2,0.1,2.5,0.5
					C573.4,218.4,574.4,218.8,574.4,219z"/>
			</g>
		</g>
		<g>
			<g>
				<path class="st6" d="M584.2,220.5c0,0.1-1.1,0.1-2.5,0c-1.4-0.2-2.5-0.4-2.5-0.5c0-0.1,1.1-0.1,2.5,0
					C583.2,220.2,584.3,220.4,584.2,220.5z"/>
			</g>
		</g>
		<g>
			<g>
				<path class="st6" d="M594.2,220.2c0,0.1-1.1,0.3-2.5,0.4c-1.4,0.1-2.5,0.1-2.5-0.1c0-0.1,1.1-0.3,2.5-0.4
					C593.1,220.1,594.2,220.1,594.2,220.2z"/>
			</g>
		</g>
		<g>
			<g>
				<path class="st6" d="M604,218.4c0,0.1-1,0.5-2.4,0.8c-1.4,0.3-2.5,0.4-2.5,0.2c0-0.1,1.1-0.5,2.4-0.8
					C602.9,218.4,604,218.3,604,218.4z"/>
			</g>
		</g>
		<g>
			<g>
				<path class="st6" d="M613.3,214.7c0.1,0.1-0.9,0.7-2.2,1.3c-1.3,0.6-2.3,0.9-2.4,0.8c-0.1-0.1,0.9-0.7,2.2-1.3
					C612.2,214.9,613.3,214.6,613.3,214.7z"/>
			</g>
		</g>
		<g>
			<g>
				<path class="st6" d="M621.6,209.1c0.1,0.1-0.7,0.9-1.8,1.8c-1.1,0.8-2.1,1.4-2.2,1.2c-0.1-0.1,0.8-0.8,1.9-1.7
					C620.6,209.7,621.5,209,621.6,209.1z"/>
			</g>
		</g>
		<g>
			<g>
				<path class="st6" d="M628.4,201.8c0.1,0.1-0.4,1.1-1.3,2.1c-0.9,1.1-1.7,1.8-1.9,1.7c-0.1-0.1,0.6-1,1.4-2
					C627.6,202.6,628.3,201.8,628.4,201.8z"/>
			</g>
		</g>
		<g>
			<g>
				<path class="st6" d="M633.1,193c0.1,0-0.1,1.2-0.7,2.4c-0.6,1.3-1.2,2.2-1.3,2.1c-0.1-0.1,0.3-1.1,0.9-2.4
					C632.5,194,633,193,633.1,193z"/>
			</g>
		</g>
		<g>
			<g>
				<path class="st6" d="M634.9,183.3c0.1,0,0.3,1.1,0.1,2.5c-0.1,1.4-0.5,2.5-0.6,2.4c-0.1,0,0-1.1,0.1-2.5
					C634.7,184.4,634.8,183.3,634.9,183.3z"/>
			</g>
		</g>
		<g>
			<g>
				<path class="st6" d="M633.5,173.4c0.1,0,0.6,1,0.9,2.4c0.3,1.4,0.3,2.5,0.2,2.5c-0.1,0-0.4-1.1-0.7-2.4
					C633.6,174.5,633.4,173.4,633.5,173.4z"/>
			</g>
		</g>
		<g>
			<g>
				<path class="st6" d="M629.2,164.4c0.1-0.1,0.9,0.8,1.6,2c0.7,1.2,1.1,2.3,0.9,2.3c-0.1,0.1-0.7-0.9-1.4-2.1
					C629.6,165.5,629,164.5,629.2,164.4z"/>
			</g>
		</g>
		<g>
			<g>
				<path class="st6" d="M622.2,157.3c0.1-0.1,1.1,0.4,2.1,1.4c1.1,0.9,1.7,1.8,1.6,1.9c-0.1,0.1-1-0.6-2-1.5
					C623,158.2,622.1,157.4,622.2,157.3z"/>
			</g>
		</g>
		<g>
			<g>
				<path class="st6" d="M613.2,153.2c0-0.1,1.2,0,2.5,0.4c1.3,0.4,2.3,1,2.2,1.2c-0.1,0.1-1.1-0.2-2.4-0.7
					C614.2,153.7,613.1,153.4,613.2,153.2z"/>
			</g>
		</g>
		<g>
			<g>
				<path class="st6" d="M603.2,153.4c0-0.1,1-0.5,2.4-0.7c1.4-0.2,2.5-0.1,2.5,0.1c0,0.1-1.1,0.3-2.5,0.4
					C604.4,153.4,603.3,153.5,603.2,153.4z"/>
			</g>
		</g>
		<g>
			<g>
				<path class="st6" d="M594.6,158.2c-0.1-0.1,0.6-1,1.7-1.9c1.1-0.9,2.2-1.3,2.3-1.1c0.1,0.1-0.9,0.7-1.9,1.6
					C595.6,157.6,594.7,158.3,594.6,158.2z"/>
			</g>
		</g>
		<g>
			<g>
				<path class="st6" d="M590.7,167.2c-0.1,0-0.2-1.2,0.1-2.5c0.3-1.4,0.9-2.4,1-2.3c0.1,0.1-0.2,1.1-0.5,2.4
					C591,166.1,590.8,167.2,590.7,167.2z"/>
			</g>
		</g>
		<g>
			<g>
				<path class="st6" d="M592.6,176.9c-0.1,0.1-0.8-0.9-1.2-2.2c-0.5-1.3-0.6-2.5-0.4-2.5c0.1,0,0.5,1,0.9,2.3
					C592.3,175.8,592.7,176.8,592.6,176.9z"/>
			</g>
		</g>
		<g>
			<g>
				<path class="st6" d="M599.2,184.3c-0.1,0.1-1.1-0.4-2.1-1.4c-1.1-0.9-1.7-1.9-1.6-2c0.1-0.1,0.9,0.7,1.9,1.6
					C598.4,183.5,599.2,184.2,599.2,184.3z"/>
			</g>
		</g>
		<g>
			<g>
				<path class="st6" d="M608.2,188.4c0,0.1-1.2,0-2.5-0.5c-1.3-0.4-2.3-1-2.2-1.2c0.1-0.1,1.1,0.2,2.4,0.7
					C607.2,187.9,608.3,188.3,608.2,188.4z"/>
			</g>
		</g>
		<g>
			<g>
				<path class="st6" d="M618.1,189.3c0,0.1-1.1,0.3-2.5,0.3c-1.4,0-2.5-0.3-2.5-0.4c0-0.1,1.1-0.1,2.5-0.1
					C617,189.2,618.1,189.2,618.1,189.3z"/>
			</g>
		</g>
		<g>
			<g>
				<path class="st6" d="M627.9,187.5c0,0.1-1,0.6-2.3,0.9c-1.3,0.3-2.5,0.4-2.5,0.3c0-0.1,1-0.5,2.4-0.8
					C626.8,187.6,627.9,187.4,627.9,187.5z"/>
			</g>
		</g>
		<g>
			<g>
				<path class="st6" d="M637,183.4c0.1,0.1-0.9,0.7-2.1,1.4c-1.2,0.6-2.3,1.1-2.3,0.9c-0.1-0.1,0.9-0.8,2.1-1.4
					C635.9,183.7,636.9,183.3,637,183.4z"/>
			</g>
		</g>
		<g>
			<g>
				<path class="st6" d="M645,177.4c0.1,0.1-0.7,0.9-1.8,1.8c-1.1,0.9-2,1.5-2.1,1.4c-0.1-0.1,0.7-0.9,1.8-1.8
					C644,177.9,644.9,177.3,645,177.4z"/>
			</g>
		</g>
		<g>
			<g>
				<path class="st6" d="M651.8,170.1c0.1,0.1-0.5,1-1.4,2.1c-0.9,1.1-1.7,1.8-1.8,1.7c-0.1-0.1,0.5-1,1.4-2.1
					C650.9,170.8,651.7,170,651.8,170.1z"/>
			</g>
		</g>
		<g>
			<g>
				<path class="st6" d="M657.3,161.8c0.1,0.1-0.3,1.1-1.1,2.3c-0.7,1.2-1.4,2.1-1.5,2c-0.1-0.1,0.4-1.1,1.1-2.3
					C656.5,162.6,657.2,161.7,657.3,161.8z"/>
			</g>
		</g>
		<g>
			<g>
				<path class="st6" d="M661.4,152.6c0.1,0-0.2,1.1-0.7,2.4c-0.5,1.3-1,2.3-1.2,2.2c-0.1-0.1,0.2-1.1,0.7-2.4
					C660.7,153.6,661.3,152.6,661.4,152.6z"/>
			</g>
		</g>
		<g>
			<g>
				<path class="st6" d="M664.2,143c0.1,0,0,1.1-0.4,2.5c-0.3,1.3-0.7,2.4-0.9,2.4c-0.1,0,0-1.2,0.4-2.5
					C663.7,144.1,664.1,143,664.2,143z"/>
			</g>
		</g>
		<g>
			<g>
				<path class="st6" d="M665.9,133.2c0.1,0,0.1,1.1-0.1,2.5c-0.2,1.4-0.5,2.5-0.6,2.4c-0.1,0-0.1-1.1,0.1-2.5
					C665.5,134.3,665.8,133.2,665.9,133.2z"/>
			</g>
		</g>
		<g>
			<g>
				<path class="st6" d="M666.9,123.2c0.1,0,0.2,1.1,0.1,2.5c-0.1,1.4-0.3,2.5-0.4,2.5c-0.1,0-0.2-1.1-0.1-2.5
					C666.5,124.3,666.7,123.2,666.9,123.2z"/>
			</g>
		</g>
		<g>
			<g>
				<path class="st6" d="M667.2,113.2c0.1,0,0.2,1.1,0.2,2.5c0,1.4-0.2,2.5-0.3,2.5c-0.1,0-0.2-1.1-0.2-2.5
					C666.9,114.4,667,113.2,667.2,113.2z"/>
			</g>
		</g>
		<g>
			<g>
				<path class="st6" d="M667.1,103.2c0.1,0,0.3,1.1,0.3,2.5c0,1.4-0.1,2.5-0.2,2.5s-0.3-1.1-0.3-2.5
					C666.9,104.4,667,103.3,667.1,103.2z"/>
			</g>
		</g>
		<g>
			<g>
				<path class="st6" d="M667,97.1c0.1,0,0.3,0.3,0.3,0.6c0,0.3-0.1,0.6-0.2,0.6c-0.1,0-0.3-0.3-0.3-0.6
					C666.7,97.4,666.8,97.1,667,97.1z"/>
			</g>
		</g>
	</g>
	<g>
		<g>
			<rect x="623.2" y="71" transform="matrix(0.9942 -0.108 0.108 0.9942 -6.31 71.5234)" class="st5" width="68.4" height="46.1"/>
			<path class="st6" d="M625.9,120.7L625.9,120.7l-5-45.9l0,0l68-7.4l0,0l5,45.8l0,0L625.9,120.7z M620.9,74.8l5,45.8l67.9-7.4
				l-5-45.8L620.9,74.8z"/>
		</g>
		<g>
			<g>
				<g>
					<path class="st6" d="M689.1,68c0,0-0.2,0.2-0.6,0.7c-0.4,0.5-1,1.1-1.7,1.9c-1.6,1.6-3.7,4-6.4,6.8c-5.5,5.7-13,13.6-21.3,22.3
						l-0.2,0.2l-0.2-0.1c-0.2-0.1-0.3-0.2-0.5-0.3C648,92.7,638.8,86.8,632,82.5c-3.3-2.1-6-3.9-7.9-5.2c-0.9-0.6-1.6-1.1-2.1-1.4
						c-0.5-0.3-0.7-0.5-0.7-0.5c0,0,0.3,0.1,0.8,0.4c0.6,0.3,1.3,0.8,2.2,1.3c2,1.2,4.7,2.9,8,5c6.8,4.3,16.1,10.2,26.4,16.7
						c0.2,0.1,0.4,0.2,0.5,0.3l-0.4,0c8.4-8.6,15.9-16.4,21.4-22.1c2.7-2.8,4.9-5,6.5-6.6c0.7-0.7,1.3-1.3,1.8-1.8
						C688.9,68.2,689.1,67.9,689.1,68z"/>
				</g>
			</g>
		</g>
		<g>
			<g>
				<path class="st6" d="M626.2,121.2c-0.1-0.1,4.3-6.9,9.9-15.3c5.6-8.3,10.3-15,10.4-14.9c0.1,0.1-4.3,6.9-9.9,15.3
					C631,114.6,626.3,121.3,626.2,121.2z"/>
			</g>
		</g>
		<g>
			<g>
				<path class="st6" d="M669,87.9c0.1-0.1,5.9,5.6,12.8,12.7c6.9,7.1,12.5,13,12.3,13.1s-5.8-5.6-12.8-12.7
					C674.4,93.9,668.9,88.1,669,87.9z"/>
			</g>
		</g>
	</g>
</g>
<g id="Envelope_2">
	<g>
		<g>
			<g>
				<path class="st6" d="M378.5,206.3c0.1,0,0.4,0.5,0.5,1.2c0.1,0.7,0.1,1.3,0,1.3c-0.1,0-0.4-0.5-0.5-1.2
					C378.3,206.9,378.3,206.4,378.5,206.3z"/>
			</g>
		</g>
		<g>
			<g>
				<path class="st6" d="M376.9,196.6c0.1,0,0.4,1.1,0.7,2.4c0.2,1.3,0.3,2.5,0.1,2.5c-0.1,0-0.4-1.1-0.7-2.4
					C376.8,197.7,376.7,196.6,376.9,196.6z"/>
			</g>
		</g>
		<g>
			<g>
				<path class="st6" d="M375.4,186.8c0.1,0,0.4,1.1,0.6,2.4c0.2,1.4,0.2,2.5,0.1,2.5s-0.4-1.1-0.6-2.4
					C375.3,187.9,375.3,186.8,375.4,186.8z"/>
			</g>
		</g>
		<g>
			<g>
				<path class="st6" d="M374.3,177c0.1,0,0.4,1.1,0.5,2.4c0.1,1.4,0.1,2.5,0,2.5c-0.1,0-0.4-1.1-0.5-2.4
					C374.2,178.1,374.2,177,374.3,177z"/>
			</g>
		</g>
		<g>
			<g>
				<path class="st6" d="M373.6,167.1c0.1,0,0.3,1.1,0.4,2.5c0.1,1.4,0,2.5-0.1,2.5c-0.1,0-0.3-1.1-0.4-2.5
					C373.4,168.2,373.5,167.1,373.6,167.1z"/>
			</g>
		</g>
		<g>
			<g>
				<path class="st6" d="M373.5,157.2c0.1,0,0.3,1.1,0.2,2.5c0,1.4-0.1,2.5-0.3,2.5c-0.1,0-0.3-1.1-0.2-2.5
					C373.3,158.3,373.4,157.2,373.5,157.2z"/>
			</g>
		</g>
		<g>
			<g>
				<path class="st6" d="M374.1,147.4c0.1,0,0.2,1.1,0.1,2.5c-0.1,1.4-0.3,2.4-0.5,2.4c-0.1,0-0.2-1.1-0.1-2.5
					C373.8,148.5,374,147.4,374.1,147.4z"/>
			</g>
		</g>
		<g>
			<g>
				<path class="st6" d="M375.6,137.6c0.1,0,0.1,1.1-0.2,2.5c-0.2,1.3-0.5,2.4-0.7,2.4c-0.1,0-0.1-1.1,0.2-2.5
					C375.2,138.6,375.5,137.6,375.6,137.6z"/>
			</g>
		</g>
		<g>
			<g>
				<path class="st6" d="M378.2,128c0.1,0-0.1,1.1-0.5,2.4c-0.4,1.3-0.8,2.3-1,2.3c-0.1,0,0.1-1.1,0.5-2.4
					C377.6,129,378,128,378.2,128z"/>
			</g>
		</g>
		<g>
			<g>
				<path class="st6" d="M381.9,118.9c0.1,0.1-0.2,1.1-0.8,2.4c-0.5,1.2-1.1,2.2-1.2,2.2c-0.1-0.1,0.2-1.1,0.8-2.4
					C381.2,119.8,381.7,118.8,381.9,118.9z"/>
			</g>
		</g>
		<g>
			<g>
				<path class="st6" d="M386.7,110.3c0.1,0.1-0.4,1.1-1.1,2.3c-0.7,1.2-1.4,2.1-1.5,2c-0.1-0.1,0.3-1.1,1.1-2.3
					C385.9,111.1,386.6,110.2,386.7,110.3z"/>
			</g>
		</g>
		<g>
			<g>
				<path class="st6" d="M392.6,102.4c0.1,0.1-0.5,1-1.3,2.1c-0.9,1.1-1.6,1.8-1.8,1.8c-0.1-0.1,0.5-1,1.3-2.1
					C391.7,103,392.5,102.3,392.6,102.4z"/>
			</g>
		</g>
		<g>
			<g>
				<path class="st6" d="M399.6,95.4c0.1,0.1-0.6,0.9-1.6,1.9c-1,0.9-1.9,1.6-2,1.5c-0.1-0.1,0.6-0.9,1.6-1.9
					C398.6,96,399.5,95.3,399.6,95.4z"/>
			</g>
		</g>
		<g>
			<g>
				<path class="st6" d="M407.7,89.7c0.1,0.1-0.8,0.8-1.9,1.5c-1.1,0.7-2.1,1.2-2.2,1.1c-0.1-0.1,0.8-0.8,1.9-1.5
					C406.6,90.1,407.6,89.6,407.7,89.7z"/>
			</g>
		</g>
		<g>
			<g>
				<path class="st6" d="M416.7,85.7c0,0.1-0.9,0.6-2.2,1.1c-1.3,0.5-2.3,0.8-2.4,0.7c-0.1-0.1,0.9-0.6,2.2-1.1
					C415.6,85.8,416.7,85.5,416.7,85.7z"/>
			</g>
		</g>
		<g>
			<g>
				<path class="st6" d="M423.9,83.9c0,0.1-0.5,0.4-1.2,0.5c-0.7,0.1-1.2,0.1-1.3,0c0-0.1,0.5-0.4,1.2-0.5
					C423.3,83.7,423.9,83.8,423.9,83.9z"/>
			</g>
		</g>
	</g>
	<g>
		<g>

				<rect x="371.3" y="45.9" transform="matrix(0.3607 -0.9327 0.9327 0.3607 175.8904 422.8384)" class="st5" width="50.1" height="74.3"/>
			<path class="st6" d="M422,119.9L422,119.9l-69.4-26.8l0,0l18.1-46.8l0,0l69.4,26.8l0,0L422,119.9z M352.7,93.1l69.3,26.8
				L440,73.2l-69.3-26.8L352.7,93.1z"/>
		</g>
		<g>
			<g>
				<path class="st6" d="M440.1,73.8c0,0-0.3,0.1-0.9,0.4c-0.7,0.2-1.5,0.6-2.6,0.9c-2.3,0.8-5.6,2-9.6,3.4
					c-8.2,2.8-19.3,6.6-31.7,10.9l-0.3,0.1l-0.1-0.2c-0.1-0.2-0.2-0.4-0.3-0.6c-6.6-11.4-12.6-21.8-17-29.4
					c-2.1-3.7-3.9-6.8-5.1-8.9c-0.6-1-1-1.8-1.4-2.4c-0.3-0.6-0.5-0.9-0.4-0.9c0,0,0.2,0.3,0.5,0.8c0.4,0.6,0.9,1.4,1.5,2.4
					c1.3,2.1,3.1,5.2,5.3,8.8c4.4,7.5,10.5,17.9,17.2,29.3c0.1,0.2,0.2,0.4,0.3,0.6l-0.4-0.1c12.4-4.2,23.6-7.9,31.7-10.7
					c4-1.3,7.3-2.4,9.6-3.2c1.1-0.3,2-0.6,2.6-0.8C439.8,73.9,440.1,73.8,440.1,73.8z"/>
			</g>
		</g>
		<g>
			<path class="st6" d="M352.7,93.7c-0.1-0.2,7.6-4.6,17.2-9.8c9.6-5.3,17.4-9.4,17.5-9.2c0.1,0.2-7.6,4.6-17.2,9.8
				C360.6,89.8,352.8,93.9,352.7,93.7z"/>
		</g>
		<g>
			<path class="st6" d="M410.6,83c0.2-0.1,2.9,8.3,6,18.7c3.1,10.4,5.5,18.8,5.4,18.9c-0.2,0.1-2.9-8.3-6-18.7
				C412.9,91.5,410.4,83.1,410.6,83z"/>
		</g>
	</g>
</g>
<g id="Envelope_1">
	<g>
		<g>
			<g>
				<path class="st6" d="M349.3,217.3c0.1,0,0.2,0.6,0.2,1.3c-0.1,0.7-0.2,1.2-0.4,1.2c-0.1,0-0.2-0.6-0.2-1.3
					C349,217.8,349.2,217.3,349.3,217.3z"/>
			</g>
		</g>
		<g>
			<g>
				<path class="st6" d="M349.6,207.1c0.1,0,0.3,1.1,0.3,2.5c0,1.4-0.1,2.5-0.3,2.5c-0.1,0-0.3-1.1-0.3-2.5
					C349.3,208.3,349.5,207.1,349.6,207.1z"/>
			</g>
		</g>
		<g>
			<g>
				<path class="st6" d="M348.9,197c0.1,0,0.4,1.1,0.5,2.5c0.1,1.4,0.1,2.5,0,2.6c-0.1,0-0.4-1.1-0.5-2.5
					C348.8,198.1,348.8,197,348.9,197z"/>
			</g>
		</g>
		<g>
			<g>
				<path class="st6" d="M347.2,186.9c0.1,0,0.5,1.1,0.7,2.4c0.3,1.4,0.4,2.5,0.2,2.5c-0.1,0-0.5-1.1-0.7-2.4
					C347.2,188.1,347.1,187,347.2,186.9z"/>
			</g>
		</g>
		<g>
			<g>
				<path class="st6" d="M344.5,177.2c0.1,0,0.6,1,1,2.4c0.4,1.3,0.7,2.5,0.5,2.5c-0.1,0-0.6-1-1-2.4
					C344.5,178.3,344.3,177.2,344.5,177.2z"/>
			</g>
		</g>
		<g>
			<g>
				<path class="st6" d="M340.6,167.8c0.1-0.1,0.7,0.9,1.3,2.2c0.6,1.3,0.9,2.4,0.8,2.4c-0.1,0.1-0.7-0.9-1.3-2.2
					C340.8,168.9,340.4,167.8,340.6,167.8z"/>
			</g>
		</g>
		<g>
			<g>
				<path class="st6" d="M335.5,158.9c0.1-0.1,0.8,0.8,1.6,2c0.7,1.2,1.2,2.3,1.1,2.3c-0.1,0.1-0.8-0.8-1.5-2.1
					C335.9,160,335.4,159,335.5,158.9z"/>
			</g>
		</g>
		<g>
			<g>
				<path class="st6" d="M329.3,150.9c0.1-0.1,0.9,0.7,1.8,1.8c0.9,1.1,1.5,2,1.4,2.1s-0.9-0.7-1.8-1.8
					C329.8,151.9,329.2,151,329.3,150.9z"/>
			</g>
		</g>
		<g>
			<g>
				<path class="st6" d="M322,143.8c0.1-0.1,1,0.6,2.1,1.5c1,0.9,1.8,1.8,1.7,1.9c-0.1,0.1-1-0.6-2.1-1.5
					C322.7,144.8,321.9,143.9,322,143.8z"/>
			</g>
		</g>
		<g>
			<g>
				<path class="st6" d="M313.7,137.9c0.1-0.1,1.1,0.4,2.3,1.2c1.2,0.8,2.1,1.5,2,1.6c-0.1,0.1-1.1-0.4-2.3-1.2
					C314.5,138.7,313.7,138,313.7,137.9z"/>
			</g>
		</g>
		<g>
			<g>
				<path class="st6" d="M304.7,133.3c0.1-0.1,1.1,0.2,2.4,0.8c1.3,0.6,2.3,1.2,2.2,1.3c-0.1,0.1-1.1-0.2-2.4-0.8
					C305.6,134,304.6,133.4,304.7,133.3z"/>
			</g>
		</g>
		<g>
			<g>
				<path class="st6" d="M295,130.2c0-0.1,1.2,0,2.5,0.4c1.4,0.4,2.4,0.8,2.4,0.9c0,0.1-1.2,0-2.5-0.4
					C296,130.7,294.9,130.3,295,130.2z"/>
			</g>
		</g>
		<g>
			<g>
				<path class="st6" d="M284.9,128.9c0-0.1,1.2-0.2,2.6-0.1c1.4,0.1,2.5,0.4,2.5,0.5c0,0.1-1.2,0.1-2.6,0
					C286,129.2,284.9,129,284.9,128.9z"/>
			</g>
		</g>
		<g>
			<g>
				<path class="st6" d="M274.8,129.6c0-0.1,1.1-0.4,2.5-0.6c1.4-0.2,2.5-0.2,2.6,0c0,0.1-1.1,0.4-2.5,0.6
					C275.9,129.7,274.8,129.7,274.8,129.6z"/>
			</g>
		</g>
		<g>
			<g>
				<path class="st6" d="M264.9,132.2c-0.1-0.1,1-0.6,2.3-1c1.3-0.4,2.5-0.7,2.5-0.5c0,0.1-1,0.6-2.3,1
					C266.1,132.1,265,132.4,264.9,132.2z"/>
			</g>
		</g>
		<g>
			<g>
				<path class="st6" d="M255.8,136.6c-0.1-0.1,0.9-0.8,2.1-1.4c1.2-0.7,2.3-1.1,2.4-1c0.1,0.1-0.9,0.8-2.1,1.4
					C256.9,136.3,255.8,136.7,255.8,136.6z"/>
			</g>
		</g>
		<g>
			<g>
				<path class="st6" d="M247.6,142.7c-0.1-0.1,0.7-0.9,1.8-1.8c1.1-0.9,2-1.5,2.1-1.4c0.1,0.1-0.7,0.9-1.8,1.8
					C248.7,142.2,247.7,142.8,247.6,142.7z"/>
			</g>
		</g>
		<g>
			<g>
				<path class="st6" d="M241,150.4c-0.1-0.1,0.4-1.1,1.3-2.2c0.9-1.1,1.7-1.9,1.8-1.8c0.1,0.1-0.6,1-1.4,2.1
					C241.8,149.6,241.1,150.5,241,150.4z"/>
			</g>
		</g>
		<g>
			<g>
				<path class="st6" d="M237.3,157c-0.1-0.1,0-0.6,0.3-1.2c0.3-0.6,0.7-1.1,0.8-1c0.1,0.1,0,0.6-0.3,1.2
					C237.8,156.6,237.4,157.1,237.3,157z"/>
			</g>
		</g>
	</g>
	<g>
		<g>
			<g>
				<path class="st6" d="M173.8,216c0-0.1,0.5-0.3,1.2-0.4c0.7-0.1,1.2,0,1.3,0.1c0,0.1-0.5,0.3-1.2,0.4
					C174.3,216.2,173.8,216.2,173.8,216z"/>
			</g>
		</g>
		<g>
			<g>
				<path class="st6" d="M163.8,214.9c0-0.1,1.1,0.1,2.5,0.4c1.3,0.3,2.4,0.5,2.4,0.7c0,0.1-1.2,0.1-2.5-0.1
					C164.8,215.5,163.8,215,163.8,214.9z"/>
			</g>
		</g>
		<g>
			<g>
				<path class="st6" d="M154.9,210.5c0.1-0.1,1.1,0.4,2.2,1.1c1.2,0.7,2.1,1.3,2.1,1.4c-0.1,0.1-1.1-0.3-2.3-1
					C155.7,211.3,154.8,210.6,154.9,210.5z"/>
			</g>
		</g>
		<g>
			<g>
				<path class="st6" d="M147.5,203.8c0.1-0.1,0.9,0.7,1.9,1.6c1,1,1.7,1.8,1.6,1.9c-0.1,0.1-1-0.6-2-1.5
					C148,204.8,147.3,203.9,147.5,203.8z"/>
			</g>
		</g>
		<g>
			<g>
				<path class="st6" d="M141.6,195.7c0.1-0.1,0.8,0.8,1.6,2c0.8,1.2,1.3,2.2,1.2,2.2c-0.1,0.1-0.8-0.8-1.6-2
					C142,196.8,141.4,195.8,141.6,195.7z"/>
			</g>
		</g>
		<g>
			<g>
				<path class="st6" d="M137.3,186.7c0.1,0,0.7,0.9,1.2,2.2c0.5,1.3,0.9,2.3,0.7,2.4c-0.1,0.1-0.7-0.9-1.2-2.2
					C137.4,187.8,137.1,186.7,137.3,186.7z"/>
			</g>
		</g>
		<g>
			<g>
				<path class="st6" d="M134.4,177.1c0.1,0,0.5,1,0.9,2.4c0.4,1.3,0.5,2.4,0.4,2.5c-0.1,0-0.5-1-0.9-2.4
					C134.4,178.2,134.2,177.1,134.4,177.1z"/>
			</g>
		</g>
		<g>
			<g>
				<path class="st6" d="M132.6,167.2c0.1,0,0.4,1.1,0.6,2.4c0.2,1.4,0.3,2.5,0.1,2.5c-0.1,0-0.4-1.1-0.6-2.4
					C132.5,168.3,132.5,167.2,132.6,167.2z"/>
			</g>
		</g>
		<g>
			<g>
				<path class="st6" d="M131.7,157.2c0.1,0,0.4,1.1,0.5,2.5c0.1,1.4,0.1,2.5-0.1,2.5c-0.1,0-0.3-1.1-0.5-2.5
					C131.5,158.4,131.5,157.2,131.7,157.2z"/>
			</g>
		</g>
		<g>
			<g>
				<path class="st6" d="M131.3,149.7c0.1,0,0.3,0.5,0.3,1.2c0,0.7-0.1,1.3-0.2,1.3c-0.1,0-0.3-0.5-0.3-1.2
					C131,150.3,131.1,149.7,131.3,149.7z"/>
			</g>
		</g>
	</g>
	<g>
		<g>

				<rect x="87" y="91" transform="matrix(0.9989 -4.708285e-02 4.708285e-02 0.9989 -5.4632 6.1896)" class="st5" width="83.2" height="56.1"/>
			<path class="st6" d="M88.4,149.1L88.4,149.1L85.7,93l0,0l83.2-3.9l0,0l2.6,56.1l0,0L88.4,149.1z M85.8,93l2.6,56l83.1-3.9
				l-2.6-56L85.8,93z"/>
		</g>
		<g>
			<g>
				<g>
					<path class="st6" d="M169.2,89.7c0,0-0.2,0.3-0.7,0.8c-0.6,0.5-1.3,1.2-2.2,2.1c-2,1.9-4.8,4.5-8.3,7.8
						c-7.1,6.6-16.8,15.5-27.5,25.5l-0.2,0.2l-0.3-0.2c-0.2-0.1-0.4-0.3-0.6-0.4c-12-8.7-22.8-16.6-30.7-22.4
						c-3.9-2.9-7-5.2-9.3-6.9c-1-0.8-1.9-1.4-2.5-1.9c-0.6-0.4-0.9-0.7-0.8-0.7c0,0,0.3,0.2,0.9,0.6c0.6,0.4,1.5,1,2.6,1.8
						c2.3,1.6,5.5,3.9,9.4,6.7c8,5.7,18.8,13.6,30.9,22.2c0.2,0.2,0.4,0.3,0.6,0.4l-0.5,0c10.8-9.9,20.6-18.8,27.7-25.3
						c3.5-3.2,6.4-5.7,8.4-7.6c1-0.8,1.7-1.5,2.3-2C168.9,90,169.2,89.7,169.2,89.7z"/>
				</g>
			</g>
		</g>
		<g>
			<g>
				<path class="st6" d="M88.7,149.7c-0.2-0.1,5.7-8.1,13.2-17.8c7.4-9.7,13.6-17.5,13.8-17.4c0.2,0.1-5.7,8.1-13.2,17.8
					C95,142.1,88.9,149.8,88.7,149.7z"/>
			</g>
		</g>
		<g>
			<g>
				<path class="st6" d="M143.2,112.5c0.2-0.1,6.7,7.2,14.6,16.4c7.9,9.2,14.2,16.7,14,16.9c-0.2,0.1-6.7-7.2-14.6-16.4
					C149.3,120.2,143.1,112.7,143.2,112.5z"/>
			</g>
		</g>
	</g>
</g>
<g id="Character">
	<g>
		<g>
			<path class="st11" d="M234.6,288.2c0.2-1.1-0.6-2.2-1.7-2.5l-2.2,0.2l-8-2.8c-1.5-0.4-3,0.7-3,2.2c0,2.3-1,8.5-2.8,6.6
				c0,0-0.1-0.1-0.1-0.1c-2.6-2.9-5.7-4.3-6.8-4.2c-1.1,0.2-1.4,1.6-0.6,2.4c0.1,0.1,0.3,0.3,0.5,0.3c0.1,0,0.2,0.1,0.3,0.1
				c1,0.6,2.2,1.8,3,2.7c0.8,0.9,1.5,1.9,2,3c0.5,1.2,1,2.3,1.3,3.2l0.1,7.3l-3.2,34.3c0,0-21.1-22.2-20.6-22.4l1.2,34.5l12.8,10.6
				c5.4,4.5,13.2,4.9,19.1,1.1c4.6-3,7.4-8.2,7.3-13.7l-0.7-44.3l0.5-5.8L234.6,288.2z"/>
		</g>
		<g>
			<path class="st11" d="M116.1,336.9L93,389.7l-18.3,38.1l-13.6,4.6c0,0-10.7,3.1-10.7,5.3c0,2.2,2.8,1.7,2.8,1.7
				c0.5,3.3,5.1,1.4,8.3-0.1c3.2-1.5,10.4-1.8,10.4-1.8c-2,1.5-1.3,3.9-0.2,4.7c1.1,0.8,3.1-0.2,4.5-1.6c1.3-1.4,4.8-2.1,8.6-3.5
				c3.8-1.4,4.5-6.5,4.5-6.5l46.2-77.9L116.1,336.9z"/>
		</g>
		<g>
			<g>
				<path class="st5" d="M192.8,356.1l5.8,7.7l12.6-27.9c0,0-12.2-14.9-16.7-21.2c-4.4-6.2-7.8-7.3-7.8-7.3s-8.1-2.4-12.2-2.3
					l-20.1,1.2l-20.4,8.9c-5,2.2-9.3,5.8-12.3,10.3l-19.2,30.8l27.2,11.6l9.1,52.1c1.7,7.8,3.3,15.2,10.5,18.8l50.4-48.4l-5.9-9.3
					L192.8,356.1z"/>
			</g>
			<g>
				<g>
					<path class="st6" d="M144.6,346.5c0.1,0.1-3,4.9-6.9,10.8c-3.9,5.9-7.2,10.6-7.4,10.5c-0.1-0.1,3-4.9,6.9-10.8
						C141.2,351.1,144.5,346.4,144.6,346.5z"/>
				</g>
			</g>
			<g>
				<g>
					<path class="st6" d="M186.8,395.9c0,0-0.5,0.3-1.3,0.8c-0.9,0.5-2.2,1.2-3.7,2c-3.2,1.6-7.6,3.9-12.6,6.2
						c-4.9,2.3-9.5,4.3-12.8,5.7c-1.6,0.7-3,1.3-3.9,1.6c-0.9,0.4-1.5,0.6-1.5,0.5c0,0,0.5-0.3,1.4-0.7c1-0.5,2.3-1.1,3.9-1.8
						c3.3-1.5,7.8-3.5,12.7-5.9c4.9-2.3,9.4-4.5,12.6-6.1c1.5-0.7,2.8-1.4,3.8-1.8C186.3,396.1,186.8,395.9,186.8,395.9z"/>
				</g>
			</g>
			<g>
				<g>
					<path class="st6" d="M143,335.2c-0.1,0-0.7-0.8-1.8-2.2c-1.1-1.4-2.5-3.3-4.5-5.1c-2-1.8-4.1-2.9-5.8-3.4
						c-1.7-0.5-2.8-0.5-2.7-0.6c0,0,0.3-0.1,0.8-0.1c0.5,0,1.2,0.1,2.1,0.3c1.7,0.4,4,1.5,6,3.4c2,1.8,3.4,3.8,4.4,5.3
						C142.5,334.3,143,335.2,143,335.2z"/>
				</g>
			</g>
			<g>
				<g>
					<path class="st6" d="M184.4,360.6c0,0,0,0.2,0,0.6c0,0.4,0,0.9-0.1,1.6c-0.1,1.4-0.3,3.4-0.8,5.8c-1,4.8-3.5,11.4-8.2,17.3
						c-4.7,5.9-10.6,9.7-15.1,11.7c-2.2,1-4.1,1.7-5.5,2c-0.7,0.2-1.2,0.3-1.5,0.4c-0.4,0.1-0.5,0.1-0.5,0.1c0,0,0.7-0.3,2-0.7
						c1.3-0.4,3.2-1.1,5.4-2.2c4.4-2.1,10.2-5.9,14.8-11.7c4.7-5.8,7.2-12.3,8.2-17c0.6-2.4,0.8-4.3,1-5.7
						C184.3,361.4,184.4,360.6,184.4,360.6z"/>
				</g>
			</g>
			<g class="st9">
				<path d="M133.3,388c-0.1-0.5,6.5-34.4,6.5-34.4l-9.9,14.8"/>
			</g>
			<g>
				<g>
					<path class="st6" d="M191.5,323.6c0,0,0,0.2,0.1,0.6c0,0.4,0.1,1,0.1,1.7c0.1,1.5,0.2,3.6,0.3,6.2c0.3,5.3,0.6,12.4,1,20.3
						c0.4,7.9,0.7,15.1,0.8,20.3c0.1,2.6,0.1,4.7,0.1,6.2c0,0.7,0,1.2,0,1.7c0,0.4,0,0.6,0,0.6c0,0,0-0.2-0.1-0.6
						c0-0.4-0.1-1-0.1-1.7c-0.1-1.5-0.2-3.6-0.3-6.2c-0.3-5.3-0.6-12.4-1-20.3c-0.4-7.9-0.7-15.1-0.8-20.3c-0.1-2.6-0.1-4.7-0.1-6.2
						c0-0.7,0-1.2,0-1.7C191.4,323.8,191.4,323.6,191.5,323.6z"/>
				</g>
			</g>
			<g class="st12">
				<g>
					<path d="M151.3,412.8c-1.6-1.3-1.2-4.1,0.2-5.6s3.5-2.2,5.5-2.9c9.6-3.1,19.2-7.5,25.5-15.3c0.9-1.1,1.7-2.2,2.8-3
						c1.1-0.8,2.7-1.2,3.9-0.5c1.9,1,2,3.8,1.2,5.8c-1,2.5-2.9,4.6-5.3,5.8"/>
				</g>
			</g>
			<g class="st12">
				<polygon points="191.7,329.6 197.3,362 192.9,356.3 				"/>
			</g>
		</g>
		<g>
			<g>
				<g>
					<g>
						<g>
							<g>
								<path class="st5" d="M244.9,414.8l-9.5,32.4l40.3,12c0.9-3.9-17.6-17.8-17.6-17.8l6.9-20.5L244.9,414.8z"/>
							</g>
						</g>
					</g>
					<g class="st13">
						<g>
							<g>
								<g>
									<path class="st14" d="M246.1,435.9c-0.8,0-1.6,0.7-1.7,1.5c-0.1,0.8,0.7,1.7,1.5,1.7c0.8,0,1.8-0.8,1.8-1.6
										c0-0.8-0.9-1.8-1.8-1.6"/>
								</g>
							</g>
						</g>
					</g>
					<g class="st13">
						<g>
							<g>
								<path class="st14" d="M235.4,447.2l1.1-3.2l38.2,12.7c0,0,1.6,1.3,1,2.5L235.4,447.2z"/>
							</g>
						</g>
					</g>
					<g>
						<g>
							<g>
								<g>
									<path class="st6" d="M258.8,441.3c-0.1,0.2-1.1,0-2.2,0.3c-1.2,0.3-1.9,1-2.1,0.9c-0.2-0.1,0.5-1.2,1.9-1.6
										C257.7,440.6,258.9,441.2,258.8,441.3z"/>
								</g>
							</g>
						</g>
					</g>
					<g>
						<g>
							<g>
								<g>
									<path class="st6" d="M262.5,444.3c0,0.2-1,0.3-1.9,0.9c-0.9,0.6-1.4,1.5-1.6,1.4c-0.2,0,0-1.2,1.2-2
										C261.3,443.9,262.5,444.1,262.5,444.3z"/>
								</g>
							</g>
						</g>
					</g>
					<g>
						<g>
							<g>
								<g>
									<path class="st6" d="M263.4,450.1c-0.2,0-0.2-1.1,0.7-2c0.8-0.9,1.9-1.1,1.9-0.9c0.1,0.2-0.7,0.6-1.4,1.4
										C263.9,449.3,263.6,450.1,263.4,450.1z"/>
								</g>
							</g>
						</g>
					</g>
					<g>
						<g>
							<g>
								<g>
									<path class="st6" d="M259.8,436.5c-0.1,0.2-1-0.4-2.1-0.6c-1.1-0.3-2.1-0.2-2.2-0.4c-0.1-0.2,1-0.7,2.3-0.3
										C259.2,435.5,260,436.4,259.8,436.5z"/>
								</g>
							</g>
						</g>
					</g>
					<g>
						<g>
							<g>
								<g>
									<path class="st6" d="M260.3,431.4c0,0.1-0.8,0-2-0.6c-0.6-0.3-1.3-0.7-1.9-1.3c-0.3-0.3-0.7-0.6-1-1
										c-0.2-0.2-0.3-0.4-0.5-0.7c-0.2-0.3-0.1-0.8,0.2-1.1c0.3-0.2,0.7-0.3,1-0.2c0.3,0.1,0.5,0.2,0.7,0.3
										c0.4,0.2,0.8,0.5,1.1,0.8c0.7,0.6,1.2,1.2,1.5,1.8c0.7,1.1,0.8,2,0.7,2c-0.1,0-0.4-0.7-1.1-1.7c-0.4-0.5-0.9-1-1.5-1.5
										c-0.3-0.3-0.7-0.5-1.1-0.7c-0.4-0.2-0.8-0.3-0.9-0.2c-0.1,0.1-0.1,0.1,0,0.2c0.1,0.1,0.2,0.3,0.3,0.5
										c0.3,0.3,0.6,0.6,0.9,0.9c0.6,0.6,1.2,1,1.7,1.3C259.6,431,260.3,431.3,260.3,431.4z"/>
								</g>
							</g>
						</g>
					</g>
					<g>
						<g>
							<g>
								<g>
									<path class="st6" d="M259.9,431.6c-0.1,0-0.3-0.8,0-2.1c0.2-0.6,0.4-1.4,0.9-2.1c0.2-0.4,0.5-0.7,0.9-1.1
										c0.4-0.3,0.8-0.8,1.6-0.6c0.4,0.1,0.6,0.5,0.7,0.8c0.1,0.3,0,0.6,0,0.8c-0.1,0.5-0.2,1-0.4,1.4c-0.4,0.8-0.9,1.4-1.5,1.8
										c-1.1,0.8-2,0.8-2,0.7c0-0.1,0.8-0.3,1.7-1.1c0.4-0.4,0.9-1,1.2-1.7c0.2-0.4,0.3-0.8,0.3-1.2c0.1-0.4,0-0.8-0.2-0.8
										c-0.2-0.1-0.6,0.2-0.9,0.5c-0.3,0.3-0.6,0.6-0.8,0.9c-0.5,0.7-0.8,1.3-1,1.9C260.1,430.8,260,431.6,259.9,431.6z"/>
								</g>
							</g>
						</g>
					</g>
				</g>
			</g>
			<g>
				<path class="st6" d="M286.2,366.5c1,7.5-1.5,15.9-4.2,23L264.3,431l-19.5-3c0,0-4.1,4.5-9.3,6.3c-2.3,0.8-10,2.3-16.3-2.3l0,0
					c0,0-8.9,12.4-23,16.2s-35.3,5.8-45.6-10.6l49-47.2c1,0.2,42.2-27.6,64.5-33.9C264.1,356.5,284.3,352.8,286.2,366.5z"/>
			</g>
			<g>
				<g>
					<path class="st7" d="M243.3,427.8c0,0,0.1-0.1,0.3-0.2c0.2-0.1,0.5-0.2,0.8-0.4c0.7-0.4,1.7-0.9,3.1-1.6
						c1.3-0.7,2.9-1.7,4.7-2.9c1.7-1.2,3.6-2.8,5.3-4.9c1.7-2.1,2.9-4.8,3.4-7.9c0.5-3.1,0.3-6.5-0.4-10c-0.8-3.4-2.4-7-5.4-9.4
						c-3-2.4-7-3.6-11-3.9c-2-0.2-4.1-0.1-6.1,0.1c-2,0.2-3.9,0.6-5.8,1c-3.8,0.9-7.3,2.2-10.5,3.6c-6.5,2.9-12.2,5.9-17.2,8.1
						c-5,2.2-9.2,3.5-12.1,4.1c-0.7,0.2-1.4,0.3-2,0.4c-0.6,0.1-1.1,0.2-1.5,0.2c-0.4,0-0.7,0.1-0.9,0.1c-0.2,0-0.3,0-0.3,0
						c0,0,0.1,0,0.3-0.1c0.2,0,0.5-0.1,0.9-0.1c0.4-0.1,0.9-0.1,1.4-0.2c0.6-0.1,1.2-0.2,2-0.4c2.9-0.7,7.1-2,12-4.2
						c4.9-2.2,10.6-5.3,17.1-8.2c3.3-1.4,6.8-2.8,10.6-3.7c1.9-0.5,3.9-0.8,5.9-1c2-0.2,4.1-0.2,6.1-0.1c4.1,0.3,8.2,1.6,11.3,4
						c1.5,1.2,2.8,2.8,3.7,4.5c0.9,1.7,1.5,3.5,1.9,5.2c0.8,3.5,0.9,7,0.4,10.2c-0.5,3.2-1.8,6-3.6,8.1c-1.7,2.1-3.6,3.7-5.4,4.9
						c-1.8,1.2-3.4,2.1-4.7,2.8c-1.3,0.7-2.4,1.2-3.1,1.6c-0.3,0.2-0.6,0.3-0.8,0.4C243.4,427.8,243.3,427.8,243.3,427.8z"/>
				</g>
			</g>
			<g>
				<g>
					<path class="st7" d="M255.5,373.4c0.1,0.1-1.7,3.1-4.1,6.7c-2.4,3.6-4.4,6.5-4.5,6.4c-0.1-0.1,1.7-3.1,4.1-6.7
						C253.4,376.1,255.4,373.3,255.5,373.4z"/>
				</g>
			</g>
			<g>
				<g>
					<path class="st7" d="M241.5,424.5c0,0.1-1.4,0.4-3.6,0.9c-2.2,0.5-5.2,1.4-8.5,2.5c-3.3,1.1-6.1,2.4-8.2,3.3
						c-2.1,0.9-3.3,1.6-3.3,1.5c0,0,0.3-0.2,0.8-0.5c0.5-0.3,1.4-0.8,2.4-1.3c2-1,4.9-2.3,8.2-3.5c3.3-1.1,6.3-1.9,8.5-2.4
						c1.1-0.2,2-0.4,2.6-0.5C241.1,424.5,241.4,424.5,241.5,424.5z"/>
				</g>
			</g>
			<g>
				<g>
					<path class="st7" d="M263.9,428.3c-0.1,0-0.3-0.9-1.2-2.1c-0.8-1.2-2.3-2.7-4.5-3.4c-2.1-0.7-4.2-0.4-5.6,0.1
						c-1.4,0.5-2.1,1.1-2.2,1c0,0,0.1-0.2,0.5-0.5c0.3-0.3,0.9-0.6,1.6-0.9c1.4-0.6,3.6-1,5.9-0.3c2.3,0.7,3.8,2.4,4.6,3.7
						c0.4,0.7,0.6,1.2,0.7,1.7C263.9,428,264,428.3,263.9,428.3z"/>
				</g>
			</g>
			<g>
				<g>
					<path class="st7" d="M179.4,412.8c0,0,0.1,0.3,0.3,0.9c0.1,0.6,0.2,1.5,0.2,2.6c0,2.2-0.5,5.4-2.3,8.4c-1.8,3-4.6,4.8-6.7,5.4
						c-1.1,0.4-2,0.5-2.6,0.5c-0.6,0-1,0-1,0c0-0.1,1.4,0,3.4-0.8c2-0.7,4.6-2.5,6.4-5.4c1.8-2.8,2.3-5.9,2.4-8.1
						C179.6,414.2,179.3,412.8,179.4,412.8z"/>
				</g>
			</g>
			<g>
				<g>
					<g>
						<path class="st7" d="M157.3,435.2c-0.1,0.1-0.6-0.4-1.1-1c-0.5-0.7-0.7-1.3-0.6-1.4c0.1-0.1,0.6,0.4,1,1.1
							C157.1,434.5,157.4,435.1,157.3,435.2z"/>
					</g>
				</g>
				<g>
					<g>
						<path class="st7" d="M161.4,439.6c-0.1,0.1-0.7-0.3-1.3-0.9c-0.6-0.6-1-1.1-0.9-1.2c0.1-0.1,0.7,0.3,1.3,0.9
							C161.1,438.9,161.5,439.5,161.4,439.6z"/>
					</g>
				</g>
				<g>
					<g>
						<path class="st7" d="M166.3,443.1c-0.1,0.1-0.7-0.1-1.4-0.6c-0.7-0.5-1.2-0.9-1.1-1c0.1-0.1,0.7,0.2,1.4,0.6
							C165.8,442.5,166.3,443,166.3,443.1z"/>
					</g>
				</g>
				<g>
					<g>
						<path class="st7" d="M171.8,445.4c0,0.1-0.7,0-1.5-0.3c-0.8-0.3-1.4-0.6-1.3-0.8c0.1-0.1,0.7,0,1.5,0.3
							C171.2,445,171.8,445.3,171.8,445.4z"/>
					</g>
				</g>
				<g>
					<g>
						<path class="st7" d="M177.7,446.4c0,0.1-0.7,0.2-1.5,0.1c-0.8-0.1-1.5-0.3-1.5-0.4c0-0.1,0.7-0.2,1.5-0.1
							C177,446,177.7,446.2,177.7,446.4z"/>
					</g>
				</g>
				<g>
					<g>
						<path class="st7" d="M183.7,446c0,0.1-0.6,0.3-1.5,0.4c-0.4,0-0.9,0-1.1,0l0,0c-0.2,0-0.4-0.1-0.4-0.1c0-0.1,0.1-0.1,0.4-0.2
							l0,0c0.3-0.1,0.7-0.1,1.1-0.2C183,445.8,183.7,445.9,183.7,446z"/>
					</g>
				</g>
				<g>
					<g>
						<path class="st7" d="M189.6,445c0,0.1-0.6,0.4-1.4,0.6c-0.8,0.2-1.5,0.2-1.5,0.1c0-0.1,0.6-0.4,1.4-0.6
							C188.8,444.9,189.5,444.8,189.6,445z"/>
					</g>
				</g>
				<g>
					<g>
						<path class="st7" d="M195.3,443.2c0,0.1-0.5,0.5-1.3,0.7c-0.8,0.3-1.5,0.4-1.5,0.2c0-0.1,0.6-0.5,1.3-0.7
							C194.6,443.2,195.2,443.1,195.3,443.2z"/>
					</g>
				</g>
				<g>
					<g>
						<path class="st7" d="M200.8,440.9c0.1,0.1-0.5,0.5-1.3,0.9c-0.8,0.3-1.4,0.5-1.5,0.4c-0.1-0.1,0.5-0.5,1.3-0.9
							C200.1,440.9,200.7,440.8,200.8,440.9z"/>
					</g>
				</g>
				<g>
					<g>
						<path class="st7" d="M206.1,438c0.1,0.1-0.4,0.6-1.2,1c-0.7,0.4-1.4,0.7-1.4,0.5c-0.1-0.1,0.5-0.6,1.2-1
							C205.4,438.1,206,437.9,206.1,438z"/>
					</g>
				</g>
				<g>
					<g>
						<path class="st7" d="M211,434.6c0.1,0.1-0.4,0.6-1.1,1.1c-0.7,0.5-1.3,0.8-1.4,0.7c-0.1-0.1,0.4-0.6,1.1-1.1
							C210.3,434.8,210.9,434.5,211,434.6z"/>
					</g>
				</g>
				<g>
					<g>
						<path class="st7" d="M215.6,430.8c0.1,0.1-0.3,0.6-1,1.2c-0.6,0.5-1.2,0.9-1.3,0.8c-0.1-0.1,0.3-0.6,1-1.2
							C215,431.1,215.5,430.7,215.6,430.8z"/>
					</g>
				</g>
				<g>
					<g>
						<path class="st7" d="M220,426.7c0.1,0.1-0.3,0.7-0.9,1.2c-0.6,0.6-1.2,0.9-1.3,0.8c-0.1-0.1,0.3-0.6,0.9-1.2
							C219.3,427,219.9,426.6,220,426.7z"/>
					</g>
				</g>
				<g>
					<g>
						<path class="st7" d="M224.7,423c0.1,0.1-0.4,0.6-1.1,1.1c-0.7,0.5-1.3,0.8-1.4,0.7c-0.1-0.1,0.4-0.6,1.1-1.1
							C224.1,423.2,224.7,422.9,224.7,423z"/>
					</g>
				</g>
				<g>
					<g>
						<path class="st7" d="M230,420.1c0.1,0.1-0.5,0.5-1.2,0.9c-0.7,0.4-1.4,0.6-1.5,0.4c-0.1-0.1,0.5-0.5,1.2-0.9
							C229.3,420.2,229.9,420,230,420.1z"/>
					</g>
				</g>
				<g>
					<g>
						<path class="st7" d="M235.7,418.3c0,0.1-0.6,0.4-1.4,0.6c-0.8,0.2-1.5,0.2-1.5,0.1c0-0.1,0.6-0.4,1.4-0.6
							C235,418.2,235.7,418.2,235.7,418.3z"/>
					</g>
				</g>
				<g>
					<g>
						<path class="st7" d="M241.7,418c0,0.1-0.7,0.2-1.5,0.2c-0.8,0-1.5-0.1-1.5-0.2c0-0.1,0.7-0.3,1.5-0.3
							C241,417.7,241.7,417.9,241.7,418z"/>
					</g>
				</g>
				<g>
					<g>
						<path class="st7" d="M247.5,419.5c-0.1,0.1-0.7-0.1-1.5-0.3c-0.8-0.3-1.4-0.5-1.4-0.7c0-0.1,0.7-0.1,1.5,0.2
							C247,419,247.5,419.4,247.5,419.5z"/>
					</g>
				</g>
				<g>
					<g>
						<path class="st7" d="M246.2,423.9c-0.1-0.1,0.4-0.6,0.9-1.2c0.5-0.6,1-1.1,1.1-1c0.1,0.1-0.1,0.7-0.7,1.4
							C246.9,423.7,246.3,424,246.2,423.9z"/>
					</g>
				</g>
				<g>
					<g>
						<path class="st7" d="M240.9,426.6c0-0.1,0.5-0.5,1.3-0.8c0.8-0.3,1.4-0.5,1.5-0.3c0.1,0.1-0.5,0.5-1.3,0.8
							C241.6,426.6,241,426.8,240.9,426.6z"/>
					</g>
				</g>
				<g>
					<g>
						<path class="st7" d="M235.2,428.5c0-0.1,0.6-0.5,1.3-0.7c0.8-0.3,1.5-0.4,1.5-0.2c0,0.1-0.6,0.5-1.3,0.7
							C235.9,428.5,235.3,428.6,235.2,428.5z"/>
					</g>
				</g>
				<g>
					<g>
						<path class="st7" d="M229.6,430.6c-0.1-0.1,0.5-0.5,1.3-0.8c0.8-0.3,1.4-0.4,1.5-0.3c0.1,0.1-0.5,0.5-1.3,0.8
							C230.3,430.6,229.6,430.7,229.6,430.6z"/>
					</g>
				</g>
				<g>
					<g>
						<path class="st7" d="M224.1,432.9c-0.1-0.1,0.5-0.5,1.3-0.8c0.8-0.3,1.4-0.5,1.5-0.4c0.1,0.1-0.5,0.5-1.3,0.8
							C224.8,432.9,224.1,433.1,224.1,432.9z"/>
					</g>
				</g>
			</g>
		</g>
		<g>
			<g>
				<g>
					<g>
						<g>
							<g>
								<g>
									<g>
										<path class="st7" d="M212.9,261.5c0,0,6.5-2,15.2-11.7c8.7-9.7,12.2-22,13.3-22c1.1,0,6-2.7,17,17.3
											c11,20,7.7,25.1,5.8,25.2c-1.9,0.1-15-2.5-23-1c-8,1.5-18,6.5-18,6.5L212.9,261.5z"/>
									</g>
								</g>
								<g>
									<g>
										<path class="st6" d="M199.6,273.8l2.6,4.1l1.2,1.9c1.6,2.5,4.9,3.4,7.5,1.9l13.9-6l-9.7-18.3l-13.7,8.6
											C198.8,267.7,198,271.2,199.6,273.8z"/>
									</g>
								</g>
								<g>
									<g>
										<path class="st6" d="M208.3,280.1l5.2,8.6l2.2-0.8l15.7,11l3.5-8.4c0,0-9-3.1-10.9-6.1c-1.9-3,0-3.9,0-3.9l-4.5-4.4
											L208.3,280.1z"/>
									</g>
								</g>
								<g>
									<g>
										<path class="st6" d="M257.7,245.5c5.9,10.8,8.7,20.7,6.4,22c-2.4,1.3-9.1-6.4-15-17.3c-5.9-10.8-8.7-20.7-6.4-22
											C245.1,227,251.9,234.7,257.7,245.5z"/>
									</g>
								</g>
							</g>
							<g>
								<g>
									<polygon class="st7" points="198.8,280.1 202.6,278.6 199.9,274.3 197.1,276.3 									"/>
								</g>
							</g>
							<g>
								<g>
									<polygon class="st7" points="221.2,277.5 211.3,284.9 209.8,282.5 									"/>
								</g>
							</g>
							<g>
								<g>
									<polygon class="st7" points="199.9,274.3 202.6,278.6 201.8,278.9 199.6,274.5 									"/>
								</g>
							</g>
							<g>
								<g>
									<path class="st7" d="M202.6,275.1c0.1,0.1,1.9-0.8,4.2-2c2.2-1.2,4-2.3,3.9-2.4c-0.1-0.1-1.9,0.8-4.2,2
										C204.3,273.9,202.6,275,202.6,275.1z"/>
								</g>
							</g>
							<g>
								<g>
									<path class="st7" d="M201.2,272.5c0.1,0.1,1.8-0.7,3.8-1.9c2-1.2,3.6-2.2,3.5-2.4c-0.1-0.1-1.8,0.7-3.8,1.9
										C202.7,271.3,201.2,272.4,201.2,272.5z"/>
								</g>
							</g>
							<g>
								<g>
									<path class="st7" d="M204.3,277.8c0,0.1,0.5-0.1,1.2-0.4c0.4-0.1,0.8-0.3,1.2-0.5c0.5-0.2,0.9-0.5,1.5-0.8
										c2-1.1,3.6-2.2,3.5-2.3c-0.1-0.1-1.7,0.8-3.8,1.9c-0.5,0.3-1,0.6-1.4,0.8c-0.4,0.2-0.8,0.4-1.2,0.6
										C204.7,277.5,204.3,277.8,204.3,277.8z"/>
								</g>
							</g>
							<g>
								<g>
									<path class="st7" d="M247.2,243.8c0,0,5.5-4,9.3,3.6c3.7,7.6-2.2,9.3-2.2,9.3C251.5,253,249.1,248.7,247.2,243.8z"/>
								</g>
							</g>
							<g>
								<g>
									<path class="st6" d="M240.4,234.9c0,0,0.1,0.5,0.3,1.5c0.3,0.9,0.6,2.3,1.1,4c0.3,0.8,0.6,1.7,1,2.7c0.2,0.5,0.4,1,0.6,1.5
										c0.1,0.3,0.2,0.5,0.3,0.8c0.1,0.3,0.2,0.5,0.4,0.8c0.5,1,1,2.1,1.6,3.3c0.1,0.3,0.3,0.6,0.4,0.9c0.1,0.3,0.3,0.6,0.5,0.8
										c0.3,0.6,0.7,1.1,1,1.7c0.3,0.6,0.7,1.1,1,1.7c0.2,0.3,0.3,0.6,0.5,0.8c0.2,0.3,0.4,0.5,0.5,0.8c0.7,1,1.4,2,2.1,3
										c0.2,0.2,0.3,0.5,0.5,0.7c0.2,0.2,0.4,0.4,0.5,0.6c0.3,0.4,0.7,0.8,1,1.2c0.7,0.8,1.3,1.5,1.8,2.2c1.2,1.3,2.2,2.2,2.9,2.9
										c0.7,0.7,1.1,1,1.1,1c0,0-0.3-0.4-1-1.2c-0.7-0.7-1.6-1.8-2.8-3c-0.5-0.7-1.1-1.4-1.8-2.2c-0.3-0.4-0.6-0.8-1-1.2
										c-0.2-0.2-0.3-0.4-0.5-0.6c-0.2-0.2-0.3-0.5-0.5-0.7c-0.6-0.9-1.3-1.9-2-3c-0.2-0.3-0.4-0.5-0.5-0.8
										c-0.2-0.3-0.3-0.5-0.5-0.8c-0.3-0.6-0.7-1.1-1-1.7c-0.3-0.6-0.7-1.1-1-1.7c-0.2-0.3-0.3-0.5-0.5-0.8
										c-0.1-0.3-0.3-0.6-0.4-0.8c-0.5-1.1-1.1-2.2-1.6-3.2c-0.1-0.3-0.3-0.5-0.4-0.8c-0.1-0.3-0.2-0.5-0.3-0.8
										c-0.2-0.5-0.4-1-0.6-1.5c-0.4-0.9-0.7-1.8-1.1-2.6c-0.5-1.6-1-3-1.3-3.9C240.6,235.4,240.4,234.9,240.4,234.9z"/>
								</g>
							</g>
						</g>
					</g>
					<g>
						<g>
							<path class="st11" d="M225.5,280.4c0.9,0.3,1.4,1.2,1.2,2.1c-0.4,1.7-1.1,4.4-1.7,6c-0.2,0.5-0.4,1.1-0.7,1.5
								c-0.4,0.4-0.9,0.7-1.5,0.6c-0.6-0.1-1-0.7-1.1-1.3c-0.1-0.6,0-1.2,0.1-1.7c0.4-1.6,1-4,1.6-5.9
								C223.7,280.7,224.6,280.2,225.5,280.4L225.5,280.4z"/>
						</g>
						<g>
							<path class="st11" d="M228.2,283.2c0.9,0.3,1.4,1.2,1.2,2.1c-0.4,1.7-1.1,4.4-1.7,6c-0.2,0.5-0.4,1.1-0.7,1.5
								c-0.4,0.4-0.9,0.7-1.5,0.6c-0.6-0.1-1-0.7-1.1-1.3c-0.1-0.6,0-1.2,0.1-1.7c0.4-1.6,1-4,1.6-5.9
								C226.4,283.5,227.3,282.9,228.2,283.2L228.2,283.2z"/>
						</g>
						<g>
							<path class="st11" d="M230.9,284.9c0.8,0.2,1.2,1,1,1.8c-0.4,1.5-1,3.8-1.5,5.2c-0.2,0.5-0.3,0.9-0.6,1.3
								c-0.3,0.4-0.8,0.6-1.3,0.5c-0.5-0.1-0.8-0.6-0.9-1.1c-0.1-0.5,0-1,0.1-1.5c0.3-1.4,0.9-3.4,1.3-5.1
								C229.3,285.1,230.1,284.6,230.9,284.9L230.9,284.9z"/>
						</g>
						<g>
							<path class="st11" d="M233.8,285.2c0.8,0.2,1.2,1,1,1.8c-0.4,1.5-1,3.8-1.5,5.2c-0.2,0.5-0.3,0.9-0.7,1.3
								c-0.3,0.4-0.8,0.6-1.3,0.5c-0.5-0.1-0.8-0.6-0.9-1.1c-0.1-0.5,0-1,0.1-1.5c0.3-1.4,0.9-3.5,1.4-5.1
								C232.2,285.4,233,285,233.8,285.2L233.8,285.2z"/>
						</g>
						<g>
							<g>
								<path class="st15" d="M224.6,290c-0.1,0,0.2-1.5,0.7-3.2c0.5-1.7,1.1-3.1,1.2-3c0.1,0-0.2,1.5-0.7,3.2
									C225.3,288.7,224.7,290,224.6,290z"/>
							</g>
						</g>
						<g>
							<g>
								<path class="st15" d="M230.2,292.3c-0.1-0.1,0.3-1.5,0.8-3.2c0.5-1.7,0.9-3.1,1.1-3.1c0.1,0,0,1.5-0.6,3.3
									C231,291,230.4,292.3,230.2,292.3z"/>
							</g>
						</g>
						<g>
							<g>
								<path class="st15" d="M227.4,291.9c-0.1-0.1,0.3-1.5,0.8-3.2c0.5-1.7,0.9-3.1,1.1-3.1c0.1,0,0,1.5-0.6,3.3
									C228.2,290.6,227.6,292,227.4,291.9z"/>
							</g>
						</g>
					</g>
				</g>
			</g>
			<g>
				<g>
					<g>
						<path class="st6" d="M278.2,207.3c0.1,0.1-4,5.7-9.2,12.4c-5.2,6.8-9.5,12.2-9.6,12.1c-0.1-0.1,4-5.7,9.2-12.4
							C273.8,212.7,278.1,207.3,278.2,207.3z"/>
					</g>
				</g>
				<g>
					<g>
						<path class="st6" d="M305.1,223.2c0.1,0.1-8.6,4.3-19.3,9.2c-10.7,5-19.4,8.9-19.5,8.8c-0.1-0.1,8.6-4.3,19.3-9.2
							C296.3,227,305,223.1,305.1,223.2z"/>
					</g>
				</g>
				<g>
					<g>
						<path class="st6" d="M301.1,256.2c0,0.1-6.2-0.3-13.7-1.1c-7.6-0.7-13.7-1.4-13.7-1.6c0-0.1,6.2,0.3,13.7,1.1
							C295,255.4,301.1,256.1,301.1,256.2z"/>
					</g>
				</g>
			</g>
		</g>
		<g>
			<g>
				<g>
					<g>
						<g>
							<g>
								<g>
									<g>
										<g>
											<g>
												<g>
													<g>
														<g>
															<g>
																<g>
																	<path class="st11" d="M143.4,274.8l6.8,38.6c1.2,6.7,7.5,11.2,14.3,10.3l0,0c7.1-1,12-7.5,10.8-14.4l-1.1-6.6
																		c0,0,9.5-2.6,8.5-12.1c-0.5-4.6-2.2-14-3.9-22.5c-1.9-9.5-11.1-15.8-20.8-14.2h0C148,255.5,141.4,265,143.4,274.8z
																		"/>
																</g>
															</g>
														</g>
													</g>
												</g>
											</g>
										</g>
									</g>
								</g>
							</g>
						</g>
					</g>
					<g>
						<g>
							<g>
								<g>
									<g>
										<g>
											<g>
												<g>
													<g>
														<g>
															<g>
																<g>
																	<g>
																		<g>
																			<g>
																				<g>
																					<path class="st15" d="M174.2,302.6c0,0-6.1,1.2-13-2.1c0,0,3.8,6.5,13.3,4.6L174.2,302.6z"/>
																				</g>
																			</g>
																		</g>
																	</g>
																</g>
															</g>
														</g>
													</g>
												</g>
											</g>
										</g>
									</g>
								</g>
							</g>
						</g>
						<g>
							<g>
								<g>
									<g>
										<g>
											<g>
												<g>
													<g>
														<g>
															<g>
																<g>
																	<g>
																		<g>
																			<g>
																				<g>
																					<g>
																						<g>
																							<g>
																								<path class="st6" d="M176.7,274.4c0.1,0.7-0.4,1.4-1.2,1.5c-0.8,0.1-1.5-0.3-1.6-1.1
																									c-0.1-0.7,0.4-1.4,1.2-1.5C175.9,273.2,176.6,273.7,176.7,274.4z"/>
																							</g>
																						</g>
																					</g>
																				</g>
																			</g>
																		</g>
																	</g>
																</g>
															</g>
														</g>
													</g>
												</g>
												<g>
													<g>
														<g>
															<g>
																<g>
																	<g>
																		<g>
																			<g>
																				<g>
																					<g>
																						<g>
																							<g>
																								<g>
																									<path class="st6" d="M177,272.1c-0.2,0.2-1.3-0.4-2.8-0.3c-1.5,0.2-2.5,1-2.7,0.9c-0.1-0.1,0-0.4,0.5-0.8
																										c0.4-0.4,1.2-0.8,2.1-0.9c0.9-0.1,1.7,0.1,2.2,0.4C176.9,271.7,177.1,272,177,272.1z"/>
																								</g>
																							</g>
																						</g>
																					</g>
																				</g>
																			</g>
																		</g>
																	</g>
																</g>
															</g>
														</g>
													</g>
												</g>
											</g>
											<g>
												<g>
													<g>
														<g>
															<g>
																<g>
																	<g>
																		<g>
																			<g>
																				<g>
																					<g>
																						<g>
																							<g>
																								<path class="st6" d="M162.7,276.1c0.1,0.7-0.4,1.4-1.2,1.5c-0.8,0.1-1.5-0.3-1.6-1.1
																									c-0.1-0.7,0.4-1.4,1.2-1.5C161.9,274.9,162.6,275.4,162.7,276.1z"/>
																							</g>
																						</g>
																					</g>
																				</g>
																			</g>
																		</g>
																	</g>
																</g>
															</g>
														</g>
													</g>
												</g>
												<g>
													<g>
														<g>
															<g>
																<g>
																	<g>
																		<g>
																			<g>
																				<g>
																					<g>
																						<g>
																							<g>
																								<g>
																									<path class="st6" d="M162.7,274c-0.2,0.2-1.3-0.4-2.8-0.3c-1.5,0.2-2.5,1-2.7,0.9c-0.1-0.1,0-0.4,0.5-0.8
																										c0.4-0.4,1.2-0.8,2.1-0.9c0.9-0.1,1.7,0.1,2.2,0.4C162.6,273.6,162.7,273.9,162.7,274z"/>
																								</g>
																							</g>
																						</g>
																					</g>
																				</g>
																			</g>
																		</g>
																	</g>
																</g>
															</g>
														</g>
													</g>
												</g>
											</g>
											<g>
												<g>
													<g>
														<g>
															<g>
																<g>
																	<g>
																		<g>
																			<g>
																				<g>
																					<g>
																						<g>
																							<g>
																								<path class="st6" d="M169.3,285.2c0-0.1,0.9-0.3,2.4-0.7c0.4-0.1,0.7-0.2,0.8-0.5c0.1-0.3-0.1-0.7-0.4-1.1
																									c-0.5-0.9-0.9-1.8-1.5-2.7c-2-3.9-3.5-7.1-3.4-7.2c0.2-0.1,1.9,3,4,6.9c0.5,1,1,1.9,1.4,2.7
																									c0.2,0.4,0.5,0.9,0.4,1.4c-0.1,0.3-0.3,0.5-0.6,0.6c-0.2,0.1-0.4,0.1-0.6,0.2
																									C170.3,285.1,169.3,285.2,169.3,285.2z"/>
																							</g>
																						</g>
																					</g>
																				</g>
																			</g>
																		</g>
																	</g>
																</g>
															</g>
														</g>
													</g>
												</g>
											</g>
											<g>
												<g>
													<g>
														<g>
															<g>
																<g>
																	<g>
																		<g>
																			<g>
																				<g>
																					<g>
																						<g>
																							<g>
																								<path class="st6" d="M165.1,286.7c0.2,0,0.4,1.5,1.9,2.5c1.5,1,3.2,0.6,3.2,0.8c0,0.1-0.3,0.4-1.1,0.5
																									c-0.7,0.1-1.8,0-2.7-0.6c-0.9-0.6-1.4-1.5-1.5-2.1C164.8,287.1,165,286.7,165.1,286.7z"/>
																							</g>
																						</g>
																					</g>
																				</g>
																			</g>
																		</g>
																	</g>
																</g>
															</g>
														</g>
													</g>
												</g>
											</g>
										</g>
									</g>
								</g>
								<g>
									<g>
										<g>
											<g>
												<g>
													<g>
														<g>
															<g>
																<g>
																	<g>
																		<g>
																			<g>
																				<path class="st6" d="M162.4,269.1c-0.1,0.4-1.6,0.4-3.3,0.8c-1.7,0.4-3.1,1-3.3,0.7c-0.1-0.2,0.1-0.6,0.6-1
																					c0.5-0.4,1.4-0.9,2.4-1.1c1-0.2,2-0.2,2.7,0C162.1,268.7,162.4,268.9,162.4,269.1z"/>
																			</g>
																		</g>
																	</g>
																</g>
															</g>
														</g>
													</g>
												</g>
											</g>
										</g>
									</g>
								</g>
								<g>
									<g>
										<g>
											<g>
												<g>
													<g>
														<g>
															<g>
																<g>
																	<g>
																		<g>
																			<g>
																				<path class="st6" d="M176.2,268.8c-0.2,0.4-1.3,0.1-2.5,0.3c-1.2,0.1-2.2,0.5-2.5,0.2c-0.1-0.2,0-0.5,0.4-0.9
																					c0.4-0.4,1.1-0.7,2-0.8c0.8-0.1,1.6,0.1,2.1,0.4C176.1,268.3,176.3,268.6,176.2,268.8z"/>
																			</g>
																		</g>
																	</g>
																</g>
															</g>
														</g>
													</g>
												</g>
											</g>
										</g>
									</g>
								</g>
							</g>
						</g>
					</g>
				</g>
			</g>
			<g>
				<path class="st6" d="M178.8,251.7c-1.3-1-3.3-0.9-4.4,0.3c0.9-1.2,0.4-3.1-0.8-4c-1.2-0.9-2.9-1-4.4-0.6c-1.5,0.4-2.8,1.2-4.1,2
					c0.1-0.6-0.2-1.2-0.7-1.6c-0.5-0.4-1.1-0.5-1.7-0.5c-2.5-0.3-5,0.5-7.2,1.6c-2.2,1.1-4.7,3-6.7,4.5l0,0c-2,1.6-4.1,3.7-6.1,6.5
					c0,0,0,0-0.1,0.1c-1.4,1.3-2.6,5.1-2.4,6.9c0.8,6.9,3.1,10.8,4.3,17.3c0.1,0.4,0.2,0.9,0.5,1.2c0.8,0.8,2.2,0.1,3-0.7
					c1.8-2.1,2.5-5,2.5-7.7c0.1-2.8-0.3-5.5-0.2-8.3c0-0.1,0-0.1,0-0.2c0-0.7,0.1-1.4,0.2-2.1c0.1-0.4,1.3-4.4,5.1-5
					c4-0.7,11.9,3.2,15.9,2.6c3.9-0.6,4.1-3.4,4.1-3.4l2.3,4.7c0,0,0.9-2.8,0.4-5.9c1-0.9,1.7-2.1,2-3.4
					C180.6,254.4,180.1,252.6,178.8,251.7z"/>
			</g>
			<g>
				<g>
					<g>
						<g>
							<g>
								<g>
									<g>
										<g>
											<g>
												<g>
													<g>
														<g>
															<g>
																<path class="st11" d="M147.2,278.9c-0.2-0.1-6.9-1.2-5.9,5.3c1,6.5,7.4,4.2,7.4,4
																	C148.6,288,147.2,278.9,147.2,278.9z"/>
															</g>
														</g>
													</g>
												</g>
											</g>
										</g>
									</g>
								</g>
							</g>
						</g>
					</g>
				</g>
				<g>
					<g>
						<g>
							<g>
								<g>
									<g>
										<g>
											<g>
												<g>
													<g>
														<g>
															<g>
																<g>
																	<path class="st15" d="M146.3,286c0,0-0.1,0.1-0.3,0.2c-0.2,0.1-0.5,0.2-0.9,0.1c-0.7-0.2-1.5-1.2-1.7-2.3
																		c-0.1-0.6-0.1-1.2,0.1-1.7c0.1-0.5,0.4-0.9,0.7-1c0.3-0.1,0.6,0,0.7,0.2c0.1,0.2,0.1,0.3,0.1,0.3
																		c0,0,0.1-0.1,0-0.4c0-0.1-0.1-0.3-0.3-0.4c-0.2-0.1-0.4-0.1-0.7-0.1c-0.5,0.1-0.9,0.6-1,1.2
																		c-0.2,0.6-0.2,1.2-0.1,1.9c0.2,1.3,1.1,2.4,2.1,2.6c0.5,0.1,0.8-0.1,1-0.3C146.3,286.2,146.3,286,146.3,286z"/>
																</g>
															</g>
														</g>
													</g>
												</g>
											</g>
										</g>
									</g>
								</g>
							</g>
						</g>
					</g>
				</g>
			</g>
		</g>
		<g>
			<g>
				<path class="st8" d="M132.4,325.9c0,0,0.2-0.1,0.6-0.1c0.4,0,1,0.2,1.5,0.7c0.5,0.5,0.9,1.4,0.9,2.5c0,1-0.4,2.2-0.8,3.4
					c-0.3,1.2-0.6,2.6,0.2,3.9c0.7,1.2,2.2,2.2,2.8,3.9c0.6,1.7,0.1,3.8-1.5,5c-0.7,0.6-1.7,1-2.7,1c-1,0-2-0.2-2.9-0.5
					c-0.9-0.2-1.9-0.4-2.7-0.2c-0.8,0.2-1.5,0.9-2,1.6c-0.5,0.7-1,1.5-1.7,2.1c-0.7,0.6-1.6,1-2.5,0.9c-1.8-0.1-3.3-1.3-4-2.6
					c-0.7-1.4-0.9-2.8-1-4.1c-0.1-1.3,0-2.4-0.1-3.4c0-1-0.1-1.9-0.2-2.6c-0.3-1.4-0.7-2.1-0.6-2.1c0,0,0.1,0.2,0.3,0.5
					c0.2,0.3,0.4,0.9,0.5,1.6c0.2,0.7,0.3,1.6,0.3,2.6c0.1,1,0,2.2,0.1,3.4c0.1,1.2,0.3,2.6,1,3.9c0.7,1.2,2.1,2.3,3.6,2.4
					c0.8,0.1,1.6-0.2,2.2-0.8c0.6-0.6,1.1-1.3,1.6-2.1c0.5-0.7,1.2-1.5,2.3-1.8c1-0.3,2-0.1,3,0.2c0.9,0.2,1.9,0.5,2.7,0.5
					c0.9,0,1.7-0.4,2.4-0.9c1.4-1.1,1.8-3,1.3-4.5c-0.5-1.5-1.9-2.5-2.7-3.8c-0.4-0.7-0.6-1.4-0.6-2.2c0-0.7,0.2-1.4,0.4-2
					c0.4-1.2,0.8-2.3,0.8-3.3c0.1-1-0.3-1.8-0.7-2.3c-0.5-0.5-1-0.7-1.3-0.8C132.6,325.8,132.4,325.9,132.4,325.9z"/>
			</g>
		</g>
		<g>
			<g>
				<path class="st8" d="M135.2,395.8c0,0,0.1,0.2,0.3,0.6c0.2,0.4,0.7,0.9,1.6,1.1c0.8,0.2,1.9,0.2,2.9-0.6c0.9-0.7,1.6-2,1.9-3.5
					c0.3-1.5,0.3-3.2,0.5-5c0.2-0.9,0.4-1.9,0.9-2.7c0.5-0.9,1.3-1.7,2.3-2.1c1-0.4,2.1-0.4,3.2-0.3c1.1,0.1,2.2,0.4,3.2,0.5
					c1.1,0.2,2.2,0.2,3.3-0.2c1.1-0.3,2.1-0.9,2.9-1.6c0.8-0.8,1.5-1.7,1.8-2.8c0.3-1.1,0.3-2.2-0.1-3.2c-0.7-2-2.4-3.7-4.3-3.9
					c-2-0.2-3.8,0.7-5.7,0.8c-0.9,0-1.9-0.2-2.6-0.6c-0.8-0.4-1.4-0.9-2.1-1.3c-1.2-0.9-2.4-1.8-3.5-2.1c-1.1-0.4-2.2-0.2-3,0.2
					c-0.7,0.4-1.1,1-1.3,1.4c-0.1,0.4-0.1,0.7-0.2,0.7c0,0-0.1-0.2,0.1-0.7c0.1-0.4,0.5-1.1,1.3-1.5c0.4-0.2,0.9-0.4,1.4-0.5
					c0.5-0.1,1.1,0,1.7,0.2c1.2,0.4,2.4,1.2,3.6,2.1c1.2,0.9,2.7,1.9,4.5,1.8c0.9,0,1.8-0.3,2.7-0.5c0.9-0.2,2-0.5,3-0.3
					c2.2,0.2,4.1,2,4.8,4.2c0.4,1.1,0.4,2.3,0.1,3.5c-0.3,1.2-1,2.2-1.9,3c-0.9,0.8-2,1.4-3.1,1.7c-1.1,0.3-2.4,0.3-3.5,0.2
					c-1.1-0.1-2.2-0.4-3.2-0.5c-1-0.1-2.1-0.1-3,0.2c-0.9,0.3-1.6,1-2.1,1.8c-0.5,0.8-0.7,1.7-0.9,2.6c-0.3,1.8-0.3,3.5-0.6,5
					c-0.3,1.5-1.1,2.9-2.1,3.6c-1,0.8-2.3,0.8-3.1,0.6c-0.9-0.3-1.4-0.8-1.6-1.2C135.1,396.1,135.2,395.8,135.2,395.8z"/>
			</g>
		</g>
		<g>
			<g>
				<path class="st8" d="M169.1,335.3c0,0,0.2-0.4,0.7-0.9c0.5-0.5,1.5-1.3,3-1.5c1.4-0.3,3.4,0.2,4.8,1.9c0.7,0.8,1.1,1.9,1.2,3.1
					c0.1,1.1,0.1,2.4,0.8,3.5c0.3,0.5,0.9,0.9,1.5,1.1c0.6,0.2,1.3,0.3,2,0.3c0.7,0,1.4,0,2.2,0.1c0.7,0.1,1.5,0.2,2.2,0.8
					c0.3,0.2,0.6,0.6,0.8,1c0.2,0.4,0.2,0.8,0.2,1.2c-0.1,0.9-0.5,1.6-1,2.3c-0.5,0.6-1.2,1.2-2,1.6c-0.8,0.4-1.5,0.7-2.3,1
					c-0.8,0.4-1.5,0.8-2.1,1.3c-0.6,0.6-1,1.3-1.2,2.1c-0.4,1.7,0,3.5-0.1,5.4c-0.1,0.9-0.3,1.9-0.8,2.8c-0.5,0.9-1.3,1.6-2.4,1.8
					c-1.1,0.2-2.1-0.3-2.9-0.9c-0.8-0.7-1.4-1.5-1.9-2.3c-0.5-0.9-1-1.7-1.5-2.5c-0.6-0.7-1.3-1.4-2.1-1.7c-0.9-0.3-1.8-0.2-2.6,0.2
					c-0.9,0.3-1.6,0.8-2.4,1.3c-0.8,0.5-1.6,1-2.5,1.3c-0.9,0.3-1.8,0.5-2.7,0.5c-1.8,0-3.6-0.7-5-1.8c-1.4-1.1-2.4-2.6-2.7-4.2
					c-0.3-1.6,0-3.4,1.2-4.6c0.6-0.6,1.3-0.9,2.1-1.1c0.7-0.2,1.5-0.3,2.1-0.4c1.4-0.2,2.7-0.4,3.7-1.2c1-0.8,1.5-1.9,2-3
					c0.4-1.1,0.7-2.1,1.1-3.1c0.4-1,0.8-1.9,1.3-2.6c0.6-0.7,1.2-1.2,1.7-1.7c1.1-0.9,2.2-1.4,3-1.4
					C168.8,334.9,169.1,335.3,169.1,335.3c0,0.1-0.3-0.3-1.1-0.2c-0.7,0.1-1.8,0.6-2.9,1.5c-0.5,0.5-1.1,1-1.7,1.7
					c-0.5,0.7-0.9,1.5-1.3,2.5c-0.3,1-0.6,2-1,3.1c-0.4,1.1-1,2.3-2,3.1c-1,0.9-2.5,1.2-3.9,1.4c-1.4,0.2-2.9,0.4-4,1.4
					c-1.1,1-1.4,2.6-1,4.2c0.3,1.5,1.3,3,2.6,3.9c1.3,1,3,1.6,4.7,1.6c0.9,0,1.7-0.1,2.6-0.4c0.8-0.3,1.6-0.8,2.4-1.3
					c0.8-0.5,1.6-1,2.5-1.3c0.9-0.4,2-0.5,3-0.2c1,0.3,1.8,1,2.4,1.8c0.6,0.8,1.1,1.7,1.6,2.5c0.5,0.8,1.1,1.6,1.8,2.2
					c0.7,0.6,1.6,1,2.5,0.8c0.9-0.1,1.6-0.7,2-1.5c0.4-0.8,0.6-1.7,0.7-2.6c0.1-1.8-0.3-3.7,0.1-5.5c0.2-0.9,0.7-1.8,1.4-2.4
					c0.7-0.6,1.5-1,2.3-1.4c0.8-0.4,1.6-0.7,2.3-1c0.7-0.4,1.3-0.9,1.9-1.4c0.5-0.6,0.9-1.3,0.9-2c0-0.4,0-0.7-0.2-1
					c-0.2-0.3-0.4-0.6-0.6-0.8c-0.5-0.4-1.3-0.6-2-0.7c-0.7-0.1-1.4-0.1-2.1-0.1c-0.7,0-1.4-0.1-2.1-0.3c-0.7-0.2-1.3-0.7-1.6-1.2
					c-0.7-1.2-0.6-2.5-0.8-3.6c-0.1-1.1-0.5-2.2-1.1-2.9c-1.3-1.6-3.1-2.1-4.5-1.9c-1.4,0.2-2.4,0.9-2.9,1.4
					C169.3,334.9,169.1,335.3,169.1,335.3z"/>
			</g>
		</g>
		<g>
			<g>
				<path class="st8" d="M152.3,318.4c0,0-0.6,0.7-2.1,1c-0.7,0.1-1.6,0.2-2.5,0c-0.9-0.2-2-0.6-2.7-1.6c-0.7-1-0.9-2-1-3
					c-0.1-1,0-1.8,0.2-2.5c0.3-1.4,1-2.1,1.1-2c0.1,0.1-0.5,0.7-0.7,2.1c-0.1,0.7-0.2,1.5-0.1,2.4c0.1,0.9,0.3,1.9,0.9,2.7
					c0.6,0.8,1.6,1.2,2.4,1.4c0.9,0.2,1.7,0.2,2.4,0.1C151.5,318.8,152.2,318.3,152.3,318.4z"/>
			</g>
		</g>
		<g>
			<g>
				<path class="st8" d="M195.3,315.8c0,0,0,0.1-0.1,0.3c-0.1,0.2-0.2,0.4-0.4,0.7c-0.4,0.6-1.2,1.3-2.5,1.7c-0.6,0.2-1.4,0.2-2.1,0
					c-0.8-0.2-1.5-0.6-2.1-1.1c-0.7-0.5-1.3-1.1-2.1-1.3c-0.8-0.2-1.6,0.1-2.1,0.8c-0.5,0.7-0.8,1.6-1.2,2.4c-0.4,0.8-1,1.6-1.8,2
					c-1.5,1-3.2,1-4.4,0.5c-1.2-0.5-1.9-1.3-2.3-1.9c-0.4-0.6-0.4-1-0.4-1c0,0,0.2,0.4,0.6,0.9c0.4,0.5,1.1,1.3,2.3,1.7
					c1.1,0.4,2.7,0.4,4-0.5c0.7-0.4,1.2-1.1,1.6-1.8c0.4-0.8,0.7-1.7,1.3-2.5c0.3-0.4,0.7-0.8,1.2-1c0.5-0.2,1-0.2,1.5-0.1
					c1,0.3,1.6,0.9,2.3,1.4c0.6,0.5,1.3,0.9,1.9,1.1c0.7,0.2,1.3,0.1,1.9,0c1.2-0.3,2-0.9,2.4-1.4
					C195.2,316.2,195.3,315.8,195.3,315.8z"/>
			</g>
		</g>
		<g>
			<g>
				<path class="st8" d="M202.5,355.1c0,0-0.4-0.2-1.1-0.7c-0.7-0.5-1.7-1.3-2.7-2.4c-0.5-0.6-1.1-1.2-1.6-2c-0.5-0.8-0.9-1.7-1-2.8
					c-0.1-1,0-2.2,0.5-3.2c0.3-0.5,0.7-1,1.1-1.3c0.5-0.4,1-0.6,1.5-0.9c0.5-0.3,1-0.6,1.3-1c0.4-0.4,0.6-0.8,0.8-1.3
					c0.3-1,0.2-2,0.1-3c-0.1-1-0.3-2-0.2-2.9c0.1-0.9,0.3-1.8,0.9-2.4c1.2-1.1,2.5-1.3,3.4-1.4c0.9,0,1.3,0.5,1.2,0.5
					c0,0-0.4-0.3-1.2-0.3c-0.8,0.1-2.1,0.4-3.1,1.4c-0.5,0.5-0.7,1.3-0.8,2.2c0,0.9,0.1,1.8,0.3,2.8c0.1,1,0.2,2.1-0.1,3.2
					c-0.2,0.6-0.5,1.1-0.9,1.5c-0.4,0.4-0.9,0.8-1.4,1c-1,0.6-2,1.1-2.4,2.1c-0.5,0.9-0.6,2-0.5,2.9c0.2,2,1.4,3.4,2.4,4.5
					C201,353.9,202.5,355,202.5,355.1z"/>
			</g>
		</g>
		<g>
			<g>
				<path class="st8" d="M181.6,374.9c0,0,0.2,0,0.5,0c0.3,0,0.8,0,1.3,0.1c1.1,0.1,2.9,0.4,4.7,1.4c1.8,1,3.9,2.9,4.5,5.7
					c0.3,1.4,0.2,3-0.6,4.3c-0.8,1.3-2.1,2.5-3.8,2.8c-0.8,0.2-1.7,0.1-2.4-0.1c-0.7-0.2-1.4-0.3-2.1,0c-0.6,0.2-1.2,0.7-1.6,1.2
					c-0.4,0.5-0.8,1.1-1.1,1.7c-0.6,1.2-1.4,2.4-2.6,3c-1.1,0.6-2.4,0.7-3.4,0.4c-1.1-0.3-1.9-0.9-2.4-1.6c-0.5-0.7-0.8-1.4-0.9-1.9
					c-0.1-0.6-0.1-1-0.1-1.4c0-0.3,0.1-0.5,0.1-0.5c0.1,0-0.1,0.7,0.2,1.8c0.1,0.5,0.4,1.2,0.9,1.8c0.5,0.6,1.3,1.2,2.2,1.4
					c1,0.2,2.1,0.1,3.1-0.4c1-0.5,1.7-1.6,2.4-2.8c0.6-1.2,1.4-2.6,3-3.2c0.8-0.3,1.7-0.2,2.4,0c0.7,0.2,1.5,0.3,2.2,0.1
					c1.5-0.3,2.7-1.3,3.4-2.6c0.7-1.2,0.9-2.7,0.6-4c-0.6-2.6-2.4-4.5-4.2-5.4c-1.8-1-3.5-1.3-4.6-1.5
					C182.2,375,181.6,375,181.6,374.9z"/>
			</g>
		</g>
		<g>
			<g>
				<path class="st8" d="M162.8,408c-0.1,0-0.1-0.9-0.9-2.1c-0.4-0.6-1-1.1-1.9-1.5c-0.8-0.4-1.8-0.6-2.8-0.3
					c-1,0.3-1.8,0.9-2.3,1.7c-0.5,0.7-0.8,1.6-0.9,2.2c-0.2,1.4,0.3,2.2,0.2,2.3c0,0-0.2-0.2-0.3-0.6c-0.2-0.4-0.3-1-0.3-1.7
					c0-0.7,0.3-1.6,0.8-2.5c0.5-0.8,1.4-1.6,2.6-1.9c1.1-0.3,2.3-0.1,3.2,0.4c0.9,0.5,1.6,1.1,2,1.7c0.4,0.6,0.6,1.2,0.6,1.6
					C162.9,407.7,162.9,408,162.8,408z"/>
			</g>
		</g>
		<g>
			<g>
				<path class="st8" d="M166,422.5c-0.1,0-0.1-0.5-0.5-1.2c-0.3-0.7-1.1-1.8-2.4-2.5c-1.3-0.7-3.3-0.7-4.9,0.4
					c-0.8,0.5-1.4,1.4-2,2.3c-0.3,0.4-0.7,0.9-1.1,1.3c-0.5,0.4-1.1,0.7-1.7,0.6c-1.3-0.1-2.3-1-3-1.8c-0.7-0.9-1.3-1.7-2.1-2.2
					c-0.8-0.5-1.8-0.6-2.6-0.5c-0.8,0.1-1.6,0.5-2.2,0.9c-1.2,0.9-1.9,1.9-2.3,2.7c-0.4,0.7-0.6,1.1-0.7,1.1c0,0,0.1-0.5,0.5-1.2
					c0.4-0.7,1-1.9,2.3-2.8c0.6-0.5,1.4-0.9,2.3-1c0.9-0.2,2-0.1,2.9,0.5c0.9,0.6,1.6,1.5,2.3,2.3c0.7,0.8,1.6,1.6,2.6,1.6
					c1.1,0,1.9-0.9,2.5-1.7c0.6-0.9,1.3-1.8,2.2-2.4c1.8-1.2,3.9-1.1,5.3-0.3c1.4,0.8,2.1,1.9,2.4,2.7c0.2,0.4,0.2,0.7,0.3,1
					C166.1,422.4,166.1,422.5,166,422.5z"/>
			</g>
		</g>
		<g>
			<g>
				<path class="st8" d="M173.7,386.2c-0.1,0.1-1-0.8-2.9-1.3c-0.9-0.2-2.1-0.4-3.4-0.2c-1.3,0.2-2.6,0.6-3.8,1.5
					c-1.2,0.9-2,2.1-2.4,3.3c-0.4,1.2-0.5,2.4-0.4,3.3c0.3,1.9,1.2,2.9,1.1,2.9c0,0-0.2-0.2-0.6-0.7c-0.3-0.5-0.7-1.2-0.9-2.2
					c-0.2-1-0.2-2.2,0.3-3.5c0.4-1.3,1.3-2.6,2.5-3.5c1.3-0.9,2.7-1.4,4.1-1.5c1.3-0.2,2.6,0,3.5,0.3c1,0.3,1.7,0.7,2.1,1
					C173.5,386,173.7,386.2,173.7,386.2z"/>
			</g>
		</g>
	</g>
</g>
</svg>
