<?xml version="1.0" encoding="utf-8"?>
<!-- Generator: Adobe Illustrator 23.0.1, SVG Export Plug-In . SVG Version: 6.00 Build 0)  -->
<svg version="1.1" xmlns="http://www.w3.org/2000/svg" xmlns:xlink="http://www.w3.org/1999/xlink" x="0px" y="0px"
	 viewBox="0 0 500 500" style="enable-background:new 0 0 500 500;" xml:space="preserve">
<style type="text/css">
	.st0{fill:#E0E0E0;stroke:#E0E0E0;stroke-miterlimit:10;}
	.st1{fill:#FAFAFA;}
	.st2{display:none;}
	.st3{display:inline;fill:#EBEBEB;}
	.st4{display:inline;fill:#E0E0E0;}
	.st5{display:inline;}
	.st6{fill:#E0E0E0;}
	.st7{display:inline;fill:#F5F5F5;}
	.st8{fill:#F5F5F5;}
	.st9{fill:#EBEBEB;}
	.st10{fill:#FFFFFF;}
	.st11{fill:#263238;}
	.st12{fill:#007A5E;}
	.st13{opacity:0.2;}
	.st14{fill:#455A64;}
	.st15{fill:#B78876;}
	.st16{fill:#A3796C;}
</style>
<g id="Background_Complete">
	<g>
		<rect x="43.9" y="109.2" class="st0" width="120.5" height="212.7"/>
		<path class="st1" d="M165.6,160.8v-1.3h-25.7V108h-1.7v51.4H108v-52.9h-6.7v52.9h-31V108h-1.7v51.4H43.7v1.3h24.8v51.4H43.7v6.7
			h24.8v53.5H43.7v1.3h24.8v48.1h1.7v-48.1h31v46.6h6.7v-46.6h30.1v48.1h1.7v-48.1h25.7v-1.3h-25.7v-53.5h25.7v-6.7h-25.7v-51.4
			H165.6z M70.3,160.8h31v51.4h-31V160.8z M70.3,272.4v-53.5h31v53.5H70.3z M138.2,272.4H108v-53.5h30.1V272.4z M138.2,212.2H108
			v-51.4h30.1V212.2z"/>
	</g>
	<g class="st2">
		<rect x="336.7" y="360" class="st3" width="7.1" height="28.4"/>
		<rect x="426.8" y="360" class="st3" width="7.1" height="28.4"/>
		<rect x="384.2" y="360" class="st4" width="7.1" height="28.4"/>
		<rect x="460.8" y="360" class="st4" width="7.1" height="28.4"/>
		<rect x="336.7" y="294.6" class="st3" width="97.4" height="65.5"/>
		<rect x="434.1" y="294.6" class="st4" width="35.1" height="65.5"/>
		<g class="st5">
			<path class="st6" d="M424.9,327.3c0,0,0-0.1,0-0.4c0-0.3,0-0.6,0-1.1c0-0.9,0-2.3,0-4.1c0-3.6-0.1-8.8-0.1-15.3l0.2,0.2
				c-17.9,0-46.4,0.1-78.4,0.1c0.1-0.1-0.3,0.3,0.3-0.3v0v0v0v0v0.1v0.2v0.3v0.7l0,1.3c0,0.9,0,1.8,0,2.7c0,1.8,0,3.5,0,5.3
				c0,3.5,0,6.9,0,10.2l-0.3-0.3c22.4,0,41.9,0.1,55.9,0.1c7,0,12.6,0.1,16.5,0.1c1.9,0,3.4,0,4.4,0c0.5,0,0.9,0,1.2,0
				C424.7,327.3,424.9,327.3,424.9,327.3c0,0-0.1,0-0.4,0c-0.3,0-0.6,0-1.1,0c-1,0-2.5,0-4.4,0c-3.9,0-9.4,0-16.4,0.1
				c-14,0-33.7,0.1-56.1,0.1l-0.3,0l0-0.3c0-3.3,0-6.8,0-10.2c0-1.7,0-3.5,0-5.3c0-0.9,0-1.8,0-2.7l0-1.3v-0.7v-0.3v-0.2v-0.1v0v0v0
				v0c0.5-0.5,0.1-0.1,0.3-0.3c32,0,60.5,0.1,78.4,0.1l0.2,0l0,0.2c0,6.6-0.1,11.8-0.1,15.4c0,1.8,0,3.1,0,4.1c0,0.4,0,0.8,0,1
				C424.9,327.2,424.9,327.3,424.9,327.3z"/>
		</g>
		<path class="st4" d="M389.1,316.9c0,1.9-1.5,3.4-3.4,3.4s-3.4-1.5-3.4-3.4c0-1.9,1.5-3.4,3.4-3.4S389.1,315,389.1,316.9z"/>
		<path class="st7" d="M351.3,269.6l3.8,5.5c0,0-8.6,2.4-8.6,10.1c0,7.7,5.3,9.1,11,9.1c5.8,0,11.3-1.7,11-9.4
			c-0.2-7.7-7.4-10.6-7.4-10.6l3.6-4.8H351.3z"/>
		<g class="st5">
			<path class="st6" d="M459.7,279.8v14.1h-60.4c-3.9,0-7-3.1-7-7v0c0-3.9,3.1-7,7-7"/>
			<path class="st1" d="M459.7,290.9h-22.2c-1,0-1.7-0.8-1.7-1.7v-4.7c0-1,0.8-1.7,1.7-1.7h22.2V290.9z"/>
		</g>
		<g class="st5">
			<path class="st8" d="M459.7,266.3v14.1h-60.4c-3.9,0-7-3.1-7-7v0c0-3.9,3.1-7,7-7H459.7z"/>
			<path class="st6" d="M459.7,277.4h-22.2c-1,0-1.7-0.8-1.7-1.7V271c0-1,0.8-1.7,1.7-1.7h22.2V277.4z"/>
		</g>
	</g>
	<g>
		<g>
			<g>
				<path class="st9" d="M291.7,127.8c0.2-0.2,1.9,1,4.1,3.4c1.1,1.2,2.3,2.8,3.4,4.6c1.2,1.8,2.3,3.9,3.3,6.2
					c1,2.3,1.7,4.6,2.3,6.6c0.5,2.1,0.8,4,1,5.6c0.3,3.2,0,5.3-0.3,5.3c-0.8,0.1-1.5-7.8-5.3-16.5
					C296.4,134.2,291.1,128.3,291.7,127.8z"/>
			</g>
			<g>
				<path class="st9" d="M308,166c-0.3,0-1.3-4.3-2.1-11.3c-0.9-7-1.6-16.8-1.9-27.7c-0.3-10.8-0.2-20.6,0-27.7
					c0.2-7.1,0.6-11.5,0.9-11.5c0.4,0,0.7,4.4,0.9,11.5c0.3,7.1,0.4,16.8,0.7,27.6c0.3,10.8,0.7,20.5,1.1,27.6
					C308.1,161.6,308.4,166,308,166z"/>
			</g>
			<g>
				<path class="st9" d="M323.8,104.6c0.3,0.2-1,3.2-2.8,8.2c-1.8,5-4.1,12-6.3,19.9c-2.2,7.9-3.9,15-4.9,20.3
					c-1.1,5.2-1.4,8.5-1.8,8.5c-0.3,0-0.6-3.4,0-8.8c0.6-5.4,2-12.7,4.2-20.7c2.2-7.9,4.8-15,7.1-19.9
					C321.5,107.1,323.5,104.4,323.8,104.6z"/>
			</g>
			<path class="st6" d="M287.7,157v8.6c0,10.1,8.2,18.4,18.4,18.4l0,0c10.1,0,18.4-8.2,18.4-18.4V157H287.7z"/>
			<g>
				<path class="st1" d="M324.8,164.3c0,0.1-8.3,0.3-18.5,0.3c-10.2,0-18.5-0.1-18.5-0.3s8.3-0.3,18.5-0.3
					C316.5,164.1,324.8,164.2,324.8,164.3z"/>
			</g>
			<g>
				<path class="st1" d="M324.8,166.7c0,0.1-8.3,0.3-18.5,0.3c-10.2,0-18.5-0.1-18.5-0.3s8.3-0.3,18.5-0.3
					C316.5,166.5,324.8,166.6,324.8,166.7z"/>
			</g>
		</g>
		<rect x="263.1" y="184" class="st9" width="169.6" height="9.8"/>
		<rect x="295.3" y="193.8" class="st6" width="5.6" height="17"/>
		<rect x="388.3" y="193.8" class="st6" width="5.6" height="17"/>
		<g>
			<g>
				<g>
					<polygon class="st9" points="360,148.1 356.2,183.8 405.4,183.8 409.5,148.1 					"/>
				</g>
			</g>
			<g>
				<g>
					<polygon class="st10" points="362.1,150.7 358.3,181.9 402.7,181.9 406.3,150.7 					"/>
				</g>
			</g>
			<g>
				<g>
					<polygon class="st6" points="369.5,155.9 367.2,176.6 395.3,176.6 396.7,155.9 					"/>
				</g>
			</g>
		</g>
		<polyline class="st6" points="407.7,163.5 417.9,183.9 405.4,183.8 407.9,162.2 		"/>
	</g>
</g>
<g id="Background_Simple" class="st2">
	<path class="st3" d="M395.2,120.8c21.1,47.3,15.9,104.6-13.1,147.5c-29,42.9-74.7,75.3-125.4,85.4c-36.2,7.2-85.4,2.9-118.5-13.5
		c-33.1-16.4-59.3-42.9-61.3-79.8c-0.7-13.9,10-37,19.3-47.4c14.8-16.6,40.2-17.2,62.5-16.5c22.3,0.7,47.6,0.2,62.5-16.4
		c11.5-12.7,13.2-31.2,19.2-47.2c10.3-27.2,35-48.5,63.5-54.5c20.9-4.4,43.4-0.5,61.9,10.1c12.5,7.1,22.6,17.8,28.8,30.8
		C394.8,119.8,395,120.3,395.2,120.8z"/>
</g>
<g id="Carpet">
	<ellipse class="st11" cx="242" cy="399.3" rx="172.3" ry="46.6"/>
</g>
<g id="Plants">
	<g>
		<path class="st12" d="M339.4,193.8c0,0-6.9-4.3-14.8,12.1c-7.9,16.4-10.8,25.9-10.8,25.9s-2.1,3.5-4.5,1.3
			c-2.4-2.2-5.7-8.4-9.7-7.2c-4.1,1.3-5.3,5.9-4.4,12.7c0.9,6.7,2.5,21.6,2.6,22.9c0.1,1.3-0.6,3.3-2.4,2.1
			c-1.9-1.2-12.7-12.7-17.9-7.3c-5.2,5.5,0.6,23.8,1.1,25.8s0.2,2.9-0.7,3.4c-1,0.5-4.2-3.7-7.4-6.8c-3.2-3.2-7.5-6.2-10.2-2.8
			c-2.7,3.4-3.3,17.3,10.4,39.5l7,9.9l12.1-1c25.9-3.6,36.2-12.9,37.1-17.2c0.9-4.3-4.2-5.6-8.7-6c-4.5-0.5-9.8-0.3-10-1.4
			c-0.2-1.1,0.2-1.9,2.2-2.8c1.9-0.8,19.7-8.2,20.6-15.6c0.9-7.5-14.9-8.4-17-9.1c-2.1-0.7-1.1-2.5,0-3.2
			c1.1-0.8,13.5-9.1,19.3-12.7c5.8-3.6,8.6-7.5,6.9-11.5c-1.6-3.8-8.5-2.4-11.7-2.9c-3.2-0.5-1.9-4.3-1.9-4.3s5.4-8.3,13-24.9
			c7.6-16.6-0.3-19.2-0.3-19.2"/>
		<g>
			<path class="st11" d="M332.3,208.5c0,0,0,0.1-0.1,0.4c-0.1,0.3-0.3,0.6-0.4,1c-0.4,0.9-1,2.3-1.8,3.9c-1.5,3.4-3.8,8.4-6.6,14.4
				c-5.6,12.2-13.5,28.9-22.3,47.4c-8.8,18.5-16.7,35.2-22.5,47.3c-2.8,6-5.1,10.9-6.7,14.4c-0.8,1.7-1.4,3-1.8,3.9
				c-0.2,0.4-0.4,0.8-0.5,1c-0.1,0.2-0.2,0.3-0.2,0.3c0,0,0-0.1,0.1-0.4c0.1-0.3,0.3-0.6,0.4-1c0.4-0.9,1-2.3,1.8-3.9
				c1.5-3.4,3.8-8.4,6.6-14.4c5.6-12.2,13.5-28.9,22.4-47.4c8.8-18.5,16.7-35.2,22.5-47.3c2.8-6,5.1-10.9,6.8-14.4
				c0.8-1.7,1.4-3,1.8-3.9c0.2-0.4,0.4-0.8,0.5-1C332.2,208.7,332.3,208.5,332.3,208.5z"/>
		</g>
		<g>
			<path class="st11" d="M303.9,234.9c0.1,0,0.5,1.1,1.1,3.1c0.6,1.9,1.4,4.6,2.1,7.6c0.7,2.9,1.4,5.5,1.9,7.6
				c0.5,1.9,0.8,3.1,0.8,3.2c-0.1,0-0.5-1.1-1.1-3.1c-0.6-1.9-1.3-4.6-2.1-7.6c-0.8-2.9-1.4-5.5-2-7.6
				C304.1,236.1,303.8,234.9,303.9,234.9z"/>
		</g>
		<g>
			<path class="st11" d="M311,256.5c0-0.1,5.4-2,12.2-4.1c6.8-2.1,12.3-3.7,12.3-3.6c0,0.1-5.4,2-12.2,4.1
				C316.5,255,311,256.6,311,256.5z"/>
		</g>
		<g>
			<path class="st11" d="M296.2,284.2c0-0.1,1.3-0.1,3.3-0.2c2.1-0.1,4.9-0.1,8-0.3c3.1-0.2,5.9-0.4,8-0.6c2-0.2,3.3-0.3,3.3-0.2
				c0,0.1-1.2,0.3-3.3,0.6c-2,0.3-4.9,0.6-8,0.8c-3.1,0.2-6,0.2-8,0.2C297.4,284.4,296.1,284.3,296.2,284.2z"/>
		</g>
		<g>
			<path class="st11" d="M285.5,266.1c0.1,0,0.7,0.9,1.8,2.5c1,1.6,2.4,3.8,3.9,6.3c1.5,2.5,2.8,4.7,3.8,6.4
				c0.9,1.6,1.5,2.7,1.4,2.7c-0.1,0-0.7-0.9-1.8-2.5c-1-1.6-2.4-3.8-3.9-6.3c-1.5-2.5-2.8-4.7-3.8-6.4
				C285.9,267.1,285.4,266.1,285.5,266.1z"/>
		</g>
		<g>
			<path class="st11" d="M269.3,288.9c0,0,0.3,0.3,0.6,0.8c0.4,0.6,0.9,1.4,1.6,2.4c1.3,2,3.1,4.9,5.1,8c2,3.2,3.7,6,4.9,8.1
				c0.6,1,1.1,1.9,1.4,2.5c0.3,0.6,0.5,0.9,0.5,1c0,0-0.3-0.3-0.6-0.8c-0.4-0.6-0.9-1.4-1.6-2.4c-1.3-2-3.1-4.9-5.1-8
				c-2-3.2-3.7-6-4.9-8.1c-0.6-1-1.1-1.9-1.4-2.5C269.4,289.2,269.2,288.9,269.3,288.9z"/>
		</g>
		<g>
			<path class="st11" d="M283.3,311.1c0,0,0.4-0.1,1.1-0.1c0.8-0.1,1.9-0.1,3.1-0.2c2.6-0.2,6.2-0.4,10.2-0.7c4-0.3,7.5-0.7,10.1-1
				c1.2-0.1,2.2-0.3,3.1-0.3c0.7-0.1,1.1-0.1,1.1-0.1c0,0-0.4,0.1-1.1,0.3c-0.7,0.1-1.8,0.3-3,0.5c-2.6,0.4-6.2,0.9-10.1,1.2
				c-4,0.4-7.6,0.5-10.2,0.6c-1.3,0-2.4,0-3.1,0C283.7,311.2,283.3,311.1,283.3,311.1z"/>
		</g>
		<path class="st13" d="M339.4,193.8c0,0-6.9-4.3-14.8,12.1c-7.9,16.4-10.8,25.9-10.8,25.9s-2.1,3.5-4.5,1.3
			c-2.4-2.2-5.7-8.4-9.7-7.2c-4.1,1.3-5.3,5.9-4.4,12.7c0.9,6.7,2.5,21.6,2.6,22.9c0.1,1.3-0.6,3.3-2.4,2.1
			c-1.9-1.2-12.7-12.7-17.9-7.3c-5.2,5.5,0.6,23.8,1.1,25.8s0.2,2.9-0.7,3.4c-1,0.5-4.2-3.7-7.4-6.8c-3.2-3.2-7.5-6.2-10.2-2.8
			c-2.7,3.4-3.3,17.3,10.4,39.5l7,9.9l12.1-1c25.9-3.6,36.2-12.9,37.1-17.2c0.9-4.3-4.2-5.6-8.7-6c-4.5-0.5-9.8-0.3-10-1.4
			c-0.2-1.1,0.2-1.9,2.2-2.8c1.9-0.8,19.7-8.2,20.6-15.6c0.9-7.5-14.9-8.4-17-9.1c-2.1-0.7-1.1-2.5,0-3.2
			c1.1-0.8,13.5-9.1,19.3-12.7c5.8-3.6,8.6-7.5,6.9-11.5c-1.6-3.8-8.5-2.4-11.7-2.9c-3.2-0.5-1.9-4.3-1.9-4.3s5.4-8.3,13-24.9
			c7.6-16.6-0.3-19.2-0.3-19.2"/>
	</g>
	<g>
		<g>
			<path class="st11" d="M182.8,156.4c0,0,0.2-0.1,0.6-0.1c0.4,0,1,0,1.7,0.2c0.7,0.3,1.5,0.8,2.3,1.6c0.8,0.8,1.5,1.9,2.1,3.2
				c1.3,2.6,2.1,6.1,3.1,10.2c1,4.1,2,8.7,2.7,14.1l0,0c0.3,0.8,0.9,1.6,1.8,1.7c0.4,0,0.8-0.2,1.2-0.5c0.4-0.3,0.8-0.6,1.1-0.9
				c0.8-0.6,1.5-1.2,2.4-1.8c0.9-0.5,1.9-1,3-0.7c1.1,0.3,1.9,1.1,2.4,2.1c0.5,1,0.6,2.2,0.5,3.3c-0.1,2.3-1,4.4-1.7,6.6
				c-0.7,2.2-1.4,4.5-2.1,6.8c-0.4,1.2-0.7,2.3-1.1,3.5c-0.2,0.6-0.4,1.2-0.6,1.8c-0.1,0.3-0.2,0.6-0.2,0.9c0,0.3,0,0.6,0.1,0.8
				c0.2,0.5,0.8,0.4,1.4,0.1c0.6-0.3,1.1-0.6,1.7-0.9c1.1-0.6,2.3-1.2,3.5-1.7c1.2-0.5,2.5-0.9,3.9-1c0.7,0,1.4,0,2.1,0.3
				c0.7,0.3,1.2,0.8,1.6,1.4c0.8,1.3,0.8,2.8,0.7,4.1c-0.1,1.4-0.4,2.8-0.9,4.1c-0.8,2.7-2,5.3-3.3,7.9c-0.3,0.7-0.7,1.3-0.9,1.9
				c-0.1,0.3-0.1,0.6,0,0.9c0.1,0.1,0.2,0.2,0.3,0.4c0.1,0,0.1,0,0.3,0c0.6-0.2,1.2-0.7,1.8-1.1c0.6-0.4,1.2-0.8,1.8-1.3
				c1.2-0.8,2.5-1.7,3.9-2.3c0.7-0.3,1.4-0.6,2.2-0.7c0.8-0.1,1.7,0.1,2.3,0.6c0.6,0.5,1,1.3,1.1,2.1c0.1,0.4,0.1,0.8,0.1,1.2
				c0,0.4,0,0.8-0.1,1.2c-0.2,1.6-0.6,3.1-1.1,4.6c-1.1,3-2.6,5.7-4.4,8.4c-1.8,2.7-3.8,5.1-6,7.5c-1,1.2-2.3,2.3-3.4,3.4
				c-1.2,1.1-2.4,2.2-3.6,3.3l-0.1,0.1l-0.1,0c-0.2-0.1-0.4-0.1-0.7-0.2c-1.6-0.5-3.1-1-4.7-1.4l-2.3-0.7c-0.8-0.3-1.5-0.6-2.3-0.9
				c-3-1.2-5.9-2.6-8.7-4.2c-2.8-1.6-5.4-3.4-7.7-5.6c-1.1-1.1-2.2-2.3-3.1-3.6c-0.4-0.7-0.8-1.4-1-2.2c-0.2-0.8-0.2-1.7,0.2-2.4
				c0.4-0.8,1.2-1.2,2-1.4c0.8-0.2,1.6-0.3,2.3-0.3c1.5,0,3,0.2,4.5,0.5c0.7,0.1,1.5,0.2,2.2,0.4c0.4,0,0.7,0.1,1.1,0.1
				c0.3,0,0.8,0,1-0.1c0.1,0,0,0,0.1-0.1c0-0.1,0.1-0.1,0.1-0.2c0-0.1,0-0.3,0-0.4c-0.1-0.3-0.3-0.5-0.6-0.8
				c-0.5-0.5-1.2-0.9-1.7-1.3c-2.4-1.7-4.6-3.6-6.6-5.6c-1-1-1.9-2.1-2.7-3.3c-0.7-1.2-1.4-2.5-1.3-4c0.1-0.7,0.4-1.4,0.9-2
				c0.5-0.5,1.1-0.9,1.8-1.1c1.3-0.5,2.7-0.7,4-0.7c1.3-0.1,2.7,0,4,0.1c0.6,0,1.3,0.1,1.9,0.1c0.3,0,0.6,0,0.8-0.2
				c0.2-0.1,0.3-0.4,0.2-0.6c-0.1-0.6-0.5-1-1-1.4c-0.4-0.4-0.9-0.9-1.3-1.3c-0.9-0.9-1.7-1.8-2.6-2.6c-1.7-1.7-3.4-3.4-5-5.1
				c-1.6-1.7-3.4-3.2-4.6-5.1c-0.6-0.9-1.1-2-1.1-3.1c-0.1-1.1,0.3-2.3,1.1-3c0.9-0.8,2.1-0.8,3.1-0.7c1,0.1,2,0.3,3,0.6
				c0.5,0.1,0.9,0.2,1.4,0.3c0.5,0.1,0.9,0.1,1.3-0.1c0.8-0.4,0.9-1.4,0.8-2.3l0,0c-1.9-5-3.1-9.6-4.2-13.6c-1-4-1.9-7.5-2.1-10.4
				c-0.2-2.9,0.5-5.2,1.5-6.3c0.5-0.6,1-0.9,1.4-1c0.4-0.1,0.6-0.1,0.6-0.1s-0.2,0-0.5,0.2c-0.3,0.1-0.8,0.4-1.3,1
				c-1,1.1-1.6,3.4-1.4,6.2c0.2,2.9,1.1,6.3,2.1,10.3c1.1,4,2.4,8.6,4.3,13.6l0,0l0,0c0.1,0.5,0,1-0.1,1.4c-0.1,0.5-0.4,1-0.9,1.2
				c-0.5,0.2-1,0.2-1.5,0.1c-0.5-0.1-1-0.2-1.4-0.3c-1-0.2-1.9-0.4-2.9-0.5c-1-0.1-2.1,0-2.8,0.6c-0.7,0.7-1.1,1.7-1,2.7
				c0.1,1,0.5,2,1.1,3c1.1,1.9,2.9,3.3,4.5,5c1.6,1.6,3.3,3.3,5.1,5.1c0.9,0.9,1.7,1.7,2.6,2.6c0.4,0.4,0.9,0.9,1.3,1.3
				c0.4,0.4,1,0.9,1.1,1.7c0.1,0.3,0,0.8-0.4,1.1c-0.3,0.2-0.7,0.3-1,0.3c-0.7,0-1.3-0.1-1.9-0.1c-1.3-0.1-2.6-0.1-3.9,0
				c-1.3,0.1-2.6,0.2-3.9,0.7c-0.6,0.2-1.2,0.6-1.6,1c-0.4,0.5-0.7,1.1-0.7,1.7c-0.1,1.3,0.5,2.6,1.3,3.7c0.7,1.1,1.7,2.2,2.6,3.2
				c2,2,4.2,3.8,6.5,5.5c0.6,0.4,1.2,0.8,1.8,1.3c0.3,0.3,0.6,0.6,0.7,1c0.1,0.2,0.1,0.4,0,0.7c0,0.1,0,0.2-0.1,0.3
				c0,0.1-0.2,0.3-0.3,0.3c-0.5,0.2-0.8,0.1-1.2,0.1c-0.4,0-0.8-0.1-1.1-0.1c-0.7-0.1-1.5-0.2-2.2-0.4c-1.5-0.2-3-0.5-4.4-0.5
				c-0.7,0-1.5,0.1-2.2,0.2c-0.7,0.2-1.3,0.6-1.7,1.2c-0.7,1.3,0.1,2.8,0.8,4.1c0.8,1.3,1.9,2.4,3,3.5c2.3,2.1,4.9,3.9,7.6,5.5
				c2.8,1.6,5.7,2.9,8.7,4.2c0.8,0.3,1.5,0.6,2.3,0.9l2.3,0.7c1.6,0.5,3.1,0.9,4.7,1.4c0.2,0.1,0.5,0.1,0.7,0.2l-0.3,0.1
				c1.2-1.1,2.4-2.2,3.6-3.3c1.2-1.1,2.4-2.2,3.4-3.4c2.1-2.4,4.2-4.9,5.9-7.5c1.7-2.6,3.3-5.4,4.3-8.3c0.5-1.4,0.9-2.9,1.1-4.4
				c0-0.4,0-0.7,0.1-1.1c0-0.4,0-0.7-0.1-1.1c-0.1-0.7-0.4-1.4-0.9-1.8c-0.5-0.4-1.2-0.6-1.9-0.5c-0.7,0.1-1.4,0.3-2.1,0.6
				c-1.3,0.6-2.6,1.4-3.8,2.3c-0.6,0.4-1.2,0.9-1.8,1.3c-0.6,0.4-1.2,0.8-2,1.1c-0.1,0-0.2,0.1-0.3,0.1c-0.1,0-0.4-0.1-0.4-0.2
				c-0.2-0.1-0.3-0.3-0.4-0.5c-0.2-0.4-0.2-0.9-0.1-1.2c0.2-0.8,0.6-1.4,0.9-2c1.3-2.6,2.4-5.2,3.3-7.8c0.4-1.3,0.7-2.7,0.9-4
				c0.1-1.3,0.1-2.7-0.6-3.9c-0.6-1.1-2-1.6-3.3-1.5c-1.3,0.1-2.6,0.5-3.8,1c-1.2,0.5-2.4,1.1-3.5,1.7c-0.6,0.3-1.1,0.6-1.7,0.9
				c-0.3,0.1-0.6,0.3-1,0.3c-0.4,0-0.8-0.2-1-0.6c-0.3-0.7-0.1-1.4,0.1-2c0.2-0.6,0.4-1.2,0.6-1.8c0.4-1.2,0.7-2.4,1.1-3.5
				c0.7-2.3,1.4-4.6,2.1-6.8c0.7-2.2,1.5-4.3,1.7-6.5c0.1-1.1,0-2.2-0.5-3.1c-0.4-0.9-1.3-1.7-2.2-2c-0.9-0.3-1.9,0.2-2.8,0.7
				c-0.8,0.5-1.6,1.1-2.4,1.7c-0.4,0.3-0.8,0.6-1.2,0.9c-0.4,0.3-0.9,0.5-1.4,0.5c-0.5,0-1-0.3-1.3-0.7c-0.3-0.4-0.6-0.8-0.7-1.2
				l0,0l0,0c-0.7-5.3-1.7-10-2.7-14c-1-4.1-1.8-7.5-3-10.1c-0.6-1.3-1.3-2.4-2.1-3.2c-0.7-0.8-1.5-1.3-2.2-1.6
				C183.6,156.1,182.7,156.5,182.8,156.4z"/>
		</g>
		<g>
			<path class="st11" d="M185.5,167.3c0,0,0,0.1,0.1,0.2c0.1,0.2,0.1,0.4,0.2,0.7c0.2,0.7,0.5,1.7,0.8,2.9c0.7,2.5,1.6,6.1,2.8,10.6
				c2.3,8.9,5.4,21.3,8.7,35c3.4,13.7,6.4,26,8.6,35.1c1.1,4.5,2,8.1,2.6,10.6c0.3,1.2,0.5,2.2,0.7,2.9c0.1,0.3,0.1,0.6,0.2,0.8
				c0,0.2,0,0.3,0,0.3c0,0,0-0.1-0.1-0.2c-0.1-0.2-0.1-0.4-0.2-0.7c-0.2-0.7-0.5-1.7-0.8-2.9c-0.7-2.5-1.6-6.1-2.8-10.6
				c-2.3-8.9-5.4-21.3-8.8-35c-3.4-13.7-6.4-26-8.6-35c-1.1-4.5-2-8.1-2.6-10.6c-0.3-1.2-0.5-2.2-0.7-2.9c-0.1-0.3-0.1-0.6-0.2-0.8
				C185.5,167.4,185.5,167.3,185.5,167.3z"/>
		</g>
		<g>
			<path class="st11" d="M182,193.5c0-0.1,0.8,0.4,1.9,1.2c1.2,0.8,2.7,1.9,4.4,3.2c1.7,1.3,3.2,2.5,4.3,3.3
				c1.1,0.9,1.8,1.4,1.7,1.5c0,0.1-0.8-0.4-1.9-1.2c-1.2-0.8-2.7-1.9-4.4-3.2c-1.6-1.2-3-2.3-4.3-3.3
				C182.6,194.1,181.9,193.5,182,193.5z"/>
		</g>
		<g>
			<path class="st11" d="M195,202.2c-0.1-0.1,1.9-3.4,4.6-7.3c2.6-4,4.9-7.1,5-7.1c0.1,0.1-1.9,3.4-4.6,7.3
				C197.4,199.2,195.1,202.3,195,202.2z"/>
		</g>
		<g>
			<path class="st11" d="M199.2,223.5c-0.1-0.1,2.6-2.2,5.7-5.1c3.1-2.8,5.5-5.3,5.6-5.2c0.1,0-0.5,0.7-1.4,1.7
				c-0.9,1-2.3,2.4-3.8,3.8c-1.6,1.4-3.1,2.6-4.2,3.4C200,223.1,199.3,223.5,199.2,223.5z"/>
		</g>
		<g>
			<path class="st11" d="M185.8,218.1c0-0.1,0.8,0.2,2,0.6c1.2,0.4,2.9,1,4.8,1.8c1.9,0.7,3.5,1.4,4.7,1.9c1.2,0.5,1.9,0.9,1.9,0.9
				c0,0.1-0.8-0.2-2-0.6c-1.2-0.4-2.9-1-4.8-1.8c-1.9-0.7-3.5-1.4-4.7-1.9C186.5,218.5,185.7,218.2,185.8,218.1z"/>
		</g>
		<g>
			<path class="st11" d="M187.1,237.2c0-0.1,1,0.2,2.6,0.8c1.6,0.5,3.8,1.3,6.1,2.2c2.4,0.9,4.5,1.7,6.1,2.4
				c1.6,0.6,2.5,1.1,2.5,1.1c0,0.1-1-0.2-2.6-0.8c-1.6-0.5-3.8-1.3-6.1-2.2c-2.4-0.9-4.5-1.7-6.1-2.4
				C188,237.7,187.1,237.3,187.1,237.2z"/>
		</g>
		<g>
			<path class="st11" d="M204.1,243.4c0-0.1,0.7-0.8,2-2c1.3-1.2,3.1-2.8,5-4.7c1.9-1.8,3.6-3.6,4.9-4.8c1.2-1.2,2-2,2.1-1.9
				c0.1,0-0.6,0.9-1.8,2.2c-1.2,1.3-2.8,3.1-4.8,4.9c-1.9,1.9-3.8,3.4-5.1,4.6C205,242.8,204.1,243.5,204.1,243.4z"/>
		</g>
	</g>
	<g>
		<g>
			<g>
				<path class="st14" d="M213,325.1c14.6-14.2,14.9-36.1,11.1-55.2c-0.6-3.2-0.8-6.6-2.8-9.2c-2-2.6-5.8-3.9-8.5-2.1
					c-2.2,1.5-2.8,4.4-3.7,6.9c-1.3,3.3-3.5,6.3-6.4,8.4c-1.9,1.4-4.3,2.4-6.5,1.7c-3-1.1-4-4.8-4.5-8c-0.9-5.9-1.9-11.9-2.8-17.8
					c-0.5-3.2-1-6.4-2.5-9.3c-1.5-2.9-4.1-5.3-7.3-5.7c-3.2-0.4-6.6,2-6.8,5.2c-0.1,1.3,0.4,2.6,0.6,4c0.1,1.3-0.3,2.9-1.5,3.5
					c-1.2,0.6-2.6-0.1-3.7-0.9c-3.8-2.7-6.7-6.5-9.5-10.3s-5.5-7.7-9-10.7c-3.6-3-8.1-5.1-12.7-4.7c-4.6,0.5-9,4.1-9.4,8.8
					c-0.4,4.7,2.9,8.8,6.4,12c5.1,4.7,10.9,8.7,17.1,11.7c1.1,0.6,2.3,1.1,2.9,2.3c1,2-0.6,4.4-2.6,5.5c-2.2,1.2-4.9,1.3-7.3,2
					c-2.4,0.7-5,2.2-5.5,4.7c-0.8,3.5,2.5,6.4,5.5,8.2c6.1,3.6,12.8,6.2,19.7,7.5c2.5,0.5,5.1,0.8,7.2,2.2c2.2,1.3,3.8,4,3,6.5
					c-0.8,2.4-3.6,3.6-6.1,3.6c-2.5-0.1-4.9-1-7.4-1.5c-4.6-0.9-10.3,0.3-12.4,4.5c-1.4,2.8-1,6.3,0.4,9.1c1.4,2.8,3.7,5.1,6.1,7.1
					c8.4,7.1,18.4,12.3,29.2,14.2C193.9,331,203.5,330.5,213,325.1"/>
			</g>
		</g>
		<g>
			<g>
				<g>
					<path class="st11" d="M131,224.6c0,0,0.1,0.1,0.4,0.3c0.3,0.2,0.6,0.4,1.1,0.7c1,0.6,2.4,1.5,4.1,2.7c3.6,2.4,8.6,6,14.3,11.2
						c2.9,2.6,5.9,5.5,9,8.7c3.2,3.2,6.5,6.7,9.9,10.5c3.4,3.8,6.8,7.9,10.1,12.3c1.6,2.2,3.1,4.6,4.7,7c1.5,2.4,3.1,4.9,4.7,7.4
						c6.3,10,11.9,19.6,16.3,28.8c4.4,9.2,7.6,17.8,9.6,25.3c2,7.5,2.8,13.7,3.2,18c0.2,2.1,0.3,3.8,0.3,5c0,0.5,0,1,0.1,1.3
						c0,0.3,0,0.4,0,0.4c0,0,0-0.1,0-0.4c0-0.3,0-0.7,0-1.3c0-1.1-0.1-2.8-0.2-5c-0.3-4.3-1.1-10.6-3-18c-1.9-7.5-5.1-16.2-9.5-25.4
						c-4.4-9.2-10.1-19-16.3-28.9c-1.6-2.5-3.1-4.9-4.7-7.4c-1.5-2.4-3.1-4.8-4.7-7.1c-3.3-4.5-6.7-8.6-10.1-12.4
						c-3.4-3.8-6.8-7.2-10-10.5c-3.2-3.2-6.2-6.1-9.1-8.7c-5.7-5.1-10.8-8.7-14.5-11c-1.8-1.2-3.2-2-4.2-2.6
						c-0.5-0.3-0.8-0.5-1.1-0.6C131.2,224.6,131,224.5,131,224.6z"/>
				</g>
			</g>
		</g>
		<g>
			<g>
				<g>
					<path class="st11" d="M180.2,270.6c0,0,0.1-0.5,0.1-1.4c0-0.9,0-2.2,0-3.8c-0.1-3.2-0.3-7.7-0.6-12.7
						c-0.3-4.9-0.5-9.4-0.5-12.7c0-1.6,0-2.9,0-3.8c0-0.9,0-1.4,0-1.4c0,0-0.1,0.5-0.2,1.4c-0.1,0.9-0.2,2.2-0.2,3.8
						c-0.1,3.2,0,7.7,0.3,12.7c0.3,4.9,0.6,9.3,0.8,12.7c0.1,1.5,0.2,2.8,0.2,3.8C180.1,270.1,180.2,270.6,180.2,270.6z"/>
				</g>
			</g>
		</g>
		<g>
			<g>
				<g>
					<path class="st11" d="M138,269.6c0,0,0.6,0,1.7-0.1c1.1-0.1,2.6-0.2,4.5-0.3c3.8-0.2,9.1-0.3,14.9-0.1
						c5.8,0.2,11.1,0.5,14.9,0.9c1.9,0.2,3.4,0.4,4.5,0.5c1.1,0.1,1.7,0.2,1.7,0.1c0,0-0.6-0.2-1.6-0.4c-1.1-0.2-2.6-0.4-4.5-0.7
						c-3.8-0.5-9.1-0.9-15-1.1c-5.9-0.1-11.2,0-15,0.3c-1.9,0.1-3.5,0.3-4.5,0.5C138.6,269.4,138,269.5,138,269.6z"/>
				</g>
			</g>
		</g>
		<g>
			<g>
				<g>
					<path class="st11" d="M205.5,313.2c0,0,0.1-0.2,0.2-0.5c0.1-0.4,0.3-1,0.5-1.6c0.4-1.4,0.9-3.4,1.5-5.9c1.2-5,2.7-12,4.2-19.7
						c1.5-7.7,2.9-14.7,4-19.7c0.5-2.4,1-4.5,1.3-6c0.1-0.6,0.3-1.2,0.4-1.6c0.1-0.4,0.1-0.6,0.1-0.6c0,0-0.1,0.2-0.2,0.5
						c-0.1,0.4-0.3,1-0.5,1.6c-0.4,1.4-0.9,3.4-1.5,5.9c-1.2,5-2.7,12-4.2,19.7c-1.5,7.7-2.9,14.7-4,19.7c-0.5,2.4-1,4.5-1.3,6
						c-0.1,0.6-0.3,1.2-0.4,1.6C205.5,313,205.4,313.2,205.5,313.2z"/>
				</g>
			</g>
		</g>
		<g>
			<g>
				<g>
					<path class="st11" d="M148.2,304.5c0,0,0.2,0.1,0.6,0.1c0.4,0.1,1,0.2,1.7,0.3c1.5,0.2,3.6,0.6,6.1,0.9
						c5.2,0.8,12.3,2,20.2,3.3c7.9,1.3,15.1,2.4,20.3,3.1c2.6,0.3,4.7,0.6,6.2,0.8c0.7,0.1,1.2,0.1,1.7,0.2c0.4,0,0.6,0,0.6,0
						c0,0-0.2-0.1-0.6-0.1c-0.4-0.1-1-0.2-1.7-0.3c-1.5-0.2-3.6-0.6-6.1-0.9c-5.2-0.8-12.3-2-20.2-3.3c-7.9-1.3-15.1-2.4-20.3-3.1
						c-2.6-0.3-4.7-0.6-6.2-0.8c-0.7-0.1-1.2-0.1-1.7-0.2C148.4,304.5,148.2,304.5,148.2,304.5z"/>
				</g>
			</g>
		</g>
	</g>
</g>
<g id="Character">
	<g>
		<g>
			<path class="st14" d="M341.2,384.1c-0.4-0.1-1-0.2-1.8-0.3L274,356.3h-65.1l-64.1,25.3c-6.5,2.2-15.8,14.9-10.5,30.1
				c0.1,0.4,0.3,0.8,0.5,1.2c4.2,10.6,15.9,16.1,26.9,13.1c8.9-2.4,21.6-5.8,34.7-9.4l1.5,0l40.8-11.6c6.4,1.8,19.8,5.5,34.7,9.6
				l0,0h0c18.1,5,38.5,10.6,51.1,13.9c11,2.9,22.7-2.6,26.9-13.1c0.2-0.4,0.3-0.8,0.5-1.2C357,399,347.7,386.3,341.2,384.1z"/>
			<g>
				<path class="st11" d="M238.1,405.1c0,0,0.1,0,0.2-0.1c0.2-0.1,0.4-0.1,0.7-0.2c0.6-0.2,1.5-0.4,2.6-0.8c2.3-0.7,5.6-1.6,9.8-2.8
					l-0.1,0.2c-1.7-6.2-3.9-14.4-6.5-23.9l0.2,0.2c-2.2,0-4.4,0-6.7,0c-2.3,0-4.7,0.2-7.1,0.3c-4.8,0.3-9.9,0.5-15.1,0.8
					c-18.6,1.1-35.4,2.3-47.6,3.3c-6.1,0.5-11,0.9-14.4,1.2c-1.7,0.1-3,0.2-3.9,0.3c-0.4,0-0.8,0.1-1,0.1c-0.2,0-0.3,0-0.3,0
					c0,0,0.1,0,0.3-0.1c0.3,0,0.6-0.1,1-0.1c0.9-0.1,2.2-0.2,3.9-0.4c3.4-0.3,8.3-0.8,14.4-1.4c12.2-1.1,29-2.4,47.6-3.5
					c5.2-0.3,10.2-0.5,15.1-0.8c2.4-0.1,4.8-0.3,7.1-0.3c2.3,0,4.5,0,6.7,0l0.2,0l0,0.2c2.5,9.5,4.7,17.8,6.4,24l0,0.2l-0.2,0
					c-4.2,1.1-7.5,2-9.8,2.6c-1.1,0.3-2,0.5-2.6,0.7c-0.3,0.1-0.5,0.1-0.7,0.2C238.1,405.1,238.1,405.2,238.1,405.1z"/>
			</g>
			<g>
				<path class="st11" d="M216.9,378.4c-0.1,0.1-1.9-0.9-3.8-2.6c-2-1.6-3.3-3.2-3.2-3.3c0.1-0.1,1.6,1.3,3.5,2.9
					C215.3,377,217,378.2,216.9,378.4z"/>
			</g>
			<g>
				<path class="st11" d="M333.5,386.5c0,0-0.3,0-0.9,0c-0.6,0-1.5-0.1-2.6-0.2c-2.3-0.2-5.5-0.4-9.4-0.6c-8-0.5-19-1.3-31.1-2.1
					c-12.1-0.7-23.1-1.4-31.1-1.9c-3.9-0.2-7.2-0.4-9.4-0.6c-1.1-0.1-1.9-0.1-2.6-0.2c-0.6,0-0.9-0.1-0.9-0.1c0,0,0.3,0,0.9,0
					c0.6,0,1.5,0,2.6,0.1c2.3,0.1,5.5,0.2,9.4,0.4c8,0.4,19,1,31.1,1.7c12.1,0.8,23.1,1.6,31.1,2.2c3.9,0.3,7.1,0.6,9.4,0.8
					c1.1,0.1,1.9,0.2,2.6,0.3C333.2,386.4,333.5,386.4,333.5,386.5z"/>
			</g>
			<g>
				<path class="st11" d="M335.2,392.9c-0.2,0-0.1-1.5-0.7-3.1c-0.6-1.6-1.6-2.7-1.5-2.8c0.1-0.1,1.3,0.8,2,2.6
					C335.7,391.4,335.4,393,335.2,392.9z"/>
			</g>
			<g>
				<path class="st11" d="M239.1,385.2c-0.1-0.1,1-1.1,2.7-1.5c1.7-0.4,3.1-0.1,3.1,0c0,0.2-1.4,0.1-3,0.5
					C240.4,384.6,239.2,385.3,239.1,385.2z"/>
			</g>
			<g>
				<path class="st11" d="M240.9,389.3c0-0.1,1.2-0.4,2.7-0.6c1.5-0.2,2.7-0.2,2.7-0.1c0,0.1-1.2,0.4-2.7,0.6
					C242.2,389.5,240.9,389.5,240.9,389.3z"/>
			</g>
			<g>
				<path class="st11" d="M241.7,394.1c0-0.2,1.5-0.2,3.1-0.7c1.7-0.5,2.9-1.2,3-1.1c0.1,0.1-1.1,1.1-2.9,1.6
					C243.2,394.5,241.7,394.3,241.7,394.1z"/>
			</g>
			<g>
				<path class="st11" d="M243.3,399.3c0-0.2,1.4-0.3,3-0.9c1.6-0.6,2.7-1.4,2.8-1.3c0.1,0.1-0.9,1.2-2.6,1.8
					C244.8,399.6,243.3,399.4,243.3,399.3z"/>
			</g>
			<g>
				<path class="st11" d="M273.1,375.9c0.1,0.1-1,1.4-2.2,3c-1.2,1.6-2.1,3.1-2.3,3c-0.1-0.1,0.6-1.6,1.8-3.3
					C271.8,376.9,273,375.8,273.1,375.9z"/>
			</g>
		</g>
		<path class="st15" d="M401.3,313.8c-1.6,0.1-13.5,2.1-13.5,2.1c14.9-4,15.4-5.7,15-6.8s-13.9,2.7-13.9,2.7s1.4-2.2,1.6-5.1
			c0.4-4.3-4.8-8.3-6.4-7.7c-1.6,0.6-1,2.7-1,2.7c4.8,2.5,4,8.2,0.1,9.9c-4,1.7-6.1-3.3-3.8-5.4c5.1-4.6,2-5.5,2-5.5l-11.2,10
			c-0.2,0.1-9.2,2.3-9.2,2.3l0,0l-38.5,7.7l-15.7-23l-16.5,14.9c0,0,3,3.5,16.1,21.2c5.2,7.1,14.3,10.1,22.6,7.6l38.3-11.5l0.1,0.2
			l0-0.1l21.3-5.5c0,0,6.9-2,8.5-2.4c2.1-0.6,2-2.2,0.3-2.3c-0.6,0-8.6,0.3-8.6,0.3s11.5-3.2,11.9-3.3
			C404.3,315.6,402.8,313.7,401.3,313.8z"/>
		<path class="st15" d="M185.8,287.9l-15.7,23l-38.5-7.7c0,0-9-2.2-9.2-2.3l-11.2-10c0,0-3,0.9,2,5.5c2.3,2.1,0.1,7.1-3.8,5.4
			c-4-1.7-4.7-7.5,0.1-9.9c0,0,0.7-2.1-1-2.7c-1.6-0.6-6.7,3.4-6.4,7.7c0.2,2.8,1.6,5.1,1.6,5.1s-13.5-3.7-13.9-2.7
			c-0.4,1.1,0.2,2.8,15,6.8c0,0-12-2-13.5-2.1c-1.5-0.1-3,1.8,0.7,2.8c0.4,0.1,11.9,3.3,11.9,3.3s-8-0.3-8.6-0.3
			c-1.7,0-1.9,1.7,0.3,2.3c1.6,0.5,8.5,2.4,8.5,2.4l21.3,5.5l0,0.1l0.1-0.2l38.3,11.5c8.3,2.5,17.4-0.5,22.6-7.6
			c13.1-17.7,16.1-21.2,16.1-21.2L185.8,287.9z"/>
		<g>
			<g>
				<g>
					<path class="st12" d="M278.1,357.8l-6.5-29c0.3-4,5-29.6,5.6-31.2l21.1,30.7l24.6-10.3c0,0-20.9-35.1-30-48.1
						c-11.2-16-33-17.8-33-17.8l-28.1,0.4c0,0-19.6-4.4-39.3,22.1l-22.6,35.7l19.4,9.9c1.9,1,4.2,0.6,5.5-1.1l15.9-19.4l4.9,27.5
						l-6.7,23.3c0,0-6.1,0.8-5,8.3l0,0c0,0,20,9.4,38.9,8.2C261.4,365.7,278.1,357.8,278.1,357.8z"/>
				</g>
			</g>
			<g>
				<path class="st11" d="M267.6,310.6c0,0,0,0.2-0.1,0.5c-0.1,0.3-0.2,0.8-0.5,1.3c-0.4,1.1-1.2,2.7-2.2,4.6
					c-2.1,3.8-6,8.6-11.7,12.2c-5.6,3.6-11.6,5.1-16,5.5c-2.2,0.2-3.9,0.2-5.1,0.1c-0.6,0-1.1-0.1-1.4-0.1c-0.3,0-0.5-0.1-0.5-0.1
					c0,0,0.7,0,1.9,0c1.2,0,3,0,5.1-0.3c4.3-0.5,10.2-2,15.7-5.6c5.5-3.6,9.4-8.3,11.6-12c1.1-1.8,1.9-3.4,2.4-4.5
					C267.3,311.2,267.5,310.5,267.6,310.6z"/>
			</g>
			<g>
				<path class="st11" d="M301.2,327.5c-0.1,0.1-0.9-0.7-1.5-1.9c-0.6-1.2-0.9-2.3-0.7-2.3c0.1,0,0.6,0.9,1.2,2.1
					C300.7,326.5,301.3,327.4,301.2,327.5z"/>
			</g>
			<g>
				<path class="st11" d="M306.2,325.2c-0.1,0.1-0.6-0.9-1.2-2c-0.6-1.1-1.1-2-1-2.1c0.1-0.1,0.8,0.7,1.4,1.9
					C306,324.1,306.3,325.1,306.2,325.2z"/>
			</g>
			<g>
				<path class="st11" d="M311.9,322.1c-0.1,0.1-0.8-0.8-1.6-1.9c-0.7-1.1-1.3-2.1-1.1-2.2c0.1-0.1,0.8,0.8,1.6,1.9
					C311.5,321.1,312,322,311.9,322.1z"/>
			</g>
			<g>
				<path class="st11" d="M317.6,319.3c-0.1,0-0.5-0.8-1.1-1.8c-0.5-1-1-1.9-0.9-2c0.1-0.1,0.8,0.6,1.3,1.7
					C317.5,318.3,317.7,319.2,317.6,319.3z"/>
			</g>
			<g>
				<path class="st11" d="M173.5,311.2c-0.1-0.1,0.3-0.9,0.9-1.8c0.6-0.9,1.2-1.6,1.3-1.5c0.1,0.1-0.3,0.9-0.9,1.8
					C174.2,310.5,173.6,311.2,173.5,311.2z"/>
			</g>
			<g>
				<path class="st11" d="M181.4,310.1c0.1,0.1-0.5,1.1-1.3,2.2c-0.8,1.1-1.6,2-1.7,1.9c-0.1-0.1,0.5-1.1,1.3-2.2
					C180.5,310.9,181.3,310,181.4,310.1z"/>
			</g>
			<g>
				<path class="st11" d="M186.6,313.6c0.1,0.1-0.2,1-0.7,2.1c-0.5,1.1-1.1,2-1.2,1.9c-0.1-0.1,0.2-1,0.7-2.1
					C185.9,314.4,186.5,313.5,186.6,313.6z"/>
			</g>
			<g>
				<path class="st11" d="M191.7,316.8c0.1,0.1-0.5,1-1.3,1.9c-0.8,1-1.6,1.7-1.7,1.6c-0.1-0.1,0.5-1,1.3-1.9
					C190.9,317.5,191.6,316.7,191.7,316.8z"/>
			</g>
			<g>
				<path class="st11" d="M208,359.8c-0.1,0.1-0.9-1.6-0.5-3.8c0.4-2.2,1.7-3.5,1.8-3.4c0.1,0.1-0.9,1.5-1.2,3.5
					C207.6,358.1,208.2,359.8,208,359.8z"/>
			</g>
			<g>
				<path class="st11" d="M213.5,361.9c-0.1,0-0.3-0.3-0.5-0.9c-0.2-0.6-0.4-1.5-0.3-2.5c0.1-1,0.5-1.8,0.8-2.4
					c0.4-0.5,0.7-0.8,0.7-0.7c0.1,0.1-0.9,1.3-1.1,3.2C212.9,360.4,213.6,361.8,213.5,361.9z"/>
			</g>
			<g>
				<path class="st11" d="M219.8,357.9c0.1,0,0.2,1.3,0.1,3c-0.1,1.6-0.3,3-0.4,3c-0.1,0-0.2-1.3-0.1-3
					C219.4,359.2,219.6,357.8,219.8,357.9z"/>
			</g>
			<g>
				<path class="st11" d="M228.3,359.6c0.1,0.1-0.5,1.4-0.6,3.1c-0.2,1.8,0.2,3.2,0,3.2c-0.1,0.1-0.7-1.4-0.6-3.3
					C227.4,360.8,228.2,359.5,228.3,359.6z"/>
			</g>
			<g>
				<path class="st11" d="M235,360.6c0.1,0-0.1,1.4-0.1,3.2c0,1.7,0.2,3.1,0.1,3.2c-0.1,0-0.6-1.4-0.6-3.2
					C234.4,362,234.8,360.6,235,360.6z"/>
			</g>
			<g>
				<path class="st11" d="M243.2,366.8c-0.2,0-0.2-1.5-0.4-3.3c-0.3-1.8-0.7-3.3-0.5-3.3c0.1-0.1,0.8,1.4,1,3.3
					C243.6,365.3,243.4,366.8,243.2,366.8z"/>
			</g>
			<g>
				<path class="st11" d="M251.9,366.2c-0.2,0,0-1.4-0.2-3.1c-0.2-1.7-0.8-3-0.7-3c0.1-0.1,0.9,1.2,1.2,3
					C252.5,364.8,252.1,366.2,251.9,366.2z"/>
			</g>
			<g>
				<path class="st11" d="M260.5,364.3c-0.2,0-0.2-1.4-0.6-3.1c-0.4-1.7-1-3-0.9-3.1c0.1-0.1,1,1.2,1.4,2.9
					C260.9,362.8,260.7,364.3,260.5,364.3z"/>
			</g>
			<g>
				<path class="st11" d="M267.8,362.4c-0.2,0,0-1.5-0.5-3.1c-0.5-1.7-1.4-2.8-1.3-2.9c0.1-0.1,1.3,0.9,1.8,2.8
					C268.3,360.9,267.9,362.4,267.8,362.4z"/>
			</g>
			<g>
				<path class="st11" d="M274.1,360c-0.2,0,0-1.5-0.4-3.3c-0.4-1.8-1.2-3-1.1-3.1c0.1-0.1,1.2,1.1,1.6,3
					C274.7,358.5,274.3,360,274.1,360z"/>
			</g>
			<g>
				<path class="st11" d="M298.8,281.6c0,0-0.1,0-0.3,0.1c-0.2,0-0.5,0.1-0.8,0.1c-0.7,0.1-1.8,0.2-3.1,0.3c-1.3,0.2-3,0.3-4.9,0.5
					c-1.9,0.2-4.1,0.4-6.5,0.5c-4.8,0.3-10.6,0.6-17,0.7c-6.4,0.1-13.4,0.1-20.8-0.2c-7.4-0.3-14.4-0.8-20.8-1.4
					c-6.4-0.6-12.1-1.4-16.9-2.1c-2.4-0.3-4.6-0.7-6.4-1c-1.9-0.3-3.5-0.6-4.9-0.9c-1.3-0.3-2.3-0.4-3.1-0.6
					c-0.3-0.1-0.6-0.1-0.8-0.2c-0.2,0-0.3-0.1-0.3-0.1c0,0,0.1,0,0.3,0c0.2,0,0.5,0.1,0.8,0.1c0.7,0.1,1.8,0.3,3.1,0.5
					c1.3,0.2,3,0.5,4.9,0.8c1.9,0.3,4.1,0.6,6.5,0.9c4.8,0.7,10.5,1.4,16.9,2c6.4,0.6,13.4,1.1,20.7,1.4c7.4,0.3,14.4,0.3,20.8,0.3
					c6.4-0.1,12.1-0.3,17-0.6c2.4-0.1,4.6-0.3,6.5-0.4c1.9-0.1,3.6-0.3,4.9-0.4c1.3-0.1,2.4-0.2,3.1-0.2c0.3,0,0.6,0,0.8-0.1
					C298.7,281.6,298.8,281.6,298.8,281.6z"/>
			</g>
			<g class="st13">
				<path d="M231.3,334.8c-2-0.7-4-1.5-5.5-3s-2.1-4-0.9-5.8c1-1.4,2.9-2,4.6-1.8c1.7,0.1,3.4,0.8,5.1,1.1
					c5.1,1.1,10.6-0.2,14.6-3.5c2.9-2.4,5-5.7,7.7-8.4c0.9-0.8,1.9-1.6,3.1-1.7c2.1-0.2,3.7,2,3.7,4.1c0,2.1-1.2,4-2.5,5.6
					c-7.3,9.3-19.4,14.6-31.2,13.7"/>
			</g>
			<g class="st13">
				<path d="M212.1,351.7c8.2,5.1,18.2,7,27.9,6.8c9.7-0.2,19.3-2.2,28.8-4.1c0.9-0.2,1.8-0.4,2.4-1c0.6-0.6,0.8-1.8,0.1-2.3
					c-17.5,7.6-38.2,7.2-55.4-1c-1-0.5-2.1-1-3.1-0.7c-1.1,0.3-1.7,1.9-0.8,2.5"/>
			</g>
		</g>
		<path class="st15" d="M296.3,386l-46.4,9.9l-4.2-15.9l17.2-0.8c0,0,2.1-3.4,4.5-3.1s4.1,3.3,5.9,3.4
			C274.9,379.7,296.8,376.5,296.3,386z"/>
		<g>
			<path class="st15" d="M192.6,273.5c-0.3,0.4,106.4,7.2,106.4,7.2s-8.8-27-42.4-28.7S206.5,251.7,192.6,273.5z"/>
			<g>
				<path class="st15" d="M257.1,254.9c0.2-7.1,0.6-14.5,0.6-14.5s9.1-1.2,11.2-13.1c2.1-11.3,0.9-37.5,0.9-37.5l0,0
					c-12.8-5.7-28.3-2.7-37.8,7.6l0,0l-0.8,57.5c-0.1,6.7,5.5,12.1,12.6,12.2h0C250.9,267.1,256.9,261.7,257.1,254.9z"/>
			</g>
			<g>
				<g>
					<path class="st11" d="M257.1,221c0-0.1,1-0.2,2.7-0.4c0.4,0,0.8-0.1,0.9-0.4c0.1-0.3-0.1-0.8-0.2-1.3c-0.4-1-0.7-2.1-1.1-3.2
						c-1.6-4.6-2.7-8.4-2.5-8.4c0.2-0.1,1.6,3.6,3.2,8.2c0.4,1.1,0.7,2.2,1.1,3.2c0.1,0.5,0.4,1,0.2,1.7c-0.1,0.3-0.4,0.5-0.7,0.6
						c-0.3,0.1-0.5,0.1-0.7,0.1C258.1,221.1,257.1,221.1,257.1,221z"/>
				</g>
			</g>
			<g>
				<path class="st16" d="M257.7,240.4c0,0-7.9,0.3-15.6-4.7c0,0,3.6,8.3,15.4,7.5L257.7,240.4z"/>
			</g>
			<g>
				<path class="st12" d="M256.3,224.9c-0.6-0.8-1.6-1.3-2.6-1.2c-0.7,0.1-1.4,0.4-1.9,0.9c-0.4,0.6-0.6,1.4-0.2,2
					c0.4,0.6,1.3,0.8,2.1,0.6c0.8-0.2,1.5-0.7,2.1-1.2c0.2-0.1,0.4-0.3,0.5-0.5C256.4,225.4,256.5,225.1,256.3,224.9"/>
			</g>
			<g>
				<g>
					<path class="st11" d="M252.3,222c0.3,0,0.2,1.8,1.7,3.1c1.5,1.3,3.4,1.2,3.4,1.4c0,0.1-0.4,0.3-1.2,0.3c-0.8,0-1.9-0.3-2.8-1.1
						c-0.9-0.8-1.3-1.8-1.3-2.6C251.9,222.4,252.1,222,252.3,222z"/>
				</g>
			</g>
			<g>
				<path class="st11" d="M251.9,210.7c0,0-0.2,0.4-0.7,0.7c-0.5,0.4-1.4,0.7-2.4,0.7c-1,0-1.9-0.4-2.4-0.7
					c-0.5-0.4-0.8-0.7-0.7-0.8c0.1-0.1,1.3,1,3.1,1C250.6,211.6,251.8,210.6,251.9,210.7z"/>
			</g>
			<g>
				<path class="st11" d="M268.5,210.7c0,0-0.2,0.3-0.6,0.6c-0.5,0.3-1.2,0.5-2.1,0.5c-0.8,0-1.6-0.3-2-0.6
					c-0.5-0.3-0.7-0.6-0.6-0.6c0.1-0.1,1.1,0.7,2.7,0.7C267.3,211.4,268.4,210.6,268.5,210.7z"/>
			</g>
			<g>
				<path class="st11" d="M252.5,204.3c-0.1,0.4-1.6,0.4-3.4,0.6c-1.7,0.2-3.2,0.6-3.4,0.2c-0.2-0.4,1.1-1.5,3.2-1.7
					C251.1,203.1,252.7,203.9,252.5,204.3z"/>
			</g>
			<g>
				<path class="st11" d="M268.5,205.9c-0.3,0.4-1.5-0.1-3.1-0.5c-1.5-0.4-2.9-0.5-3-1c-0.1-0.4,1.4-1,3.3-0.5
					C267.7,204.3,268.8,205.5,268.5,205.9z"/>
			</g>
			<g>
				<path class="st11" d="M272.3,188.9c-1.9-3-5.6-4.4-9-5.4c-3.6-1-7.2-1.8-10.9-2.3c-2.3-0.3-4.6-0.5-6.8,0.2
					c-0.3,0.1-0.5,0.2-0.7,0.3l0,0c-5.2-0.1-9.2,1.3-12.2,3.4c-1.6,1-3,2.2-3.8,3.7c0,0,0,0,0,0c-1.2,1.6-2.2,3.3-3,5.1
					c-3.5,6.1-8.1,14.7-8.8,19.2c-1,7.1,0.5,14.6,4,20.5c0.9,1.5,2,2.9,3.1,4.2c-2,1.8-3.3,4.4-3.6,7c-0.3,2.9,0.7,5.8,2.6,7.9
					c-1.4,1.1-2.4,2.7-2.8,4.4c-0.8,3.3,0.8,7,3.7,8.8c0.2,0.1,0.4,0.2,0.5,0.3c-0.2,0.1-0.3,0.3-0.5,0.5c-1.2,1.4-1.6,3.3-1.4,5.1
					c0.2,1.8,1,3.5,2,5c1,1.4,2.3,2.9,4,3c0.2,0,0.5,0,0.7,0c-1.4,0.6-2.3,2-2.4,3.5c0,1.7,1.2,3.3,2.8,3.8c0.6,0.2,1.2,0.2,1.7,0.6
					c0.5,0.4,0.6,1,0.5,1.6c-0.1,0.6-0.4,1.1-0.6,1.7c0.9-0.1,1.7-0.8,1.9-1.6c0,0.6,0,1.1,0,1.7c1.3-0.8,2.2-2.2,2.7-3.7
					c0.5-1.5,0.7-3.1,0.4-4.6s-1.3-2.9-2.6-3.7c-0.6-0.4-1.4-0.5-2.1-0.6c0.6-0.7,1.1-1.5,1.3-2.4c0.5-2,0-4.1-0.5-6.1
					c-0.3-1.2-0.6-2.4-1.3-3.5c-0.2-0.3-0.5-0.7-0.8-1c0.9-0.9,1.4-2.2,1.7-3.5c0.6-2.4,0.5-5.2-0.9-7.3c-0.1-0.2-0.3-0.4-0.4-0.6
					c0.9-1.1,1.3-2.6,1.6-4.1c0.4-2.1,0.7-4.2,0.6-6.3c1.2-1,2.6-2.5,3.6-4.8c3.7-7.9-0.6-19.2-0.6-19.2c6.2-6.2,7.4-17.9,7.5-24.8
					c1.1,1.5,2.4,2.8,3.9,3.9c1.1,0.8,2.4,1.4,3.8,1.2c1.3-0.2,2.6-1.5,2.3-2.8c0.8,1.5,1.6,3.1,2.8,4.3c1.2,1.2,2.9,2.1,4.6,1.8
					c1.7-0.2,3.3-1.7,3.2-3.4c1,1.4,2.1,2.7,3.6,3.5c1.5,0.7,3.6,0.6,4.7-0.6c0.9-1,1-2.4,1.1-3.7
					C273.9,195.7,274.1,191.9,272.3,188.9z"/>
				<g>
					<path class="st14" d="M224.3,232.2c0,0-0.1-0.1-0.2-0.4c-0.1-0.3-0.2-0.7-0.3-1.2c-0.2-1.1-0.1-2.7,0.7-4.5
						c0.7-1.8,2.2-3.6,4-5.4c1.8-1.8,3.9-3.5,5.6-5.8c3.5-4.6,5.3-9.6,6.5-13.1c0.6-1.7,1.1-3.2,1.4-4.2c0.3-1,0.5-1.6,0.6-1.5
						c0,0-0.1,0.6-0.4,1.6c-0.3,1-0.7,2.5-1.3,4.3c-1.2,3.6-2.9,8.6-6.5,13.3c-1.8,2.3-3.9,4.1-5.7,5.8c-1.8,1.7-3.2,3.5-4,5.2
						c-0.8,1.7-0.9,3.3-0.8,4.3C224.1,231.6,224.4,232.2,224.3,232.2z"/>
				</g>
				<g>
					<path class="st14" d="M230.3,253.7c0,0-0.3,0-0.7-0.2c-0.4-0.2-1-0.5-1.7-1c-1.3-1-3-2.8-3.9-5.2c-1-2.4-1-4.8-0.7-6.5
						c0.1-0.8,0.4-1.5,0.5-1.9c0.2-0.4,0.3-0.7,0.3-0.6c0.1,0-0.3,1-0.5,2.6c-0.2,1.6-0.1,3.9,0.8,6.2c0.9,2.3,2.4,4,3.7,5.1
						C229.4,253.2,230.4,253.6,230.3,253.7z"/>
				</g>
				<g>
					<path class="st14" d="M229.7,255.4c0,0.1-0.4,0.3-1.2,0.3c-0.8,0-1.9-0.2-3-0.8c-1.1-0.6-1.8-1.5-2.2-2.2
						c-0.4-0.7-0.4-1.2-0.4-1.2c0.1,0,0.3,0.4,0.7,1c0.4,0.6,1.2,1.4,2.1,1.9c1,0.6,2,0.8,2.8,0.8
						C229.2,255.4,229.7,255.4,229.7,255.4z"/>
				</g>
				<g>
					<path class="st14" d="M225.6,264.6c0-0.1,0.5-0.4,1.1-1c0.7-0.6,1.5-1.6,2-2.9c0.5-1.3,0.6-2.6,0.6-3.5
						c-0.1-0.9-0.2-1.5-0.1-1.5c0.1,0,0.4,0.5,0.5,1.5c0.2,1,0.1,2.3-0.5,3.7c-0.6,1.4-1.5,2.4-2.3,3
						C226.2,264.5,225.6,264.7,225.6,264.6z"/>
				</g>
				<g>
					<path class="st14" d="M230.3,265.3c0.1,0,0,0.4-0.4,0.8c-0.4,0.5-1,1-1.9,1.2c-0.9,0.2-1.7-0.1-2.2-0.4
						c-0.5-0.3-0.7-0.6-0.7-0.6c0.1-0.1,0.3,0.1,0.8,0.3c0.5,0.2,1.2,0.3,2,0.2c0.8-0.1,1.4-0.6,1.8-0.9
						C230.1,265.6,230.3,265.3,230.3,265.3z"/>
				</g>
				<g>
					<path class="st14" d="M231.2,278.2c-0.2,0.1-1.1-2.8-3.1-5.7c-2-3-4.4-4.8-4.2-5c0-0.1,0.7,0.3,1.6,1.1c0.9,0.8,2.1,2,3.1,3.5
						c1,1.5,1.8,3,2.2,4.2C231.1,277.5,231.2,278.2,231.2,278.2z"/>
				</g>
				<g>
					<path class="st14" d="M232.7,278.6c0.1,0.1-0.6,0.6-1.5,1c-0.9,0.3-1.8,0.4-1.8,0.2c0-0.1,0.7-0.4,1.6-0.7
						C231.9,278.7,232.6,278.4,232.7,278.6z"/>
				</g>
				<g>
					<path class="st14" d="M219,230.7c0,0-0.1-0.2-0.1-0.5c-0.1-0.3-0.1-0.8-0.2-1.4c-0.2-1.2-0.5-2.9-0.5-5.1
						c0-2.2,0.2-4.9,1.6-7.5c0.7-1.3,1.6-2.5,2.9-3.5c1.2-1,2.7-1.8,4.2-2.5c1.5-0.7,3-1.4,4.3-2.2c1.3-0.8,2.5-1.7,3.6-2.6
						c2.1-1.9,3.6-4,4.7-5.9c2.1-3.8,2.4-6.5,2.6-6.5c0,0,0,0.2-0.1,0.5c-0.1,0.3-0.1,0.8-0.3,1.4c-0.3,1.2-0.9,2.9-1.9,4.8
						c-1,1.9-2.6,4.1-4.7,6c-1.1,1-2.3,1.9-3.6,2.7c-1.3,0.8-2.8,1.5-4.3,2.2c-1.5,0.7-2.9,1.4-4.1,2.4c-1.2,0.9-2.1,2.1-2.8,3.3
						c-1.3,2.5-1.6,5.1-1.6,7.3c0,2.2,0.2,3.9,0.3,5.1c0.1,0.6,0.1,1,0.1,1.4C219,230.5,219,230.7,219,230.7z"/>
				</g>
				<g>
					<path class="st14" d="M254.6,192.7c0,0-0.2,0.2-0.5,0.3c-0.4,0.2-0.9,0.3-1.7,0.4c-1.5,0.1-3.5-0.6-5.1-2.2
						c-1.6-1.6-2.4-3.5-2.9-4.8c-0.5-1.3-0.7-2.2-0.7-2.2c0.1,0,0.4,0.8,1,2.1c0.6,1.3,1.4,3.1,2.9,4.6c1.5,1.5,3.4,2.2,4.8,2.2
						C253.8,193,254.6,192.6,254.6,192.7z"/>
				</g>
				<g>
					<path class="st14" d="M261.6,195.4c0,0.1-0.5,0.2-1.5,0.2c-0.9,0-2.2-0.4-3.4-1.2c-1.2-0.8-1.9-1.9-2.3-2.8
						c-0.4-0.9-0.4-1.4-0.3-1.4c0.1,0,0.2,0.5,0.7,1.3c0.4,0.8,1.2,1.7,2.3,2.5c1.1,0.8,2.3,1.1,3.1,1.3
						C261,195.4,261.5,195.3,261.6,195.4z"/>
				</g>
			</g>
		</g>
	</g>
</g>
</svg>
