<svg width="36" height="36" viewBox="0 0 36 36" fill="none" xmlns="http://www.w3.org/2000/svg">
    <path d="M24.9458 29.5844L24.3154 21.5832L27.3773 21.199L28.7282 29.3584L24.9458 29.5844Z" fill="#2173AB"/>
    <path d="M20.8029 5.40002L9.36572 8.18009L14.7016 13.921L20.8029 5.40002Z" fill="#3598DB"/>
    <path d="M11.167 29.8104L12.1126 20.5209L14.8593 21.1763L15.152 29.9234L11.167 29.8104Z" fill="#3598DB"/>
    <path d="M0.360225 27.0529L0 26.6687L0.562852 25.5386L1.39587 25.6968L0.360225 27.0529Z" fill="#297FB8"/>
    <path d="M2.47673 10.2143L1.57617 15.4128L7.49737 24.4311L11.4373 17.4018L11.8876 16.543L9.36604 8.18015L4.54803 8.06714L2.47673 10.2143Z" fill="#2173AB"/>
    <path d="M4.70563 27.0755L2.47674 28.5446L0.540527 25.5385L1.84634 25.1091L4.70563 27.0755Z" fill="#3598DB"/>
    <path d="M3.8501 23.3461L1.57617 15.3901L7.40732 22.1934L4.9758 25.5159L3.8501 23.3461Z" fill="#3598DB"/>
    <path d="M6.73189 28.9741L2.47673 28.5447L7.99268 20.8826L8.48798 27.3468L6.73189 28.9741Z" fill="#297FB8"/>
    <path d="M7.87995 19.9558L2.6792 24.0242L9.23079 21.3797L9.52348 20.0914L7.87995 19.9558Z" fill="#2A87C4"/>
    <path d="M12.3377 16.7012L7.87988 19.9559L10.0412 22.4421L11.0769 20.8148L12.3377 16.7012Z" fill="#297FB8"/>
    <path d="M11.0771 20.8147L14.1391 13.3334L11.8877 16.5429L11.4824 17.334L11.0771 20.8147Z" fill="#3598DB"/>
    <path d="M16.6603 9.7396L9.36572 8.18005L11.8873 16.5429L16.6603 9.7396Z" fill="#297FB8"/>
    <path d="M27.8501 29.9686L26.5894 21.8996L33.6137 18.8031L31.6325 29.7426L27.8501 29.9686Z" fill="#3598DB"/>
    <path d="M35.9998 16.1361L34.8966 23.0524L34.6265 15.1416L35.9998 16.1361Z" fill="#297FB8"/>
    <path d="M36.0001 16.136L32.8706 14.4182L34.3565 11.5026L36.0001 16.136Z" fill="#3598DB"/>
    <path d="M11.0093 20.6791L14.1387 13.356L21.4333 16.3394L15.0843 22.103L11.0093 20.6791Z" fill="#2A87C4"/>
    <path d="M20.4205 21.9222L14.1841 14.6217L20.8032 5.40002L26.5893 21.8996L20.4205 21.9222Z" fill="#2679AF"/>
    <path d="M30.7094 7.16299L20.8032 5.40002L26.5893 21.8996L33.6137 18.8031L34.807 11.5704L30.7094 7.16299Z" fill="#297FB8"/>
    <path d="M14.724 30.5562L14.1387 13.3334L20.4201 21.9222L18.709 30.6692L14.724 30.5562Z" fill="#297FB8"/>
    <path d="M26.1614 20.7242L22.5366 21.9222L26.5891 21.8996L26.1614 20.7242Z" fill="#2A87C4"/>
</svg>
