<svg width="212" height="207" fill="none" xmlns="http://www.w3.org/2000/svg"><ellipse cx="97.892" cy="109.737" rx="97.892" ry="97.263" fill="#fff"/><g clip-path="url(#clip0)"><path fill="#fff" d="M35.542 47.788h124.699v124.197H35.542z"/><path fill-rule="evenodd" clip-rule="evenodd" d="M81.262 47.788c-6.893.005-12.472 5.566-12.467 12.418-.005 6.851 5.579 12.412 12.472 12.417H93.74V60.21c.005-6.852-5.579-12.413-12.477-12.423.005 0 .005 0 0 0zm0 33.12H48.014c-6.893.005-12.477 5.565-12.472 12.417-.01 6.851 5.574 12.412 12.467 12.422h33.253c6.893-.005 12.477-5.565 12.472-12.417.005-6.857-5.579-12.417-12.472-12.422z" fill="#36C5F0"/><path fill-rule="evenodd" clip-rule="evenodd" d="M160.241 93.325c.005-6.852-5.579-12.412-12.472-12.417-6.893.005-12.477 5.565-12.472 12.417v12.422h12.472c6.893-.005 12.477-5.565 12.472-12.422zm-33.253 0v-33.12c.005-6.846-5.574-12.407-12.467-12.417-6.893.005-12.477 5.566-12.472 12.418v33.119c-.01 6.851 5.574 12.412 12.467 12.422 6.893-.005 12.477-5.565 12.472-12.422z" fill="#2EB67D"/><path fill-rule="evenodd" clip-rule="evenodd" d="M114.516 171.985c6.893-.005 12.477-5.565 12.472-12.417.005-6.851-5.579-12.412-12.472-12.417h-12.472v12.417c-.005 6.847 5.579 12.407 12.472 12.417zm0-33.124h33.253c6.893-.005 12.477-5.565 12.472-12.417.01-6.852-5.574-12.412-12.467-12.422h-33.253c-6.893.005-12.477 5.565-12.472 12.417-.005 6.857 5.574 12.417 12.467 12.422z" fill="#ECB22E"/><path fill-rule="evenodd" clip-rule="evenodd" d="M35.542 126.444c-.005 6.852 5.579 12.412 12.472 12.417 6.893-.005 12.477-5.565 12.472-12.417v-12.417H48.014c-6.893.005-12.477 5.565-12.472 12.417zm33.254 0v33.119c-.01 6.852 5.573 12.412 12.466 12.422 6.894-.005 12.477-5.565 12.472-12.417v-33.114c.01-6.852-5.573-12.412-12.467-12.422-6.898 0-12.477 5.56-12.471 12.412 0 .005 0 0 0 0z" fill="#E01E5A"/></g><rect x="132.53" y="2" width="67.47" height="67.037" rx="33.518" fill="#fff" filter="url(#filter0_d)"/><path d="M192.042 34.762a1.042 1.042 0 0 0-.146-.285l-6.356-7.47a.851.851 0 0 0-.803-.266l-7.347 1.63a.794.794 0 0 0-.562.461.699.699 0 0 0 .093.697l5.242 6.961-10.452 2.68-5.242 1.355-1.229-1.944-12.287-19.291a.798.798 0 0 0-.792-.354L140.98 20.35a.806.806 0 0 0-.605.402.747.747 0 0 0 0 .697l4.961 8.797 8.201 14.54c.177.314.552.461.917.373l11.265-2.886 6.034 9.474a.793.793 0 0 0 .687.363c.084 0 .178-.01.261-.04l17.538-5.782a.79.79 0 0 0 .501-.481.761.761 0 0 0-.105-.668l-5.679-7.53-.167-.216 3.512-.903 3.178-.815a.797.797 0 0 0 .553-.49.65.65 0 0 0 .01-.423zm-37.39 8.787l-6.284-11.143-6.044-10.711 9.535-1.208 11.275 17.721 1.73 2.73-10.212 2.61zm34.056 1.65l-15.924 5.252-5.46-8.59 12.151-3.113 3.668-.942.166.216 5.399 7.176zm-4.898-9.121l-4.898-6.5 5.7-1.266 5.283 6.214-6.085 1.552z" fill="#00795D"/><defs><filter id="filter0_d" x="120.53" y="0" width="91.47" height="91.037" filterUnits="userSpaceOnUse" color-interpolation-filters="sRGB"><feFlood flood-opacity="0" result="BackgroundImageFix"/><feColorMatrix in="SourceAlpha" values="0 0 0 0 0 0 0 0 0 0 0 0 0 0 0 0 0 0 127 0"/><feOffset dy="10"/><feGaussianBlur stdDeviation="6"/><feColorMatrix values="0 0 0 0 0 0 0 0 0 0 0 0 0 0 0 0 0 0 0.07 0"/><feBlend in2="BackgroundImageFix" result="effect1_dropShadow"/><feBlend in="SourceGraphic" in2="effect1_dropShadow" result="shape"/></filter><clipPath id="clip0"><path fill="#fff" d="M35.542 47.788h124.699v124.197H35.542z"/></clipPath></defs></svg>
