<svg width="279" height="270" fill="none" xmlns="http://www.w3.org/2000/svg"><path d="M110.094 49.97c0 2.339 2.345 4.522 6.043 5.753-.739 3.62-.132 6.538 1.892 7.675 2.08 1.17 5.18.36 8.122-2.145 2.868 2.404 5.766 3.35 7.788 2.21 2.079-1.172 2.711-4.288 1.952-8.021 3.851-1.24 6.006-3.102 6.006-5.473 0-2.284-2.35-4.261-5.997-5.484.816-3.888.124-6.735-1.984-7.919-2.032-1.141-4.964-.146-7.874 2.32-3.027-2.618-5.93-3.417-8.036-2.23-2.031 1.145-2.61 4.116-1.869 7.803-3.573 1.213-6.043 3.235-6.043 5.51z" fill="#fff"/><path d="M135.127 45.7a19.55 19.55 0 00-.909-.28c.05-.2.097-.401.14-.604.688-3.253.239-5.875-1.298-6.738-1.473-.827-3.883.036-6.317 2.098-.24.204-.474.414-.703.629a16.157 16.157 0 00-.468-.421c-2.551-2.206-5.107-3.135-6.642-2.27-1.472.83-1.908 3.295-1.288 6.378.061.306.131.61.208.911-.361.1-.711.207-1.045.32-2.99 1.016-4.9 2.607-4.9 4.258 0 1.705 2.05 3.414 5.165 4.451.252.084.507.161.763.233a17.38 17.38 0 00-.221.982c-.591 3.03-.13 5.436 1.338 6.26 1.517.852 4.061-.023 6.54-2.133.196-.167.392-.343.589-.529.248.233.503.46.763.678 2.401 2.012 4.772 2.825 6.238 1.998 1.515-.855 2.007-3.44 1.368-6.584-.048-.24-.105-.485-.169-.735.179-.051.354-.104.525-.16 3.238-1.044 5.345-2.734 5.345-4.461 0-1.657-1.972-3.259-5.022-4.282z" fill="#53C1DE"/><path d="M134.425 53.327c-.155.05-.313.098-.475.144a26.982 26.982 0 00-1.43-3.484 27.128 27.128 0 001.375-3.434c.289.081.569.167.839.258 2.614.876 4.208 2.172 4.208 3.17 0 1.063-1.722 2.444-4.517 3.346zm-1.16 2.239c.282 1.39.323 2.647.136 3.63-.169.883-.507 1.472-.925 1.708-.89.501-2.794-.15-4.846-1.871a16.964 16.964 0 01-.711-.63 27.677 27.677 0 002.368-2.929 28.87 28.87 0 003.825-.574c.058.227.109.448.153.666zm-11.731 5.251c-.869.3-1.562.308-1.981.072-.891-.5-1.261-2.432-.756-5.023.06-.306.129-.61.206-.913 1.157.249 2.438.428 3.807.536a28.68 28.68 0 002.424 2.918c-.175.165-.355.326-.538.482-1.096.933-2.194 1.595-3.162 1.928zm-4.074-7.497c-1.377-.458-2.514-1.054-3.294-1.704-.7-.584-1.054-1.164-1.054-1.635 0-1.002 1.533-2.28 4.09-3.148.321-.108.646-.208.973-.298.353 1.12.817 2.29 1.376 3.474a28.17 28.17 0 00-1.394 3.524 15.276 15.276 0 01-.697-.213zm1.366-9.053c-.531-2.643-.179-4.636.709-5.136.945-.532 3.034.227 5.236 2.132.141.121.282.249.424.38a28.167 28.167 0 00-2.406 2.9c-1.329.12-2.6.313-3.769.571-.072-.28-.137-.563-.194-.848zm12.183 2.93a37.6 37.6 0 00-.859-1.376 27.2 27.2 0 012.575.438c-.243.76-.547 1.554-.904 2.369-.261-.483-.532-.96-.812-1.432zm-4.968-4.714a25.587 25.587 0 011.662 1.955 36.467 36.467 0 00-3.338-.001c.548-.705 1.11-1.36 1.676-1.954zm-5 4.722c-.278.468-.543.942-.798 1.422a25.456 25.456 0 01-.897-2.38c.806-.176 1.665-.32 2.56-.428-.299.455-.588.917-.865 1.386zm.891 7.022c-.925-.1-1.797-.237-2.603-.408.25-.784.557-1.6.916-2.428a34.149 34.149 0 001.687 2.836zm4.142 3.334a26.56 26.56 0 01-1.699-1.98c.54.02 1.092.03 1.652.03.576 0 1.145-.012 1.705-.036a25.088 25.088 0 01-1.658 1.986zm5.759-6.212c.377.838.695 1.648.948 2.42-.819.181-1.703.328-2.634.437.298-.461.587-.928.867-1.4.284-.48.557-.966.819-1.457zm-1.865.87a37.425 37.425 0 01-1.355 2.13c-.838.057-1.703.088-2.586.088-.879 0-1.734-.027-2.557-.08a32.908 32.908 0 01-2.585-4.348 32.976 32.976 0 012.57-4.34 35.081 35.081 0 015.149 0c.479.69.933 1.395 1.361 2.116.43.723.836 1.459 1.217 2.207a35.222 35.222 0 01-1.213 2.227h-.001zm2.489-13.123c.946.532 1.314 2.674.72 5.483-.039.183-.082.366-.127.547a29.595 29.595 0 00-3.777-.58 27.754 27.754 0 00-2.387-2.903c.212-.199.428-.392.649-.58 2.086-1.768 4.034-2.465 4.922-1.967z" fill="#fff"/><path d="M126.027 47.524c1.393 0 2.522 1.1 2.522 2.457 0 1.356-1.129 2.456-2.522 2.456-1.393 0-2.522-1.1-2.522-2.456 0-1.357 1.129-2.457 2.522-2.457z" fill="#53C1DE"/><circle cx="135" cy="135" r="19.5" stroke="#000" stroke-opacity=".07" stroke-linejoin="round" stroke-dasharray="2 2"/><circle cx="135" cy="135" r="46.5" stroke="#000" stroke-opacity=".07" stroke-linejoin="round" stroke-dasharray="2 2"/><circle cx="132" cy="136" r="85.5" stroke="#000" stroke-opacity=".07" stroke-linejoin="round" stroke-dasharray="2 2"/><circle cx="135" cy="135" r="134.5" stroke="#000" stroke-opacity=".07" stroke-linejoin="round" stroke-dasharray="2 2"/><path fill-rule="evenodd" clip-rule="evenodd" d="M150.82 141.56a.372.372 0 01.014.1v5.275a.385.385 0 01-.193.334l-4.42 2.549v5.052a.385.385 0 01-.192.334l-9.227 5.32a.443.443 0 01-.068.028c-.008.003-.016.008-.026.011a.383.383 0 01-.196 0c-.011-.003-.02-.009-.031-.013-.021-.008-.043-.014-.063-.026l-9.225-5.32a.382.382 0 01-.193-.334v-15.825a.43.43 0 01.013-.101c.003-.011.01-.021.014-.032.007-.02.014-.041.024-.06.008-.012.018-.022.027-.034.011-.015.021-.031.034-.044.011-.011.025-.02.038-.029.014-.012.026-.024.042-.033l4.613-2.66a.384.384 0 01.384 0l4.613 2.66h.001c.015.009.028.021.042.032.013.01.027.019.038.029.013.014.023.03.034.045.008.012.019.022.026.034.011.02.017.04.025.06.004.011.011.021.014.033a.422.422 0 01.013.1v9.884l3.844-2.216v-5.053c0-.034.005-.068.013-.1.004-.012.01-.022.014-.033.007-.02.014-.041.025-.06.007-.012.017-.022.026-.034.011-.015.021-.031.034-.044.011-.012.025-.02.038-.029.014-.012.027-.024.042-.033l4.614-2.661a.388.388 0 01.384 0l4.612 2.661c.017.009.029.021.044.032.012.01.026.018.037.029.013.014.023.03.034.045.009.012.019.022.026.034.011.019.017.04.025.06.004.011.011.021.013.033zm-.755 5.153v-4.387l-1.614.931-2.23 1.286v4.386l3.844-2.216zm-4.613 7.935v-4.39l-2.193 1.255-6.264 3.581v4.431l8.457-4.877zm-17.683-14.937v14.937l8.457 4.876v-4.43l-4.418-2.504-.002-.001-.002-.001c-.015-.009-.027-.021-.041-.032-.012-.009-.026-.017-.036-.028l-.001-.001c-.013-.012-.022-.027-.032-.04-.01-.013-.021-.024-.029-.038v-.001c-.009-.015-.014-.032-.021-.048-.006-.015-.014-.028-.018-.044-.005-.018-.006-.038-.007-.056-.002-.015-.006-.029-.006-.044v-10.328l-2.23-1.287-1.614-.929v-.001zm4.229-2.882l-3.844 2.216 3.843 2.216 3.843-2.216-3.843-2.216h.001zm1.998 13.829l2.23-1.285v-9.662l-1.614.931-2.23 1.286v9.661l1.614-.931zm11.841-11.214l-3.843 2.216 3.843 2.216 3.842-2.216-3.842-2.216zm-.385 5.099l-2.23-1.286-1.614-.931v4.387l2.229 1.285 1.615.931v-4.386zm-8.842 9.885l5.636-3.223 2.818-1.611-3.84-2.214-4.421 2.549-4.03 2.324 3.837 2.175z" fill="#FF2D20"/><path d="M91.465 103.03l-11.389 3.965 1.8 14.759 9.6 5.22 9.651-5.29 1.799-14.759-11.461-3.895z" fill="#B3B3B3"/><path d="M101.79 107.778l-10.352-3.492v21.441l8.675-4.749 1.677-13.2z" fill="#A6120D"/><path d="M81.354 107.841l1.542 13.2 8.542 4.686v-21.442l-10.084 3.556z" fill="#DD1B16"/><path d="M94.288 115.7l-2.85 1.318h-3.003l-1.412 3.493-2.626.048 7.041-15.495 2.85 10.636zm-.276-.664l-2.555-5.003-2.096 4.917h2.077l2.574.087v-.001z" fill="#F2F2F2"/><path d="M91.438 105.064l.019 4.968 2.378 4.922h-2.392l-.005 2.061 3.307.003 1.546 3.542 2.513.046-7.366-15.542z" fill="#B3B3B3"/><g clip-path="url(#clip0)" fill-rule="evenodd" clip-rule="evenodd"><path d="M235.054 243.976l-8.049-8.052 4.448-4.558L244 243.976h-8.946z" fill="#02539A"/><path d="M226.905 235.93l7.978-8.033h8.968l-12.41 12.497-4.536-4.464z" fill="#45D1FD" fill-opacity=".85"/><path d="M220 228.923l4.529 4.558 19.322-19.457h-9.015L220 228.923z" fill="#45D1FD"/></g><path fill-rule="evenodd" clip-rule="evenodd" d="M27.557 233.25c-1.925 0-3.129.956-3.61 2.869.722-.957 1.564-1.315 2.527-1.076.549.136.942.532 1.376.97.708.714 1.527 1.54 3.317 1.54 1.925 0 3.128-.956 3.61-2.869-.722.957-1.565 1.315-2.527 1.076-.55-.136-.942-.532-1.377-.97-.708-.714-1.527-1.54-3.316-1.54zm-3.61 4.303c-1.925 0-3.129.956-3.61 2.869.722-.956 1.564-1.315 2.527-1.076.55.136.942.532 1.376.97.708.714 1.527 1.54 3.317 1.54 1.925 0 3.128-.956 3.61-2.869-.722.957-1.565 1.315-2.527 1.076-.55-.136-.942-.532-1.377-.97-.707-.714-1.527-1.54-3.316-1.54z" fill="url(#paint0_linear)"/><path fill-rule="evenodd" clip-rule="evenodd" d="M41.995 236.876h-1.26v2.423c0 .646.427.636 1.26.595v.979c-1.686.202-2.357-.262-2.357-1.574v-2.423h-.935v-1.049h.935v-1.356l1.097-.323v1.679h1.26v1.049zm4.803-1.049h1.098v5.046h-1.098v-.726c-.386.535-.985.858-1.778.858-1.382 0-2.53-1.161-2.53-2.655 0-1.504 1.148-2.655 2.53-2.655.793 0 1.392.323 1.778.848v-.716zm-1.605 4.138c.914 0 1.605-.676 1.605-1.615s-.69-1.615-1.605-1.615-1.606.676-1.606 1.615.691 1.615 1.606 1.615zm4.532-4.895a.707.707 0 01-.702-.697.7.7 0 01.702-.696.7.7 0 01.7.696.707.707 0 01-.7.697zm-.55 5.803v-5.046h1.098v5.046h-1.097zm2.369 0v-7.368h1.097v7.368h-1.097zm8.22-5.046h1.158l-1.595 5.046H58.25l-1.057-3.401-1.067 3.401H55.05l-1.595-5.046h1.158l.986 3.482 1.067-3.482h1.046l1.057 3.482.996-3.482zm2.52-.757a.707.707 0 01-.701-.697.7.7 0 01.7-.696.7.7 0 01.702.696.707.707 0 01-.701.697zm-.549 5.803v-5.046h1.098v5.046h-1.098zm5.04-5.178c1.138 0 1.951.767 1.951 2.08v3.098h-1.097v-2.987c0-.767-.448-1.171-1.138-1.171-.722 0-1.29.424-1.29 1.453v2.705h-1.098v-5.046H65.2v.646c.335-.525.884-.778 1.575-.778zm7.154-1.887h1.097v7.065h-1.097v-.726c-.387.535-.986.858-1.779.858-1.382 0-2.53-1.161-2.53-2.655 0-1.504 1.148-2.655 2.53-2.655.793 0 1.392.323 1.779.848v-2.735zm-1.606 6.157c.915 0 1.606-.676 1.606-1.615s-.691-1.615-1.606-1.615c-.914 0-1.605.676-1.605 1.615s.69 1.615 1.605 1.615zm6.381 1.04c-1.534 0-2.682-1.161-2.682-2.655 0-1.504 1.148-2.655 2.682-2.655.996 0 1.86.515 2.266 1.302l-.945.546c-.223-.475-.721-.778-1.33-.778-.895 0-1.576.677-1.576 1.585 0 .908.681 1.585 1.575 1.585.61 0 1.108-.313 1.352-.777l.945.534c-.427.798-1.29 1.313-2.287 1.313zm4.095-3.785c0 .918 2.734.363 2.734 2.23 0 1.01-.884 1.555-1.982 1.555-1.016 0-1.748-.455-2.073-1.181l.945-.545c.163.454.57.726 1.128.726.488 0 .864-.161.864-.565 0-.898-2.734-.394-2.734-2.2 0-.949.824-1.545 1.86-1.545.833 0 1.524.384 1.88 1.05l-.925.515c-.183-.394-.538-.575-.955-.575-.396 0-.742.171-.742.535zm4.685 0c0 .918 2.733.363 2.733 2.23 0 1.01-.884 1.555-1.981 1.555-1.017 0-1.748-.455-2.073-1.181l.945-.545c.162.454.569.726 1.127.726.488 0 .864-.161.864-.565 0-.898-2.733-.394-2.733-2.2 0-.949.823-1.545 1.86-1.545.833 0 1.523.384 1.88 1.05l-.925.515c-.183-.394-.54-.575-.956-.575-.396 0-.741.171-.741.535z" fill="#2D3748"/><path fill-rule="evenodd" clip-rule="evenodd" d="M29.013 58v-4.656c4.928 0 8.753-4.886 6.86-10.073a6.957 6.957 0 00-4.15-4.152c-5.188-1.879-10.074 1.933-10.074 6.86h-4.642c0-7.853 7.596-13.98 15.831-11.407 3.594 1.13 6.466 3.989 7.583 7.583C42.994 50.404 36.88 58 29.013 58z" fill="#0080FF"/><path fill-rule="evenodd" clip-rule="evenodd" d="M24.398 53.358h4.628V48.73H24.4v4.628zm-3.566 3.567h3.566v-3.567h-3.566v3.567zm-2.982-3.567h2.982v-2.982H17.85v2.982z" fill="#0080FF"/><path fill-rule="evenodd" clip-rule="evenodd" d="M249.28 93.466v-2.207c0-.29.184-.522.488-.522h.084c.304 0 .487.233.487.522v4.646c0 1.133-.567 2.034-1.556 2.608-.453.265-.97.404-1.496.403h-.21c-1.149 0-2.062-.56-2.645-1.535a2.84 2.84 0 01-.408-1.476v-.207c0-1.133.568-2.034 1.556-2.61.453-.265.97-.404 1.497-.402h.21c.777 0 1.437.297 1.993.78zm-4.197 2.335c0 .819.403 1.434 1.129 1.826.294.159.614.244.949.244.814 0 1.418-.379 1.835-1.06.194-.316.284-.663.284-1.031 0-.71-.341-1.263-.92-1.674a1.997 1.997 0 00-1.178-.374c-.888 0-1.527.442-1.91 1.228a1.903 1.903 0 00-.189.841zm8.931-3.115h.147c1.228 0 2.161.587 2.753 1.644.236.423.363.884.363 1.368v.207c0 1.133-.566 2.035-1.557 2.608a2.956 2.956 0 01-1.496.403h-.21c-1.148 0-2.061-.56-2.644-1.535a2.84 2.84 0 01-.408-1.476v-.207c0-1.133.57-2.031 1.555-2.61a2.929 2.929 0 011.497-.402zm-1.993 3.115c0 .794.395 1.379 1.075 1.79.32.193.672.28 1.045.28.795 0 1.384-.398 1.793-1.06.195-.316.283-.663.283-1.031 0-.739-.36-1.303-.977-1.712a1.99 1.99 0 00-1.121-.336c-.887 0-1.526.442-1.909 1.228a1.89 1.89 0 00-.189.841zm9.66-1.986c-.16-.074-.459-.098-.632-.105-.885-.033-1.526.459-1.901 1.23-.13.265-.189.546-.189.84 0 .895.476 1.522 1.286 1.904.296.14.678.166 1.001.166.285 0 .687-.172.939-.29l.044-.02h.196l.021.003c.241.05.423.2.423.456v.104c0 .636-1.179.782-1.629.813-1.587.108-2.774-.752-3.227-2.245a2.693 2.693 0 01-.114-.788v-.206c0-1.134.571-2.031 1.556-2.609a2.93 2.93 0 011.497-.403h.21c.565 0 1.085.158 1.551.472l.038.027.024.04a.54.54 0 01.094.275v.103c0 .267-.202.41-.446.457l-.021.003h-.062c-.158 0-.518-.161-.659-.227zm3.436.708c.412-.407.825-.812 1.242-1.212.117-.112.557-.584.731-.584h.19l.021.005c.242.05.423.2.423.456v.104c0 .174-.207.378-.322.497-.243.255-.499.5-.749.75l-1.28 1.282c.552.544 1.102 1.09 1.649 1.639.151.151.302.304.451.458.053.054.13.122.175.198.047.07.076.15.076.236v.108l-.006.025c-.06.239-.213.43-.481.43h-.084c-.175 0-.373-.195-.493-.306-.248-.23-.487-.472-.729-.708l-.814-.787v1.259c0 .29-.184.523-.488.523h-.083c-.304 0-.488-.233-.488-.523V91.28c0-.29.184-.522.488-.522h.083c.304 0 .488.232.488.522v3.243zm13.204-1.796h.106c.317 0 .529.212.529.523 0 .433-.419.543-.782.543-.475 0-.93.285-1.258.603-.409.398-.588.907-.588 1.467v2.53c0 .29-.183.523-.488.523h-.083c-.305 0-.488-.233-.488-.523v-2.675c0-1.027.507-1.866 1.352-2.454a2.938 2.938 0 011.7-.537zm-7.529 5.014c.385.133.825.114 1.22.046.203-.085.72-.308.91-.275l.03.005.027.013a.6.6 0 01.287.25c.138.274.072.55-.201.704l-.09.052c-1.005.572-2.074.493-3.076-.042a2.828 2.828 0 01-1.115-1.096l-.064-.108c-.645-1.102-.558-2.262.17-3.31.251-.362.579-.642.963-.86l.145-.083c.947-.54 1.961-.502 2.933-.03.523.255.946.634 1.238 1.133l.052.09c.212.362-.062.677-.346.893-.329.25-.661.552-.976.82l-2.107 1.798zm-.91-.63c.786-.665 1.572-1.33 2.356-1.999.268-.227.562-.464.828-.704-.213-.265-.57-.456-.872-.57-.611-.23-1.214-.152-1.774.167-.734.418-1.046 1.083-1.019 1.91.011.327.1.64.275.918.062.098.131.19.206.278zm-5.718-20.941h3.127v3.152h1.58a6.94 6.94 0 002.172-.359c.34-.114.721-.272 1.056-.47-.441-.569-.666-1.286-.732-1.994-.091-.962.106-2.214.766-2.967l.329-.375.391.31c.986.782 1.816 1.873 1.962 3.118 1.187-.344 2.581-.263 3.627.333l.429.244-.226.435c-.885 1.704-2.735 2.232-4.544 2.138-2.706 6.65-8.599 9.798-15.744 9.798-3.691 0-7.078-1.361-9.006-4.592l-.032-.052-.281-.564c-.652-1.422-.868-2.98-.721-4.536l.044-.467h2.673V76.17h3.126v-3.084h6.253v-3.083h3.751v6.167z" fill="#364548"/><path fill-rule="evenodd" clip-rule="evenodd" d="M274.293 77.336c.209-1.607-1.01-2.869-1.766-3.468-.871.993-1.006 3.598.36 4.694-.762.668-2.37 1.274-4.016 1.274h-20.035c-.16 1.695.141 3.256.83 4.591l.228.412c.145.241.302.475.473.699.823.052 1.583.07 2.278.055 1.365-.03 2.479-.189 3.324-.478a.24.24 0 01.299.149.239.239 0 01-.009.178.241.241 0 01-.133.122 6.517 6.517 0 01-.35.109 10.59 10.59 0 01-2.298.369c.055 0-.057.008-.057.008l-.102.008c-.362.02-.753.024-1.152.024-.437 0-.868-.008-1.349-.032l-.012.008c1.669 1.85 4.279 2.96 7.551 2.96 6.925 0 12.798-3.027 15.399-9.825 1.845.187 3.619-.277 4.425-1.83-1.284-.732-2.937-.498-3.888-.027z" fill="#22A0C8"/><path fill-rule="evenodd" clip-rule="evenodd" d="M274.293 77.336c.209-1.607-1.01-2.869-1.766-3.468-.871.993-1.007 3.598.36 4.694-.763.668-2.37 1.274-4.016 1.274h-18.849c-.082 2.596.895 4.566 2.622 5.757h.001c1.365-.03 2.479-.189 3.324-.478a.24.24 0 01.299.149.234.234 0 01-.01.178.236.236 0 01-.132.122 6.516 6.516 0 01-.35.109c-.665.187-1.439.329-2.359.385l-.023-.02c2.357 1.192 5.774 1.187 9.691-.297 4.393-1.665 8.481-4.836 11.333-8.464l-.125.06z" fill="#37B1D9"/><path fill-rule="evenodd" clip-rule="evenodd" d="M248.873 81.895c.125.908.394 1.758.793 2.532l.228.412c.145.241.302.475.473.699.823.052 1.583.07 2.278.055 1.365-.03 2.479-.189 3.324-.478a.24.24 0 01.299.149.239.239 0 01-.009.178.241.241 0 01-.133.122 6.517 6.517 0 01-.35.109c-.665.187-1.435.32-2.355.377l-.119.004c-.361.02-.748.032-1.148.032-.437 0-.883-.008-1.364-.032 1.669 1.85 4.295 2.965 7.567 2.965 5.929 0 11.086-2.22 14.08-7.124h-23.564z" fill="#1B81A5"/><path fill-rule="evenodd" clip-rule="evenodd" d="M250.203 81.895c.354 1.594 1.206 2.846 2.442 3.698 1.365-.03 2.479-.189 3.324-.478a.24.24 0 01.299.149.239.239 0 01-.009.178.241.241 0 01-.133.122 6.517 6.517 0 01-.35.109c-.665.187-1.452.32-2.372.377 2.357 1.192 5.764 1.175 9.682-.31 2.369-.897 4.65-2.234 6.697-3.845h-19.58z" fill="#1D91B4"/><path fill-rule="evenodd" clip-rule="evenodd" d="M251.555 76.684h2.71v2.672h-2.71v-2.672zm.226.223h.214v2.227h-.214v-2.227zm.402 0h.222v2.227h-.222v-2.227zm.41 0h.223v2.227h-.223v-2.227zm.411 0h.222v2.227h-.222v-2.227zm.41 0h.223v2.227h-.223v-2.227zm.411 0h.214v2.227h-.214v-2.227zm.856-3.307h2.71v2.673h-2.71V73.6zm.226.223h.214v2.227h-.214v-2.227zm.402 0h.222v2.227h-.222v-2.227zm.411 0h.222v2.227h-.222v-2.227zm.41 0h.222v2.227h-.222v-2.227zm.411 0h.222v2.227h-.222v-2.227zm.41 0h.214v2.227h-.214v-2.227z" fill="#23A3C2"/><path fill-rule="evenodd" clip-rule="evenodd" d="M254.681 76.684h2.71v2.673h-2.71v-2.673zm.226.223h.214v2.227h-.214v-2.227zm.402 0h.222v2.227h-.222v-2.227zm.411 0h.222v2.227h-.222v-2.227zm.41 0h.222v2.227h-.222v-2.227zm.411 0h.222v2.227h-.222v-2.227zm.41 0h.214v2.227h-.214v-2.227z" fill="#34BBDE"/><path fill-rule="evenodd" clip-rule="evenodd" d="M257.808 76.684h2.709v2.673h-2.709v-2.673zm.225.223h.214v2.227h-.214v-2.227zm.402 0h.223v2.227h-.223v-2.227zm.411 0h.222v2.227h-.222v-2.227zm.41 0h.223v2.227h-.223v-2.227zm.411 0h.222v2.227h-.222v-2.227zm.41 0h.214v2.227h-.214v-2.227z" fill="#23A3C2"/><path fill-rule="evenodd" clip-rule="evenodd" d="M257.808 73.6h2.709v2.673h-2.709V73.6zm.225.223h.214v2.227h-.214v-2.227zm.402 0h.223v2.227h-.223v-2.227zm.411 0h.222v2.227h-.222v-2.227zm.41 0h.223v2.227h-.223v-2.227zm.411 0h.222v2.227h-.222v-2.227zm.41 0h.214v2.227h-.214v-2.227zm.857 2.86h2.709v2.673h-2.709v-2.672zm.226.224h.213v2.227h-.213v-2.227zm.402 0h.222v2.227h-.222v-2.227zm.41 0h.222v2.227h-.222v-2.227zm.411 0h.222v2.227h-.222v-2.227zm.41 0h.223v2.227h-.223v-2.227zm.411 0h.214v2.227h-.214v-2.227z" fill="#34BBDE"/><path fill-rule="evenodd" clip-rule="evenodd" d="M260.934 73.6h2.709v2.673h-2.709V73.6zm.226.223h.213v2.227h-.213v-2.227zm.402 0h.222v2.227h-.222v-2.227zm.41 0h.222v2.227h-.222v-2.227zm.411 0h.222v2.227h-.222v-2.227zm.41 0h.223v2.227h-.223v-2.227zm.411 0h.214v2.227h-.214v-2.227z" fill="#23A3C2"/><path fill-rule="evenodd" clip-rule="evenodd" d="M260.934 70.516h2.709v2.673h-2.709v-2.672zm.226.223h.213v2.227h-.213V70.74zm.402 0h.222v2.227h-.222V70.74zm.41 0h.222v2.227h-.222V70.74zm.411 0h.222v2.227h-.222V70.74zm.41 0h.223v2.227h-.223V70.74zm.411 0h.214v2.227h-.214V70.74z" fill="#34BBDE"/><path fill-rule="evenodd" clip-rule="evenodd" d="M264.06 76.684h2.709v2.673h-2.709v-2.673zm.226.223h.214v2.227h-.214v-2.227zm.402 0h.222v2.227h-.222v-2.227zm.41 0h.223v2.227h-.223v-2.227zm.411 0h.222v2.227h-.222v-2.227zm.41 0h.223v2.227h-.223v-2.227zm.411 0h.214v2.227h-.214v-2.227z" fill="#23A3C2"/><path fill-rule="evenodd" clip-rule="evenodd" d="M257.221 83.69a.756.756 0 01.7.453.733.733 0 01-.411.968.756.756 0 01-.811-.166.728.728 0 010-1.036.753.753 0 01.522-.22z" fill="#D3ECEC"/><path fill-rule="evenodd" clip-rule="evenodd" d="M257.221 83.899c.069 0 .134.013.194.036a.212.212 0 00-.092.104.205.205 0 00-.009.138.212.212 0 00.077.115.219.219 0 00.325-.067.52.52 0 01-.155.61.536.536 0 01-.637.031.526.526 0 01.297-.967zM244 82.162h34.771c-.757-.19-2.395-.446-2.125-1.424-1.377 1.571-4.697 1.102-5.535.327-.933 1.335-6.364.828-6.743-.212-1.17 1.354-4.795 1.354-5.964 0-.379 1.04-5.811 1.547-6.744.212-.838.775-4.158 1.244-5.535-.327.271.978-1.368 1.234-2.125 1.424" fill="#364548"/><path fill-rule="evenodd" clip-rule="evenodd" d="M259.208 89.003c-1.851-.867-2.867-2.044-3.432-3.33-.688.193-1.514.317-2.475.37-.362.02-.742.03-1.141.03-.461 0-.946-.013-1.456-.04 1.698 1.674 3.786 2.962 7.653 2.986.286 0 .569-.006.851-.016z" fill="#BDD9D7"/><path fill-rule="evenodd" clip-rule="evenodd" d="M256.463 86.86a6.4 6.4 0 01-.687-1.188c-.688.194-1.514.318-2.475.371.66.353 1.603.68 3.162.816" fill="#D3ECEC"/><path d="M217.19 144.254a1.642 1.642 0 011.616 0c2.46 1.402 4.921 2.803 7.38 4.206.463.263.772.782.768 1.32v8.437a1.552 1.552 0 01-.825 1.349l-7.354 4.186c-.5.288-1.15.266-1.634-.046-.735-.43-1.471-.857-2.207-1.287-.15-.09-.319-.162-.425-.309.094-.128.261-.144.397-.199.307-.099.589-.257.871-.41.071-.049.158-.03.227.014.628.363 1.251.737 1.882 1.098.135.078.271-.026.386-.091 2.406-1.372 4.815-2.739 7.221-4.111a.242.242 0 00.131-.237c.002-2.784 0-5.567.001-8.351a.261.261 0 00-.154-.26c-2.444-1.388-4.886-2.779-7.329-4.167a.247.247 0 00-.144-.046.258.258 0 00-.144.045c-2.443 1.389-4.885 2.781-7.328 4.169a.26.26 0 00-.155.259v8.351a.233.233 0 00.133.234c.652.373 1.305.744 1.957 1.116.368.199.819.318 1.224.165a.937.937 0 00.601-.88c.003-2.767-.002-5.535.003-8.301-.009-.123.106-.225.224-.213.314-.002.627-.005.941.001.13-.003.22.129.204.253-.001 2.784.004 5.569-.002 8.354.001.742-.301 1.549-.982 1.912-.838.438-1.874.346-2.702-.075-.717-.361-1.401-.787-2.105-1.173a1.546 1.546 0 01-.824-1.349v-8.438a1.535 1.535 0 01.793-1.337l7.354-4.189z" fill="#8CC84B"/><path d="M219.329 150.099c1.069-.07 2.214-.041 3.176.49.745.407 1.158 1.262 1.171 2.097-.021.112-.138.175-.244.167-.31-.001-.621.004-.931-.002-.132.005-.208-.118-.225-.235-.089-.399-.305-.795-.677-.988-.573-.289-1.236-.274-1.86-.268-.455.024-.945.064-1.331.334-.296.205-.386.618-.28.951.099.239.373.316.596.387 1.289.34 2.654.306 3.918.753.524.183 1.036.537 1.215 1.09.234.741.131 1.627-.391 2.221-.424.49-1.041.756-1.656.901-.819.184-1.669.189-2.5.107-.782-.09-1.596-.297-2.199-.835-.517-.452-.769-1.156-.744-1.836.006-.115.12-.195.229-.186.312-.002.625-.003.937.001.125-.009.217.1.224.218.057.381.199.78.528 1.006.635.413 1.432.385 2.159.397.602-.027 1.278-.036 1.77-.437.259-.229.336-.613.266-.942-.076-.279-.365-.408-.613-.493-1.272-.406-2.652-.259-3.912-.718-.512-.182-1.006-.527-1.203-1.057-.274-.75-.148-1.678.429-2.253.563-.571 1.375-.792 2.148-.87z" fill="#8CC84B"/><path d="M148.541 210L146 214.388 143.459 210H135l11 19 11-19h-8.459z" fill="#4DBA87"/><path d="M148.541 210L146 214.388 143.459 210H139.4l6.6 11.399L152.6 210h-4.059z" fill="#435466"/><path d="M160 99v-8h16v16h-16" fill="#007ACC"/><path d="M163.508 99.028v.652h2.08v5.92h1.476v-5.92h2.08v-.64c0-.36 0-.652-.016-.66 0-.012-1.268-.016-2.808-.016l-2.8.012v.656l-.012-.004zm9.348-.668c.408.096.72.28 1 .572.148.16.368.44.384.512 0 .024-.692.492-1.112.752-.016.012-.08-.056-.144-.16-.208-.296-.42-.424-.752-.448-.48-.032-.8.22-.8.64 0 .128.024.2.072.304.108.22.308.352.928.624 1.144.492 1.64.816 1.94 1.28.34.52.416 1.336.188 1.948-.256.668-.88 1.12-1.772 1.268-.28.048-.92.04-1.22-.012-.64-.12-1.252-.44-1.628-.852-.148-.16-.432-.588-.416-.616l.152-.096.6-.348.452-.264.104.14c.132.208.428.488.6.584.52.268 1.216.232 1.56-.08a.6.6 0 00.212-.48.617.617 0 00-.12-.408c-.128-.176-.384-.32-1.104-.64-.828-.352-1.18-.576-1.508-.92a2.272 2.272 0 01-.44-.8c-.06-.232-.08-.8-.024-1.028.172-.8.776-1.36 1.64-1.52.28-.056.94-.032 1.216.04l-.008.008z" fill="#fff"/><path fill-rule="evenodd" clip-rule="evenodd" d="M42.367 160.975h8.177l-4.09 8.525-4.087-8.525zm16.352 0h8.176l-4.088 8.525-4.088-8.525z" fill="#E9F9FD" fill-opacity=".1"/><path fill-rule="evenodd" clip-rule="evenodd" d="M46.456 169.5h8.175l-4.088 8.525-4.087-8.525z" fill="#25C4F2" fill-opacity=".22"/><path fill-rule="evenodd" clip-rule="evenodd" d="M54.631 169.5h8.176l-4.088 8.525-4.088-8.525z" fill="#25C4F2" fill-opacity=".2"/><path fill-rule="evenodd" clip-rule="evenodd" d="M54.631 169.5h-8.176l4.088-8.525 4.088 8.525z" fill="#25C4F2" fill-opacity=".4"/><path fill-rule="evenodd" clip-rule="evenodd" d="M62.806 169.5H54.63l4.09-8.525 4.087 8.525z" fill="#25C4F2" fill-opacity=".4"/><path fill-rule="evenodd" clip-rule="evenodd" d="M58.72 178.025h-8.177l4.088-8.525 4.088 8.525z" fill="#25C4F2" fill-opacity=".5"/><path fill-rule="evenodd" clip-rule="evenodd" d="M41.708 160.562a.781.781 0 01.656-.362h8.176a.774.774 0 01.699.44l3.389 7.068 3.389-7.068a.775.775 0 01.699-.44h8.176a.778.778 0 01.656.362.773.773 0 01.043.748l-8.174 17.044a.777.777 0 01-.701.446H50.54a.773.773 0 01-.7-.44l-8.176-17.05a.777.777 0 01.044-.748zm17.011 2.206l2.857 5.957h-5.714l2.857-5.957zM43.6 161.75l2.857 5.957 2.856-5.957h-5.714zm6.944 1.018l2.857 5.957h-5.714l2.857-5.957zm9.407-1.018l2.856 5.957 2.858-5.957H59.95zm-1.23 14.482l-2.858-5.957h5.714l-2.857 5.957zm-1.232 1.018l-2.857-5.957-2.857 5.957h5.714zm-6.944-1.018l-2.859-5.957H53.4l-2.857 5.957h.002z" fill="#25C4F2"/><defs><linearGradient id="paint0_linear" x1="19.936" y1="233.25" x2="34.727" y2="241.835" gradientUnits="userSpaceOnUse"><stop stop-color="#2298BD"/><stop offset="1" stop-color="#0ED7B5"/></linearGradient><clipPath id="clip0"><path fill="#fff" d="M220 214h24v30h-24z"/></clipPath></defs></svg>