<?xml version="1.0" encoding="utf-8"?>
<!-- Generator: Adobe Illustrator 23.0.1, SVG Export Plug-In . SVG Version: 6.00 Build 0)  -->
<svg version="1.1" id="Layer_1" xmlns="http://www.w3.org/2000/svg" xmlns:xlink="http://www.w3.org/1999/xlink" x="0px" y="0px"
	 viewBox="0 0 300 115" style="enable-background:new 0 0 300 115;" xml:space="preserve">
<style type="text/css">
	.st0{fill:#9FA6B3;}
	.st1{enable-background:new    ;}
</style>
<g>
	<g>
		<g>
			<polygon class="st0" points="102.8,21.2 32.1,21.2 32.1,35.4 46.2,35.4 46.2,77.9 60.4,77.9 60.4,35.4 88.8,35.4 			"/>
			<path class="st0" d="M103,38.1v14.3c0,0,0.7,39.7-42.7,42.5V80.5c0,0,26.8,0.9,28.5-28.3H74.9l13.9-14.2L103,38.1L103,38.1z"/>
		</g>
		<g class="st1">
			<path class="st0" d="M128.5,25.4H122v-4.3h17.5v4.3h-6.4v16.8h-4.6L128.5,25.4L128.5,25.4z"/>
			<path class="st0" d="M150.2,42.5c-1.2,0-2.3-0.2-3.4-0.6c-1-0.4-1.9-1-2.7-1.7s-1.3-1.6-1.8-2.6c-0.4-1-0.6-2.1-0.6-3.4v-0.1
				c0-1.1,0.2-2.2,0.6-3.3c0.4-1,0.9-1.9,1.6-2.7c0.7-0.8,1.5-1.4,2.5-1.8c1-0.4,2.1-0.7,3.2-0.7c1.3,0,2.5,0.2,3.5,0.7
				c1,0.5,1.8,1.1,2.5,1.9c0.7,0.8,1.1,1.7,1.4,2.8c0.3,1.1,0.5,2.2,0.5,3.3c0,0.2,0,0.4,0,0.6c0,0.2,0,0.4,0,0.6h-11.2
				c0.2,1,0.7,1.8,1.4,2.4c0.7,0.5,1.6,0.8,2.6,0.8c0.8,0,1.4-0.1,2-0.4c0.6-0.3,1.2-0.7,1.9-1.3l2.6,2.3c-0.8,0.9-1.7,1.7-2.8,2.2
				C153,42.3,151.7,42.5,150.2,42.5z M153.2,32.8c-0.1-1-0.5-1.9-1.1-2.5s-1.4-0.9-2.3-0.9s-1.7,0.3-2.3,0.9c-0.6,0.6-1,1.5-1.2,2.5
				L153.2,32.8L153.2,32.8z"/>
			<path class="st0" d="M167.7,42.5c-0.9,0-1.9-0.2-2.7-0.5c-0.9-0.4-1.7-0.9-2.3-1.6c-0.7-0.7-1.2-1.6-1.6-2.6
				c-0.4-1-0.6-2.2-0.6-3.6v-0.1c0-1.3,0.2-2.5,0.6-3.6c0.4-1,1-1.9,1.6-2.6c0.7-0.7,1.5-1.3,2.3-1.6c0.9-0.4,1.8-0.5,2.8-0.5
				c1.2,0,2.2,0.2,3,0.7c0.8,0.5,1.5,1,2,1.7v-7.9h4.6v22h-4.6v-2.3c-0.6,0.8-1.2,1.4-2,1.9C169.9,42.2,168.9,42.5,167.7,42.5z
				 M168.8,38.6c0.5,0,1-0.1,1.5-0.3c0.5-0.2,0.9-0.5,1.2-0.9c0.4-0.4,0.6-0.9,0.8-1.4c0.2-0.6,0.3-1.2,0.3-1.8v-0.1
				c0-0.7-0.1-1.3-0.3-1.8s-0.5-1-0.8-1.4c-0.4-0.4-0.8-0.7-1.2-0.9c-0.5-0.2-1-0.3-1.5-0.3s-1,0.1-1.5,0.3
				c-0.5,0.2-0.9,0.5-1.3,0.9c-0.4,0.4-0.6,0.9-0.9,1.4c-0.2,0.5-0.3,1.2-0.3,1.8v0.1c0,0.7,0.1,1.3,0.3,1.8c0.2,0.6,0.5,1,0.9,1.4
				c0.4,0.4,0.8,0.7,1.3,0.9C167.8,38.5,168.3,38.6,168.8,38.6z"/>
			<path class="st0" d="M188,42.5c-0.9,0-1.9-0.2-2.7-0.5c-0.9-0.4-1.7-0.9-2.3-1.6c-0.7-0.7-1.2-1.6-1.6-2.6
				c-0.4-1-0.6-2.2-0.6-3.6v-0.1c0-1.3,0.2-2.5,0.6-3.6s1-1.9,1.6-2.6c0.7-0.7,1.5-1.3,2.3-1.6c0.9-0.4,1.8-0.5,2.8-0.5
				c1.2,0,2.2,0.2,3,0.7c0.8,0.5,1.5,1,2,1.7v-7.9h4.6v22H193v-2.3c-0.6,0.8-1.2,1.4-2,1.9C190.2,42.2,189.2,42.5,188,42.5z
				 M189.2,38.6c0.5,0,1-0.1,1.5-0.3c0.5-0.2,0.9-0.5,1.2-0.9c0.4-0.4,0.6-0.9,0.8-1.4c0.2-0.6,0.3-1.2,0.3-1.8v-0.1
				c0-0.7-0.1-1.3-0.3-1.8s-0.5-1-0.8-1.4c-0.4-0.4-0.8-0.7-1.2-0.9c-0.5-0.2-1-0.3-1.5-0.3s-1,0.1-1.5,0.3
				c-0.5,0.2-0.9,0.5-1.3,0.9c-0.4,0.4-0.6,0.9-0.9,1.4c-0.2,0.5-0.3,1.2-0.3,1.8v0.1c0,0.7,0.1,1.3,0.3,1.8c0.2,0.6,0.5,1,0.9,1.4
				c0.4,0.4,0.8,0.7,1.3,0.9C188.1,38.5,188.6,38.6,189.2,38.6z"/>
			<path class="st0" d="M205.5,47.1c-0.8,0-1.6-0.1-2.2-0.3c-0.6-0.2-1.3-0.5-1.8-0.8l1.5-3.3c0.3,0.2,0.6,0.3,1,0.5
				c0.3,0.1,0.7,0.2,1,0.2c0.4,0,0.7-0.1,0.9-0.2c0.2-0.1,0.4-0.4,0.6-0.8L200.2,26h4.8l3.7,11l3.5-11h4.8l-6.2,16.5
				c-0.3,0.8-0.6,1.5-1,2.1c-0.3,0.6-0.7,1-1.1,1.4s-0.9,0.6-1.4,0.8C206.8,47,206.2,47.1,205.5,47.1z"/>
		</g>
		<g class="st1">
			<path class="st0" d="M133.7,72.1c-1.6,0-3.1-0.3-4.5-0.8c-1.4-0.5-2.5-1.3-3.5-2.3c-1-1-1.7-2.1-2.3-3.4
				c-0.5-1.3-0.8-2.8-0.8-4.3v-0.1c0-1.5,0.3-2.9,0.8-4.2c0.6-1.3,1.3-2.5,2.3-3.5s2.1-1.8,3.5-2.3c1.3-0.6,2.8-0.9,4.4-0.9
				c0.9,0,1.8,0.1,2.6,0.2c0.8,0.1,1.5,0.3,2.2,0.6c0.7,0.2,1.3,0.5,1.9,0.9s1.1,0.8,1.7,1.2l-2.9,3.5c-0.4-0.3-0.8-0.6-1.2-0.9
				s-0.8-0.5-1.3-0.7s-0.9-0.3-1.4-0.4c-0.5-0.1-1.1-0.1-1.7-0.1c-0.8,0-1.6,0.2-2.4,0.5c-0.7,0.4-1.4,0.8-1.9,1.4s-1,1.3-1.3,2.1
				c-0.3,0.8-0.5,1.6-0.5,2.5v0.1c0,1,0.2,1.9,0.5,2.7c0.3,0.8,0.8,1.5,1.3,2.1c0.6,0.6,1.2,1.1,2,1.4c0.8,0.3,1.6,0.5,2.6,0.5
				c1.7,0,3.2-0.4,4.4-1.3v-3h-4.7v-4h9.2v9.2c-1.1,0.9-2.4,1.7-3.9,2.4C137.3,71.8,135.6,72.1,133.7,72.1z"/>
			<path class="st0" d="M146.7,55.6h4.6v3.3c0.5-1.1,1.1-2,1.9-2.6s1.9-1,3.3-0.9v4.8h-0.2c-1.5,0-2.7,0.5-3.6,1.4
				c-0.9,0.9-1.3,2.4-1.3,4.3v6h-4.6L146.7,55.6L146.7,55.6z"/>
			<path class="st0" d="M163.8,72c-0.8,0-1.5-0.1-2.2-0.3c-0.7-0.2-1.3-0.5-1.8-0.9s-0.9-0.9-1.2-1.6c-0.3-0.6-0.4-1.3-0.4-2.1V67
				c0-0.9,0.2-1.6,0.5-2.3s0.8-1.2,1.3-1.6c0.6-0.4,1.3-0.7,2-0.9c0.8-0.2,1.7-0.3,2.6-0.3c0.8,0,1.5,0.1,2.2,0.2
				c0.6,0.1,1.2,0.3,1.8,0.5v-0.3c0-1-0.3-1.7-0.9-2.2c-0.6-0.5-1.4-0.8-2.6-0.8c-0.9,0-1.7,0.1-2.3,0.2c-0.7,0.1-1.4,0.4-2.1,0.6
				l-1.1-3.5c0.9-0.4,1.8-0.7,2.8-0.9c1-0.2,2.1-0.4,3.5-0.4c1.3,0,2.3,0.2,3.2,0.5c0.9,0.3,1.6,0.8,2.2,1.3c0.6,0.6,1,1.3,1.3,2.2
				c0.3,0.9,0.4,1.9,0.4,2.9v9.4h-4.4V70c-0.6,0.6-1.2,1.1-2,1.5C165.9,71.9,165,72,163.8,72z M165.2,68.9c1.1,0,2-0.3,2.6-0.8
				c0.7-0.5,1-1.2,1-2v-0.8c-0.4-0.2-0.8-0.3-1.3-0.4c-0.5-0.1-1-0.2-1.6-0.2c-1,0-1.8,0.2-2.3,0.6c-0.6,0.4-0.8,0.9-0.8,1.7v0.1
				c0,0.6,0.2,1.1,0.7,1.4C163.9,68.7,164.5,68.9,165.2,68.9z"/>
			<path class="st0" d="M177.1,55.6h4.6v2.3c0.6-0.8,1.2-1.4,2-1.9c0.8-0.5,1.8-0.7,3-0.7c0.9,0,1.9,0.2,2.7,0.5
				c0.9,0.4,1.7,0.9,2.3,1.6c0.7,0.7,1.2,1.6,1.6,2.6c0.4,1,0.6,2.2,0.6,3.6v0.1c0,1.3-0.2,2.5-0.6,3.6c-0.4,1-1,1.9-1.6,2.6
				s-1.5,1.3-2.3,1.6c-0.9,0.4-1.8,0.5-2.8,0.5c-1.2,0-2.2-0.2-3-0.7c-0.8-0.5-1.5-1-2-1.7v6.9h-4.6L177.1,55.6L177.1,55.6z
				 M185.5,68.2c0.5,0,1-0.1,1.5-0.3c0.5-0.2,0.9-0.5,1.2-0.9s0.6-0.9,0.9-1.4c0.2-0.5,0.3-1.2,0.3-1.8v-0.1c0-0.7-0.1-1.3-0.3-1.8
				c-0.2-0.6-0.5-1-0.9-1.4s-0.8-0.7-1.2-0.9c-0.5-0.2-1-0.3-1.5-0.3c-0.5,0-1,0.1-1.5,0.3c-0.5,0.2-0.9,0.5-1.2,0.9
				c-0.4,0.4-0.6,0.9-0.8,1.4c-0.2,0.6-0.3,1.2-0.3,1.8v0.1c0,0.7,0.1,1.3,0.3,1.8c0.2,0.6,0.5,1,0.8,1.4c0.3,0.4,0.8,0.7,1.2,0.9
				C184.5,68,185,68.2,185.5,68.2z"/>
			<path class="st0" d="M197.4,49.8h4.6v8.1c0.3-0.3,0.5-0.7,0.9-1c0.3-0.3,0.7-0.6,1-0.8c0.4-0.2,0.8-0.4,1.3-0.6s1-0.2,1.6-0.2
				c1.7,0,3.1,0.5,4,1.6c1,1.1,1.4,2.5,1.4,4.4v10.4h-4.6v-9c0-1.1-0.2-1.9-0.7-2.4c-0.5-0.5-1.2-0.8-2-0.8c-0.9,0-1.6,0.3-2.1,0.8
				c-0.5,0.5-0.8,1.4-0.8,2.4v9h-4.6L197.4,49.8L197.4,49.8z"/>
			<path class="st0" d="M216.3,49.8h4.8v4.1h-4.8V49.8z M216.4,55.6h4.6v16.1h-4.6V55.6z"/>
			<path class="st0" d="M230.9,72c-1.1,0-2.3-0.2-3.5-0.6c-1.2-0.4-2.3-1-3.4-1.9l2-3c0.9,0.6,1.8,1.1,2.6,1.4
				c0.9,0.3,1.7,0.5,2.5,0.5c0.7,0,1.1-0.1,1.5-0.3c0.3-0.2,0.5-0.5,0.5-0.9v-0.1c0-0.2-0.1-0.5-0.3-0.6c-0.2-0.2-0.4-0.3-0.7-0.5
				c-0.3-0.1-0.7-0.3-1.1-0.4c-0.4-0.1-0.8-0.2-1.3-0.4c-0.6-0.2-1.1-0.4-1.7-0.6c-0.6-0.2-1.1-0.5-1.6-0.9
				c-0.5-0.4-0.8-0.8-1.1-1.4c-0.3-0.5-0.4-1.2-0.4-2v-0.1c0-0.8,0.2-1.6,0.5-2.2c0.3-0.6,0.7-1.2,1.3-1.6c0.5-0.4,1.2-0.8,1.9-1
				c0.7-0.2,1.5-0.3,2.3-0.3c1,0,2.1,0.2,3.1,0.5c1.1,0.3,2,0.8,2.9,1.4l-1.7,3.2c-0.8-0.5-1.6-0.8-2.3-1.1c-0.8-0.3-1.4-0.4-2-0.4
				c-0.6,0-1,0.1-1.3,0.3c-0.3,0.2-0.4,0.5-0.4,0.8v0.1c0,0.2,0.1,0.4,0.3,0.6c0.2,0.2,0.4,0.3,0.7,0.5c0.3,0.1,0.6,0.3,1,0.4
				c0.4,0.1,0.8,0.3,1.3,0.4c0.6,0.2,1.1,0.4,1.7,0.6c0.6,0.2,1.1,0.6,1.6,0.9c0.5,0.4,0.8,0.8,1.1,1.3c0.3,0.5,0.5,1.2,0.5,1.9v0.1
				c0,0.9-0.2,1.7-0.5,2.3c-0.3,0.7-0.7,1.2-1.3,1.6c-0.6,0.4-1.2,0.7-2,0.9C232.6,71.9,231.8,72,230.9,72z"/>
			<path class="st0" d="M245.8,72c-0.7,0-1.3-0.1-1.9-0.2c-0.6-0.1-1.1-0.4-1.5-0.8c-0.4-0.4-0.7-0.9-1-1.5
				c-0.2-0.6-0.3-1.4-0.3-2.3v-7.6h-1.9v-3.9h1.9v-4.1h4.6v4.1h3.8v3.9h-3.8v6.9c0,1,0.5,1.6,1.5,1.6c0.8,0,1.6-0.2,2.3-0.6v3.7
				c-0.5,0.3-1,0.5-1.6,0.7C247.3,71.9,246.6,72,245.8,72z"/>
			<path class="st0" d="M260.5,72.1c-1.2,0-2.3-0.2-3.4-0.6c-1-0.4-1.9-1-2.7-1.7c-0.8-0.7-1.3-1.6-1.8-2.6c-0.4-1-0.6-2.1-0.6-3.4
				v-0.1c0-1.1,0.2-2.2,0.6-3.3c0.4-1,0.9-1.9,1.6-2.7c0.7-0.8,1.5-1.4,2.5-1.8c1-0.4,2.1-0.7,3.2-0.7c1.3,0,2.5,0.2,3.5,0.7
				c1,0.5,1.8,1.1,2.5,1.9c0.7,0.8,1.1,1.7,1.4,2.8c0.3,1.1,0.5,2.2,0.5,3.3c0,0.2,0,0.4,0,0.6c0,0.2,0,0.4,0,0.6h-11.2
				c0.2,1,0.7,1.8,1.4,2.4c0.7,0.5,1.6,0.8,2.6,0.8c0.8,0,1.4-0.1,2-0.4c0.6-0.3,1.2-0.7,1.9-1.3l2.6,2.3c-0.8,0.9-1.7,1.7-2.8,2.2
				C263.3,71.8,262,72.1,260.5,72.1z M263.5,62.4c-0.1-1-0.5-1.9-1.1-2.5c-0.6-0.6-1.4-0.9-2.3-0.9s-1.7,0.3-2.3,0.9s-1,1.5-1.2,2.5
				L263.5,62.4L263.5,62.4z"/>
		</g>
		<g class="st1">
			<path class="st0" d="M121.3,93l1.1-1.1c0.6,0.7,1.1,1.1,1.9,1.1c0.9,0,1.5-0.6,1.5-1.9v-6.3h1.7v6.3c0,1.1-0.3,2-0.9,2.5
				s-1.4,0.8-2.3,0.8C122.9,94.5,121.9,93.8,121.3,93z"/>
			<path class="st0" d="M129.6,91.7v-4.6h1.7v4.1c0,1.1,0.6,1.8,1.5,1.8c1,0,1.6-0.7,1.6-1.8v-4.1h1.7v7.2h-1.7v-1.1
				c-0.5,0.7-1.1,1.3-2.3,1.3C130.6,94.5,129.6,93.4,129.6,91.7z"/>
			<path class="st0" d="M137.6,93.4l0.7-1.1c0.8,0.6,1.6,0.9,2.4,0.9c0.7,0,1.1-0.3,1.1-0.8v0c0-0.6-0.8-0.8-1.6-1
				c-1.1-0.3-2.3-0.7-2.3-2.1v0c0-1.4,1.1-2.2,2.6-2.2c0.9,0,1.9,0.3,2.7,0.8l-0.7,1.2c-0.7-0.4-1.4-0.7-2-0.7c-0.6,0-1,0.3-1,0.7v0
				c0,0.5,0.8,0.8,1.6,1c1.1,0.3,2.2,0.8,2.2,2.1v0c0,1.5-1.2,2.3-2.7,2.3C139.7,94.5,138.5,94.1,137.6,93.4z"/>
			<path class="st0" d="M145.3,92.4v-3.8h-0.9v-1.4h0.9v-2h1.7v2h1.9v1.4h-1.9v3.5c0,0.6,0.3,0.9,0.9,0.9c0.4,0,0.7-0.1,1-0.2v1.4
				c-0.4,0.2-0.9,0.4-1.5,0.4C146.1,94.5,145.3,94,145.3,92.4z"/>
			<path class="st0" d="M154.9,84.8h1.8l2.9,4.5l2.9-4.5h1.8v9.6h-1.7v-6.9l-3,4.5h-0.1l-3-4.5v6.8h-1.7L154.9,84.8L154.9,84.8z"/>
			<path class="st0" d="M166.1,92.3L166.1,92.3c0-1.6,1.2-2.4,3-2.4c0.8,0,1.4,0.1,1.9,0.3V90c0-1-0.6-1.6-1.8-1.6
				c-0.8,0-1.4,0.2-2.1,0.5l-0.4-1.3c0.8-0.4,1.6-0.6,2.7-0.6c1.1,0,1.9,0.3,2.4,0.8c0.5,0.5,0.8,1.3,0.8,2.2v4.3H171v-0.9
				c-0.5,0.6-1.2,1.1-2.4,1.1C167.3,94.5,166.1,93.7,166.1,92.3z M171,91.8v-0.5c-0.4-0.2-1-0.3-1.6-0.3c-1.1,0-1.7,0.5-1.7,1.2v0
				c0,0.7,0.6,1.1,1.4,1.1C170.2,93.3,171,92.7,171,91.8z"/>
			<path class="st0" d="M174.2,90.8L174.2,90.8c0-2.4,1.6-3.8,3.4-3.8c1.2,0,1.9,0.6,2.5,1.3v-3.9h1.7v10H180v-1.2
				c-0.5,0.8-1.3,1.4-2.5,1.4C175.9,94.5,174.2,93.2,174.2,90.8z M180,90.8L180,90.8c0-1.4-1-2.3-2.1-2.3c-1.1,0-2.1,0.9-2.1,2.3v0
				c0,1.4,1,2.3,2.1,2.3C179.1,93.1,180,92.1,180,90.8z"/>
			<path class="st0" d="M183.4,90.8L183.4,90.8c0-2.1,1.5-3.8,3.5-3.8c2.3,0,3.5,1.8,3.5,3.9c0,0.1,0,0.3,0,0.5H185
				c0.2,1.2,1,1.8,2.1,1.8c0.8,0,1.4-0.3,2-0.9l1,0.9c-0.7,0.8-1.6,1.4-3,1.4C185,94.5,183.4,93,183.4,90.8z M188.7,90.2
				c-0.1-1.1-0.7-1.9-1.8-1.9c-1,0-1.7,0.8-1.9,1.9H188.7z"/>
			<path class="st0" d="M192.1,85.3v-0.5h1.9v0.5l-0.5,6.1h-0.9L192.1,85.3z M192.1,92.5h1.8v1.9h-1.8V92.5z"/>
		</g>
	</g>
</g>
</svg>
