<?xml version="1.0" encoding="utf-8"?>
<!-- Generator: Adobe Illustrator 22.0.1, SVG Export Plug-In . SVG Version: 6.00 Build 0)  -->
<svg version="1.1" id="Layer_1" xmlns="http://www.w3.org/2000/svg" xmlns:xlink="http://www.w3.org/1999/xlink" x="0px" y="0px"
	 viewBox="0 0 355.9 175.4" style="enable-background:new 0 0 355.9 175.4;" xml:space="preserve">
<style type="text/css">
	.st0{fill:#FFFFFF;}
	.st1{fill:#C30800;}
	.st2{display:none;}
	.st3{display:none;fill:#222222;}
	.st4{fill:#222222;}
	.st5{opacity:0.33;}
	.st6{fill:#333333;}
	.st7{opacity:0.33;fill:none;stroke:#333333;stroke-width:0.1417;stroke-miterlimit:10;}
	.st8{fill:#FAFAFA;}
	.st9{display:none;fill:#FFFFFF;}
	.st10{fill:none;stroke:#F20C0C;stroke-width:4.252;stroke-miterlimit:10;}
</style>
<g>
	<g>
		<polygon class="st4" points="94.6,112.3 94.6,112.3 63.3,63.3 126,63.3 		"/>
		<g>
			<path class="st4" d="M165.2,78.9c-4,0-7.6,1.7-10.1,4.4V68h-4v39h4v-4.4c2.6,2.7,6.1,4.4,10.1,4.4c7.7,0,14-6.3,14-14
				S172.9,78.9,165.2,78.9z M165.2,103c-5.5,0-10-4.5-10-10s4.5-10,10-10c5.5,0,10,4.5,10,10S170.7,103,165.2,103z"/>
			<path class="st4" d="M236.6,98.8c-0.8,1.1-1.8,2-3,2.7c-1.5,0.9-3.3,1.5-5.2,1.5c-0.7,0-1.5-0.1-2.2-0.2l4.1-6.3l2.4-3.6l3.8-5.7
				l2.3-3.5c-0.9-1-1.9-1.8-3.1-2.5c-2.1-1.3-4.6-2.1-7.3-2.1c-7.7,0-14,6.3-14,14c0,4.7,2.4,8.9,6,11.5c1.1,0.8,2.3,1.4,3.6,1.8
				c1.4,0.5,2.9,0.7,4.5,0.7c2.7,0,5.2-0.8,7.3-2.1c1.1-0.7,2.2-1.6,3.1-2.6L236.6,98.8z M218.4,92.9c0-3.5,1.8-6.5,4.4-8.3
				c1.1-0.8,2.4-1.3,3.7-1.5c0.6-0.1,1.2-0.2,1.9-0.2c1.9,0,3.6,0.5,5.1,1.4l-3.1,4.8l-2.4,3.6l-5.4,8.3
				C220,99.3,218.4,96.3,218.4,92.9z"/>
			<path class="st4" d="M204.4,80c-1.6-0.7-3.4-1-5.3-1c-3.9,0-7.5,1.6-10,4.3V68h-4v39h4v-4.3v-9.8c0-5.5,4.5-10,10-10
				c1.9,0,3.7,0.6,5.3,1.5v17v4.4v1h4v-3.5v-6.6v-6.8V89v-6.6C207.2,81.4,205.9,80.6,204.4,80z"/>
			<path class="st4" d="M266.6,80c-1.6-0.7-3.4-1-5.3-1c-3.9,0-7.5,1.6-10,4.3v-4.3h-4v14v14h4v-4.3v-9.8c0-5.5,4.5-10,10-10
				c1.9,0,3.7,0.6,5.3,1.5v17v4.4v1h4v-3.5v-6.6v-7.7v-6.6C269.4,81.4,268.1,80.6,266.6,80z"/>
			<path class="st4" d="M284.3,82.9h8.4v-4h-8.4V68h-4v11h-3.8v4h3.8v4.9v10.3v5.9c1.2,0.9,2.5,1.7,4,2.2c1.4,0.5,3,0.8,4.6,0.8
				c1.3,0,2.6-0.2,3.8-0.5v-4.2c-1.2,0.5-2.4,0.7-3.8,0.7c-1.7,0-3.2-0.4-4.6-1.1V84.1V82.9z"/>
		</g>
	</g>
</g>
</svg>
