<?xml version="1.0" encoding="UTF-8"?>
<svg width="167px" height="45px" viewBox="0 0 167 45" version="1.1" xmlns="http://www.w3.org/2000/svg" xmlns:xlink="http://www.w3.org/1999/xlink">
    <!-- Generator: Sketch 50.2 (55047) - http://www.bohemiancoding.com/sketch -->
    <title>Page 1</title>
    <desc>Created with Sketch.</desc>
    <defs>
        <polygon id="path-1" points="0 45 166.959273 45 166.959273 0.0799047619 0 0.0799047619"></polygon>
    </defs>
    <g id="Welcome" stroke="none" stroke-width="1" fill="none" fill-rule="evenodd">
        <g id="MARCHAND" transform="translate(-71.000000, -32.000000)">
            <g id="Menu" transform="translate(71.000000, 32.000000)">
                <g id="Page-1">
                    <polygon id="Fill-1" fill="#1A1F3A" points="77 0 81.4988459 8 86 0"></polygon>
                    <polygon id="Fill-2" fill="#1A1F3A" points="93 11 93.5479149 2 101 6.07858136"></polygon>
                    <polygon id="Fill-3" fill="#1A1F3A" points="70 11 62 6.07346466 69.4563536 2"></polygon>
                    <g id="Group-18">
                        <path d="M81.1930909,13.0162 C74.2810909,13.0162 68.6890909,18.4617238 68.4643636,25.4055333 C68.2352727,32.4632476 73.7683636,38.3884857 80.796,38.6184857 C80.9378182,38.6228667 81.0774545,38.6250571 81.2149091,38.6250571 C88.1356364,38.6250571 93.732,33.1839143 93.9567273,26.2357238 C94.1858182,19.1780095 88.6527273,13.2527714 81.6250909,13.0227714 C81.4789091,13.0183905 81.3370909,13.0162 81.1930909,13.0162 M81.1930909,13.0162 L81.1930909,14.9460095 C81.3152727,14.9460095 81.4374545,14.9482 81.5618182,14.952581 C87.5312727,15.1475333 92.2309091,20.1812476 92.0367273,26.1722 C91.8447273,32.0733429 87.0927273,36.6952476 81.2149091,36.6952476 C81.0970909,36.6952476 80.9770909,36.6930571 80.8592727,36.6908667 C74.8898182,36.4959143 70.1923636,31.4600095 70.3843636,25.4690571 C70.5763636,19.5679143 75.324,14.9460095 81.1930909,14.9460095 L81.1930909,13.0162" id="Fill-4" fill="#E1B036"></path>
                        <path d="M81.2122909,31.9636 C81.1468364,31.9636 81.0792,31.9636 81.0115636,31.9614095 C77.6406545,31.8496952 74.9853818,29.0064571 75.0944727,25.6221714 C75.2057455,22.2203619 77.9984727,19.5698857 81.4086545,19.6816 C84.7817455,19.7911238 87.4348364,22.6343619 87.3257455,26.0208381 C87.2166545,29.3525524 84.5330182,31.9636 81.2122909,31.9636" id="Fill-6" fill="#E1B036"></path>
                        <path d="M81.1941818,14.2152667 C74.9301818,14.2152667 69.8596364,19.1504095 69.6567273,25.4436476 C69.4516364,31.8398381 74.4654545,37.2130762 80.8341818,37.4211714 C80.9629091,37.4255524 81.0894545,37.4255524 81.216,37.4255524 C87.4865455,37.4255524 92.5592727,32.4947905 92.7643636,26.1971714 C92.9694545,19.800981 87.9556364,14.4299333 81.5869091,14.2218381 C81.4538182,14.2174571 81.3250909,14.2152667 81.1941818,14.2152667 M81.1941818,14.2152667 L81.1941818,15.9654571 C81.3054545,15.9654571 81.4167273,15.9654571 81.528,15.9698381 C86.9389091,16.1472667 91.1978182,20.7078381 91.0210909,26.140219 C90.8487273,31.4871714 86.5418182,35.6753619 81.216,35.6753619 C81.1069091,35.6753619 81,35.6753619 80.8930909,35.670981 C75.4821818,35.4957429 71.2232727,30.932981 71.4,25.5006 C71.5701818,20.1536476 75.8749091,15.9654571 81.1941818,15.9654571 L81.1941818,14.2152667" id="Fill-8" fill="#1A1F3A"></path>
                        <path d="M81.2122909,30.7325524 C81.1599273,30.7325524 81.1053818,30.7325524 81.0508364,30.7303619 C78.3541091,30.6427429 76.2333818,28.3690286 76.3206545,25.6616 C76.4079273,22.943219 78.6421091,20.8228381 81.3693818,20.9126476 C84.0661091,21.0002667 86.1868364,23.273981 86.0995636,25.979219 C86.0144727,28.6450286 83.8675636,30.7325524 81.2122909,30.7325524" id="Fill-10" fill="#1A1F3A"></path>
                        <path d="M17.4547636,23.3322476 C15.8162182,21.2534857 13.4118545,20.026819 9.91221818,20.026819 L5.69476364,20.026819 L5.69476364,39.493581 L9.91221818,39.493581 C13.4118545,39.493581 15.8162182,38.2712952 17.4547636,36.1969143 C18.8053091,34.5058667 19.6060364,32.2233905 19.6060364,29.7656762 C19.6060364,27.3079619 18.8053091,25.0167238 17.4547636,23.3322476 Z M9.28167273,14.9492952 C13.9594909,14.9492952 17.0336727,15.9612952 19.4358545,17.7443429 C23.0620364,20.449581 25.2984,24.8502476 25.2984,29.7656762 C25.2984,34.6723429 23.0620364,39.0752 19.4358545,41.7870095 C17.0336727,43.5591048 13.9594909,44.5776762 9.28167273,44.5776762 L0.000218181818,44.5776762 L0.000218181818,14.9492952 L9.28167273,14.9492952 Z" id="Fill-12" fill="#1A1F3A"></path>
                        <mask id="mask-2" fill="white">
                            <use xlink:href="#path-1"></use>
                        </mask>
                        <g id="Clip-15"></g>
                        <polygon id="Fill-14" fill="#1A1F3A" mask="url(#mask-2)" points="43.0123636 44.5772381 48.7003636 44.5772381 48.7003636 14.9510476 43.0123636 14.9510476"></polygon>
                        <path d="M122.696727,39.9233524 C128.264727,39.9233524 132.388364,35.3474476 132.388364,29.7639238 C132.388364,24.176019 128.264727,19.6044952 122.696727,19.6044952 C117.133091,19.6044952 112.998545,24.176019 112.998545,29.7639238 C112.998545,35.3474476 117.133091,39.9233524 122.696727,39.9233524 M122.696727,14.524781 C131.801455,14.524781 138.082909,21.3393524 138.082909,29.7639238 C138.082909,38.1884952 131.801455,44.9986857 122.696727,44.9986857 C113.589818,44.9986857 107.308364,38.1884952 107.308364,29.7639238 C107.308364,21.3393524 113.589818,14.524781 122.696727,14.524781" id="Fill-16" fill="#1A1F3A" mask="url(#mask-2)"></path>
                        <polygon id="Fill-17" fill="#1A1F3A" mask="url(#mask-2)" points="148.829455 14.9499524 154.517455 14.9499524 154.517455 39.4942381 166.960364 39.4942381 166.960364 44.5761429 148.829455 44.5761429"></polygon>
                    </g>
                </g>
            </g>
        </g>
    </g>
</svg>