<?xml version="1.0" encoding="utf-8"?>
<!-- Generator: Adobe Illustrator 22.0.1, SVG Export Plug-In . SVG Version: 6.00 Build 0)  -->
<svg version="1.1" id="Layer_1" xmlns="http://www.w3.org/2000/svg" xmlns:xlink="http://www.w3.org/1999/xlink" x="0px" y="0px"
	 viewBox="0 0 220 100" style="enable-background:new 0 0 220 100;" xml:space="preserve">
<style type="text/css">
	.st0{display:none;}
	.st1{display:inline;}
	.st2{fill:#212121;}
	.st3{fill:none;stroke:#212121;stroke-width:0.5;stroke-miterlimit:10;}
	.st4{font-family:'Verdana-Bold';}
	.st5{font-size:4.6192px;}
</style>
<g id="Layer_2_1_" class="st0">
	<rect x="-0.5" y="-0.5" class="st1" width="220" height="100"/>
</g>
<g id="Layer_1_1_">
	<g>
		<path class="st2" d="M100.7,39c0.2-0.6,0.6-1.1,1.1-1.5s1-0.7,1.6-1c0.5-0.2,1.1-0.3,1.7-0.3h0.1h0.1h0.1h0.1h0.1h0.1h0.1h0.1
			c0.5,0.1,1,0.2,1.5,0.5c0.5,0.2,0.9,0.5,1.4,0.9c0.4,0.4,0.7,0.9,1,1.4c0.2,0.6,0.3,1.3,0.3,2c0,0.1,0,0.1,0,0.2
			c0,0.1,0,0.1,0,0.1c0,0.1,0,0.1,0,0.2c0,0.1,0,0.1,0,0.2c0,0.1,0,0.2,0,0.3s0,0.2-0.1,0.3c-0.1,0.5-0.3,0.9-0.5,1.3
			c-0.2,0.4-0.5,0.8-0.9,1.2s-0.8,0.7-1.3,0.8c-0.5,0.2-1.1,0.3-1.7,0.3c-0.9,0-1.6-0.1-2.3-0.4c-0.6-0.2-1.2-0.6-1.6-1.1
			s-0.7-1-0.9-1.6c-0.2-0.6-0.3-1.2-0.3-1.9l0,0C100.4,40.2,100.5,39.6,100.7,39z M102.2,41.2c0,0.1,0,0.2,0,0.3s0,0.2,0,0.3
			s0,0.2,0,0.3c0.1,0.3,0.2,0.6,0.3,0.8c0.1,0.3,0.3,0.5,0.5,0.8c0.2,0.2,0.5,0.4,0.8,0.5s0.7,0.2,1.1,0.2s0.8-0.1,1.2-0.2
			c0.4-0.1,0.7-0.3,1-0.5s0.5-0.6,0.7-1c0.1-0.4,0.2-1,0.2-1.6c0-0.5-0.1-0.9-0.2-1.2c-0.1-0.4-0.3-0.7-0.6-1
			c-0.3-0.3-0.6-0.5-1-0.6s-0.8-0.2-1.3-0.2s-0.9,0.1-1.2,0.2c-0.3,0.1-0.6,0.3-0.8,0.6c-0.2,0.2-0.4,0.5-0.5,0.8s-0.2,0.6-0.3,0.9
			c0,0.1,0,0.1,0,0.2c0,0.1,0,0.1,0,0.2c0,0.1,0,0.1,0,0.2c0,0.1,0,0.1,0,0.2l0,0C102.2,41,102.2,41.1,102.2,41.2z"/>
		<path class="st2" d="M113.1,32.3v5c0.2-0.1,0.4-0.3,0.6-0.4c0.2-0.1,0.4-0.2,0.6-0.3s0.4-0.2,0.7-0.2c0.2-0.1,0.5-0.1,0.8-0.1
			c0.5,0,0.9,0.1,1.4,0.2c0.4,0.1,0.8,0.4,1.2,0.6c0.4,0.3,0.6,0.6,0.8,1c0.2,0.4,0.3,0.8,0.3,1.3v6.4h-1.7v-5.5
			c0-0.4-0.1-0.7-0.2-1s-0.3-0.5-0.5-0.8c-0.2-0.2-0.4-0.4-0.7-0.5c-0.3-0.1-0.5-0.2-0.8-0.2c-0.4,0-0.7,0-0.9,0.1
			c-0.3,0.1-0.5,0.2-0.7,0.4s-0.3,0.4-0.4,0.6c-0.1,0.2-0.2,0.4-0.3,0.6c0,0.1,0,0.1,0,0.2c0,0.1,0,0.1,0,0.2c0,0.1,0,0.1,0,0.2
			s0,0.1,0,0.2v5.3h-1.7V32.3H113.1z"/>
		<path class="st2" d="M121.4,40.2c0-0.5,0.1-1,0.3-1.5c0.2-0.5,0.5-0.9,0.8-1.3c0.4-0.4,0.8-0.7,1.3-0.9s1.1-0.3,1.7-0.3
			c0.1,0,0.2,0,0.3,0c0.1,0,0.3,0,0.4,0.1c0.1,0,0.3,0.1,0.4,0.1s0.3,0.1,0.5,0.2c0.3,0.1,0.5,0.3,0.8,0.4c0.2,0.2,0.5,0.4,0.7,0.7
			c0.2,0.2,0.4,0.5,0.5,0.9s0.2,0.8,0.2,1.2l0,0c0,0,0,0,0,0.1l0,0c0,0,0,0,0,0.1v5.7h-1.8v-5.5c0-0.3,0-0.6-0.1-0.8
			c-0.1-0.3-0.2-0.5-0.4-0.8c-0.2-0.3-0.4-0.5-0.7-0.6c-0.3-0.1-0.6-0.2-1-0.2c-0.3,0-0.7,0.1-0.9,0.2c-0.3,0.1-0.5,0.3-0.7,0.5
			s-0.3,0.5-0.5,0.7c-0.1,0.3-0.2,0.5-0.2,0.8v5.6h-1.7L121.4,40.2L121.4,40.2z"/>
		<path class="st2" d="M131.7,32.3h1.7l-0.9,4h-1.4L131.7,32.3z"/>
		<path class="st2" d="M138.7,44.1C138.7,44.2,138.7,44.2,138.7,44.1c0.1,0,0.1,0,0.2,0h0.1h0.1h0.1h0.1h0.1h0.1c0.2,0,0.3,0,0.4,0
			c0.1,0,0.3-0.1,0.4-0.1c0.1,0,0.2-0.1,0.3-0.2c0.1-0.1,0.1-0.2,0.1-0.4s0-0.3-0.1-0.5c-0.1-0.1-0.2-0.3-0.4-0.4
			c-0.2-0.1-0.4-0.2-0.7-0.3s-0.5-0.2-0.8-0.3h-0.1h-0.1c-0.1,0-0.1,0-0.1,0h-0.1c-0.1,0-0.2-0.1-0.3-0.1s-0.2-0.1-0.2-0.1
			c-0.4-0.1-0.8-0.2-1.1-0.4s-0.6-0.4-0.9-0.6c-0.2-0.2-0.4-0.5-0.6-0.8c-0.1-0.3-0.2-0.6-0.2-1c0-0.5,0.1-1,0.3-1.3
			s0.5-0.6,0.8-0.7c0.4-0.1,0.8-0.2,1.2-0.3s0.9-0.1,1.4-0.1h3.5V38h-3.7c-0.2,0-0.4,0.1-0.6,0.1c-0.2,0-0.4,0.1-0.6,0.1
			c-0.2,0.1-0.3,0.1-0.4,0.2c-0.1,0.1-0.1,0.2-0.1,0.4s0,0.3,0.1,0.5c0.1,0.1,0.2,0.2,0.4,0.3s0.3,0.2,0.5,0.2
			c0.2,0.1,0.4,0.1,0.6,0.2c0.1,0,0.1,0,0.2,0c0.1,0,0.1,0,0.2,0h0.1h0.1h0.1h0.1h0.1h0.1c0,0,0,0,0.1,0c0,0,0,0,0.1,0l0,0l0,0
			c0.6,0.2,1,0.4,1.4,0.6c0.4,0.2,0.7,0.4,0.9,0.6c0.2,0.2,0.4,0.5,0.5,0.8s0.2,0.6,0.2,1s-0.1,0.8-0.2,1.1
			c-0.1,0.3-0.3,0.5-0.5,0.7s-0.4,0.3-0.7,0.4c-0.2,0.1-0.5,0.2-0.7,0.2c-0.1,0-0.2,0-0.3,0s-0.2,0-0.2,0h-0.1h-0.1h-0.1h-0.1h-0.1
			h-0.1h-0.1h-0.1h-0.1H139h-0.1h-0.1H135v-1.7h3.7V44.1z"/>
		<path class="st2" d="M100.7,59.2c0.2-0.6,0.6-1.1,1.1-1.5s1-0.7,1.6-1c0.5-0.2,1.1-0.3,1.7-0.3h0.1h0.1h0.1h0.1h0.1h0.1h0.1h0.1
			c0.5,0.1,1,0.2,1.5,0.5c0.5,0.2,0.9,0.5,1.4,0.9c0.4,0.4,0.7,0.9,1,1.4c0.2,0.6,0.3,1.3,0.3,2c0,0.1,0,0.1,0,0.2
			c0,0.1,0,0.1,0,0.1c0,0.1,0,0.1,0,0.2c0,0.1,0,0.1,0,0.2c0,0.1,0,0.2,0,0.3s0,0.2-0.1,0.3c-0.1,0.5-0.3,0.9-0.5,1.3
			c-0.2,0.4-0.5,0.8-0.9,1.2c-0.4,0.4-0.8,0.7-1.3,0.8c-0.5,0.2-1.1,0.3-1.7,0.3c-0.9,0-1.6-0.1-2.3-0.4c-0.6-0.2-1.2-0.6-1.6-1.1
			s-0.7-1-0.9-1.6c-0.2-0.6-0.3-1.2-0.3-1.9l0,0C100.4,60.4,100.5,59.8,100.7,59.2z M102.2,61.4c0,0.1,0,0.2,0,0.3s0,0.2,0,0.3
			s0,0.2,0,0.3c0.1,0.3,0.2,0.6,0.3,0.8c0.1,0.3,0.3,0.5,0.5,0.8c0.2,0.2,0.5,0.4,0.8,0.5s0.7,0.2,1.1,0.2s0.8-0.1,1.2-0.2
			c0.4-0.1,0.7-0.3,1-0.5c0.3-0.2,0.5-0.6,0.7-1c0.1-0.4,0.2-1,0.2-1.6c0-0.5-0.1-0.9-0.2-1.2c-0.1-0.4-0.3-0.7-0.6-1
			c-0.3-0.3-0.6-0.5-1-0.6s-0.8-0.2-1.3-0.2s-0.9,0.1-1.2,0.2c-0.3,0.1-0.6,0.3-0.8,0.6c-0.2,0.2-0.4,0.5-0.5,0.8s-0.2,0.6-0.3,0.9
			c0,0.1,0,0.1,0,0.2c0,0.1,0,0.1,0,0.2c0,0.1,0,0.1,0,0.2c0,0.1,0,0.1,0,0.2l0,0C102.2,61.2,102.2,61.3,102.2,61.4z"/>
		<path class="st2" d="M113,56.7v0.9c0,0,0,0,0.1-0.1c0,0,0-0.1,0.1-0.1l0.1-0.1l0.1-0.1c0.1-0.1,0.2-0.2,0.3-0.3
			c0.1-0.1,0.3-0.2,0.4-0.3c0.2-0.1,0.3-0.1,0.5-0.2c0.2,0,0.4-0.1,0.6-0.1h0.6V58h-0.5c-0.4,0.1-0.7,0.2-0.9,0.3
			c-0.3,0.1-0.5,0.3-0.7,0.5s-0.3,0.4-0.4,0.6c-0.1,0.2-0.2,0.4-0.3,0.6c-0.1,0.2-0.1,0.3-0.1,0.5s0,0.3,0,0.4c0,0.2,0,0.3,0,0.4
			c0,0.1,0,0.2,0,0.3V66h-1.7v-9.3H113z"/>
		<path class="st2" d="M116.6,61.3c0-0.7,0.1-1.3,0.3-1.8c0.2-0.5,0.4-1,0.8-1.3c0.3-0.4,0.7-0.7,1.1-0.9s0.8-0.4,1.2-0.6
			c0.1,0,0.2-0.1,0.3-0.1c0.1,0,0.2,0,0.3-0.1c0.1,0,0.1,0,0.2,0s0.1,0,0.2,0s0.1,0,0.2,0s0.1,0,0.2,0c0.7,0,1.3,0.1,1.8,0.2
			c0.5,0.2,1,0.4,1.3,0.7s0.6,0.7,0.9,1c0.3,0.4,0.4,0.7,0.6,1.1c0.1,0.2,0.1,0.3,0.1,0.5s0.1,0.3,0.1,0.5s0,0.3,0.1,0.4
			c0,0.1,0,0.3,0,0.4c0,0.1,0,0.3,0,0.4c0,0.1,0,0.3-0.1,0.5c0,0.2,0,0.3-0.1,0.5c0,0.2-0.1,0.3-0.1,0.5c-0.1,0.4-0.3,0.7-0.5,1.1
			c-0.2,0.3-0.5,0.7-0.8,1s-0.7,0.6-1.2,0.8c-0.5,0.2-1.1,0.3-1.7,0.3c-0.2,0-0.4,0-0.6,0s-0.4-0.1-0.6-0.1
			c-0.2-0.1-0.4-0.1-0.7-0.2c-0.3-0.1-0.5-0.2-0.8-0.4v-1.9c0.2,0.1,0.4,0.2,0.5,0.3c0.2,0.1,0.3,0.1,0.4,0.2s0.3,0.1,0.4,0.1
			s0.2,0.1,0.4,0.1c0.1,0,0.1,0,0.2,0s0.1,0,0.2,0s0.1,0,0.2,0s0.2,0,0.3,0c0.5,0,0.9-0.1,1.3-0.2s0.7-0.4,0.9-0.7s0.4-0.7,0.5-1
			c0.1-0.4,0.2-0.8,0.2-1.2c0-0.5-0.1-0.9-0.2-1.3c-0.2-0.4-0.4-0.7-0.7-1c-0.3-0.3-0.7-0.5-1-0.6s-0.7-0.2-1.1-0.2
			c-0.1,0-0.2,0-0.3,0c-0.1,0-0.2,0-0.3,0.1c-0.1,0-0.2,0-0.3,0.1c-0.1,0-0.2,0.1-0.3,0.1c-0.2,0.1-0.5,0.3-0.7,0.5
			s-0.4,0.4-0.6,0.7c-0.2,0.2-0.3,0.5-0.4,0.9c-0.1,0.3-0.1,0.7-0.1,1.2v8.5h-1.7v-9.1H116.6z"/>
		<path class="st2" d="M127.6,59.2c0.2-0.6,0.6-1.1,1.1-1.5s1-0.7,1.6-1c0.5-0.2,1.1-0.3,1.7-0.3h0.1h0.1h0.1h0.1h0.1h0.1h0.1h0.1
			c0.5,0.1,1,0.2,1.5,0.5c0.5,0.2,0.9,0.5,1.4,0.9c0.4,0.4,0.7,0.9,1,1.4c0.2,0.6,0.3,1.3,0.3,2c0,0.1,0,0.1,0,0.2
			c0,0.1,0,0.1,0,0.1c0,0.1,0,0.1,0,0.2c0,0.1,0,0.1,0,0.2c0,0.1,0,0.2,0,0.3s0,0.2-0.1,0.3c-0.1,0.5-0.3,0.9-0.5,1.3
			c-0.2,0.4-0.5,0.8-0.9,1.2c-0.4,0.4-0.8,0.7-1.3,0.8c-0.5,0.2-1.1,0.3-1.7,0.3c-0.9,0-1.6-0.1-2.3-0.4c-0.6-0.2-1.2-0.6-1.6-1.1
			c-0.4-0.5-0.7-1-0.9-1.6c-0.2-0.6-0.3-1.2-0.3-1.9l0,0C127.3,60.4,127.4,59.8,127.6,59.2z M129.1,61.4c0,0.1,0,0.2,0,0.3
			s0,0.2,0,0.3s0,0.2,0,0.3c0.1,0.3,0.2,0.6,0.3,0.8c0.1,0.3,0.3,0.5,0.5,0.8c0.2,0.2,0.5,0.4,0.8,0.5s0.7,0.2,1.1,0.2
			c0.4,0,0.8-0.1,1.2-0.2s0.7-0.3,1-0.5c0.3-0.2,0.5-0.6,0.7-1c0.1-0.4,0.2-1,0.2-1.6c0-0.5-0.1-0.9-0.2-1.2c-0.1-0.4-0.3-0.7-0.6-1
			s-0.6-0.5-1-0.6s-0.8-0.2-1.3-0.2s-0.9,0.1-1.2,0.2c-0.3,0.1-0.6,0.3-0.8,0.6c-0.2,0.2-0.4,0.5-0.5,0.8s-0.2,0.6-0.3,0.9
			c0,0.1,0,0.1,0,0.2c0,0.1,0,0.1,0,0.2c0,0.1,0,0.1,0,0.2c0,0.1,0,0.1,0,0.2l0,0C129.1,61.2,129.1,61.3,129.1,61.4z"/>
		<path class="st2" d="M139.9,56.7v0.9c0,0,0,0,0.1-0.1c0,0,0-0.1,0.1-0.1l0.1-0.1l0.1-0.1c0.1-0.1,0.2-0.2,0.3-0.3s0.3-0.2,0.4-0.3
			c0.2-0.1,0.3-0.1,0.5-0.2c0.2,0,0.4-0.1,0.6-0.1h0.6V58h-0.5c-0.4,0.1-0.7,0.2-0.9,0.3c-0.3,0.1-0.5,0.3-0.7,0.5s-0.3,0.4-0.4,0.6
			c-0.1,0.2-0.2,0.4-0.3,0.6c-0.1,0.2-0.1,0.3-0.1,0.5s0,0.3,0,0.4c0,0.2,0,0.3,0,0.4c0,0.1,0,0.2,0,0.3V66h-1.7v-9.3H139.9z"/>
		<path class="st2" d="M151.2,60.6c0-0.3-0.1-0.6-0.2-0.8c-0.1-0.3-0.3-0.5-0.5-0.8s-0.5-0.5-0.9-0.6s-0.9-0.2-1.4-0.2
			c-0.1,0-0.2,0-0.3,0s-0.2,0-0.3,0.1c-0.1,0-0.2,0-0.3,0.1c-0.1,0-0.2,0.1-0.3,0.2c-0.2,0.1-0.4,0.2-0.6,0.4
			c-0.2,0.2-0.4,0.4-0.6,0.6c-0.2,0.2-0.3,0.5-0.4,0.8c-0.1,0.3-0.2,0.6-0.2,1c0,0.5,0.1,1,0.2,1.3c0.1,0.4,0.4,0.7,0.6,1
			c0.3,0.2,0.6,0.4,0.9,0.6c0.3,0.1,0.6,0.2,1,0.3l0,0l0,0c0,0,0,0,0.1,0l0,0c0,0,0,0,0.1,0s0,0,0.1,0l0,0l0,0c0.2,0,0.3,0,0.4,0
			c0.1,0,0.3-0.1,0.4-0.1c0.1,0,0.1-0.1,0.2-0.1c0.1,0,0.1-0.1,0.2-0.1c0.1,0,0.1-0.1,0.2-0.1c0.1,0,0.1-0.1,0.2-0.1
			c0.1,0,0.1-0.1,0.2-0.1c0.1-0.1,0.1-0.1,0.2-0.2c0.1-0.1,0.1-0.1,0.2-0.2c0.1-0.1,0.1-0.1,0.2-0.2v2.1c0,0,0,0,0,0.1l0,0
			c-0.2,0.1-0.3,0.2-0.5,0.3c-0.2,0.1-0.3,0.2-0.5,0.2c-0.2,0.1-0.4,0.1-0.7,0.1s-0.6,0-0.9,0l0,0l0,0c0,0,0,0-0.1,0l0,0l0,0l0,0
			l0,0c-0.6,0-1.1-0.1-1.7-0.3c-0.5-0.2-1-0.5-1.4-1s-0.7-1-1-1.6c-0.2-0.6-0.3-1.2-0.3-2c0-0.6,0.1-1.2,0.3-1.8s0.5-1.1,0.9-1.5
			c0.4-0.5,0.9-0.8,1.5-1s1.3-0.3,2.1-0.3s1.4,0.1,2,0.3s1.1,0.5,1.5,0.9s0.7,0.8,0.9,1.3s0.3,0.9,0.3,1.4V66h-1.8L151.2,60.6
			L151.2,60.6z"/>
		<path class="st2" d="M154.8,54.4h1.8v2.3h3.5v1.7h-3.5v4.7c0,0.2,0,0.3,0,0.5c0,0.1,0.1,0.3,0.1,0.4c0.1,0.1,0.2,0.2,0.3,0.3
			c0.2,0.1,0.4,0.1,0.7,0.1h2.1V66h-2.3l0,0l0,0l0,0l0,0l0,0l0,0l0,0l0,0c-0.4,0-0.8-0.1-1.1-0.2s-0.6-0.3-0.8-0.6
			c-0.2-0.3-0.4-0.6-0.5-0.9s-0.2-0.6-0.2-1v-0.1v-0.1V63v-0.1l0,0v-8.5H154.8z"/>
		<path class="st2" d="M161.8,54.2c0.1-0.1,0.1-0.2,0.3-0.3c0.1-0.1,0.2-0.1,0.3-0.2c0.1,0,0.2-0.1,0.4-0.1c0.1,0,0.3,0,0.4,0.1
			c0.1,0,0.2,0.1,0.3,0.2c0.1,0.1,0.2,0.2,0.3,0.3s0.1,0.3,0.1,0.4c0,0.2,0,0.3-0.1,0.4c-0.1,0.1-0.1,0.2-0.2,0.3
			c-0.1,0.1-0.2,0.2-0.3,0.2s-0.2,0.1-0.4,0.1c-0.1,0-0.3,0-0.4,0c-0.1,0-0.3-0.1-0.4-0.2c-0.1-0.1-0.2-0.2-0.3-0.3
			s-0.1-0.3-0.1-0.5l0,0C161.7,54.4,161.7,54.3,161.8,54.2z M161.8,56.7h1.7V66h-1.7V56.7z"/>
		<path class="st2" d="M166.3,59.2c0.2-0.6,0.6-1.1,1.1-1.5s1-0.7,1.6-1c0.5-0.2,1.1-0.3,1.7-0.3h0.1h0.1h0.1h0.1h0.1h0.1h0.1h0.1
			c0.5,0.1,1,0.2,1.5,0.5c0.5,0.2,0.9,0.5,1.4,0.9c0.4,0.4,0.7,0.9,1,1.4c0.2,0.6,0.3,1.3,0.3,2c0,0.1,0,0.1,0,0.2
			c0,0.1,0,0.1,0,0.1c0,0.1,0,0.1,0,0.2c0,0.1,0,0.1,0,0.2c0,0.1,0,0.2,0,0.3s0,0.2-0.1,0.3c-0.1,0.5-0.3,0.9-0.5,1.3
			c-0.2,0.4-0.5,0.8-0.9,1.2c-0.4,0.4-0.8,0.7-1.3,0.8c-0.5,0.2-1.1,0.3-1.7,0.3c-0.9,0-1.6-0.1-2.3-0.4c-0.6-0.2-1.2-0.6-1.6-1.1
			c-0.4-0.5-0.7-1-0.9-1.6s-0.3-1.2-0.3-1.9l0,0C165.9,60.4,166.1,59.8,166.3,59.2z M167.8,61.4c0,0.1,0,0.2,0,0.3s0,0.2,0,0.3
			s0,0.2,0,0.3c0.1,0.3,0.2,0.6,0.3,0.8c0.1,0.3,0.3,0.5,0.5,0.8c0.2,0.2,0.5,0.4,0.8,0.5s0.7,0.2,1.1,0.2c0.4,0,0.8-0.1,1.2-0.2
			s0.7-0.3,1-0.5c0.3-0.2,0.5-0.6,0.7-1c0.1-0.4,0.2-1,0.2-1.6c0-0.5-0.1-0.9-0.2-1.2c-0.1-0.4-0.3-0.7-0.6-1s-0.6-0.5-1-0.6
			s-0.8-0.2-1.3-0.2s-0.9,0.1-1.2,0.2c-0.3,0.1-0.6,0.3-0.8,0.6c-0.2,0.2-0.4,0.5-0.5,0.8s-0.2,0.6-0.3,0.9c0,0.1,0,0.1,0,0.2
			c0,0.1,0,0.1,0,0.2c0,0.1,0,0.1,0,0.2c0,0.1,0,0.1,0,0.2l0,0C167.8,61.2,167.8,61.3,167.8,61.4z"/>
		<path class="st2" d="M177.2,60.3c0-0.5,0.1-1,0.3-1.5s0.5-0.9,0.8-1.3c0.4-0.4,0.8-0.7,1.3-0.9s1.1-0.3,1.7-0.3c0.1,0,0.2,0,0.3,0
			s0.3,0,0.4,0.1c0.1,0,0.3,0.1,0.4,0.1c0.1,0,0.3,0.1,0.5,0.2c0.3,0.1,0.5,0.3,0.8,0.4c0.2,0.2,0.5,0.4,0.7,0.7
			c0.2,0.2,0.4,0.5,0.5,0.9s0.2,0.8,0.2,1.2l0,0c0,0,0,0,0,0.1l0,0c0,0,0,0,0,0.1V66h-1.8v-5.5c0-0.3,0-0.6-0.1-0.8
			c-0.1-0.3-0.2-0.5-0.4-0.8s-0.4-0.5-0.7-0.6s-0.6-0.2-1-0.2c-0.3,0-0.7,0.1-0.9,0.2c-0.3,0.1-0.5,0.3-0.7,0.5s-0.3,0.5-0.5,0.7
			c-0.1,0.3-0.2,0.5-0.2,0.8V66h-1.7L177.2,60.3L177.2,60.3z"/>
	</g>
	<g>
		<circle class="st3" cx="149.2" cy="36.3" r="3.8"/>
		<text transform="matrix(1 0 0 1 147.3301 37.8311)" class="st2 st4 st5">R</text>
	</g>
	<g>
		<path class="st2" d="M100.4,77.9c-2.2,2.2-4.6,4.1-7.3,5.7c-3,1.8-6.2,3.2-9.7,4.1C80.3,88.6,77,89,73.6,89
			c-10.4,0-19.9-4.2-26.8-11.1c-6.8-6.8-11-16.3-11-26.7S40,31.3,46.9,24.4c6.8-6.8,16.3-11.1,26.8-11.1v9.3c-7.9,0-15,3.2-20.1,8.3
			c-5.2,5.2-8.3,12.3-8.3,20.1c0,7.9,3.2,15,8.3,20.1c5.2,5.2,12.3,8.3,20.1,8.3c3.4,0,6.7-0.6,9.8-1.7c3.6-1.3,6.9-3.4,9.7-6
			c0.2-0.2,0.4-0.4,0.7-0.6L100.4,77.9z"/>
	</g>
	<g>
		<path class="st2" d="M100.4,24.4L93.8,31c-0.2-0.2-0.4-0.4-0.7-0.6v20.8c0,5.4-2.2,10.2-5.7,13.8c-1.2,1.2-2.5,2.2-4,3.1
			c-2.9,1.7-6.2,2.6-9.8,2.6c-5.4,0-10.2-2.2-13.8-5.7c-3.5-3.5-5.7-8.4-5.7-13.8s2.2-10.2,5.7-13.8l6.8,6.8
			c-1.8,1.8-2.9,4.2-2.9,6.9s1.1,5.2,2.9,6.9c1.8,1.8,4.2,2.9,6.9,2.9c2.7,0,5.2-1.1,6.9-2.9c1.8-1.8,2.9-4.2,2.9-6.9V14.6
			c3.4,0.9,6.7,2.3,9.7,4.1C95.8,20.3,98.2,22.2,100.4,24.4z"/>
	</g>
</g>
</svg>
