<svg width="65" height="36" viewBox="0 0 65 36" fill="none" xmlns="http://www.w3.org/2000/svg">
    <path d="M5.2876 32.4123L2.3999 0H34.1471L31.2594 32.3947L18.2473 36" fill="#E44D26"/>
    <path d="M18.2734 33.2435V2.66016H31.2506L28.7742 30.3121" fill="#F16529"/>
    <path d="M8.29785 6.62427H18.2735V10.597H12.6557L13.0232 14.6661H18.2735V18.6301H9.38293L8.29785 6.62427ZM9.55794 20.6252H13.5482L13.8282 23.8017L18.2735 24.9918V29.1396L10.118 26.8644" fill="#EBEBEB"/>
    <path d="M28.2141 6.62427H18.2559V10.597H27.8465L28.2141 6.62427ZM27.4878 14.6661H18.2559V18.6389H23.1562L22.6924 23.8017L18.2559 24.9918V29.1221L26.3939 26.8644" fill="white"/>
    <path d="M33 0.00107261C43.667 0.000143703 54.333 -0.000785206 65 0.00107261C64.4129 6.58239 63.8352 13.1637 63.2237 19.7432C62.8604 23.9483 62.4859 28.1535 62.0907 32.3559C59.8145 32.9541 57.5606 33.6359 55.2853 34.2369C53.1953 34.8454 51.0885 35.3962 48.9977 36H48.9359C46.9461 35.4129 44.9367 34.8965 42.9469 34.3094C40.5985 33.6814 38.2708 32.981 35.9214 32.3559C35.6152 29.206 35.339 26.0542 35.0665 22.9024C34.5525 17.0791 33.9935 11.2594 33.4991 5.43519C33.3277 3.68234 33.2051 1.92391 33 0.174779V0.00107261ZM49.0501 2.59737C49.0276 3.86162 49.0669 5.12679 49.0276 6.39011C45.3683 6.3771 41.7081 6.38732 38.0488 6.39104C38.1116 7.61812 38.2773 8.83685 38.4477 10.0537C41.8523 10.1791 45.2616 10.0491 48.6662 10.1503C45.6876 11.4759 42.6726 12.7243 39.6809 14.022C39.4243 14.1353 39.15 14.2208 38.9206 14.3862C38.9459 15.734 39.165 17.0744 39.2614 18.4195C41.0761 18.413 42.8898 18.3842 44.7045 18.3814C46.1586 18.374 47.6137 18.4028 49.0679 18.3712C48.9986 20.5875 49.0894 22.8067 49.0211 25.0231C48.0426 24.8791 47.0763 24.6627 46.1015 24.4908C45.3328 24.3245 44.5453 24.2382 43.7878 24.0199C43.6801 22.9563 43.6052 21.8889 43.5097 20.8244C43.2906 20.7575 43.0583 20.764 42.8317 20.7603C41.7325 20.7668 40.6322 20.7566 39.532 20.7733C39.6397 22.8197 39.8251 24.8633 40.1407 26.8902C41.225 27.1707 42.3111 27.4457 43.3936 27.7383C45.0519 28.186 46.7307 28.5585 48.3918 28.9988C48.5894 29.0406 48.7889 29.1131 48.9939 29.0963C49.1044 30.4423 49.0192 31.7967 49.0398 33.1464C49.4228 33.0851 49.7992 32.9913 50.169 32.8779C53.3133 32.0308 56.4539 31.1678 59.5963 30.3123C59.7527 29.0861 59.8257 27.8516 59.9493 26.6227C60.2761 22.8866 60.6057 19.1505 60.9484 15.4154C61.3501 11.1424 61.6975 6.86478 62.102 2.5918C57.7507 2.59551 53.4004 2.58344 49.0501 2.59737Z" fill="#0170BA"/>
    <path d="M49.0503 2.59737C53.4006 2.58343 57.7509 2.59551 62.1022 2.59179C61.6977 6.86477 61.3503 11.1424 60.9486 15.4154C60.6059 19.1505 60.2763 22.8866 59.9495 26.6227C59.8259 27.8516 59.7529 29.0861 59.5965 30.3123C56.4541 31.1678 53.3136 32.0308 50.1693 32.8779C49.7994 32.9913 49.423 33.0851 49.04 33.1464C49.0194 31.7967 49.1046 30.4423 48.9941 29.0963C49.0222 29.0908 49.0793 29.0796 49.1074 29.0741C52.0317 28.3458 54.9363 27.5441 57.8539 26.7899C58.2229 22.6841 58.6321 18.5802 58.8914 14.466C56.4101 14.479 53.9278 14.4716 51.4465 14.4818C51.085 14.4837 50.7236 14.4818 50.364 14.4558C51.6993 13.774 53.1038 13.2334 54.4746 12.6249C55.7902 12.0332 57.1217 11.4787 58.442 10.8981C58.6967 10.782 58.9682 10.6854 59.192 10.5126C59.28 10.1921 59.2753 9.85679 59.31 9.52888C59.3858 8.48851 59.5207 7.4537 59.5712 6.4124C56.0571 6.38453 52.5429 6.40868 49.0278 6.3901C49.0672 5.12679 49.0279 3.86161 49.0503 2.59737Z" fill="#29A9DF"/>
    <path d="M49.0683 18.3712C50.765 18.3424 52.4626 18.3879 54.1602 18.3767C54.0656 20.098 53.9214 21.8165 53.8315 23.5377C52.7913 23.8749 51.735 24.1601 50.6863 24.4722C50.1273 24.6413 49.5533 24.7751 49.0215 25.0231C49.0898 22.8067 48.999 20.5875 49.0683 18.3712Z" fill="#29A9DF"/>
    <path d="M38.0488 6.391C41.7081 6.38728 45.3683 6.37707 49.0276 6.39007C49.0754 10.3844 49.0154 14.3787 49.0679 18.3711C47.6137 18.4027 46.1586 18.3739 44.7045 18.3814C42.8898 18.3841 41.0761 18.4129 39.2614 18.4194C39.165 17.0744 38.9459 15.734 38.9206 14.3861C39.15 14.2208 39.4243 14.1353 39.6809 14.022C42.6726 12.7243 45.6876 11.4758 48.6662 10.1503C45.2616 10.049 41.8523 10.1791 38.4477 10.0537C38.2773 8.83682 38.1116 7.61809 38.0488 6.391Z" fill="#CFCFCF"/>
    <path d="M39.5322 20.7733C40.6324 20.7565 41.7327 20.7668 42.8319 20.7603C43.0585 20.764 43.2908 20.7575 43.5099 20.8243C43.6054 21.8889 43.6803 22.9562 43.788 24.0198C44.5455 24.2381 45.333 24.3245 46.1017 24.4908C47.0765 24.6626 48.0428 24.879 49.0213 25.023C49.1149 26.3718 48.951 27.7299 49.1074 29.074C49.0793 29.0796 49.0222 29.0907 48.9941 29.0963C48.7891 29.113 48.5896 29.0405 48.392 28.9987C46.7309 28.5584 45.0521 28.186 43.3938 27.7382C42.3113 27.4456 41.2252 27.1707 40.1409 26.8901C39.8253 24.8632 39.6399 22.8196 39.5322 20.7733Z" fill="#CFCFCF"/>
    <path d="M49.0275 6.39014C52.5426 6.40871 56.0568 6.38456 59.5709 6.41243C59.5204 7.45374 59.3855 8.48854 59.3097 9.52892C59.275 9.85682 59.2797 10.1922 59.1917 10.5126C58.9679 10.6854 58.6964 10.782 58.4417 10.8981C57.1214 11.4787 55.7899 12.0333 54.4743 12.625C53.1035 13.2334 51.699 13.774 50.3637 14.4559C50.7233 14.4819 51.0847 14.4837 51.4462 14.4819C53.9275 14.4716 56.4098 14.4791 58.8911 14.4661C58.6318 18.5802 58.2226 22.6841 57.8536 26.7899C54.936 27.5442 52.0314 28.3458 49.1071 29.0741C48.9508 27.73 49.1146 26.3719 49.021 25.0231C49.5528 24.7751 50.1268 24.6413 50.6858 24.4723C51.7346 24.1602 52.7908 23.875 53.8311 23.5378C53.921 21.8165 54.0651 20.098 54.1597 18.3768C52.4621 18.3879 50.7645 18.3424 49.0678 18.3712C49.0154 14.3788 49.0753 10.3844 49.0275 6.39014Z" fill="white"/>
</svg>
