<svg width="36" height="36" viewBox="0 0 36 36" fill="none" xmlns="http://www.w3.org/2000/svg">
    <path d="M0 0H36V36H0V0Z" fill="#F7DF1E"/>
    <path d="M9.46588 30.0842L12.2208 28.417C12.7523 29.3593 13.2358 30.1566 14.3955 30.1566C15.5072 30.1566 16.208 29.7218 16.208 28.0303V16.5275H19.5911V28.0782C19.5911 31.5822 17.5372 33.1771 14.5406 33.1771C11.8342 33.1771 10.2632 31.7754 9.46582 30.0839" fill="white"/>
    <path d="M21.4287 29.7218L24.1833 28.1268C24.9085 29.3111 25.8509 30.181 27.5183 30.181C28.92 30.181 29.8139 29.4801 29.8139 28.5135C29.8139 27.3535 28.8957 26.9427 27.3491 26.2663L26.5035 25.9035C24.0627 24.8646 22.4435 23.5597 22.4435 20.8048C22.4435 18.2674 24.3767 16.3341 27.3975 16.3341C29.5483 16.3341 31.0948 17.0833 32.2063 19.0407L29.5723 20.7322C28.9923 19.6932 28.3641 19.2824 27.3976 19.2824C26.4068 19.2824 25.7784 19.9107 25.7784 20.7322C25.7784 21.7472 26.4068 22.1581 27.8565 22.7864L28.7023 23.1489C31.578 24.3814 33.1971 25.6379 33.1971 28.4651C33.1971 31.5102 30.8048 33.1774 27.5908 33.1774C24.4493 33.1774 22.4194 31.6792 21.4288 29.7218" fill="white"/>
</svg>
