<svg width="34" height="34" viewBox="0 0 34 34" fill="none" xmlns="http://www.w3.org/2000/svg">
    <path d="M33.9749 7.69224C33.9711 7.6764 33.9611 7.66299 33.9561 7.64715C33.9448 7.61912 33.936 7.58988 33.921 7.56429C33.9109 7.54723 33.8959 7.53261 33.8833 7.51676C33.867 7.49605 33.8532 7.4729 33.8344 7.45462C33.8181 7.43878 33.798 7.42781 33.7804 7.4144C33.7604 7.39856 33.7428 7.3815 33.7202 7.36932L27.1398 3.68923C26.9704 3.59418 26.7621 3.59418 26.5928 3.68923L20.0123 7.36932C19.9897 7.3815 19.9722 7.39978 19.9521 7.4144C19.9345 7.42781 19.9145 7.43878 19.8982 7.45462C19.8793 7.4729 19.8655 7.49605 19.8492 7.51676C19.8367 7.53261 19.8216 7.54723 19.8116 7.56429C19.7965 7.58988 19.7865 7.61912 19.7765 7.64715C19.7702 7.66177 19.7614 7.6764 19.7576 7.69224C19.7451 7.73733 19.7388 7.78363 19.7388 7.83116V14.8209L14.2549 17.888V4.21321C14.2549 4.16569 14.2486 4.11938 14.2361 4.0743C14.2323 4.05846 14.2223 4.04505 14.2173 4.02921C14.206 4.00118 14.1972 3.97194 14.1821 3.94635C14.1721 3.92929 14.157 3.91466 14.1445 3.89882C14.1282 3.87811 14.1144 3.85495 14.0956 3.83668C14.0793 3.82083 14.0592 3.80987 14.0416 3.79646C14.0215 3.78062 14.004 3.76356 13.9814 3.75138L7.40096 0.0712865C7.23159 -0.0237622 7.02332 -0.0237622 6.85395 0.0712865L0.273506 3.75138C0.250923 3.76356 0.233358 3.78184 0.213284 3.79646C0.195719 3.80987 0.175645 3.82083 0.159335 3.83668C0.140516 3.85495 0.126716 3.87811 0.110406 3.89882C0.0978594 3.91466 0.0828047 3.92929 0.0727678 3.94635C0.0577124 3.97194 0.0476747 4.00118 0.0376378 4.02921C0.0313647 4.04383 0.0225832 4.05846 0.0188194 4.0743C0.00627325 4.11938 0 4.16569 0 4.21321V26.1061C0 26.2962 0.105387 26.4729 0.27476 26.5679L13.4369 33.9281C13.4658 33.9439 13.4971 33.9537 13.5272 33.9647C13.541 33.9695 13.5548 33.9781 13.5699 33.9817C13.6163 33.9939 13.6627 34 13.7104 34C13.7581 34 13.8045 33.9939 13.8509 33.9817C13.8635 33.9781 13.8748 33.9708 13.8873 33.9671C13.9199 33.9561 13.9525 33.9452 13.9827 33.9293L27.1448 26.5691C27.3154 26.4741 27.4196 26.2986 27.4196 26.1073V19.1176L33.7252 15.591C33.8959 15.496 34 15.3205 34 15.1292V7.83116C33.9937 7.78363 33.9862 7.73733 33.9749 7.69224ZM13.7004 25.4931L8.22649 22.4845L13.9751 19.2699L20.2821 15.7433L25.761 18.8068L21.7412 21.0356L13.7004 25.4931ZM26.3155 11.8195V17.888L24.012 16.6L20.8303 14.8209V8.7524L23.1338 10.0404L26.3155 11.8195ZM26.8638 4.76523L32.3452 7.83116L26.8638 10.8971L21.3824 7.83116L26.8638 4.76523ZM9.97292 20.2801L7.66945 21.5681V8.2016L10.8511 6.42249L13.1546 5.13445V18.4998L9.97292 20.2801ZM7.12118 1.1485L12.6026 4.21443L7.12118 7.28036L1.63978 4.21443L7.12118 1.1485ZM1.08775 5.13445L3.39122 6.42249L6.57292 8.2016V22.4881V22.4894V22.4906C6.57292 22.5113 6.57919 22.5308 6.5817 22.5503C6.58546 22.5759 6.58546 22.6027 6.59299 22.6283V22.6295C6.59926 22.6502 6.61055 22.6697 6.61933 22.6892C6.62937 22.7111 6.63565 22.7355 6.64819 22.7562C6.64819 22.7562 6.64819 22.7574 6.64945 22.7574C6.66074 22.7757 6.67705 22.7916 6.69085 22.8086C6.7059 22.8281 6.71845 22.8476 6.73601 22.8647L6.73727 22.8659C6.75232 22.8805 6.7724 22.8915 6.78996 22.9049C6.81004 22.9195 6.8276 22.9366 6.84893 22.9488C6.85018 22.9488 6.85018 22.9488 6.85144 22.95C6.85269 22.95 6.85269 22.9512 6.85395 22.9512L13.1571 26.4156V32.5438L1.08775 25.7978V5.13445ZM26.3155 25.7978L14.2499 32.545V26.4156L23.1852 21.4609L26.3155 19.7256V25.7978ZM32.8959 14.8209L27.412 17.888V11.8195L30.5937 10.0404L32.8972 8.7524V14.8209H32.8959Z" fill="#FF2D20"/>
</svg>
