<svg width="48" height="40" viewBox="0 0 48 40" fill="none" xmlns="http://www.w3.org/2000/svg">
    <path d="M0.141113 19.9566C0.141113 23.2984 3.65903 26.4178 9.20505 28.1763C8.09753 33.3479 9.00668 37.5165 12.0429 39.1407C15.1637 40.8102 19.8132 39.6546 24.2262 36.0763C28.5278 39.5101 32.8752 40.8614 35.9088 39.2325C39.0268 37.5582 39.975 33.1071 38.8369 27.7738C44.6135 26.0024 47.8448 23.3424 47.8448 19.9566C47.8448 16.6924 44.3205 13.8686 38.8491 12.1215C40.0743 6.56787 39.0362 2.50056 35.8741 0.809247C32.8257 -0.821366 28.4277 0.599855 24.0629 4.12334C19.5218 0.383507 15.1673 -0.758235 12.0086 0.93777C8.963 2.57308 8.09397 6.81744 9.20505 12.0848C3.84615 13.8178 0.141113 16.7056 0.141113 19.9566Z" fill="white"/>
    <path d="M37.6906 13.8564C37.2397 13.7129 36.7849 13.58 36.3268 13.4578C36.4027 13.1714 36.473 12.8837 36.5375 12.595C37.5698 7.94663 36.8949 4.20195 34.5898 2.96925C32.3799 1.78699 28.7654 3.01969 25.1149 5.96629C24.7552 6.25731 24.4035 6.5567 24.0601 6.8642C23.8301 6.65973 23.5961 6.45924 23.3581 6.26281C19.5323 3.11186 15.6976 1.78421 13.395 3.02056C11.1871 4.20612 10.5331 7.72663 11.4625 12.1318C11.555 12.5681 11.6594 13.0021 11.7756 13.4334C11.233 13.5764 10.709 13.7287 10.2076 13.8908C5.72242 15.3412 2.85791 17.6146 2.85791 19.9725C2.85791 22.408 5.93278 24.8508 10.6047 26.3318C10.9835 26.4514 11.3655 26.5621 11.7503 26.664C11.6253 27.1287 11.5143 27.5965 11.4175 28.0669C10.5314 32.3956 11.2234 35.8327 13.4255 37.0109C15.7 38.2274 19.5173 36.977 23.2346 33.9631C23.5284 33.7248 23.8233 33.4721 24.1186 33.2073C24.4905 33.5402 24.8724 33.8634 25.2638 34.1765C28.8644 37.0504 32.4204 38.2109 34.6206 37.0295C36.893 35.8094 37.6313 32.117 36.6725 27.6247C36.5994 27.2816 36.5141 26.9311 36.4184 26.5742C36.6866 26.5009 36.9496 26.425 37.2063 26.3461C42.0631 24.8536 45.2229 22.4405 45.2229 19.9725C45.2229 17.6061 42.2661 15.3174 37.6906 13.8564Z" fill="#53C1DE"/>
    <path d="M36.6374 24.7527C36.4059 24.8238 36.1682 24.8925 35.9259 24.9591C35.3897 23.3847 34.666 21.7104 33.7806 19.9809C34.6257 18.2922 35.3213 16.6395 35.8425 15.0752C36.2758 15.1917 36.6965 15.3143 37.1019 15.4438C41.0223 16.6955 43.4136 18.5464 43.4136 19.9725C43.4136 21.4917 40.8309 23.4638 36.6376 24.7527H36.6374ZM34.8975 27.9508C35.3214 29.9372 35.382 31.7332 35.1011 33.1372C34.8488 34.3988 34.3414 35.2398 33.7141 35.5767C32.3789 36.2935 29.5236 35.3617 26.4446 32.904C26.0916 32.6223 25.7359 32.3214 25.3793 32.0031C26.5731 30.792 27.7661 29.384 28.9304 27.8205C30.9786 27.652 32.9135 27.3763 34.6682 27.0002C34.7545 27.3237 34.8313 27.6407 34.8975 27.9508ZM17.3014 35.4529C15.997 35.8802 14.9581 35.8923 14.3302 35.5565C12.9937 34.8417 12.4384 32.0817 13.196 28.38C13.2861 27.9425 13.3893 27.5075 13.5054 27.0753C15.2407 27.4313 17.1615 27.6875 19.2146 27.8419C20.3866 29.3718 21.6141 30.7781 22.8511 32.0096C22.5882 32.2455 22.3191 32.4753 22.044 32.6989C20.4002 34.0318 18.7531 34.9772 17.3016 35.4529H17.3014ZM11.1904 24.7433C9.12466 24.0884 7.41867 23.2372 6.24928 22.3085C5.19857 21.4737 4.66797 20.6451 4.66797 19.9725C4.66797 18.5418 6.96793 16.7165 10.8038 15.476C11.2853 15.321 11.7715 15.1791 12.262 15.0505C12.7922 16.6499 13.4876 18.3223 14.3268 20.0134C13.4767 21.7297 12.7714 23.4287 12.2363 25.047C11.885 24.9537 11.5363 24.8525 11.1904 24.7433ZM13.239 11.8094C12.4427 8.03499 12.9714 5.18786 14.3021 4.47343C15.7195 3.71239 18.8534 4.7976 22.1567 7.51812C22.3678 7.69203 22.5798 7.87412 22.7923 8.06247C21.5616 9.28838 20.3453 10.684 19.1834 12.2051C17.1909 12.3764 15.2836 12.6515 13.5302 13.02C13.4222 12.6188 13.3251 12.215 13.239 11.8092V11.8094ZM31.5133 15.995C31.0991 15.3314 30.6696 14.6762 30.225 14.0298C31.5768 14.188 32.8719 14.3985 34.0879 14.656C33.7229 15.7414 33.2678 16.8764 32.732 18.0398C32.3405 17.3508 31.9342 16.669 31.5133 15.995ZM24.061 9.26212C24.8957 10.1009 25.7318 11.0376 26.5541 12.0538C24.886 11.9806 23.2151 11.9803 21.547 12.0527C22.37 11.0459 23.2132 10.1106 24.061 9.26212ZM16.561 16.0065C16.1454 16.6751 15.7467 17.3527 15.3651 18.0386C14.8381 16.8791 14.3872 15.7391 14.019 14.6383C15.2277 14.3873 16.5167 14.1823 17.8597 14.0266C17.4102 14.6771 16.9771 15.3372 16.561 16.0065ZM17.8984 26.0383C16.5109 25.8946 15.2024 25.7 13.994 25.456C14.3681 24.3357 14.8289 23.1711 15.3672 21.9868C15.7503 22.6732 16.1508 23.3512 16.5683 24.0202C16.9943 24.7026 17.4378 25.3755 17.8984 26.0383ZM24.1111 30.8016C23.2533 29.943 22.3978 28.9934 21.5621 27.972C22.3732 28.0016 23.2003 28.0165 24.0408 28.0165C24.9044 28.0165 25.758 27.9986 26.5982 27.9638C25.7732 29.0038 24.9402 29.9548 24.1111 30.8016ZM32.7492 21.9264C33.3155 23.1237 33.7928 24.2819 34.1719 25.3833C32.9435 25.6433 31.6173 25.8527 30.22 26.0082C30.6678 25.3497 31.1014 24.683 31.5206 24.0085C31.9467 23.323 32.3564 22.6288 32.7492 21.9264ZM29.9528 23.1699C29.311 24.204 28.6332 25.2184 27.9204 26.2117C26.6634 26.295 25.3645 26.3379 24.0408 26.3379C22.7225 26.3379 21.4401 26.2998 20.2051 26.2256C19.4737 25.2347 18.7831 24.2185 18.1346 23.1791C17.4891 22.1453 16.8862 21.0891 16.3272 20.0129C16.8848 18.9363 17.4859 17.8796 18.1292 16.8449V16.8452C18.7722 15.8103 19.4574 14.7985 20.1833 13.8118C21.4433 13.7235 22.7351 13.6772 24.041 13.6772C25.3527 13.6772 26.6462 13.7238 27.9058 13.8129C28.6243 14.798 29.3051 15.8063 29.947 16.836C30.5925 17.8684 31.2016 18.9199 31.7733 19.9891C31.2075 21.0691 30.6003 22.13 29.953 23.1699H29.9528ZM33.6863 4.42352C35.1049 5.18247 35.6567 8.24281 34.7653 12.2562C34.7069 12.5176 34.6434 12.7781 34.5748 13.0374C32.8173 12.6612 30.9086 12.3812 28.9103 12.2073C27.7462 10.6698 26.5401 9.27168 25.3292 8.0616C25.6465 7.77787 25.9714 7.50149 26.3034 7.23273C29.4312 4.70786 32.3544 3.71099 33.6863 4.42352Z" fill="white"/>
    <path d="M24.0404 16.4635C26.1298 16.4635 27.8234 18.0346 27.8234 19.9726C27.8234 21.9107 26.1298 23.4818 24.0404 23.4818C21.9511 23.4818 20.2573 21.9107 20.2573 19.9726C20.2573 18.0346 21.9511 16.4635 24.0404 16.4635Z" fill="#53C1DE"/>
</svg>
