<?xml version="1.0" encoding="utf-8"?>
<!-- Generator: Adobe Illustrator 23.0.1, SVG Export Plug-In . SVG Version: 6.00 Build 0)  -->
<svg version="1.1" id="Layer_1" xmlns="http://www.w3.org/2000/svg" xmlns:xlink="http://www.w3.org/1999/xlink" x="0px" y="0px"
	 viewBox="0 0 333.3 73.9" style="enable-background:new 0 0 333.3 73.9;" xml:space="preserve">
<style type="text/css">
	.st0{fill:#9FA6B3;}
	.st1{fill:#E5E5E5;}
	.st2{fill-rule:evenodd;clip-rule:evenodd;fill:#E5E5E5;}
	.st3{fill-rule:evenodd;clip-rule:evenodd;fill:#9FA6B3;}
</style>
<g>
	<g id="logo-2">
		<rect x="66.7" y="37.5" class="st0" width="242.5" height="6.7"/>
		<path class="st0" d="M77.2,33.4v-3.7h8.3v1.8c0,5.3-3.6,8.7-9,8.7c-5.9,0-9.9-4.1-9.9-9.9s4.1-9.9,9.9-9.9c5.2,0,8.1,2.8,8.9,6.8
			H80c-0.6-1.5-1.7-2.4-3.5-2.4c-2.9,0-4.6,2.4-4.6,5.5c0,3.3,1.8,5.5,4.6,5.5c2,0,3.3-0.9,3.8-2.4C80.3,33.4,77.2,33.4,77.2,33.4z"
			/>
		<path class="st0" d="M94.9,40.2c-4.4,0-7.6-3-7.6-7.3s3-7.3,7.6-7.3c4.4,0,7.6,3,7.6,7.3S99.3,40.2,94.9,40.2z M94.9,29.6
			c-1.6,0-2.5,1.4-2.5,3.4c0,1.9,0.9,3.3,2.5,3.3c1.6,0,2.5-1.4,2.5-3.3C97.4,31,96.5,29.6,94.9,29.6z"/>
		<path class="st0" d="M108.7,35.5c0.2,0.8,0.9,1.2,1.8,1.2c0.9,0,1.5-0.3,1.5-1c0-0.6-0.5-0.7-1.1-0.9l-2.9-0.6
			c-2.5-0.5-4.1-1.7-4.1-4.1c0-3,2.8-4.7,6.2-4.7c4.1,0,6.2,1.8,6.7,4.6H112c-0.1-0.6-0.7-1.1-1.8-1.1c-0.8,0-1.4,0.3-1.4,0.9
			c0,0.5,0.3,0.7,1,0.8l2.9,0.7c2.7,0.6,4.1,1.9,4.1,4.3c0,3-2.8,4.6-6.4,4.6c-3.7,0-6.4-1.7-6.9-4.6L108.7,35.5z"/>
		<path class="st0" d="M119.5,19.5h5.1V27c0.8-0.9,2.3-1.6,3.9-1.6c3.3,0,5.2,2,5.2,5.2v9.2h-5.1v-8.1c0-1.1-0.6-2-1.9-2
			c-1,0-1.9,0.6-2.1,1.6v8.6h-5.1V19.5z"/>
		<path class="st0" d="M150.2,35c-0.6,3.3-3,5.3-6.9,5.3c-4.5,0-7.4-2.9-7.4-7.3s3.2-7.3,7.3-7.3c4.5,0,7.1,2.9,7.1,7.1v1h-9.5
			c0.1,1.7,1.1,2.6,2.6,2.6c1,0,1.8-0.5,2.1-1.5h4.6V35z M140.9,31.4h4.4c-0.1-1.1-0.8-2-2.1-2C142.1,29.3,141.2,30,140.9,31.4z"/>
		<path class="st0" d="M152.5,25.7h5.1V27c0.8-0.9,2.3-1.6,3.9-1.6c3.3,0,5.2,2,5.2,5.2v9.2h-5.1v-8.1c0-1.1-0.6-2-1.9-2
			c-1,0-1.9,0.6-2.1,1.6v8.6h-5.1L152.5,25.7L152.5,25.7z"/>
		<path class="st0" d="M175.7,20.7h17.6v4.4h-6.2v14.9h-5.3v-15h-6.2v-4.3H175.7z"/>
		<path class="st0" d="M201.6,39.9v-0.7c-0.5,0.5-1.9,1-3.5,1c-2.9,0-5.3-1.6-5.3-4.5c0-2.7,2.5-4.5,5.6-4.5c1.2,0,2.6,0.3,3.3,0.8
			v-0.9c0-0.9-0.6-1.7-1.8-1.7c-0.9,0-1.5,0.5-1.7,1h-4.8c0.5-2.7,2.9-4.8,6.8-4.8c4.2,0,6.5,2.1,6.5,5.9v8.7h-5.1V39.9z
			 M201.6,35.1c-0.3-0.6-1.2-1-2.1-1c-1,0-2,0.5-2,1.4c0,0.9,1,1.4,2,1.4c0.9,0,1.8-0.3,2.1-0.9V35.1z"/>
		<path class="st0" d="M214.5,39.9h-5.1V19.5h5.1V27c0.7-0.8,2.1-1.5,3.6-1.5c4.3,0,6.5,3.3,6.5,7.3s-2.3,7.3-6.5,7.3
			c-1.5,0-2.9-0.7-3.6-1.5V39.9z M214.5,34.6c0.5,0.8,1.4,1.4,2.3,1.4c1.8,0,2.8-1.4,2.8-3.2c0-1.8-1-3.2-2.8-3.2
			c-0.9,0-1.8,0.5-2.3,1.4V34.6z"/>
		<path class="st0" d="M240.6,35c-0.6,3.3-3,5.3-6.9,5.3c-4.5,0-7.4-2.9-7.4-7.3s3.2-7.3,7.3-7.3c4.5,0,7.1,2.9,7.1,7.1v1h-9.6
			c0.1,1.7,1.1,2.6,2.6,2.6c1,0,1.9-0.5,2.1-1.5h4.7V35z M231.3,31.4h4.4c-0.1-1.1-0.8-2-2.1-2C232.4,29.3,231.6,30,231.3,31.4z"/>
		<path class="st0" d="M252.7,30.5c-0.7-0.3-1.4-0.5-2.1-0.5c-1.4,0-2.4,0.6-2.6,1.6v8.2h-5.1V25.7h5.1V27c0.8-1,2-1.6,3.4-1.6
			c0.5,0,1,0.1,1.4,0.2V30.5z"/>
		<path class="st0" d="M255,25.7h5.1V27c0.8-0.9,2.3-1.6,3.9-1.6c3.3,0,5.2,2,5.2,5.2v9.2h-5.1v-8.1c0-1.1-0.6-2-1.9-2
			c-1,0-1.9,0.6-2.1,1.6v8.6H255L255,25.7L255,25.7z"/>
		<path class="st0" d="M280.3,39.9v-0.7c-0.5,0.5-1.9,1-3.5,1c-2.9,0-5.4-1.6-5.4-4.5c0-2.7,2.5-4.5,5.6-4.5c1.2,0,2.6,0.3,3.3,0.8
			v-0.9c0-0.9-0.6-1.7-1.8-1.7c-0.9,0-1.5,0.5-1.7,1H272c0.5-2.7,2.9-4.8,6.8-4.8c4.2,0,6.5,2.1,6.5,5.9v8.7h-5V39.9z M280.3,35.1
			c-0.3-0.6-1.2-1-2.1-1c-1,0-2,0.5-2,1.4c0,0.9,1,1.4,2,1.4c0.9,0,1.8-0.3,2.1-0.9V35.1z"/>
		<path class="st0" d="M294.6,25.5c3.9,0,6.4,2.3,6.9,5.5h-5c-0.1-0.9-0.8-1.5-1.9-1.5c-1.5,0-2.4,1.2-2.4,3.3s0.9,3.3,2.4,3.3
			c1,0,1.7-0.6,1.9-1.5h5c-0.5,3.3-2.8,5.5-6.9,5.5c-4.4,0-7.4-3-7.4-7.3S290.2,25.5,294.6,25.5z"/>
		<path class="st0" d="M308.7,39.9h-5.1V19.5h5.1V39.9z"/>
		<path class="st0" d="M325.3,35c-0.6,3.3-3,5.3-6.9,5.3c-4.5,0-7.4-2.9-7.4-7.3s3.2-7.3,7.3-7.3c4.5,0,7.1,2.9,7.1,7.1v1h-9.5
			c0.1,1.7,1.1,2.6,2.6,2.6c1,0,1.8-0.5,2.1-1.5h4.6V35z M315.9,31.4h4.4c-0.1-1.1-0.8-2-2.1-2C317.1,29.3,316.3,30,315.9,31.4z"/>
		<path class="st0" d="M70.5,48.6l2.9,7.2h-1l-0.9-2.1h-3l-0.8,2.3h-1l2.9-7.2h0.9V48.6z M68.8,52.9h2.5l-1.2-3L68.8,52.9z"/>
		<path class="st0" d="M75.1,54.5c0.2,0.6,0.7,0.8,1.2,0.8s1.1-0.2,1.1-0.8c0-0.3-0.2-0.6-0.8-0.7l-1.1-0.2
			c-0.8-0.2-1.4-0.6-1.4-1.4c0-0.9,0.9-1.6,1.9-1.6c1.2,0,1.9,0.6,2.1,1.5h-0.9c-0.1-0.5-0.6-0.8-1.2-0.8c-0.6,0-1,0.2-1,0.8
			c0,0.3,0.2,0.6,0.8,0.7l1,0.2c0.9,0.2,1.4,0.7,1.4,1.5c0,1-0.9,1.6-2,1.6c-1.1,0-2-0.6-2.3-1.6C74,54.5,75.1,54.5,75.1,54.5z"/>
		<path class="st0" d="M80.3,54.5c0.2,0.6,0.7,0.8,1.2,0.8c0.6,0,1.1-0.2,1.1-0.8c0-0.3-0.2-0.6-0.8-0.7l-1.1-0.2
			c-0.8-0.2-1.4-0.6-1.4-1.4c0-0.9,0.9-1.6,1.9-1.6c1.2,0,1.9,0.6,2.1,1.5h-0.9c-0.1-0.5-0.6-0.8-1.2-0.8c-0.6,0-1,0.2-1,0.8
			c0,0.3,0.2,0.6,0.8,0.7l1,0.2c0.9,0.2,1.4,0.7,1.4,1.5c0,1-0.9,1.6-2,1.6c-1.1,0-2-0.6-2.3-1.6C79.2,54.5,80.3,54.5,80.3,54.5z"/>
		<path class="st0" d="M89.2,54.4c-0.2,1-1,1.7-2.1,1.7c-1.5,0-2.5-1.1-2.5-2.7s1-2.7,2.5-2.7c1.5,0,2.3,1,2.3,2.6v0.3h-3.8
			c0,1.1,0.7,1.8,1.6,1.8c0.6,0,1.1-0.3,1.4-0.9L89.2,54.4z M85.5,52.8h2.9c0-0.8-0.5-1.5-1.4-1.5C86.2,51.3,85.6,51.9,85.5,52.8z"
			/>
		<path class="st0" d="M96.1,50.5c1.1,0,1.7,0.8,1.7,1.9v3.5h-0.9v-3.3c0-0.7-0.3-1.2-1-1.2c-0.6,0-1,0.3-1.2,0.9v3.6h-0.9v-3.3
			c0-0.7-0.3-1.2-1-1.2c-0.6,0-1,0.3-1.2,0.9v3.6h-0.9v-5.3h0.9v0.6c0.3-0.5,0.9-0.8,1.5-0.7c0.6,0,1.1,0.3,1.5,0.8
			C94.9,50.9,95.6,50.5,96.1,50.5z"/>
		<path class="st0" d="M100.4,55.9h-0.9v-7.7h0.9v3c0.3-0.5,0.9-0.7,1.6-0.7c1.6,0,2.5,1.2,2.5,2.7c0,1.5-0.9,2.7-2.5,2.7
			c-0.6,0-1.1-0.2-1.6-0.7V55.9z M100.4,54.4c0.2,0.6,0.8,0.9,1.4,0.9c1,0,1.7-0.8,1.7-1.9s-0.6-1.9-1.7-1.9c-0.6,0-1.1,0.3-1.4,0.9
			V54.4z"/>
		<path class="st0" d="M106.6,55.9h-0.9v-7.7h0.9V55.9z"/>
		<path class="st0" d="M112.7,54.4c-0.2,1-1,1.7-2.1,1.7c-1.5,0-2.5-1.1-2.5-2.7s1-2.7,2.5-2.7s2.3,1,2.3,2.6v0.3H109
			c0,1.1,0.7,1.8,1.6,1.8c0.6,0,1.1-0.3,1.4-0.9L112.7,54.4z M109,52.8h2.9c0-0.8-0.5-1.5-1.4-1.5C109.6,51.3,109.1,51.9,109,52.8z
			 M110,49.9l1-1.6h0.9l-1.1,1.6H110z"/>
		<path class="st0" d="M118.4,54.4c-0.2,1-1,1.7-2.1,1.7c-1.5,0-2.5-1.1-2.5-2.7s1-2.7,2.5-2.7s2.3,1,2.3,2.6v0.3h-3.8
			c0,1.1,0.7,1.8,1.6,1.8c0.6,0,1.1-0.3,1.4-0.9L118.4,54.4z M114.6,52.8h2.9c0-0.8-0.5-1.5-1.4-1.5
			C115.4,51.3,114.7,51.9,114.6,52.8z"/>
		<path class="st0" d="M125.5,48.6c1.6,0,2.6,0.9,2.9,2.3h-0.9c-0.2-0.9-1.1-1.5-2-1.4c-1.5,0-2.4,1.1-2.4,2.9s0.9,2.9,2.4,2.9
			c0.9,0,1.7-0.6,2-1.4h0.9c-0.3,1.4-1.4,2.3-2.9,2.3c-1.9,0-3.4-1.5-3.4-3.7C122.2,50.1,123.6,48.6,125.5,48.6z"/>
		<path class="st0" d="M129.8,48.3h0.9v3c0.3-0.5,1-0.8,1.6-0.8c1.2,0,1.9,0.8,1.9,1.9v3.4h-0.9v-3.3c0-0.7-0.3-1.2-1.2-1.2
			c-0.7,0-1.1,0.5-1.4,1v3.5h-0.9V48.3z"/>
		<path class="st0" d="M138.7,51.5c-0.2-0.1-0.5-0.1-0.6-0.1c-0.6,0-1.1,0.5-1.2,1v3.5H136v-5.3h0.9v0.7c0.2-0.5,0.8-0.8,1.4-0.8
			c0.2,0,0.3,0,0.6,0.1L138.7,51.5z"/>
		<path class="st0" d="M144,54.4c-0.2,1-1,1.7-2.1,1.7c-1.5,0-2.5-1.1-2.5-2.7s1-2.7,2.5-2.7s2.3,1,2.3,2.6v0.3h-3.8
			c0,1.1,0.7,1.8,1.6,1.8c0.6,0,1.1-0.3,1.4-0.9L144,54.4z M140.3,52.8h2.9c0-0.8-0.5-1.5-1.4-1.5C141,51.3,140.4,51.9,140.3,52.8
			L140.3,52.8z M141.4,49.9l1-1.6h0.9l-1.1,1.6H141.4z"/>
		<path class="st0" d="M145.7,51.4h-0.9v-0.8h0.9v-1.4h0.9v1.4h1.4v0.8h-1.4v3c0,0.3,0.2,0.7,0.6,0.7h0.1c0.2,0,0.5-0.1,0.7-0.2v0.8
			c-0.2,0.1-0.6,0.2-0.9,0.2c-0.9,0-1.5-0.5-1.5-1.5v-3H145.7z"/>
		<path class="st0" d="M149.9,49.6c-0.3,0-0.6-0.2-0.6-0.6c0-0.3,0.3-0.6,0.7-0.6s0.6,0.2,0.6,0.6C150.5,49.4,150.1,49.6,149.9,49.6
			z M150.3,55.9h-0.9v-5.3h0.9V55.9z"/>
		<path class="st0" d="M156.3,54.4c-0.2,1-1,1.7-2.1,1.7c-1.5,0-2.5-1.1-2.5-2.7s1-2.7,2.5-2.7c1.5,0,2.3,1,2.3,2.6v0.3h-3.8
			c0,1.1,0.7,1.8,1.6,1.8c0.6,0,1.1-0.3,1.4-0.9L156.3,54.4z M152.6,52.8h2.9c0-0.8-0.5-1.5-1.4-1.5
			C153.3,51.3,152.7,51.9,152.6,52.8z"/>
		<path class="st0" d="M157.7,50.6h0.9v0.7c0.3-0.5,1-0.8,1.6-0.8c1.2,0,1.9,0.8,1.9,1.9v3.4h-0.9v-3.3c0-0.7-0.3-1.2-1.2-1.2
			c-0.7,0-1.1,0.5-1.4,1v3.5h-0.9L157.7,50.6L157.7,50.6z"/>
		<path class="st0" d="M163.8,50.6h0.9v0.7c0.3-0.5,1-0.8,1.6-0.8c1.2,0,1.9,0.8,1.9,1.9v3.4h-0.9v-3.3c0-0.7-0.3-1.2-1.2-1.2
			c-0.7,0-1.1,0.5-1.4,1v3.5h-0.9L163.8,50.6L163.8,50.6z"/>
		<path class="st0" d="M174.1,54.4c-0.2,1-1,1.7-2.1,1.7c-1.5,0-2.5-1.1-2.5-2.7s1-2.7,2.5-2.7c1.5,0,2.3,1,2.3,2.6v0.3h-3.8
			c0,1.1,0.7,1.8,1.6,1.8c0.6,0,1.1-0.3,1.4-0.9L174.1,54.4z M170.4,52.8h2.9c0-0.8-0.5-1.5-1.4-1.5
			C171.1,51.3,170.5,51.9,170.4,52.8z"/>
		<path class="st0" d="M179.2,55.9h-0.9v-7.7h0.9V55.9z"/>
		<path class="st0" d="M183,55.9c-1.5,0-2.5-1.1-2.5-2.7c0-1.6,1-2.7,2.5-2.7c1.5,0,2.5,1.1,2.5,2.7C185.6,54.9,184.5,55.9,183,55.9
			z M183,51.3c-1,0-1.6,0.8-1.6,1.9c0,1.1,0.6,1.9,1.6,1.9c1,0,1.6-0.8,1.6-1.9C184.6,52.1,184,51.3,183,51.3z"/>
		<path class="st0" d="M189,50.5c1.2,0,2,0.7,2.1,1.7h-0.9c-0.1-0.6-0.7-0.9-1.2-0.9c-0.9,0-1.6,0.8-1.6,1.9c0,1.1,0.6,1.9,1.6,1.9
			c0.6,0,1.1-0.3,1.2-0.9h0.9c-0.2,1-0.9,1.7-2.1,1.7c-1.5,0-2.5-1.1-2.5-2.7C186.5,51.7,187.5,50.5,189,50.5z"/>
		<path class="st0" d="M195.5,55.9v-0.3c-0.5,0.3-0.9,0.5-1.5,0.5c-1.1,0-2-0.7-2-1.7c0-1,0.9-1.7,2-1.7c0.5,0,1,0.1,1.4,0.5v-0.7
			c0-0.7-0.5-1.1-1.2-1.1c-0.5,0-1,0.2-1.1,0.7h-0.9c0.2-0.9,1-1.5,2-1.5c1.4,0,2,0.7,2,1.8v3.5L195.5,55.9z M195.5,54
			c-0.1-0.3-0.7-0.7-1.2-0.7c-0.7,0-1.4,0.3-1.4,0.9c0,0.7,0.7,0.9,1.4,0.9c0.6,0,1.1-0.2,1.2-0.7V54z"/>
		<path class="st0" d="M198.9,55.9H198v-7.7h0.9V55.9z"/>
		<path class="st0" d="M205,54.4c-0.2,1-1,1.7-2.1,1.7c-1.5,0-2.5-1.1-2.5-2.7s1-2.7,2.5-2.7c1.5,0,2.3,1,2.3,2.6v0.3h-3.8
			c0,1.1,0.7,1.8,1.6,1.8c0.6,0,1.1-0.3,1.4-0.9L205,54.4z M201.3,52.8h2.9c0-0.8-0.5-1.5-1.4-1.5C202,51.3,201.4,51.9,201.3,52.8z"
			/>
		<path class="st0" d="M53.2,14.5H14.7c-2.3,0-4.1,1.8-4.1,4.1l0,0l1.7,32l0.3,6.5c0,2.3,1.8,3.9,4.1,3.9h34.6
			c2.3,0,3.9-1.8,4.1-3.9l0.3-6.5l1.6-32C57.2,16.3,55.4,14.5,53.2,14.5L53.2,14.5z M54.6,50.4L54.3,57c0,1.7-1.4,3-3,3H16.6
			c-1.7,0-3-1.4-3-3l0,0l-0.3-6.4l-1.6-32c0-1.7,1.4-3,3-3h38.4c1.7,0,3,1.4,3,3L54.6,50.4z"/>
		<path class="st1" d="M54.6,50.4L54.3,57c0,1.7-1.4,3-3,3H16.6c-1.7,0-3-1.4-3-3l0,0l-0.3-6.4L54.6,50.4z"/>
		<path class="st0" d="M55.5,50.4L55.2,57c0,2.3-1.8,3.9-4.1,3.9H16.6c-2.3,0-3.9-1.8-3.9-3.9l-0.3-6.5h1l0.3,6.4c0,1.7,1.4,3,3,3
			l0,0h34.6c1.7,0,3-1.4,3-3l0.3-6.5h0.8V50.4z"/>
		<path class="st0" d="M56.2,18.4l-1.7,32H13.3l-1.6-32c0-1.7,1.4-3,3-3h38.4C54.9,15.5,56.2,16.7,56.2,18.4z"/>
		<circle class="st0" cx="34" cy="35.2" r="15.2"/>
		<polygon class="st2" points="42.9,38.5 34,35.4 25.2,38.5 25.2,51.3 42.9,51.3 		"/>
		<path class="st0" d="M32.2,43h3.5c0.5,0,0.8,0.3,0.8,0.8v6.3l0,0h-5.1l0,0v-6.3C31.4,43.3,31.7,43,32.2,43L32.2,43z"/>
		<polygon class="st2" points="34.1,29.2 29.8,31.5 29.8,38.8 34,37.6 38.3,38.7 38.3,31.5 		"/>
		<polygon class="st2" points="32.9,26.1 33.8,26.1 33.8,24.8 34.3,24.8 34.3,26.1 35.2,26.1 35.2,26.7 34.3,26.7 34.3,29 
			34.1,28.9 33.8,29 33.8,26.7 32.9,26.7 		"/>
		<polygon class="st3" points="35.8,37.2 35.8,37.2 35.8,37.2 35.8,37.2 35.8,37.2 35.8,37.2 35.8,37.2 35.8,37.2 35.8,37.2 
			35.9,37.2 35.9,37.2 35.9,37.2 35.9,37.2 35.9,37.2 35.9,37.2 35.9,37.2 35.9,37.2 35.9,37.2 35.9,37.2 35.9,37.2 35.9,37.2 
			36,37.2 36,37.2 36,37.2 36,37.2 36,37.2 36,37.2 36,37.2 36,37.2 36,37.2 36,37.2 36,37.2 36,37.2 36.1,37.2 36.1,37.2 
			36.1,37.2 36.1,37.2 36.1,37.2 36.1,37.2 36.1,37.2 36.1,37.2 36.1,37.2 36.1,37.2 36.1,37.2 36.3,37.2 36.3,37.2 36.3,37.2 
			36.3,37.2 36.3,37.2 36.3,37.2 36.3,37.2 36.3,37.2 36.3,37.2 36.3,37.2 36.3,37.2 36.4,37.2 36.4,37.2 36.4,37.2 36.4,37.2 
			36.4,37.2 36.4,37.2 36.4,37.2 36.4,37.2 36.4,37.2 36.4,37.2 36.4,37.2 36.5,37.2 36.5,37.2 36.5,37.2 36.5,37.2 36.5,37.2 
			36.5,37.2 36.5,37.2 36.5,37.2 36.5,37.2 36.5,37.2 36.5,37.2 36.5,37.2 36.5,37.2 36.5,37.3 36.6,37.3 36.6,37.3 36.6,37.3 
			36.6,37.3 36.6,37.3 36.6,37.3 36.6,37.3 36.6,37.3 36.6,37.3 36.6,37.3 36.6,37.3 36.6,37.3 36.6,37.3 36.6,37.3 36.7,37.3 
			36.7,37.3 36.7,37.3 36.7,37.3 36.7,37.3 36.7,37.3 36.7,37.3 36.7,37.3 36.8,37.3 36.8,37.3 36.8,37.3 36.8,37.3 36.8,37.5 
			36.8,37.5 36.8,37.5 36.8,37.5 36.9,37.5 36.9,37.5 36.9,37.5 36.9,37.5 36.9,37.5 36.9,37.5 36.9,37.5 37,37.5 37,37.5 37,37.5 
			37,37.6 37,37.6 37,37.6 37,37.6 37,37.6 37.2,37.6 37.2,37.6 37.2,37.6 37.2,37.6 37.2,37.6 37.2,37.6 37.2,37.6 37.2,37.6 
			37.3,37.6 37.3,37.6 37.3,37.7 37.3,37.7 37.3,37.7 37.3,37.7 37.3,37.7 37.3,37.7 37.3,37.7 37.4,37.7 37.4,37.7 37.4,37.7 
			37.4,37.7 37.4,37.7 37.4,37.8 37.4,37.8 37.4,37.8 37.4,37.8 37.4,37.8 37.4,37.8 37.4,37.7 37.4,37.7 37.4,37.7 37.4,37.7 
			37.3,37.7 37.3,37.7 37.3,37.7 37.3,37.7 37.3,37.7 37.3,37.7 37.3,37.7 37.3,37.7 37.2,37.7 37.2,37.7 37.2,37.6 37.2,37.6 
			37.2,37.6 37.2,37.6 37.2,37.6 37.2,37.6 37,37.6 37,37.6 37,37.6 37,37.6 37,37.6 37,37.6 37,37.6 37,37.6 36.9,37.6 36.9,37.6 
			36.9,37.6 36.9,37.5 36.9,37.5 36.9,37.5 36.9,37.5 36.8,37.5 36.8,37.5 36.8,37.5 36.8,37.5 36.8,37.5 36.8,37.5 36.8,37.5 
			36.7,37.5 36.7,37.5 36.7,37.5 36.7,37.5 36.7,37.5 36.7,37.5 36.7,37.5 36.6,37.5 36.6,37.5 36.6,37.5 36.6,37.5 36.6,37.5 
			36.6,37.3 36.6,37.3 36.6,37.3 36.6,37.3 36.6,37.3 36.6,37.3 36.6,37.3 36.6,37.3 36.6,37.3 36.5,37.3 36.5,37.3 36.5,37.3 
			36.5,37.3 36.5,37.3 36.5,37.3 36.5,37.3 36.5,37.3 36.5,37.3 36.5,37.3 36.5,37.3 36.5,37.3 36.5,37.3 36.5,37.3 36.5,37.3 
			36.4,37.3 36.4,37.3 36.4,37.3 36.4,37.3 36.4,37.3 36.4,37.3 36.4,37.3 36.4,37.3 36.4,37.3 36.4,37.3 36.4,37.3 36.4,37.3 
			36.3,37.3 36.3,37.3 36.3,37.3 36.3,37.3 36.3,37.3 36.3,37.3 36.3,37.3 36.3,37.3 36.3,37.3 36.3,37.3 36.3,37.3 36.1,37.3 
			36.1,37.3 36.1,37.3 36.1,37.3 36.1,37.3 36.1,37.3 36.1,37.3 36.1,37.3 36.1,37.3 36.1,37.3 36.1,37.3 36,37.3 36,37.3 36,37.3 
			36,37.3 36,37.3 36,37.3 36,37.3 36,37.3 36,37.3 36,37.3 36,37.3 36,37.3 36,37.3 35.9,37.3 35.9,37.3 35.9,37.3 35.9,37.3 
			35.9,37.3 35.9,37.3 35.9,37.3 35.9,37.3 35.9,37.3 35.9,37.3 35.9,37.3 35.9,37.3 35.8,37.3 35.8,37.3 35.8,37.3 35.8,37.3 
			35.8,37.3 35.8,37.3 35.8,37.3 35.8,37.3 35.8,37.3 35.8,37.3 35.8,37.3 35.8,37.3 35.7,37.3 35.7,37.3 35.7,37.3 35.7,37.3 
			35.7,37.3 35.7,37.3 35.7,37.3 35.7,37.3 35.7,37.3 35.7,37.3 35.7,37.3 35.6,37.3 35.6,37.3 35.6,37.3 35.6,37.3 35.6,37.3 
			35.6,37.3 35.6,37.3 35.6,37.3 35.6,37.3 35.6,37.3 35.6,37.3 35.5,37.3 35.5,37.3 35.5,37.3 35.5,37.3 35.5,37.3 35.5,37.5 
			35.4,37.5 35.4,37.5 35.4,37.5 35.4,37.5 35.4,37.5 35.4,37.5 35.2,37.5 35.2,37.5 35.2,37.5 35.2,37.5 35.2,37.5 35.2,37.5 
			35.1,37.5 35.1,37.5 35.1,37.5 35.1,37.5 35.1,37.5 35.1,37.5 35.1,37.5 35,37.5 35,37.5 35,37.5 35,37.6 35,37.6 35,37.6 
			34.9,37.6 34.9,37.6 34.9,37.6 34.9,37.6 34.9,37.6 34.9,37.6 34.9,37.6 34.8,37.6 34.8,37.6 34.8,37.6 34.8,37.6 34.8,37.6 
			34.8,37.6 34.7,37.6 34.7,37.6 34.7,37.6 34.7,37.6 34.7,37.6 34.7,37.6 34.7,37.7 34.6,37.7 34.6,37.7 34.6,37.7 34.6,37.7 
			34.6,37.7 34.5,37.7 34.5,37.7 34.5,37.7 34.3,37.7 34.3,37.7 34.3,37.7 34.2,37.8 34.2,37.8 34.2,37.8 34.1,37.8 34.1,37.8 
			34,37.8 34,37.8 34,37.8 34,37.8 34,37.8 33.9,37.8 33.9,37.9 33.9,37.9 33.9,37.9 33.9,37.9 33.9,37.9 33.9,37.9 33.8,37.9 
			33.8,37.9 33.8,37.9 33.8,37.9 33.8,37.9 33.8,37.9 33.8,37.9 33.8,37.9 33.7,37.9 33.7,37.9 33.7,37.9 33.7,37.9 33.7,37.9 
			33.7,37.9 33.7,37.9 33.6,37.9 33.6,37.9 33.6,37.9 33.6,37.9 33.6,37.9 33.6,37.9 33.6,37.9 33.4,38 33.4,38 33.4,38 33.4,38 
			33.4,38 33.3,38 33.3,38 33.3,38 33.2,38 33.2,38 33.2,38 33.2,38 33.2,38 33.1,38 33.1,38 33.1,38 33,38 33,38 33,38 33,38 
			32.9,38 32.9,38.1 32.9,38.1 32.9,38.1 32.9,38.1 32.9,38.1 32.8,38.1 32.8,38.1 32.8,38.1 32.8,38.1 32.8,38.1 32.8,38.1 
			32.8,38.1 32.6,38.1 32.6,38.1 32.6,38.1 32.6,38.1 32.6,38.1 32.6,38.1 32.5,38.1 32.5,38.1 32.5,38.1 32.5,38.1 32.5,38.1 
			32.4,38.1 32.4,38.1 32.4,38.1 32.4,38.1 32.4,38.1 32.4,38.1 32.3,38.1 32.3,38.1 32.3,38.1 32.3,38.1 32.3,38.1 32.3,38.1 
			32.2,38.1 32.2,38.1 32.2,38.1 32.2,38.1 32.2,38.1 32.1,38.1 32.1,38.1 32.1,38.1 32.1,38.1 32.1,38.1 32.1,38.1 32,38.1 
			32,38.1 32,38.1 32,38.1 32,38.1 32,38.2 31.9,38.2 31.9,38.2 31.9,38.2 31.9,38.2 31.9,38.2 31.9,38.2 31.7,38.2 31.7,38.2 
			31.7,38.2 31.7,38.2 31.7,38.2 31.7,38.2 31.7,38.2 31.6,38.2 31.6,38.2 31.6,38.2 31.6,38.2 31.6,38.2 31.6,38.2 31.6,38.2 
			31.6,38.2 31.6,38.2 31.6,38.2 31.6,38.2 31.6,38.2 31.6,38.2 31.6,38.2 31.6,38.2 31.6,38.2 31.6,38.2 31.6,38.2 31.5,38.2 
			31.5,38.2 31.5,38.2 31.5,38.2 31.5,38.2 31.5,38.2 31.5,38.2 31.5,38.2 31.5,38.2 31.5,38.2 31.5,38.2 31.5,38.2 31.5,38.2 
			31.5,38.1 31.5,38.1 31.5,38.1 31.5,38.1 31.4,38.1 31.4,38.1 31.4,38.1 31.4,38.1 31.4,38.1 31.4,38.1 31.4,38.1 31.4,38.1 
			31.4,38.1 31.4,38.1 31.4,38.1 31.4,38.1 31.4,38.1 31.4,38.1 31.4,38.1 31.4,38.1 31.4,38.1 31.3,38.1 31.3,38.1 31.3,38.1 
			31.3,38.1 31.3,38.1 31.3,38.1 31.3,38.1 31.3,38.1 31.3,38.1 31.3,38.1 31.3,38.1 31.3,38.1 31.3,38.1 31.3,38.1 31.3,38.1 
			31.3,38.1 31.3,38.1 31.2,38.1 31.2,38.1 31.2,38.1 31.2,38.1 31.2,38.1 31.2,38.1 31.2,38.1 31.2,38.1 31.2,38.1 31.2,38.1 
			31.2,38.1 31.2,38.1 31.2,38.1 31.2,38.1 31.2,38.1 31.2,38.1 31.2,38.1 31.2,38.1 31.1,38.1 31.1,38.1 31.1,38.1 31.1,38.1 
			31.1,38.1 31.1,38.1 31.1,38.1 31.1,38 31.1,38 31.1,38 31.1,38 31.1,38 31.1,38 31.1,38 31.1,38 31.1,38 31.1,38 31.1,38 
			31.1,38 31,38 31,38 31,38 31,38 31,38 31,38 31,38 31,38 31,38 31,38 31,38 31,38 31,38 31,38 31,38 31,38 31,38 31,38 31,38 
			31,38 31,38 31,37.9 31,37.9 31,37.9 31,37.9 31,37.9 31,38 31,38 31,38 31,38 31,38 31,38 31,38 31,38 31,38 31,38 31,38 31,38 
			31,38 31,38 31,38 31,38 31,38 31.1,38 31.1,38 31.1,38 31.1,38 31.1,38 31.1,38 31.1,38 31.1,38 31.1,38 31.1,38 31.1,38 
			31.1,38 31.1,38 31.1,38 31.1,38 31.1,38 31.1,38 31.1,38 31.1,38 31.2,38 31.2,38 31.2,38 31.2,38.1 31.2,38.1 31.2,38.1 
			31.2,38.1 31.2,38.1 31.2,38.1 31.2,38.1 31.2,38.1 31.2,38.1 31.2,38.1 31.2,38.1 31.2,38.1 31.2,38.1 31.2,38.1 31.2,38.1 
			31.3,38.1 31.3,38.1 31.3,38.1 31.3,38.1 31.3,38.1 31.3,38.1 31.3,38.1 31.3,38.1 31.3,38.1 31.3,38.1 31.3,38.1 31.3,38.1 
			31.3,38.1 31.3,38.1 31.3,38.1 31.3,38.1 31.3,38.1 31.3,38.1 31.4,38.1 31.4,38.1 31.4,38.1 31.4,38.1 31.4,38.1 31.4,38.1 
			31.4,38.1 31.4,38.1 31.4,38.1 31.4,38.1 31.4,38.1 31.4,38.1 31.4,38.1 31.4,38.1 31.4,38.1 31.4,38.1 31.4,38.1 31.4,38.1 
			31.5,38.1 31.5,38.1 31.5,38.1 31.5,38.1 31.5,38.1 31.5,38.1 31.5,38.1 31.5,38.1 31.5,38.1 31.5,38.1 31.5,38.1 31.5,38.1 
			31.5,38.1 31.5,38.1 31.5,38.1 31.5,38.1 31.5,38.1 31.6,38.1 31.6,38.1 31.6,38.1 31.6,38.1 31.6,38.1 31.6,38.1 31.6,38.1 
			31.6,38.1 31.6,38.1 31.6,38.1 31.6,38.1 31.6,38.1 31.6,38.1 31.6,38.1 31.6,38.1 31.6,38.1 31.6,38.1 31.6,38.1 31.7,38.1 
			31.7,38.1 31.7,38.1 31.7,38.1 31.7,38.1 31.7,38.1 31.7,38.1 31.9,38.1 31.9,38.1 31.9,38.1 31.9,38.1 31.9,38.1 31.9,38.1 
			32,38.1 32,38.1 32,38.1 32,38.1 32,38.1 32.1,38.1 32.1,38.1 32.1,38.1 32.1,38.1 32.1,38.1 32.1,38.1 32.2,38.1 32.2,38.1 
			32.2,38.1 32.2,38.1 32.2,38.1 32.2,38 32.3,38 32.3,38 32.3,38 32.3,38 32.3,38 32.3,38 32.4,38 32.4,38 32.4,38 32.4,38 
			32.4,38 32.4,38 32.5,38 32.5,38 32.5,38 32.5,38 32.5,38 32.5,38 32.6,38 32.6,38 32.6,38 32.6,38 32.6,38 32.8,38 32.8,38 
			32.8,38 32.8,38 32.8,37.9 32.8,37.9 32.9,37.9 32.9,37.9 32.9,37.9 32.9,37.9 32.9,37.9 32.9,37.9 33,37.9 33,37.9 33,37.9 
			33,37.9 33.1,37.9 33.1,37.9 33.1,37.9 33.2,37.9 33.2,37.9 33.2,37.8 33.2,37.8 33.2,37.8 33.3,37.8 33.3,37.8 33.3,37.8 
			33.3,37.8 33.4,37.8 33.4,37.8 33.4,37.8 33.4,37.8 33.4,37.8 33.4,37.8 33.6,37.8 33.6,37.8 33.6,37.8 33.6,37.8 33.6,37.8 
			33.6,37.7 33.6,37.7 33.7,37.7 33.7,37.7 33.7,37.7 33.7,37.7 33.7,37.7 33.7,37.7 33.7,37.7 33.7,37.7 33.8,37.7 33.8,37.7 
			33.8,37.7 33.8,37.7 33.8,37.7 33.8,37.7 33.8,37.7 33.8,37.7 33.9,37.7 33.9,37.7 33.9,37.7 33.9,37.7 33.9,37.6 33.9,37.6 
			33.9,37.6 34,37.6 34,37.6 34.1,37.6 34.1,37.6 34.2,37.6 34.2,37.6 34.2,37.5 34.2,37.5 34.3,37.5 34.3,37.5 34.3,37.5 
			34.5,37.5 34.5,37.5 34.5,37.5 34.5,37.5 34.6,37.5 34.6,37.3 34.6,37.3 34.6,37.3 34.6,37.3 34.6,37.3 34.6,37.3 34.7,37.3 
			34.7,37.3 34.7,37.3 34.7,37.3 34.7,37.3 34.7,37.3 34.8,37.3 34.8,37.3 34.8,37.3 34.8,37.3 34.8,37.3 34.8,37.3 34.8,37.3 
			34.9,37.3 34.9,37.3 34.9,37.2 34.9,37.2 34.9,37.2 35,37.2 35,37.2 35,37.2 35,37.2 35,37.2 35,37.2 35,37.2 35.1,37.2 
			35.1,37.2 35.1,37.2 35.1,37.2 35.1,37.2 35.1,37.2 35.2,37.2 35.2,37.2 35.2,37.2 35.2,37.2 35.2,37.2 35.4,37.2 35.4,37.2 
			35.4,37.2 35.4,37.2 35.4,37.2 35.4,37.2 35.5,37.2 35.5,37.2 35.5,37.2 35.5,37.2 35.5,37.2 35.6,37.2 35.6,37.2 35.6,37.2 
			35.6,37.2 35.6,37.2 35.6,37.2 35.6,37.2 35.6,37.2 35.6,37.2 35.6,37.2 35.6,37.2 35.7,37.2 35.7,37.2 35.7,37.2 35.7,37.2 
			35.7,37.2 35.7,37.2 35.7,37.2 35.7,37.2 35.7,37.2 35.7,37.2 35.7,37.2 35.8,37.2 		"/>
		<path class="st0" d="M57.2,18.4l-1.6,32h-1l1.7-32c0-1.7-1.4-3-3-2.9H14.7c-1.7,0-3,1.4-3,3l1.7,32h-1l-1.7-32
			c0-2.3,1.8-4.1,3.9-4.1l0,0h38.4C55.4,14.5,57.2,16.3,57.2,18.4z"/>
		<path class="st0" d="M25.9,56.2c0.1,0.2,0.3,0.5,0.7,0.5c0.3,0,0.6-0.1,0.6-0.5c0-0.2-0.1-0.3-0.5-0.3l-0.5-0.1
			c-0.3-0.1-0.6-0.2-0.6-0.7c0-0.5,0.3-0.7,0.8-0.7l0,0c0.5,0,0.8,0.2,0.9,0.7H27c-0.1-0.2-0.3-0.5-0.6-0.5c-0.3,0-0.6,0.1-0.6,0.5
			c0,0.3,0.1,0.3,0.5,0.3l0.5,0.1c0.5,0.1,0.7,0.3,0.7,0.7c0,0.5-0.3,0.7-0.9,0.7c-0.5,0-0.9-0.2-1-0.7H25.9z"/>
		<path class="st0" d="M27.9,54.7c-0.1,0-0.2-0.1-0.2-0.2s0.1-0.2,0.2-0.2s0.2,0.1,0.2,0.2C28.1,54.6,28,54.7,27.9,54.7L27.9,54.7z
			 M28.1,56.7h-0.3V55h0.3V56.7z"/>
		<path class="st0" d="M28.7,55H29v0.2c0.1-0.1,0.3-0.2,0.6-0.2c0.3,0,0.6,0.2,0.7,0.6v0.1v1.1h-0.3v-1.1c0-0.2-0.1-0.3-0.3-0.5l0,0
			c-0.2,0-0.3,0.1-0.5,0.3v1.1h-0.3L28.7,55z"/>
		<path class="st0" d="M31.4,55c0.3,0,0.7,0.2,0.7,0.6h-0.3c0-0.2-0.2-0.3-0.5-0.3c-0.3,0-0.6,0.2-0.6,0.7c0,0.3,0.2,0.7,0.6,0.7
			c0.2,0,0.3-0.1,0.5-0.3h0.3c-0.1,0.3-0.3,0.6-0.7,0.6c-0.5,0-0.9-0.5-0.8-1C30.6,55.4,31,55,31.4,55L31.4,55z"/>
		<path class="st0" d="M34,56.3c-0.1,0.3-0.3,0.6-0.7,0.6c-0.5,0-0.8-0.3-0.8-0.8c0,0,0,0,0-0.1c0-0.5,0.3-0.9,0.8-0.9
			c0,0,0,0,0.1,0c0.5,0,0.8,0.3,0.8,0.9v0.1h-1.5c0,0.3,0.1,0.6,0.5,0.6c0,0,0,0,0.1,0c0.2,0,0.3-0.1,0.5-0.3H34z M32.8,55.7h1
			c0-0.2-0.1-0.5-0.3-0.5c0,0,0,0-0.1,0C33,55.3,32.8,55.5,32.8,55.7z"/>
		<path class="st0" d="M36.1,56.7h-0.3v-2L35.2,55v-0.3l0.8-0.3h0.1V56.7z"/>
		<path class="st0" d="M36.9,56.2c0.1,0.2,0.2,0.3,0.5,0.3c0.3,0,0.7-0.5,0.7-0.9v-0.1c-0.1,0.2-0.3,0.5-0.7,0.5
			c-0.5,0-0.8-0.3-0.8-0.8l0,0c0-0.5,0.3-0.8,0.8-0.8l0,0c0.3,0,0.6,0.2,0.8,0.5c0.1,0.2,0.1,0.5,0.1,0.8c0,0.8-0.3,1.2-0.9,1.2
			c-0.3,0-0.7-0.2-0.8-0.6L36.9,56.2z M37.5,54.6c-0.3,0-0.6,0.2-0.6,0.6c0,0.3,0.2,0.6,0.6,0.6c0.3,0,0.6-0.2,0.6-0.6l0,0
			C37.9,54.8,37.7,54.6,37.5,54.6L37.5,54.6z"/>
		<path class="st0" d="M39.1,56.2c0.1,0.2,0.2,0.3,0.5,0.3c0.3,0,0.7-0.5,0.7-0.9v-0.1c-0.1,0.2-0.3,0.5-0.7,0.5
			c-0.5,0-0.8-0.3-0.8-0.8c0-0.5,0.3-0.8,0.8-0.8h0.1c0.3,0,0.6,0.2,0.8,0.5c0.1,0.2,0.1,0.5,0.1,0.8c0,0.8-0.3,1.2-0.9,1.2
			c-0.3,0-0.7-0.2-0.8-0.6L39.1,56.2z M39.5,54.6c-0.3,0-0.6,0.2-0.6,0.6c0,0.3,0.2,0.6,0.6,0.6s0.6-0.2,0.6-0.6l0,0
			C40.1,54.8,39.9,54.6,39.5,54.6L39.5,54.6z"/>
		<path class="st0" d="M40.8,56.2c0-0.3,0.2-0.6,0.5-0.6c-0.2-0.1-0.5-0.3-0.5-0.6c0.1-0.5,0.5-0.7,0.9-0.7c0.3,0.1,0.6,0.3,0.7,0.7
			c0,0.2-0.1,0.5-0.3,0.6c0.3,0.1,0.5,0.3,0.5,0.6c0,0.5-0.3,0.7-0.9,0.7C41.1,56.8,40.8,56.5,40.8,56.2z M42.1,56.1
			c0-0.3-0.1-0.6-0.5-0.7c-0.3,0-0.6,0.1-0.7,0.5c0,0.3,0.1,0.6,0.5,0.7c0,0,0,0,0.1,0C41.9,56.6,42.1,56.4,42.1,56.1
			C42.1,56.2,42.1,56.2,42.1,56.1z M42,55c0-0.2-0.1-0.5-0.3-0.6c-0.2,0-0.5,0.1-0.6,0.3c-0.1,0.2,0.1,0.5,0.3,0.6c0,0,0,0,0.1,0
			C41.8,55.4,42,55.3,42,55L42,55z"/>
	</g>
</g>
</svg>
