<?xml version="1.0" encoding="utf-8"?>
<!-- Generator: Adobe Illustrator 23.0.1, SVG Export Plug-In . SVG Version: 6.00 Build 0)  -->
<svg version="1.1" id="Layer_1" xmlns="http://www.w3.org/2000/svg" xmlns:xlink="http://www.w3.org/1999/xlink" x="0px" y="0px"
	 viewBox="0 0 276.9 83.6" style="enable-background:new 0 0 276.9 83.6;" xml:space="preserve">
<style type="text/css">
	.st0{fill:#9FA6B3;}
	.st1{fill:#FFFFFF;}
</style>
<g>
	<path class="st0" d="M63.9,10.8c0-2.9,2.3-5.2,5.2-5.2s5.2,2.3,5.2,5.2S72,16,69.1,16S63.9,13.6,63.9,10.8z"/>
	<path class="st0" d="M131.5,61.9l-19.4,9.2c-1.7,0.8-3.6,0.8-5.3,0.3c-0.5,0.1-1.3,0.2-2.3,0.2c-6.7,0-19,0.2-23-0.2
		c-3.9-0.5-18.5-4.2-22-20.1c-0.1-0.2-0.4-0.2-0.5-0.1c-1.9,3.6-13.8,22.2-54.6,29.5c-1.1,0.4-1.7-1.7-0.7-2.2c0,0,47.9-8,54.7-32.8
		c4.1-16.3,5.9-22.7,6.4-24.3c0.1-0.3,0.4-0.6,0.7-0.6s0.6,0,1.1,0.2c0.3,0.2,0.5,0.5,0.5,0.8c-0.5,2.9-3.3,16.4-4.5,21.8
		c-0.5,2.7-0.6,5.4-0.1,8c1.2,6.1,5.5,14.9,19.7,17.3c0.5,0.1,1.1,0.2,1.6,0.2c10.4,0.1,16.4,0.2,19.6,0.1c-0.3-0.4-0.6-0.8-0.8-1.3
		L91,43.3v7.5c0,3.9-0.9,6.7-2.7,8.5C86.6,61,83.8,62,80.1,62c-3.6,0-6.4-0.9-8.2-2.7c-1.7-1.8-2.7-4.6-2.7-8.5V28h6.4v21.9
		c0,0.7,0,1.4,0.1,2.2c0.1,0.8,0.2,1.4,0.5,2s0.7,1.1,1.3,1.5s1.4,0.6,2.5,0.6s1.9-0.2,2.5-0.6s1-0.9,1.3-1.5s0.5-1.3,0.5-2
		c0.1-0.8,0.1-1.5,0.1-2.2v-22h6.4v5.9c0.7-0.8,1.5-1.5,2.5-2l19.4-9.2c3.6-1.7,7.8-0.2,9.5,3.4l2.7,5.6c-1.2-1-2.4-1.8-3.6-2.4
		c-2.3-1.1-4.8-1.6-7.4-1.6c-4.9,0-9.1,1.7-12.5,5.2c-3.4,3.4-5.2,7.6-5.2,12.5c0,4.8,1.7,8.9,5.1,12.4c3.3,3.4,7.4,5.2,12.1,5.2
		c4.9,0,8.9-1.7,12-5.3c1.4-1.6,2.3-3.3,3-5.1c0.6-2,0.9-4.2,0.9-6.7v-1.1h-13.9v4.8h8.4c-0.2,2.3-1.4,4.4-3.3,6.1
		c-2,1.7-4.2,2.5-6.7,2.5c-3,0-5.7-1.1-8.2-3.4c-2.7-2.4-4.1-5.5-4.1-9.3c0-3.6,1.2-6.7,3.6-9.1c2.4-2.5,5.5-3.7,9-3.7
		c4,0,7.4,1.8,10.2,5.5l2.6-2.5l8,17C136.6,56,135,60.3,131.5,61.9z"/>
</g>
<g>
	<g>
		<path class="st0" d="M154,23v8.3h-2.1V23H154z"/>
		<path class="st0" d="M155.5,25.6h2v0.7c0.3-0.3,0.5-0.6,0.8-0.7c0.3-0.1,0.6-0.2,1-0.2s0.7,0.1,1,0.2c0.3,0.1,0.5,0.3,0.7,0.5
			s0.3,0.4,0.3,0.6c0.1,0.2,0.1,0.5,0.1,0.8v3.6h-2v-2.8c0-0.3,0-0.5-0.1-0.7c0-0.2-0.1-0.3-0.2-0.4c-0.1-0.1-0.2-0.1-0.3-0.2
			c-0.1,0-0.2-0.1-0.4-0.1c-0.3,0-0.6,0.1-0.8,0.3s-0.3,0.5-0.3,0.9v3h-2v-5.5H155.5z"/>
		<path class="st0" d="M166.4,27.1c-0.4-0.2-0.7-0.3-1.1-0.3c-0.2,0-0.3,0-0.4,0.1s-0.2,0.2-0.2,0.3s0,0.1,0,0.2l0.1,0.1
			c0.1,0,0.2,0.1,0.3,0.1s0.3,0.1,0.5,0.1c0.5,0.1,1,0.3,1.2,0.6c0.3,0.3,0.4,0.6,0.4,1.1c0,0.3-0.1,0.6-0.2,0.9s-0.3,0.5-0.5,0.7
			s-0.5,0.3-0.8,0.4s-0.7,0.1-1.1,0.1c-0.8,0-1.5-0.2-2.2-0.6l0.7-1.4c0.6,0.4,1.1,0.6,1.6,0.6c0.2,0,0.3,0,0.4-0.1
			c0.1-0.1,0.2-0.2,0.2-0.3s0-0.1,0-0.2l-0.1-0.1c-0.1,0-0.1-0.1-0.3-0.1c-0.1,0-0.3-0.1-0.4-0.1c-0.6-0.1-1-0.3-1.3-0.6
			c-0.2-0.2-0.4-0.6-0.4-1c0-0.3,0.1-0.6,0.2-0.9s0.3-0.5,0.5-0.6c0.2-0.2,0.5-0.3,0.8-0.4s0.7-0.1,1-0.1c0.6,0,1.2,0.1,1.8,0.4
			L166.4,27.1z"/>
		<path class="st0" d="M170.6,27.3v4h-2v-4h-0.7v-1.7h0.7v-1.7h2v1.7h1.1v1.7H170.6z"/>
		<path class="st0" d="M172.4,23.5c0-0.2,0-0.3,0.1-0.4c0.1-0.1,0.1-0.3,0.2-0.4c0.1-0.1,0.2-0.2,0.4-0.2c0.1-0.1,0.3-0.1,0.4-0.1
			c0.1,0,0.3,0,0.4,0.1s0.3,0.1,0.4,0.2c0.1,0.1,0.2,0.2,0.2,0.4c0.1,0.1,0.1,0.3,0.1,0.4c0,0.2,0,0.3-0.1,0.4
			c-0.1,0.1-0.1,0.3-0.2,0.4c-0.1,0.1-0.2,0.2-0.4,0.2c-0.1,0.1-0.3,0.1-0.4,0.1c-0.1,0-0.3,0-0.4-0.1s-0.3-0.1-0.4-0.2
			c-0.1-0.1-0.2-0.2-0.2-0.4C172.5,23.8,172.4,23.6,172.4,23.5z M174.6,25.6v5.6h-2v-5.6H174.6z"/>
		<path class="st0" d="M178.1,27.3v4h-2v-4h-0.7v-1.7h0.7v-1.7h2v1.7h1.1v1.7H178.1z"/>
		<path class="st0" d="M181.9,25.6v3.2c0,0.7,0.3,1,1,1s1-0.3,1-1v-3.2h2v3.6c0,0.8-0.3,1.3-0.8,1.7s-1.2,0.6-2.2,0.6
			s-1.7-0.2-2.2-0.6s-0.8-1-0.8-1.7v-3.6H181.9z"/>
		<path class="st0" d="M189.4,27.3v4h-2v-4h-0.7v-1.7h0.7v-1.7h2v1.7h1.1v1.7H189.4z"/>
		<path class="st0" d="M197.2,23v4.5c0,0.2,0,0.5,0,0.7c0,0.3,0.1,0.5,0.2,0.7c0.1,0.2,0.2,0.4,0.4,0.5s0.5,0.2,0.8,0.2
			c0.4,0,0.6-0.1,0.8-0.2s0.3-0.3,0.4-0.5c0.1-0.2,0.2-0.4,0.2-0.7s0-0.5,0-0.7V23h2.1v4.8c0,1.3-0.3,2.2-0.9,2.8s-1.3,0.9-2.5,0.9
			s-2.1-0.3-2.7-0.9s-0.9-1.5-0.9-2.8V23H197.2z"/>
		<path class="st0" d="M203.9,25.6h2v0.7c0.3-0.3,0.5-0.6,0.8-0.7s0.6-0.2,1-0.2s0.7,0.1,1,0.2s0.5,0.3,0.7,0.5s0.3,0.4,0.3,0.6
			c0.1,0.2,0.1,0.5,0.1,0.8v3.6h-2v-2.8c0-0.3,0-0.5-0.1-0.7s-0.1-0.3-0.2-0.4c-0.1-0.1-0.2-0.1-0.3-0.2c-0.1,0-0.2-0.1-0.4-0.1
			c-0.3,0-0.6,0.1-0.8,0.3s-0.3,0.5-0.3,0.9v3h-2v-5.5H203.9z"/>
		<path class="st0" d="M211,23.5c0-0.2,0-0.3,0.1-0.4s0.1-0.3,0.2-0.4c0.1-0.1,0.2-0.2,0.4-0.2c0.1-0.1,0.3-0.1,0.4-0.1
			c0.2,0,0.3,0,0.4,0.1c0.1,0.1,0.3,0.1,0.4,0.2c0.1,0.1,0.2,0.2,0.2,0.4c0.1,0.1,0.1,0.3,0.1,0.4c0,0.2,0,0.3-0.1,0.4
			s-0.1,0.3-0.2,0.4c-0.1,0.1-0.2,0.2-0.4,0.2c-0.1,0.1-0.3,0.1-0.4,0.1c-0.2,0-0.3,0-0.4-0.1c-0.1-0.1-0.3-0.1-0.4-0.2
			c-0.1-0.1-0.2-0.2-0.2-0.4C211,23.8,211,23.6,211,23.5z M213.1,25.6v5.6h-2v-5.6H213.1z"/>
		<path class="st0" d="M216.1,25.6l1.3,2.9l1.4-2.9h2.2l-2.9,5.6h-1.3l-2.9-5.6H216.1z"/>
		<path class="st0" d="M223.1,28.8c0,0.9,0.4,1.3,1.2,1.3c0.4,0,0.8-0.2,1-0.5h1.9c-0.4,1.3-1.4,1.9-2.9,1.9c-0.5,0-0.9-0.1-1.3-0.2
			s-0.7-0.3-1-0.6s-0.5-0.6-0.7-0.9c-0.2-0.4-0.2-0.8-0.2-1.2c0-0.5,0.1-0.9,0.2-1.3c0.1-0.4,0.4-0.7,0.6-1c0.3-0.3,0.6-0.5,1-0.6
			s0.8-0.2,1.3-0.2s0.9,0.1,1.3,0.2c0.4,0.1,0.7,0.3,1,0.6s0.5,0.6,0.6,1s0.2,0.8,0.2,1.3v0.2C227.3,28.8,223.1,28.8,223.1,28.8z
			 M225.5,27.6c-0.1-0.3-0.2-0.5-0.4-0.7s-0.5-0.3-0.7-0.3c-0.3,0-0.6,0.1-0.8,0.2c-0.2,0.2-0.3,0.4-0.4,0.7L225.5,27.6L225.5,27.6
			L225.5,27.6z"/>
		<path class="st0" d="M228.4,25.6h2v0.9c0.2-0.3,0.5-0.6,0.8-0.8s0.7-0.3,1.1-0.3c0.1,0,0.1,0,0.2,0c0.1,0,0.1,0,0.2,0v1.9
			c-0.3-0.1-0.5-0.2-0.9-0.2c-0.5,0-0.8,0.1-1,0.4s-0.3,0.7-0.3,1.2v2.4h-2v-5.5H228.4z"/>
		<path class="st0" d="M237.1,27.1c-0.4-0.2-0.7-0.3-1.1-0.3c-0.2,0-0.3,0-0.4,0.1c-0.1,0.1-0.2,0.2-0.2,0.3s0,0.1,0,0.2l0.1,0.1
			c0.1,0,0.2,0.1,0.3,0.1s0.3,0.1,0.5,0.1c0.5,0.1,1,0.3,1.2,0.6c0.3,0.3,0.4,0.6,0.4,1.1c0,0.3-0.1,0.6-0.2,0.9
			c-0.1,0.3-0.3,0.5-0.5,0.7s-0.5,0.3-0.8,0.4s-0.7,0.1-1.1,0.1c-0.8,0-1.5-0.2-2.2-0.6l0.7-1.4c0.6,0.4,1.1,0.6,1.6,0.6
			c0.2,0,0.3,0,0.4-0.1c0.1-0.1,0.2-0.2,0.2-0.3s0-0.1,0-0.2l-0.1-0.1c-0.1,0-0.1-0.1-0.3-0.1c-0.1,0-0.3-0.1-0.4-0.1
			c-0.6-0.1-1-0.3-1.3-0.6c-0.2-0.2-0.4-0.6-0.4-1c0-0.3,0.1-0.6,0.2-0.9c0.1-0.3,0.3-0.5,0.5-0.6c0.2-0.2,0.5-0.3,0.8-0.4
			s0.7-0.1,1-0.1c0.6,0,1.2,0.1,1.8,0.4L237.1,27.1z"/>
		<path class="st0" d="M238.8,23.5c0-0.2,0-0.3,0.1-0.4s0.1-0.3,0.2-0.4c0.1-0.1,0.2-0.2,0.4-0.2c0.1-0.1,0.3-0.1,0.4-0.1
			c0.2,0,0.3,0,0.4,0.1c0.1,0.1,0.3,0.1,0.4,0.2c0.1,0.1,0.2,0.2,0.2,0.4c0.1,0.1,0.1,0.3,0.1,0.4c0,0.2,0,0.3-0.1,0.4
			s-0.1,0.3-0.2,0.4c-0.1,0.1-0.2,0.2-0.4,0.2c-0.1,0.1-0.3,0.1-0.4,0.1c-0.2,0-0.3,0-0.4-0.1c-0.1-0.1-0.3-0.1-0.4-0.2
			c-0.1-0.1-0.2-0.2-0.2-0.4C238.8,23.8,238.8,23.6,238.8,23.5z M240.9,25.6v5.6h-2v-5.6H240.9z"/>
		<path class="st0" d="M244.4,27.3v4h-2v-4h-0.7v-1.7h0.7v-1.7h2v1.7h1.1v1.7H244.4z"/>
		<path class="st0" d="M250.7,25.6h2v5.6h-2v-0.6c-0.4,0.5-1,0.8-1.7,0.8c-0.4,0-0.8-0.1-1.1-0.2s-0.6-0.4-0.9-0.6
			c-0.3-0.3-0.5-0.6-0.6-1s-0.2-0.8-0.2-1.2s0.1-0.8,0.2-1.1c0.1-0.4,0.3-0.7,0.6-0.9c0.2-0.3,0.5-0.5,0.9-0.6
			c0.3-0.2,0.7-0.2,1.1-0.2c0.7,0,1.3,0.2,1.7,0.7V25.6z M248.2,28.4c0,0.2,0,0.4,0.1,0.5c0.1,0.2,0.2,0.3,0.3,0.4s0.2,0.2,0.4,0.3
			c0.2,0.1,0.3,0.1,0.5,0.1s0.3,0,0.5-0.1s0.3-0.2,0.4-0.3s0.2-0.3,0.3-0.4c0.1-0.2,0.1-0.3,0.1-0.5s0-0.3-0.1-0.5s-0.2-0.3-0.3-0.4
			s-0.2-0.2-0.4-0.3c-0.2-0.1-0.3-0.1-0.5-0.1s-0.4,0-0.5,0.1c-0.2,0.1-0.3,0.2-0.4,0.3s-0.2,0.3-0.3,0.4
			C248.3,28.1,248.2,28.3,248.2,28.4z"/>
		<path class="st0" d="M253.9,23.5c0-0.2,0-0.3,0.1-0.4s0.1-0.3,0.2-0.4c0.1-0.1,0.2-0.2,0.4-0.2c0.1-0.1,0.3-0.1,0.4-0.1
			c0.2,0,0.3,0,0.4,0.1s0.3,0.1,0.4,0.2c0.1,0.1,0.2,0.2,0.2,0.4c0.1,0.1,0.1,0.3,0.1,0.4c0,0.2,0,0.3-0.1,0.4s-0.1,0.3-0.2,0.4
			c-0.1,0.1-0.2,0.2-0.4,0.2c-0.1,0.1-0.3,0.1-0.4,0.1c-0.2,0-0.3,0-0.4-0.1s-0.3-0.1-0.4-0.2c-0.1-0.1-0.2-0.2-0.2-0.4
			C253.9,23.8,253.9,23.6,253.9,23.5z M256,25.6v5.6h-2v-5.6H256z"/>
		<path class="st0" d="M257.3,25.6h2v0.9c0.2-0.3,0.5-0.6,0.8-0.8s0.7-0.3,1.1-0.3c0.1,0,0.1,0,0.2,0s0.1,0,0.2,0v1.9
			c-0.3-0.1-0.5-0.2-0.9-0.2c-0.5,0-0.8,0.1-1,0.4c-0.2,0.3-0.3,0.7-0.3,1.2v2.4h-2v-5.5H257.3z"/>
		<path class="st0" d="M264.2,28.8c0,0.9,0.4,1.3,1.2,1.3c0.4,0,0.8-0.2,1-0.5h1.9c-0.4,1.3-1.4,1.9-2.9,1.9c-0.5,0-0.9-0.1-1.3-0.2
			c-0.4-0.1-0.7-0.3-1-0.6s-0.5-0.6-0.7-0.9c-0.2-0.4-0.2-0.8-0.2-1.2c0-0.5,0.1-0.9,0.2-1.3s0.4-0.7,0.6-1c0.3-0.3,0.6-0.5,1-0.6
			s0.8-0.2,1.3-0.2s0.9,0.1,1.3,0.2s0.7,0.3,1,0.6s0.5,0.6,0.6,1s0.2,0.8,0.2,1.3v0.2C268.4,28.8,264.2,28.8,264.2,28.8z
			 M266.5,27.6c-0.1-0.3-0.2-0.5-0.4-0.7s-0.5-0.3-0.7-0.3c-0.3,0-0.6,0.1-0.8,0.2c-0.2,0.2-0.3,0.4-0.4,0.7L266.5,27.6L266.5,27.6z
			"/>
	</g>
	<g>
		<path class="st0" d="M155.9,34.3h1.9v8.9h-1.9v-0.7c-0.4,0.5-1,0.8-1.7,0.8c-0.4,0-0.8-0.1-1.1-0.2s-0.6-0.4-0.9-0.6
			c-0.3-0.3-0.4-0.6-0.6-0.9c-0.1-0.4-0.2-0.7-0.2-1.2c0-0.4,0.1-0.8,0.2-1.1c0.1-0.4,0.3-0.7,0.6-0.9c0.2-0.3,0.5-0.5,0.9-0.6
			c0.3-0.2,0.7-0.2,1.1-0.2c0.7,0,1.3,0.2,1.7,0.7V34.3z M153.4,40.4c0,0.2,0,0.3,0.1,0.5s0.2,0.3,0.3,0.4s0.2,0.2,0.4,0.3
			c0.2,0.1,0.3,0.1,0.5,0.1s0.3,0,0.5-0.1s0.3-0.2,0.4-0.3c0.1-0.1,0.2-0.2,0.3-0.4c0.1-0.1,0.1-0.3,0.1-0.5s0-0.3-0.1-0.5
			s-0.2-0.3-0.3-0.4s-0.2-0.2-0.4-0.3c-0.2-0.1-0.3-0.1-0.5-0.1s-0.3,0-0.5,0.1s-0.3,0.2-0.4,0.3c-0.1,0.1-0.2,0.2-0.3,0.4
			C153.5,40.1,153.4,40.2,153.4,40.4z"/>
		<path class="st0" d="M161.1,37.7v3.1c0,0.7,0.3,1,1,1s1-0.3,1-1v-3.1h1.9v3.5c0,0.7-0.2,1.3-0.7,1.7c-0.5,0.4-1.2,0.6-2.2,0.6
			s-1.7-0.2-2.2-0.6s-0.7-0.9-0.7-1.7v-3.5H161.1z"/>
		<path class="st0" d="M174.2,38.6h4.2c0,0.4,0,0.8-0.1,1.2c0,0.4-0.1,0.7-0.2,1c-0.1,0.4-0.4,0.8-0.6,1.1c-0.3,0.3-0.6,0.6-0.9,0.8
			c-0.3,0.2-0.7,0.4-1.1,0.5s-0.8,0.2-1.3,0.2c-0.6,0-1.2-0.1-1.7-0.3c-0.5-0.2-1-0.5-1.3-0.9s-0.7-0.8-0.9-1.3s-0.3-1.1-0.3-1.7
			s0.1-1.2,0.3-1.7c0.2-0.5,0.5-1,0.9-1.3c0.4-0.4,0.8-0.7,1.4-0.9c0.5-0.2,1.1-0.3,1.8-0.3c0.8,0,1.6,0.2,2.2,0.5
			c0.6,0.3,1.1,0.9,1.5,1.7l-2,0.8c-0.2-0.4-0.4-0.8-0.7-1s-0.6-0.3-1-0.3c-0.3,0-0.6,0.1-0.9,0.2s-0.5,0.3-0.7,0.5
			s-0.3,0.5-0.4,0.8c-0.1,0.3-0.2,0.7-0.2,1s0,0.7,0.1,1s0.2,0.5,0.4,0.8s0.4,0.4,0.7,0.5s0.6,0.2,0.9,0.2c0.2,0,0.4,0,0.6-0.1
			c0.2,0,0.4-0.1,0.5-0.2c0.2-0.1,0.3-0.2,0.4-0.4c0.1-0.2,0.2-0.4,0.2-0.6h-1.7L174.2,38.6L174.2,38.6z"/>
		<path class="st0" d="M179.4,40.4c0-0.4,0.1-0.8,0.2-1.1c0.2-0.4,0.4-0.7,0.7-0.9c0.3-0.3,0.6-0.5,1-0.6s0.8-0.2,1.3-0.2
			s0.9,0.1,1.3,0.2s0.8,0.4,1,0.6c0.3,0.3,0.5,0.6,0.7,0.9c0.2,0.4,0.2,0.8,0.2,1.2s-0.1,0.8-0.3,1.2c-0.2,0.4-0.4,0.7-0.7,0.9
			c-0.3,0.3-0.6,0.5-1.1,0.6c-0.4,0.1-0.9,0.2-1.3,0.2c-0.5,0-0.9-0.1-1.3-0.2c-0.4-0.1-0.7-0.3-1-0.6c-0.3-0.3-0.5-0.6-0.7-0.9
			C179.5,41.2,179.4,40.8,179.4,40.4z M181.5,40.4c0,0.2,0,0.4,0.1,0.5c0.1,0.2,0.2,0.3,0.3,0.4s0.2,0.2,0.4,0.3
			c0.2,0.1,0.3,0.1,0.5,0.1s0.3,0,0.5-0.1s0.3-0.2,0.4-0.3c0.1-0.1,0.2-0.2,0.3-0.4c0.1-0.2,0.1-0.3,0.1-0.5s0-0.3-0.1-0.5
			s-0.2-0.3-0.3-0.4s-0.2-0.2-0.4-0.3c-0.2-0.1-0.3-0.1-0.5-0.1s-0.3,0-0.5,0.1s-0.3,0.2-0.4,0.3c-0.1,0.1-0.2,0.2-0.3,0.4
			C181.5,40,181.5,40.2,181.5,40.4z"/>
		<path class="st0" d="M189.1,34.3v8.9h-1.9v-8.9C187.2,34.3,189.1,34.3,189.1,34.3z"/>
		<path class="st0" d="M192.6,39.3v3.9h-1.9v-3.9H190v-1.6h0.7v-0.8c0-0.5,0-0.8,0.1-1.1c0.1-0.2,0.2-0.4,0.3-0.6
			c0.2-0.2,0.3-0.4,0.6-0.5c0.2-0.1,0.4-0.3,0.7-0.3c0.2-0.1,0.5-0.1,0.7-0.1s0.3,0,0.5,0.1c0.1,0,0.3,0.1,0.4,0.1v1.7
			c-0.1-0.1-0.2-0.1-0.4-0.1c-0.1,0-0.2,0-0.3,0s-0.2,0-0.2,0c-0.1,0-0.2,0.1-0.2,0.2c-0.1,0.1-0.1,0.2-0.1,0.3s0,0.3,0,0.6v0.7h1.4
			v1.6h-1.6V39.3z"/>
		<path class="st0" d="M196.6,40.7c0,0.8,0.4,1.3,1.2,1.3c0.4,0,0.7-0.2,1-0.5h1.9c-0.4,1.3-1.3,1.9-2.8,1.9c-0.5,0-0.9-0.1-1.3-0.2
			c-0.4-0.1-0.7-0.3-1-0.6c-0.3-0.3-0.5-0.6-0.6-0.9c-0.2-0.4-0.2-0.8-0.2-1.2c0-0.5,0.1-0.9,0.2-1.2c0.1-0.4,0.3-0.7,0.6-0.9
			c0.3-0.3,0.6-0.5,1-0.6s0.8-0.2,1.3-0.2s0.9,0.1,1.3,0.2c0.4,0.1,0.7,0.3,0.9,0.6c0.3,0.3,0.5,0.6,0.6,1s0.2,0.8,0.2,1.3v0.2h-4.3
			L196.6,40.7L196.6,40.7z M198.9,39.6c-0.1-0.3-0.2-0.5-0.4-0.7s-0.4-0.2-0.7-0.2s-0.5,0.1-0.7,0.2c-0.2,0.2-0.3,0.4-0.4,0.7H198.9
			z"/>
		<path class="st0" d="M211.4,34.3h1.9v8.9h-1.9v-0.7c-0.4,0.5-1,0.8-1.7,0.8c-0.4,0-0.8-0.1-1.1-0.2s-0.6-0.4-0.9-0.6
			c-0.3-0.3-0.4-0.6-0.6-0.9c-0.1-0.4-0.2-0.7-0.2-1.2c0-0.4,0.1-0.8,0.2-1.1c0.1-0.4,0.3-0.7,0.6-0.9c0.2-0.3,0.5-0.5,0.9-0.6
			c0.3-0.2,0.7-0.2,1.1-0.2c0.7,0,1.3,0.2,1.7,0.7V34.3z M209,40.4c0,0.2,0,0.3,0.1,0.5s0.2,0.3,0.3,0.4s0.2,0.2,0.4,0.3
			c0.2,0.1,0.3,0.1,0.5,0.1s0.3,0,0.5-0.1s0.3-0.2,0.4-0.3c0.1-0.1,0.2-0.2,0.3-0.4c0.1-0.1,0.1-0.3,0.1-0.5s0-0.3-0.1-0.5
			s-0.2-0.3-0.3-0.4s-0.2-0.2-0.4-0.3c-0.2-0.1-0.3-0.1-0.5-0.1s-0.3,0-0.5,0.1s-0.3,0.2-0.4,0.3c-0.1,0.1-0.2,0.2-0.3,0.4
			C209,40.1,209,40.2,209,40.4z"/>
		<path class="st0" d="M216.5,40.7c0,0.8,0.4,1.3,1.2,1.3c0.4,0,0.7-0.2,1-0.5h1.9c-0.4,1.3-1.3,1.9-2.8,1.9c-0.5,0-0.9-0.1-1.3-0.2
			c-0.4-0.1-0.7-0.3-1-0.6c-0.3-0.3-0.5-0.6-0.6-0.9c-0.2-0.4-0.2-0.8-0.2-1.2c0-0.5,0.1-0.9,0.2-1.2c0.1-0.4,0.3-0.7,0.6-0.9
			c0.3-0.3,0.6-0.5,1-0.6s0.8-0.2,1.3-0.2s0.9,0.1,1.3,0.2c0.4,0.1,0.7,0.3,0.9,0.6c0.3,0.3,0.5,0.6,0.6,1s0.2,0.8,0.2,1.3v0.2h-4.3
			V40.7z M218.8,39.6c-0.1-0.3-0.2-0.5-0.4-0.7s-0.4-0.2-0.7-0.2s-0.5,0.1-0.7,0.2c-0.2,0.2-0.3,0.4-0.4,0.7H218.8z"/>
		<path class="st0" d="M232.2,38.6h4.2c0,0.4,0,0.8-0.1,1.2c0,0.4-0.1,0.7-0.2,1c-0.1,0.4-0.4,0.8-0.6,1.1c-0.3,0.3-0.6,0.6-0.9,0.8
			c-0.3,0.2-0.7,0.4-1.1,0.5s-0.8,0.2-1.3,0.2c-0.6,0-1.2-0.1-1.7-0.3c-0.5-0.2-1-0.5-1.3-0.9c-0.4-0.4-0.7-0.8-0.9-1.3
			s-0.3-1.1-0.3-1.7s0.1-1.2,0.3-1.7s0.5-1,0.9-1.3c0.4-0.4,0.8-0.7,1.4-0.9c0.5-0.2,1.1-0.3,1.8-0.3c0.8,0,1.6,0.2,2.2,0.5
			s1.1,0.9,1.5,1.7l-2,0.8c-0.2-0.4-0.4-0.8-0.7-1s-0.6-0.3-1-0.3c-0.3,0-0.6,0.1-0.9,0.2c-0.3,0.1-0.5,0.3-0.7,0.5
			s-0.3,0.5-0.4,0.8c-0.1,0.3-0.2,0.7-0.2,1s0,0.7,0.1,1s0.2,0.5,0.4,0.8c0.2,0.2,0.4,0.4,0.7,0.5s0.6,0.2,0.9,0.2
			c0.2,0,0.4,0,0.6-0.1c0.2,0,0.4-0.1,0.5-0.2c0.2-0.1,0.3-0.2,0.4-0.4c0.1-0.2,0.2-0.4,0.2-0.6h-1.7L232.2,38.6L232.2,38.6z"/>
		<path class="st0" d="M239.5,37.7v3.1c0,0.7,0.3,1,1,1s1-0.3,1-1v-3.1h1.9v3.5c0,0.7-0.2,1.3-0.7,1.7c-0.5,0.4-1.2,0.6-2.2,0.6
			s-1.7-0.2-2.2-0.6s-0.7-0.9-0.7-1.7v-3.5H239.5z"/>
		<path class="st0" d="M244.7,35.5c0-0.1,0-0.3,0.1-0.4c0.1-0.1,0.1-0.2,0.2-0.3s0.2-0.2,0.3-0.2c0.1-0.1,0.3-0.1,0.4-0.1
			s0.3,0,0.4,0.1s0.2,0.1,0.3,0.2s0.2,0.2,0.2,0.3c0.1,0.1,0.1,0.3,0.1,0.4s0,0.3-0.1,0.4c-0.1,0.1-0.1,0.2-0.2,0.3
			s-0.2,0.2-0.3,0.2c-0.1,0.1-0.3,0.1-0.4,0.1s-0.3,0-0.4-0.1s-0.2-0.1-0.3-0.2s-0.2-0.2-0.2-0.3C244.7,35.8,244.7,35.7,244.7,35.5z
			 M246.8,37.7v5.5h-1.9v-5.5H246.8z"/>
		<path class="st0" d="M248.2,37.7h1.9v0.7c0.3-0.3,0.5-0.5,0.8-0.6s0.6-0.2,1-0.2s0.7,0.1,1,0.2s0.5,0.3,0.7,0.5s0.3,0.4,0.3,0.6
			c0.1,0.2,0.1,0.5,0.1,0.8v3.5h-1.9v-2.8c0-0.3,0-0.5-0.1-0.7c0-0.2-0.1-0.3-0.2-0.4s-0.2-0.1-0.3-0.2c-0.1,0-0.2-0.1-0.3-0.1
			c-0.3,0-0.6,0.1-0.8,0.3c-0.2,0.2-0.3,0.5-0.3,0.8V43h-1.9L248.2,37.7L248.2,37.7z"/>
		<path class="st0" d="M257.1,40.7c0,0.8,0.4,1.3,1.2,1.3c0.4,0,0.7-0.2,1-0.5h1.9c-0.4,1.3-1.3,1.9-2.8,1.9c-0.5,0-0.9-0.1-1.3-0.2
			s-0.7-0.3-1-0.6c-0.3-0.3-0.5-0.6-0.6-0.9c-0.2-0.4-0.2-0.8-0.2-1.2c0-0.5,0.1-0.9,0.2-1.2c0.1-0.4,0.3-0.7,0.6-0.9
			c0.3-0.3,0.6-0.5,1-0.6s0.8-0.2,1.3-0.2s0.9,0.1,1.3,0.2s0.7,0.3,0.9,0.6c0.3,0.3,0.5,0.6,0.6,1s0.2,0.8,0.2,1.3v0.2h-4.3
			L257.1,40.7L257.1,40.7z M259.4,39.6c-0.1-0.3-0.2-0.5-0.4-0.7s-0.4-0.2-0.7-0.2c-0.3,0-0.5,0.1-0.7,0.2c-0.2,0.2-0.3,0.4-0.4,0.7
			H259.4z M260,35.2l-1.9,1.6l-0.9-0.7l1.5-1.9L260,35.2z"/>
		<path class="st0" d="M264.1,40.7c0,0.8,0.4,1.3,1.2,1.3c0.4,0,0.7-0.2,1-0.5h1.9c-0.4,1.3-1.3,1.9-2.8,1.9c-0.5,0-0.9-0.1-1.3-0.2
			s-0.7-0.3-1-0.6c-0.3-0.3-0.5-0.6-0.6-0.9c-0.2-0.4-0.2-0.8-0.2-1.2c0-0.5,0.1-0.9,0.2-1.2c0.1-0.4,0.3-0.7,0.6-0.9
			c0.3-0.3,0.6-0.5,1-0.6s0.8-0.2,1.3-0.2s0.9,0.1,1.3,0.2s0.7,0.3,0.9,0.6c0.3,0.3,0.5,0.6,0.6,1s0.2,0.8,0.2,1.3v0.2h-4.3
			L264.1,40.7L264.1,40.7z M266.4,39.6c-0.1-0.3-0.2-0.5-0.4-0.7s-0.4-0.2-0.7-0.2c-0.3,0-0.5,0.1-0.7,0.2c-0.2,0.2-0.3,0.4-0.4,0.7
			H266.4z"/>
	</g>
</g>
<g>
	<rect x="147.4" y="47.6" class="st0" width="38.5" height="21"/>
	<g>
		<rect x="234.5" y="47.8" class="st1" width="37.6" height="20.5"/>
		<path class="st0" d="M272.4,68.6h-38.1v-21h38.1V68.6z M234.8,68.1h37.1V48h-37.1L234.8,68.1L234.8,68.1z"/>
	</g>
	<g>
		<path class="st1" d="M156.8,54.4h-4.1v2.2h3.9v2.9h-3.9v2.3h4.1v2.9h-7.6V51.4h7.6V54.4z"/>
		<path class="st1" d="M166.6,54.8c-0.4-0.3-0.8-0.5-1.1-0.7c-0.4-0.1-0.7-0.2-1.1-0.2s-0.8,0.1-1.1,0.3c-0.3,0.2-0.4,0.5-0.4,0.8
			c0,0.2,0.1,0.4,0.2,0.6s0.3,0.3,0.6,0.4c0.2,0.1,0.5,0.2,0.8,0.3c0.3,0.1,0.6,0.2,0.9,0.3c1.1,0.4,2,0.9,2.5,1.5s0.8,1.4,0.8,2.5
			c0,0.7-0.1,1.3-0.3,1.8c-0.2,0.6-0.6,1-1,1.4s-1,0.7-1.6,0.9c-0.6,0.2-1.4,0.3-2.2,0.3c-1.7,0-3.2-0.5-4.7-1.5l1.5-2.8
			c0.5,0.5,1,0.8,1.5,1s1,0.3,1.5,0.3c0.6,0,1-0.1,1.3-0.4s0.4-0.6,0.4-0.9c0-0.2,0-0.4-0.1-0.5s-0.2-0.3-0.4-0.4s-0.4-0.2-0.6-0.3
			c-0.3-0.1-0.6-0.2-1-0.4c-0.4-0.1-0.9-0.3-1.3-0.5c-0.4-0.2-0.8-0.4-1.1-0.7c-0.3-0.3-0.6-0.6-0.8-1.1c-0.2-0.4-0.3-1-0.3-1.6
			c0-0.7,0.1-1.3,0.3-1.8s0.5-1,0.9-1.4s0.9-0.7,1.4-0.9c0.6-0.2,1.2-0.3,1.9-0.3s1.3,0.1,2.1,0.3c0.7,0.2,1.4,0.4,2.1,0.8
			L166.6,54.8z"/>
		<path class="st1" d="M177.3,57.3h6.8c0,0.7,0,1.3-0.1,1.9s-0.2,1.1-0.4,1.6c-0.2,0.7-0.6,1.3-1,1.8s-0.9,1-1.5,1.3
			c-0.6,0.4-1.2,0.6-1.9,0.8c-0.7,0.2-1.4,0.3-2.1,0.3c-1,0-2-0.2-2.8-0.5c-0.9-0.3-1.6-0.8-2.2-1.4c-0.6-0.6-1.1-1.4-1.4-2.2
			c-0.3-0.9-0.5-1.8-0.5-2.9c0-1,0.2-2,0.5-2.8c0.3-0.9,0.8-1.6,1.4-2.2c0.6-0.6,1.4-1.1,2.2-1.4c0.9-0.3,1.8-0.5,2.9-0.5
			c1.4,0,2.6,0.3,3.6,0.9s1.9,1.5,2.5,2.8l-3.3,1.4c-0.3-0.7-0.7-1.2-1.2-1.6c-0.5-0.3-1-0.5-1.7-0.5c-0.5,0-1,0.1-1.4,0.3
			c-0.4,0.2-0.8,0.5-1.1,0.8c-0.3,0.4-0.5,0.8-0.7,1.3s-0.3,1.1-0.3,1.7s0.1,1.1,0.2,1.6c0.1,0.5,0.4,0.9,0.7,1.2
			c0.3,0.4,0.7,0.6,1.1,0.8c0.4,0.2,0.9,0.3,1.5,0.3c0.3,0,0.7,0,1-0.1s0.6-0.2,0.9-0.4c0.3-0.2,0.5-0.4,0.6-0.7
			c0.2-0.3,0.3-0.6,0.3-1h-2.8v-2.6L177.3,57.3L177.3,57.3z"/>
	</g>
	<g>
		<rect x="188" y="47.6" class="st0" width="44.9" height="21"/>
		<g>
			<path class="st1" d="M194.2,51.5v13.3h-3.4V51.5H194.2z"/>
			<path class="st1" d="M204.4,54.9c-0.4-0.3-0.8-0.5-1.1-0.7c-0.4-0.1-0.7-0.2-1.1-0.2c-0.4,0-0.8,0.1-1.1,0.3
				c-0.3,0.2-0.4,0.5-0.4,0.8c0,0.2,0.1,0.4,0.2,0.6c0.1,0.2,0.3,0.3,0.6,0.4c0.2,0.1,0.5,0.2,0.8,0.3c0.3,0.1,0.6,0.2,0.9,0.3
				c1.1,0.4,2,0.9,2.5,1.5s0.8,1.4,0.8,2.5c0,0.7-0.1,1.3-0.3,1.8c-0.2,0.6-0.6,1-1,1.4s-1,0.7-1.6,0.9c-0.6,0.2-1.4,0.3-2.2,0.3
				c-1.7,0-3.2-0.5-4.7-1.5l1.5-2.8c0.5,0.5,1,0.8,1.5,1s1,0.3,1.5,0.3c0.6,0,1-0.1,1.3-0.4s0.4-0.6,0.4-0.9c0-0.2,0-0.4-0.1-0.5
				s-0.2-0.3-0.4-0.4s-0.4-0.2-0.6-0.3c-0.3-0.1-0.6-0.2-1-0.4c-0.4-0.1-0.9-0.3-1.3-0.5c-0.4-0.2-0.8-0.4-1.1-0.7
				c-0.3-0.3-0.6-0.6-0.8-1.1c-0.2-0.4-0.3-1-0.3-1.6c0-0.7,0.1-1.3,0.3-1.8s0.5-1,0.9-1.4s0.9-0.7,1.4-0.9c0.6-0.2,1.2-0.3,1.9-0.3
				s1.3,0.1,2.1,0.3c0.7,0.2,1.4,0.4,2.1,0.8L204.4,54.9z"/>
			<path class="st1" d="M213.7,54.4v10.3h-3.4V54.4h-2.8v-2.9h9.1v2.9H213.7z"/>
			<path class="st1" d="M225.6,62.5h-4.9l-0.8,2.3h-3.7l5.1-13.3h3.8l5.1,13.3h-3.7L225.6,62.5z M224.7,59.8l-1.5-4.4l-1.5,4.4
				H224.7z"/>
		</g>
	</g>
	<g>
		<path class="st0" d="M241.7,51.5v13.3h-3.4V51.5H241.7z"/>
		<path class="st0" d="M251.9,54.9c-0.4-0.3-0.8-0.5-1.1-0.7c-0.4-0.1-0.7-0.2-1.1-0.2s-0.8,0.1-1.1,0.3c-0.3,0.2-0.4,0.5-0.4,0.8
			c0,0.2,0.1,0.4,0.2,0.6s0.3,0.3,0.6,0.4c0.2,0.1,0.5,0.2,0.8,0.3c0.3,0.1,0.6,0.2,0.9,0.3c1.1,0.4,2,0.9,2.5,1.5s0.8,1.4,0.8,2.5
			c0,0.7-0.1,1.3-0.3,1.8c-0.2,0.6-0.6,1-1,1.4s-1,0.7-1.6,0.9c-0.6,0.2-1.4,0.3-2.2,0.3c-1.7,0-3.2-0.5-4.7-1.5l1.5-2.8
			c0.5,0.5,1,0.8,1.5,1s1,0.3,1.5,0.3c0.6,0,1-0.1,1.3-0.4s0.4-0.6,0.4-0.9c0-0.2,0-0.4-0.1-0.5s-0.2-0.3-0.4-0.4
			c-0.2-0.1-0.4-0.2-0.6-0.3c-0.3-0.1-0.6-0.2-1-0.4c-0.4-0.1-0.9-0.3-1.3-0.5s-0.8-0.4-1.1-0.7c-0.3-0.3-0.6-0.6-0.8-1.1
			c-0.2-0.4-0.3-1-0.3-1.6c0-0.7,0.1-1.3,0.3-1.8c0.2-0.5,0.5-1,0.9-1.4s0.9-0.7,1.4-0.9c0.6-0.2,1.2-0.3,1.9-0.3
			c0.7,0,1.3,0.1,2.1,0.3c0.7,0.2,1.4,0.4,2.1,0.8L251.9,54.9z"/>
		<path class="st0" d="M263.9,62.4H259l-0.8,2.3h-3.7l5.1-13.3h3.8l5.1,13.3h-3.7L263.9,62.4z M263,59.8l-1.5-4.4l-1.5,4.4H263z"/>
	</g>
</g>
</svg>
