<?xml version="1.0" encoding="utf-8"?>
<!-- Generator: Adobe Illustrator 23.0.1, SVG Export Plug-In . SVG Version: 6.00 Build 0)  -->
<svg version="1.1" id="Layer_1" xmlns="http://www.w3.org/2000/svg" xmlns:xlink="http://www.w3.org/1999/xlink" x="0px" y="0px"
	 viewBox="0 0 300 84.5" style="enable-background:new 0 0 300 84.5;" xml:space="preserve">
<style type="text/css">
	.st0{fill:#9FA6B3;}
	.st1{display:none;}
	.st2{fill:#BDC2C9;}
</style>
<g id="XMLID_79_">
	<g id="XMLID_78_">
		<g id="XMLID_293_">
			<g id="XMLID_325_">
				<g id="XMLID_326_">
					<path id="XMLID_344_" class="st0" d="M97.2,11.6c10.4,0,16.4,5.4,16.4,15c0,10.1-6,16-16.4,16h-5.5v10.8H78.3V11.6H97.2z
						 M91.6,32.1h4.8c2.9,0,4.5-1.8,4.5-5.1c0-3.1-1.6-5-4.5-5h-4.8V32.1z"/>
					<path id="XMLID_341_" class="st1" d="M160.6,32.5c0,12.4-9.2,21.6-22,21.6c-12.8,0-22-9.1-22-21.6s9.2-21.3,22-21.3
						C151.4,11.1,160.6,20.1,160.6,32.5z M130.2,32.6c0,5.8,4,10,8.5,10c4.5,0,8.2-4.3,8.2-10s-3.7-9.9-8.2-9.9
						C134.1,22.7,130.2,26.8,130.2,32.6z"/>
					<path id="XMLID_339_" class="st0" d="M194,53.6l-15.8-21.4v21.4h-12.1v-42h11.1l15.9,21.6V11.6h12.1v42
						C205.2,53.6,194,53.6,194,53.6z"/>
					<path id="XMLID_336_" class="st0" d="M227.1,11.6c13.3,0,21.8,8.2,21.8,21s-8.8,21-22.4,21h-17.4v-42H227.1z M222.5,42.7h5
						c4.8,0,8-3.9,8-10.1s-3.3-10.3-8.5-10.3h-4.4V42.7z"/>
					<path id="XMLID_333_" class="st0" d="M275.1,11.3c12.2,0,22.1,9.6,22.1,21.3s-9.9,21.2-22.1,21.2c-12.2,0-22.1-9.5-22.1-21.2
						S262.9,11.3,275.1,11.3z M275.1,22.3c-5.8,0-10.5,4.5-10.5,10.1c0,5.5,4.7,10.1,10.5,10.1c5.9,0,10.6-4.6,10.6-10.1
						C285.7,26.8,281,22.3,275.1,22.3z"/>
					<path id="XMLID_330_" class="st0" d="M140.1,11.3c12.2,0,22.1,9.6,22.1,21.3s-9.9,21.2-22.1,21.2c-12.2,0-22.1-9.5-22.1-21.2
						S127.9,11.3,140.1,11.3z M140.1,22.3c-5.8,0-10.5,4.5-10.5,10.1c0,5.5,4.7,10.1,10.5,10.1c5.9,0,10.6-4.6,10.6-10.1
						C150.6,26.8,145.9,22.3,140.1,22.3z"/>
					<path id="XMLID_327_" class="st1" d="M297.4,32.5c0,12.4-9.2,21.6-22,21.6c-12.8,0-22-9.1-22-21.6s9.2-21.3,22-21.3
						C288.2,11.1,297.4,20.1,297.4,32.5z M267,32.6c0,5.8,4,10,8.5,10c4.6,0,8.2-4.3,8.2-10s-3.7-9.9-8.2-9.9
						C270.9,22.7,267,26.8,267,32.6z"/>
				</g>
			</g>
			<g id="XMLID_294_">
				<path id="XMLID_323_" class="st2" d="M77.7,69.9v-3.6c0-2,1-3,2.9-3s2.9,1,2.9,3h-1.8c0-0.8-0.3-1.2-1-1.2
					c-0.6,0-0.9,0.3-0.9,1.2v3.6c0,0.8,0.3,1.2,0.9,1.2c0.7,0,1-0.3,1.2-1.2h1.8c0,2-1.2,3-3,3C78.8,72.9,77.7,71.9,77.7,69.9z"/>
				<path id="XMLID_320_" class="st2" d="M116.8,69.6h-0.7v3.1h-1.8v-9.1h2.7c1.8,0,2.9,1.2,2.9,3c0,1.3-0.5,2.2-1.3,2.7l1.7,3.5
					h-2.1L116.8,69.6z M116.2,67.9h0.8c0.7,0,1-0.5,1-1.3s-0.3-1.3-1-1.3h-0.8V67.9z"/>
				<path id="XMLID_304_" class="st2" d="M155.9,71v1.7H151v-9.1h4.7v1.7h-2.9v1.8h2.7v1.7h-2.7V71C152.9,71,155.9,71,155.9,71z"/>
				<path id="XMLID_301_" class="st2" d="M190.3,71.2h-2l-0.3,1.5h-2l2.2-9.1h2l2.2,9.1h-2L190.3,71.2z M190,69.5l-0.2-1
					c-0.1-0.7-0.2-1.7-0.3-2.5l0,0c-0.1,0.7-0.2,1.8-0.3,2.5l-0.2,1H190z"/>
				<path id="XMLID_299_" class="st2" d="M227.6,65.3h-1.8v7.4h-2v-7.4h-1.8v-1.7h5.5v1.7H227.6z"/>
				<path id="XMLID_297_" class="st2" d="M260.1,63.6v9.1h-1.8v-9.1H260.1z"/>
				<path id="XMLID_295_" class="st2" d="M290.8,63.6h2l0.8,4.4c0.1,0.7,0.2,1.8,0.3,2.5l0,0c0.1-0.8,0.2-1.8,0.3-2.5l0.8-4.4h2
					l-2.2,9.1h-2L290.8,63.6z"/>
			</g>
		</g>
		<g id="XMLID_347_">
			<g id="XMLID_350_">
				<polygon id="XMLID_356_" class="st2" points="5.6,25.3 7.7,27.5 10.7,26.8 9.4,29.6 10.9,32.1 7.9,31.8 5.9,34 5.3,31.1 
					2.6,29.8 5.2,28.3 				"/>
				<g id="XMLID_351_">
					<g id="XMLID_353_">
						<path id="XMLID_355_" class="st0" d="M42.6,22.3H16.5c-3,0-5.5-2.5-5.5-5.6l0,0c0-3,2.5-5.5,5.5-5.5h26.1V22.3z"/>
						<path id="XMLID_354_" class="st0" d="M42.6,47.4H16.5c-3,0-5.5-2.5-5.5-5.5l0,0c0-3,2.5-5.5,5.5-5.5h26.1V47.4z"/>
					</g>
					<path id="XMLID_352_" class="st2" d="M25.7,36.3c3.3,7.6,9.5,11.1,16.8,11.1c0.7,0,1.5,0,2.1-0.1c9.1-0.9,16.3-8.6,16.3-18
						s-7.4-17.1-16.5-18c-0.6-0.1-1.2-0.1-1.8-0.1c-7.4,0-13.8,4.8-16.7,11.1h17.1c3.9,0,7.1,3.1,7.1,7c0,3.8-2.8,6.3-6.3,6.9h-18
						V36.3z"/>
				</g>
			</g>
			<g id="XMLID_348_">
				<path id="XMLID_349_" class="st0" d="M14.4,62.7c-1,4.3-3.6,7.8-6.9,10.3c-1.8,1.3-4.3-0.3-3.7-2.5l5-19.6
					c0.6-2.1,3.5-2.4,4.4-0.5C15,53.9,15.5,58.3,14.4,62.7z"/>
			</g>
		</g>
	</g>
</g>
</svg>
