<svg xmlns="http://www.w3.org/2000/svg" viewBox="0 0 750 500"><defs><style>.cls-1{fill:#f5f5f5}.cls-2{fill:#e0e0e0}.cls-3{fill:#263238}.cls-4{fill:#00795d}.cls-5{opacity:.5}.cls-6{fill:#fff}</style></defs><g id="Background_Complete" data-name="Background Complete"><path class="cls-1" transform="rotate(-33.78 219.006 242.395)" d="M151.54 143.03h134.99V341.8H151.54z"/><path class="cls-2" d="M272.42 279.66l-1.27 7.88-55.78-8.04 1.27-7.88 55.78 8.04z"/><path class="cls-2" d="M244.33 251.55l8 1.15-8.87 54.92-8.01-1.16 8.88-54.91zM193 181.75c.08.11-11.16 7.78-25.11 17.1s-25.32 16.8-25.4 16.68 11.16-7.78 25.11-17.11 25.27-16.79 25.4-16.67zM234.22 171.39c.08.12-18.62 12.76-41.76 28.24s-42 27.93-42.06 27.82 18.6-12.77 41.77-28.25 41.97-27.93 42.05-27.81zM242.49 183.75c.08.12-18.62 12.77-41.76 28.25s-42 27.93-42.06 27.81 18.62-12.76 41.77-28.25 41.97-27.93 42.05-27.81zM250.76 196.12c.08.12-18.62 12.77-41.76 28.24s-42 27.94-42 27.82 18.61-12.77 41.76-28.25 41.92-27.93 42-27.81zM259 208.49c.08.12-18.62 12.76-41.76 28.24s-42 27.93-42.05 27.81 18.64-12.76 41.81-28.24 42-27.93 42-27.81z"/><path class="cls-1" transform="rotate(-33.78 594.299 333.882)" d="M537.68 250.43h113.37v166.93H537.68z"/><path class="cls-2" d="M639.2 365.18l-1.07 6.62-46.85-6.75 1.08-6.62 46.84 6.75z"/><path class="cls-2" d="M615.61 341.57l6.72.97-7.45 46.12-6.73-.97 7.46-46.12zM572.46 283c.08.12-9.35 6.57-21.07 14.4s-21.28 14.09-21.36 14 9.36-6.56 21.07-14.4 21.28-14.17 21.36-14zM607.11 274.25c.08.12-15.61 10.76-35 23.75s-35.26 23.45-35.34 23.33 15.61-10.76 35-23.76 35.23-23.44 35.34-23.32zM614.06 284.63c.08.12-15.61 10.76-35 23.76s-35.26 23.44-35.34 23.32 15.56-10.71 35-23.71 35.28-23.48 35.34-23.37zM621 295c.08.12-15.62 10.76-35 23.76s-35.26 23.44-35.34 23.32 15.61-10.75 35-23.76S620.93 294.9 621 295zM628 305.41c.08.12-15.61 10.75-35 23.75s-35.26 23.44-35.34 23.33 15.61-10.76 35-23.76 35.21-23.44 35.34-23.32z"/><path class="cls-1" transform="rotate(28.14 354.085 176.53)" d="M295.8 90.69h116.6v171.69H295.8z"/><path class="cls-2" d="M347.42 232.37l-6.52 2.23-16.56-45.77 6.52-2.24 16.56 45.78z"/><path class="cls-2" d="M357.42 199.53l2.38 6.57-45.46 15.57-2.38-6.57 45.46-15.57zM389.72 132c-.08.15-10.5-5.27-23.29-12.1s-23.08-12.5-23-12.65 10.51 5.27 23.3 12.1 23.07 12.49 22.99 12.65zM414.4 159.23c-.08.15-17.34-8.93-38.55-20.27s-38.33-20.66-38.25-20.81 17.33 8.92 38.54 20.27 38.34 20.66 38.26 20.81zM408.34 170.56c-.08.15-17.34-8.92-38.55-20.26s-38.33-20.67-38.25-20.82 17.33 8.93 38.54 20.27 38.34 20.66 38.26 20.81zM402.28 181.89c-.08.15-17.34-8.92-38.55-20.26S325.4 141 325.48 140.82s17.33 8.92 38.54 20.26 38.34 20.66 38.26 20.81zM396.22 193.22c-.08.15-17.34-8.92-38.55-20.26s-38.34-20.66-38.25-20.81 17.33 8.92 38.54 20.26 38.34 20.66 38.26 20.81z"/></g><path class="cls-3" d="M663.67 439.83c0 .14-129.25.26-288.66.26s-288.68-.09-288.68-.26 129.23-.26 288.68-.26 288.66.11 288.66.26z" id="Floor"/><g id="Plant"><path class="cls-4" d="M118.29 377.2a12.62 12.62 0 018.78 4.5 22.15 22.15 0 014.47 9c1.69 6.32.65 13.79-1.15 20.08-6.84-2.45-11.07-9.75-13-13.59-3-6.06-4.79-18.86.87-20M140.24 418.45a10.74 10.74 0 01-.5-10.78 14.26 14.26 0 018.6-6.91c1.67-.52 3.61-.73 5.06.24a4.58 4.58 0 011.77 4.31 9.27 9.27 0 01-2 4.42c-3.33 4.51-7.37 8.26-13 8.72"/><path class="cls-3" d="M141 439.58a6.5 6.5 0 01-.31-1.31c-.18-.94-.42-2.15-.71-3.6a37.77 37.77 0 01-.74-12.11 23 23 0 014.49-11.21 15.32 15.32 0 012.59-2.63 9.16 9.16 0 01.82-.58 1.15 1.15 0 01.3-.18 25.37 25.37 0 00-3.45 3.59 23.85 23.85 0 00-4.28 11.08c-.64 4.66.15 8.93.61 12 .24 1.53.44 2.77.55 3.63a8.23 8.23 0 01.13 1.32z"/><path class="cls-3" d="M120.49 386.83a2.34 2.34 0 01.28.51c.18.4.42.9.7 1.53.61 1.33 1.46 3.26 2.49 5.65 2.06 4.79 4.82 11.45 7.7 18.87s5.33 14.19 7 19.12c.86 2.46 1.53 4.46 2 5.85.21.66.37 1.19.5 1.6a2.61 2.61 0 01.15.57 2.46 2.46 0 01-.24-.54c-.15-.4-.34-.92-.59-1.57l-2.11-5.8c-1.79-4.89-4.29-11.65-7.16-19.06s-5.59-14.09-7.57-18.91c-1-2.37-1.77-4.3-2.34-5.71-.26-.64-.47-1.15-.63-1.56a3.49 3.49 0 01-.18-.55z"/><path class="cls-4" d="M132.87 425.6a25.18 25.18 0 00-19.52-12.13c-2-.14-4.46.2-5.36 2s.3 4 1.68 5.46a21.49 21.49 0 0023.27 5.2"/><path class="cls-3" d="M116.43 418.89a7.15 7.15 0 011.27.05 12.09 12.09 0 011.47.17c.57.11 1.24.17 1.94.37a19.41 19.41 0 012.31.64 22.91 22.91 0 012.57 1 27.8 27.8 0 015.42 3.21 27.31 27.31 0 014.48 4.44 22.49 22.49 0 011.57 2.25 21.93 21.93 0 011.18 2.09 17.4 17.4 0 01.8 1.8 11.34 11.34 0 01.51 1.4 6.82 6.82 0 01.33 1.23c-.11 0-.59-1.72-1.94-4.28a22 22 0 00-1.21-2 25.32 25.32 0 00-1.58-2.19 26.65 26.65 0 00-9.74-7.52c-.87-.38-1.7-.74-2.51-1a21.87 21.87 0 00-2.27-.69c-2.8-.77-4.61-.86-4.6-.97z"/></g><g id="Folder"><path class="cls-4" d="M299 234.54l-35.4 181.8-4.6 23.8L495 439c10.6-.05 20-9.46 23.39-23.44l41.86-171.63c2.59-10.61-3.09-21.65-11.13-21.64l-238.92.25c-5.2-.01-9.86 4.91-11.2 12z"/><path d="M299 234.54l-35.4 181.8-4.6 23.8L495 439c10.6-.05 20-9.46 23.39-23.44l41.86-171.63c2.59-10.61-3.09-21.65-11.13-21.64l-238.92.25c-5.2-.01-9.86 4.91-11.2 12z"/><path class="cls-4" d="M472.39 404l-25-201.41c-1-8.25-7.59-14.41-15.36-14.38l-54.8.17a15 15 0 00-10.83 4.8l-26 27.67-152.4.82c-9.31.05-16.47 8.87-15.24 18.77l23.21 186.15c1 8.24 7.59 14.39 15.34 14.38l265.65-.53c29.58.61 32.41-8.12 32.41-8.12-33.96 7.51-36.98-28.27-36.98-28.32z"/><g class="cls-5"><path class="cls-6" d="M357.84 363.72l-8.96 9.62-69-62.08 8.96-9.62 69 62.08z"/><path class="cls-6" d="M345.13 299.51l9.9 8.91-62.43 67.05-9.91-8.91 62.44-67.05z"/></g></g></svg>
