<?xml version="1.0" encoding="utf-8"?>
<!-- Generator: Adobe Illustrator 22.0.1, SVG Export Plug-In . SVG Version: 6.00 Build 0)  -->
<svg version="1.1" id="Layer_1" xmlns="http://www.w3.org/2000/svg" xmlns:xlink="http://www.w3.org/1999/xlink" x="0px" y="0px"
	 viewBox="0 0 1485 604" style="enable-background:new 0 0 1485 604;" xml:space="preserve">
<style type="text/css">
	.st0{fill:#00795D;}
	.st1{fill:#FCFCFC;}
	.st2{opacity:0.29;fill:#4DA28F;}
	.st3{fill:#FFFFFF;}
	.st4{display:none;opacity:0.29;fill:#4DA28F;}
	.st5{display:none;fill:#FFFFFF;}
	.st6{font-family:'MiriamLibre-Bold';}
	.st7{font-size:90px;}
</style>
<rect class="st5" width="1485" height="604"/>
<g>
	<path class="st0" d="M550.7,294.3c-0.3-1-0.8-2-1.4-2.9l-61-76.1c-1.9-2.3-4.9-3.3-7.7-2.7l-70.5,16.6c-2.5,0.6-4.5,2.4-5.4,4.7
		c-0.9,2.4-0.6,5.1,0.9,7.1l50.3,70.9l-100.3,27.3L305.3,353l-11.8-19.8L175.6,136.7c-1.6-2.6-4.5-4.1-7.6-3.6L60.7,147.5
		c-2.5,0.3-4.6,1.9-5.8,4.1c-1.1,2.2-1.1,4.9,0,7.1l47.6,89.6l78.7,148.1c1.7,3.2,5.3,4.7,8.8,3.8l108.1-29.4l57.9,96.5
		c1.4,2.4,3.9,3.7,6.6,3.7c0.8,0,1.7-0.1,2.5-0.4l168.3-58.9c2.3-0.8,4-2.6,4.8-4.9c0.7-2.3,0.3-4.8-1-6.8l-54.5-76.7l-1.6-2.2
		l33.7-9.2l30.5-8.3c2.5-0.7,4.5-2.6,5.3-5C551.1,297.2,551.1,295.7,550.7,294.3z M191.9,383.8l-60.3-113.5l-58-109.1l91.5-12.3
		l108.2,180.5l16.6,27.8L191.9,383.8z M518.7,400.6l-152.8,53.5l-52.4-87.5l116.6-31.7l35.2-9.6l1.6,2.2L518.7,400.6z M471.7,307.7
		l-47-66.2l54.7-12.9l50.7,63.3L471.7,307.7z"/>
</g>
<text transform="matrix(1 0 0 1 605.7783 325.0625)" class="st0 st6 st7">Laravel Cameroon</text>
</svg>
