<?xml version="1.0" encoding="utf-8"?>
<!-- Generator: Adobe Illustrator 22.0.1, SVG Export Plug-In . SVG Version: 6.00 Build 0)  -->
<svg version="1.1" id="Layer_1" xmlns="http://www.w3.org/2000/svg" xmlns:xlink="http://www.w3.org/1999/xlink" x="0px" y="0px"
	 viewBox="0 0 547 550.5" style="enable-background:new 0 0 547 550.5;" xml:space="preserve">
<style type="text/css">
	.st0{fill:#00795D;}
	.st1{fill:#FCFCFC;}
	.st2{opacity:0.29;fill:#4DA28F;}
	.st3{fill:#FFFFFF;}
	.st4{display:none;opacity:0.29;fill:#4DA28F;}
</style>
<image style="display:none;overflow:visible;" width="250" height="250" xlink:href="../../../../Pictures/Brand Logo/flag-3d-round-250.png"  transform="matrix(1 0 0 1 -232.9283 132.6034)">
</image>
<path class="st0" d="M545.1,36.8v474.5c0,18.3-15,33.2-33.2,33.2H37.3c-18.3,0-33.2-15-33.2-33.2V36.8c0-18.3,15-33.2,33.2-33.2
	h474.5C530.1,3.6,545.1,18.6,545.1,36.8z"/>
<g>
	<path class="st1" d="M536.4,266c-0.3-1.1-0.8-2.2-1.5-3.1l-64.3-80.3c-2-2.4-5.1-3.5-8.2-2.8L388,197.4c-2.6,0.6-4.7,2.5-5.7,5
		c-0.9,2.5-0.6,5.3,1,7.5l53.1,74.8l-105.8,28.8l-53,14.4L265,307L140.8,99.8c-1.7-2.8-4.8-4.3-8-3.8L19.5,111.2
		c-2.6,0.3-4.9,2-6.1,4.3c-1.2,2.3-1.2,5.1,0.1,7.5l50.2,94.5l83,156.2c1.8,3.3,5.6,5,9.2,4l114-31l61,101.8
		c1.5,2.5,4.2,3.9,6.9,3.9c0.9,0,1.8-0.1,2.7-0.5l177.5-62.1c2.4-0.8,4.2-2.8,5-5.2c0.8-2.4,0.4-5.1-1.1-7.1l-57.4-80.9l-1.6-2.3
		l35.6-9.7l32.2-8.8c2.6-0.7,4.7-2.7,5.5-5.3C536.7,269,536.7,267.4,536.4,266z M158,360.4L94.3,240.7L33.2,125.6l96.5-13L243.8,303
		l17.6,29.3L158,360.4z M502.6,378l-161.2,56.4l-55.3-92.2l123-33.4l37.2-10.1l1.7,2.4L502.6,378z M453,280.2l-49.5-69.8l57.7-13.6
		l53.4,66.7L453,280.2z"/>
</g>
<path class="st4" d="M531.1,49.1v212.4c-2.7,1.7-5.5,3.3-8.3,4.9c-11.3,6.5-23.3,12.4-35.9,17.6c-10.3,4.2-21.1,8.1-32.2,11.4
	c-5.2,1.5-10.4,3-15.7,4.3c-11.9,3-24.2,5.5-36.8,7.3c-23.9,3.6-48.8,5.1-74.5,4.4c-16-0.4-32.3-1.8-48.8-4c-4.5-0.6-9-1.3-13.4-2
	c-6.8-1.1-13.5-2.4-20.1-3.8c-53.7-11.5-102-32.2-141.7-59.1c-10.3-6.9-20-14.3-29-22c-23.3-19.8-42.4-42-56.6-65.7V49.1
	c0-17.3,14.2-31.5,31.5-31.5h450C516.9,17.6,531.1,31.8,531.1,49.1z"/>
</svg>
