<svg width="400" height="400" viewBox="0 0 400 400" fill="none" xmlns="http://www.w3.org/2000/svg">
<rect width="400" height="400" rx="100" fill="white"/>
<path d="M352.822 195.488C352.636 194.902 352.327 194.316 351.957 193.789L314.27 149.209C313.096 147.862 311.243 147.276 309.513 147.628L265.957 157.352C264.413 157.703 263.177 158.758 262.621 160.105C262.065 161.511 262.25 163.093 263.177 164.265L294.253 205.798L232.286 221.791L201.21 229.875L193.92 218.276L121.08 103.165C120.091 101.642 118.3 100.763 116.384 101.056L50.093 109.492C48.5485 109.667 47.2511 110.605 46.5097 111.893C45.8301 113.182 45.8301 114.764 46.5097 116.053L75.9176 168.541L124.54 255.299C125.59 257.173 127.814 258.052 129.976 257.525L196.762 240.302L232.533 296.833C233.398 298.238 234.943 299 236.611 299C237.105 299 237.661 298.941 238.156 298.766L342.134 264.262C343.555 263.793 344.605 262.739 345.099 261.391C345.532 260.044 345.284 258.579 344.481 257.408L310.81 212.476L309.822 211.188L330.642 205.798L349.486 200.936C351.03 200.526 352.266 199.413 352.76 198.007C353.069 197.187 353.069 196.308 352.822 195.488ZM131.15 247.918L93.896 181.429L58.0628 117.517L114.593 110.312L181.44 216.05L191.696 232.335L131.15 247.918ZM333.052 257.759L238.65 289.1L206.276 237.842L278.313 219.272L300.06 213.648L301.049 214.937L333.052 257.759ZM304.014 203.338L274.977 164.557L308.772 157.001L340.095 194.082L304.014 203.338Z" fill="#00795D"/>
</svg>
