<?xml version="1.0" encoding="utf-8"?>
<!-- Generator: Adobe Illustrator 23.0.1, SVG Export Plug-In . SVG Version: 6.00 Build 0)  -->
<svg version="1.1" id="Layer_1" xmlns="http://www.w3.org/2000/svg" xmlns:xlink="http://www.w3.org/1999/xlink" x="0px" y="0px"
	 viewBox="0 0 388 80" style="enable-background:new 0 0 388 80;" xml:space="preserve">
<style type="text/css">
	.st0{fill:#EAE4D3;}
	.st1{opacity:0.16;fill:url(#Path_1_);enable-background:new    ;}
	.st2{fill:url(#Shape_1_);}
	.st3{opacity:0.16;fill:url(#SVGID_1_);enable-background:new    ;}
	.st4{opacity:0.12;}
	.st5{fill:url(#SVGID_2_);}
	.st6{fill:url(#SVGID_3_);}
	.st7{fill:url(#SVGID_4_);}
	.st8{fill:url(#SVGID_5_);}
	.st9{fill:url(#SVGID_6_);}
	.st10{fill:url(#SVGID_7_);}
	.st11{fill:url(#SVGID_8_);}
	.st12{fill:url(#SVGID_9_);}
	.st13{fill:url(#SVGID_10_);}
	.st14{fill:#FFFFFF;}
	.st15{opacity:0.16;fill:url(#SVGID_11_);enable-background:new    ;}
	.st16{fill:url(#SVGID_12_);}
	.st17{fill:url(#SVGID_13_);}
	.st18{fill:url(#SVGID_14_);}
	.st19{fill:url(#SVGID_15_);}
	.st20{enable-background:new    ;}
	.st21{fill:#424242;}
	.st22{fill:#2E2E2E;}
</style>
<title>Group 2</title>
<desc>Created with Sketch.</desc>
<g id="notify">
	<ellipse id="Oval" class="st0" cx="66.2" cy="75.3" rx="6.2" ry="3.5"/>
	
		<linearGradient id="Path_1_" gradientUnits="userSpaceOnUse" x1="61.9205" y1="152.4769" x2="61.9205" y2="153.0324" gradientTransform="matrix(13.2955 0 0 -4.4554 -756.716 753.9701)">
		<stop  offset="0" style="stop-color:#000000"/>
		<stop  offset="6.000000e-02" style="stop-color:#000000"/>
		<stop  offset="0.91" style="stop-color:#000000"/>
	</linearGradient>
	<path id="Path" class="st1" d="M63.1,75c1.7,0.3,3.5,0.5,5.2,0.6c1.4,0.1,2.7,0.1,4.1,0.2c-0.1-2.2-2.7-3.9-6-3.9
		c-2.7,0-5,1.2-5.7,2.8C61.5,74.8,62.3,74.8,63.1,75z"/>
	
		<linearGradient id="Shape_1_" gradientUnits="userSpaceOnUse" x1="64.0895" y1="169.6911" x2="64.4814" y2="169.2178" gradientTransform="matrix(69.1364 0 0 -82.8713 -4385.9312 14081.9893)">
		<stop  offset="2.000000e-02" style="stop-color:#FF718C"/>
		<stop  offset="0.39" style="stop-color:#F76B86"/>
		<stop  offset="0.95" style="stop-color:#E25A74"/>
		<stop  offset="1" style="stop-color:#E05872"/>
	</linearGradient>
	<path id="Shape" class="st2" d="M96.6,65.9c-0.3-0.4-0.7-0.7-1.1-1.1c-4.7-5.4-5.9-13.6-6.4-20.5c-0.5-7.3-0.3-14.7-1.9-21.9
		C85.5,15,80.1,9.1,73,6.7c-0.1-0.7-0.2-1.4-0.4-2c-0.5-1.5-1.6-2.8-3-3.6c-3-1.6-6.5-0.5-8,2.5c-0.4,0.9-0.7,1.8-0.7,2.7
		c-3.2,0.9-6.2,2.5-8.7,4.8c-4.9,4.5-6.8,11.7-7.5,18.1c-0.6,5.5-0.1,10.7-0.3,16.2c-0.2,3.8-0.7,7.9-1.8,11.6
		c-0.5,1.9-1.3,3.7-2.4,5.3c-0.9,1.4-2.3,2.4-3.2,3.8c-0.3,0.5-0.6,1-0.5,1.6c0.3,1.4,2.4,2.2,3.6,2.6c2.6,0.9,5.3,1.4,8,1.8
		c7.5,1.1,15.2,1.3,22.8,1.1c6.8-0.1,13.9-0.4,20.6-2.1c1.7-0.4,4-1,5.2-2.3C97.8,67.8,97.4,66.8,96.6,65.9z M63.6,5.8
		c0.4-1.5,1.3-2.9,3-3c2.3-0.2,3.1,1.4,3.4,3.2C67.9,5.5,65.8,5.5,63.6,5.8z"/>
	
		<linearGradient id="SVGID_1_" gradientUnits="userSpaceOnUse" x1="63.6576" y1="169.4987" x2="64.3508" y2="168.899" gradientTransform="matrix(69.1364 0 0 -59.703 -4385.9312 10143.376)">
		<stop  offset="0" style="stop-color:#000000"/>
		<stop  offset="0.91" style="stop-color:#000000"/>
	</linearGradient>
	<path class="st3" d="M96.6,66c-0.3-0.4-0.7-0.7-1.1-1.1c-3.1-3.4-4.2-7-5.2-11.6c-0.1-0.5-0.4-1.8-0.4-2c0-0.8-1.9-1-2.7-1.3
		c-7.2-3.2-14.6-6-21.6-9.7c-3.7-2-7.2-4.3-10.4-6.9c-1.6-1.3-3.2-2.7-4.7-4.1c-1.6-1.5-2.2-2.4-2.8-4.5c-0.2-0.7-0.4-1.3-0.6-2
		c-0.1-0.6-0.2-1.5-0.5-2c-0.5,0.2-0.9,1.8-1,2.3c-0.3,0.9-0.5,1.8-0.6,2.7c-0.3,1.7-0.5,3.5-0.5,5.3c-0.3,4.2,0,5.5,0,7.5
		c0,2.5-0.1,4.6-0.2,7c-0.2,3.8-0.7,7.9-1.8,11.6c-0.5,1.9-1.3,3.7-2.4,5.3c-0.9,1.4-2.3,2.4-3.2,3.8c-0.3,0.5-0.6,1-0.5,1.6
		c0.3,1.4,2.4,2.1,3.6,2.6c2.6,0.9,5.3,1.4,8.1,1.8c7.5,1.1,15.2,1.3,22.8,1.1c6.8-0.1,13.9-0.4,20.6-2.1c1.7-0.4,4-1,5.2-2.3
		C97.8,67.8,97.4,66.8,96.6,66z"/>
	<path class="st0" d="M44.3,47c0,0,26.7,6,45.3,0.4c0,0-0.2-1.5-0.3-3.2c0,0-19,5.3-44.8-0.7c0,0-0.1,2.8-0.1,3.1L44.3,47z"/>
	<path class="st0" d="M43.6,50.6c0,0,24.2,7.3,45.8,0.3c0,0,0.4,2.6,0.9,4.5c0.6,1.9-25.5,9.4-47.6,0C42.7,55.4,43.5,51,43.6,50.6z"
		/>
	<g id="Group" transform="translate(15.954545, 57.029703)" class="st4">
		<g transform="translate(50.395626, 0.396040)">
			
				<linearGradient id="SVGID_2_" gradientUnits="userSpaceOnUse" x1="-14.5792" y1="100.5174" x2="-13.698" y2="100.5174" gradientTransform="matrix(3.4357 0 0 -6.5406 70.9729 653.8906)">
				<stop  offset="0" style="stop-color:#000000"/>
				<stop  offset="0.91" style="stop-color:#000000"/>
			</linearGradient>
			<path class="st5" d="M23.9-2C23.3-3.8,23-6.4,23-6.4c-0.7,0.2-1.4,0.4-2.1,0.6L22-0.7C23.3-1.2,24-1.7,23.9-2z"/>
		</g>
		<g transform="translate(43.254545, 1.980198)">
			
				<linearGradient id="SVGID_3_" gradientUnits="userSpaceOnUse" x1="-3.5671" y1="99.6538" x2="-2.6844" y2="99.6538" gradientTransform="matrix(4.8417 0 0 -6.9208 39.0261 686.1236)">
				<stop  offset="0" style="stop-color:#000000"/>
				<stop  offset="0.91" style="stop-color:#000000"/>
			</linearGradient>
			<path class="st6" d="M21.8-6L23-0.5C24.1-0.7,25.1-1,26-1.2l-1.2-5.4C23.8-6.4,22.8-6.2,21.8-6z"/>
		</g>
		<g transform="translate(36.317496, 3.168317)">
			
				<linearGradient id="SVGID_4_" gradientUnits="userSpaceOnUse" x1="3.4053" y1="98.442" x2="4.2864" y2="98.442" gradientTransform="matrix(4.7662 0 0 -6.895 6.2543 675.0644)">
				<stop  offset="0" style="stop-color:#000000"/>
				<stop  offset="0.91" style="stop-color:#000000"/>
			</linearGradient>
			<path class="st7" d="M22.5-6.4l0.7,5.8c1.2-0.1,2.4-0.3,3.5-0.5l-1.2-5.6C24.5-6.6,23.5-6.5,22.5-6.4z"/>
		</g>
		<g transform="translate(21.015180, 3.564356)">
			
				<linearGradient id="SVGID_5_" gradientUnits="userSpaceOnUse" x1="17.6737" y1="98.2601" x2="18.5531" y2="98.2601" gradientTransform="matrix(4.0806 0 0 -7.0178 -47.8405 685.8251)">
				<stop  offset="0" style="stop-color:#000000"/>
				<stop  offset="0.91" style="stop-color:#000000"/>
			</linearGradient>
			<path class="st8" d="M25-6.8l-0.7,6c1.2,0.1,2.5,0.2,3.6,0.2v-6C27-6.7,25.9-6.8,25-6.8z"/>
		</g>
		<g>
			
				<linearGradient id="SVGID_6_" gradientUnits="userSpaceOnUse" x1="38.769" y1="100.6379" x2="39.6502" y2="100.6379" gradientTransform="matrix(3.8603 0 0 -6.404 -122.8269 640.9643)">
				<stop  offset="0" style="stop-color:#000000"/>
				<stop  offset="0.91" style="stop-color:#000000"/>
			</linearGradient>
			<path class="st9" d="M27.7-6.3c-0.1,0.4-0.9,4.7-0.9,4.7c0.8,0.3,1.5,0.6,2.3,0.9l1.1-5C28.6-6.1,27.7-6.3,27.7-6.3z"/>
		</g>
		<g transform="translate(13.262007, 2.772277)">
			
				<linearGradient id="SVGID_7_" gradientUnits="userSpaceOnUse" x1="27.0804" y1="99.2349" x2="27.9616" y2="99.2349" gradientTransform="matrix(4.7927 0 0 -7.1366 -104.5392 704.6568)">
				<stop  offset="0" style="stop-color:#000000"/>
				<stop  offset="0.91" style="stop-color:#000000"/>
			</linearGradient>
			<path class="st10" d="M26.5-6.7l-1.3,5.7c1.2,0.2,2.4,0.4,3.5,0.5l0.7-5.9C28.4-6.4,27.5-6.6,26.5-6.7z"/>
		</g>
		<g transform="translate(28.768353, 3.762376)">
			
				<linearGradient id="SVGID_8_" gradientUnits="userSpaceOnUse" x1="10.912" y1="97.7711" x2="11.7931" y2="97.7711" gradientTransform="matrix(4.6417 0 0 -6.8455 -27.2994 665.459)">
				<stop  offset="0" style="stop-color:#000000"/>
				<stop  offset="0.91" style="stop-color:#000000"/>
			</linearGradient>
			<path class="st11" d="M23.4-6.8v6c1.4,0,2.8-0.1,4.1-0.2l-0.7-5.9C25.6-6.8,24.4-6.8,23.4-6.8z"/>
		</g>
		<g transform="translate(6.120926, 1.584158)">
			
				<linearGradient id="SVGID_9_" gradientUnits="userSpaceOnUse" x1="34.4785" y1="100.1006" x2="35.3597" y2="100.1006" gradientTransform="matrix(4.8417 0 0 -6.9545 -140.7926 692.6478)">
				<stop  offset="0" style="stop-color:#000000"/>
				<stop  offset="0.91" style="stop-color:#000000"/>
			</linearGradient>
			<path class="st12" d="M27.3-6.6l-1.2,5.3c1,0.3,2,0.6,3,0.8L30.4-6C29.3-6.2,28.2-6.4,27.3-6.6z"/>
		</g>
	</g>
	
		<linearGradient id="SVGID_10_" gradientUnits="userSpaceOnUse" x1="63.512" y1="167.6194" x2="64.0895" y2="167.34" gradientTransform="matrix(29.25 0 0 -29.4059 -1822.125 4939.416)">
		<stop  offset="0" style="stop-color:#C7536A"/>
		<stop  offset="1" style="stop-color:#CA556C"/>
	</linearGradient>
	<ellipse class="st13" cx="41.6" cy="13.3" rx="12.9" ry="13"/>
	<path class="st14" d="M40.4,21.2c0-1.1,0.7-2,1.6-2c1,0,1.6,0.8,1.6,2s-0.6,2-1.6,2C41,23.1,40.4,22.3,40.4,21.2z"/>
	<path class="st14" d="M43.5,3.6C43.4,3.6,43.4,3.5,43.5,3.6l-3-0.1c0,0-0.1,0.1-0.1,0.1c0,0,0,0.1,0,0.1l0.4,13.8
		c0,0.1,0.1,0.1,0.1,0.1h2c0.1,0,0.1,0,0.1-0.1L43.5,3.6C43.5,3.6,43.5,3.6,43.5,3.6L43.5,3.6z"/>
	
		<linearGradient id="SVGID_11_" gradientUnits="userSpaceOnUse" x1="62.7934" y1="166.6476" x2="63.8123" y2="166.4169" gradientTransform="matrix(20.3864 0 0 -22.2772 -1250.4205 3727.5342)">
		<stop  offset="0" style="stop-color:#000000"/>
		<stop  offset="0.91" style="stop-color:#000000"/>
	</linearGradient>
	<path class="st15" d="M44.7,23.7c-3.6-2.8-6.5-6.2-9.4-9.7c-1.9-2.3-3.4-4.8-4.7-7.4c-3,4.8-2.4,11,1.3,15.3s9.7,5.5,14.8,3.2
		C46,24.6,45.3,24.1,44.7,23.7z"/>
	<path class="st14" d="M71,76.5c-0.4,0-0.7-0.2-0.9-0.5c-0.3-0.7,0.6-1.5,1.3-0.9C71.8,75.6,71.7,76.4,71,76.5z"/>
	<path d="M70.1,75.2c0-0.1,0.1-0.2,0.1-0.2c0.1-0.1,0.3-0.1,0.4-0.1c0.1,0,0.1,0.1,0.2,0.2s0,0.2,0,0.3c-0.1,0.1-0.2,0.2-0.3,0.2
		c-0.2,0-0.3-0.1-0.4-0.2C70.1,75.4,70.1,75.3,70.1,75.2L70.1,75.2z"/>
	<path class="st14" d="M62.1,76.5c0.4,0,0.7-0.2,0.9-0.5c0.3-0.7-0.6-1.5-1.3-0.9C61.3,75.6,61.4,76.4,62.1,76.5z"/>
	<path d="M63,75.2c0-0.1-0.1-0.2-0.1-0.2c-0.1-0.1-0.3-0.1-0.4-0.1c-0.1,0-0.1,0.1-0.2,0.2c0,0.1,0,0.2,0,0.3
		c0.1,0.2,0.2,0.2,0.4,0.2s0.3-0.1,0.4-0.2C63,75.4,63,75.3,63,75.2L63,75.2z"/>
	
		<linearGradient id="SVGID_12_" gradientUnits="userSpaceOnUse" x1="42.0449" y1="141.0183" x2="42.9092" y2="141.0183" gradientTransform="matrix(1.7727 0 0 -2.6733 -16.1591 455.4548)">
		<stop  offset="0" style="stop-color:#EC627C"/>
		<stop  offset="0.5101" style="stop-color:#C9546B"/>
		<stop  offset="1" style="stop-color:#C9546B"/>
	</linearGradient>
	<path class="st16" d="M59.8,79.4c-0.9-0.5-1.4-1.2-1.3-2.1c0-0.1-0.1-0.1-0.1,0c-0.2,0.9,0.3,1.9,1.4,2.3
		C59.9,79.7,60,79.5,59.8,79.4z"/>
	
		<linearGradient id="SVGID_13_" gradientUnits="userSpaceOnUse" x1="19.9305" y1="148.3443" x2="20.7908" y2="148.3443" gradientTransform="matrix(0.8864 0 0 -3.5644 38.3522 606.0504)">
		<stop  offset="0" style="stop-color:#EF657F"/>
		<stop  offset="0.4968" style="stop-color:#CE586F"/>
		<stop  offset="1" style="stop-color:#A74558"/>
	</linearGradient>
	<path class="st17" d="M56.8,78.7c-0.5-0.8-0.7-1.8-0.4-2.8c0-0.2-0.2-0.3-0.2-0.1c-0.3,1.1-0.1,2.3,0.5,3c0,0,0.1,0,0.1,0
		C56.8,78.8,56.8,78.8,56.8,78.7z"/>
	
		<linearGradient id="SVGID_14_" gradientUnits="userSpaceOnUse" x1="18.0375" y1="126.1291" x2="17.1765" y2="126.1291" gradientTransform="matrix(0.8864 0 0 -1.7822 58.7386 301.2975)">
		<stop  offset="0" style="stop-color:#EE647F"/>
		<stop  offset="0.4901" style="stop-color:#BB495F"/>
		<stop  offset="1" style="stop-color:#A74558"/>
	</linearGradient>
	<path class="st18" d="M74,77.1c0.4-0.3,0.7-0.8,0.7-1.4c0,0,0.1,0,0.1,0c0.1,0.6-0.2,1.3-0.7,1.5C74,77.3,73.9,77.2,74,77.1z"/>
	
		<linearGradient id="SVGID_15_" gradientUnits="userSpaceOnUse" x1="17.9187" y1="126.1291" x2="17.0577" y2="126.1291" gradientTransform="matrix(0.8864 0 0 -1.7822 59.625 301.2975)">
		<stop  offset="0" style="stop-color:#EE647F"/>
		<stop  offset="0.4901" style="stop-color:#BB495F"/>
		<stop  offset="1" style="stop-color:#A74558"/>
	</linearGradient>
	<path class="st19" d="M74.8,77.2c0.5-0.4,0.7-0.9,0.4-1.4c0-0.1,0.2-0.1,0.2-0.1C75.7,76.3,75.5,76.9,74.8,77.2
		C74.8,77.3,74.8,77.3,74.8,77.2C74.7,77.3,74.7,77.3,74.8,77.2L74.8,77.2z"/>
</g>
<g>
	<g class="st20">
		<path class="st21" d="M269.5,24.7v25.8h-3.4L252.6,30v20.5h-3.4V24.7h3.4l13.5,20.5V24.7H269.5z"/>
		<path class="st21" d="M285.2,50.9c-5.7,0-10.1-4.1-10.1-10.5c0-6.4,4.5-10.4,10.2-10.4c5.8,0,10.2,4,10.2,10.4
			C295.6,46.8,290.9,50.9,285.2,50.9z M285.2,47.9c3.5,0,7-2.4,7-7.5c0-5.1-3.4-7.5-6.8-7.5c-3.6,0-6.8,2.4-6.8,7.5
			C278.5,45.5,281.7,47.9,285.2,47.9z"/>
		<path class="st21" d="M301.9,33.1h-2.6v-2.8h2.6v-5.1h3.4v5.1h5.3v2.8h-5.3v12c0,2,0.7,2.7,2.8,2.7h2.5v2.8h-3
			c-3.6,0-5.6-1.5-5.6-5.6V33.1z"/>
		<path class="st21" d="M315.1,24.7c0-1.3,1-2.3,2.3-2.3c1.2,0,2.2,1,2.2,2.3c0,1.3-1,2.3-2.2,2.3C316.1,27,315.1,26,315.1,24.7z
			 M315.7,30.3h3.4v20.3h-3.4V30.3z"/>
		<path class="st21" d="M326.5,33.1h-2.6v-2.8h2.6v-1.4c0-4.5,2.2-6.5,7.4-6.5v2.8c-3,0-4,1.1-4,3.7v1.4h4.3v2.8h-4.3v17.5h-3.4
			V33.1z"/>
		<path class="st21" d="M353.2,30.3h3.5l-12.2,29.8H341l4-9.8l-8.2-20.1h3.7l6.4,16.4L353.2,30.3z"/>
	</g>
	<path class="st22" d="M133.3,45.6h11.2v4.2h-16.5V24.2h5.3C133.3,24.2,133.3,45.6,133.3,45.6z M158.2,49.8
		c-0.3-0.5-0.4-1.1-0.5-1.7c-1.2,1.4-3,2.1-4.8,2c-1.9,0-3.4-0.5-4.6-1.6c-1.2-1-1.9-2.5-1.8-4.1c0-2,0.8-3.6,2.2-4.6
		c1.5-1.1,3.7-1.6,6.5-1.6h2.3v-1.1c0-0.9-0.2-1.6-0.7-2.1c-0.4-0.5-1.2-0.8-2.1-0.8c-0.8,0-1.5,0.2-2,0.6c-0.5,0.4-0.7,1-0.7,1.7
		h-5.1c0-1.1,0.3-2.1,1-3.1c0.7-1,1.7-1.7,2.9-2.2c1.3-0.6,2.8-0.8,4.2-0.8c2.3,0,4.2,0.6,5.6,1.8c1.4,1.2,2.1,2.8,2.1,5v8.2
		c0,1.8,0.3,3.2,0.8,4.1v0.3H158.2L158.2,49.8z M154,46.3c0.8,0,1.4-0.2,2.1-0.5c0.6-0.3,1.1-0.8,1.4-1.3v-3.3h-1.9
		c-2.5,0-3.9,0.9-4.1,2.6l0,0.3c0,0.6,0.2,1.2,0.7,1.6C152.7,46.1,153.4,46.4,154,46.3L154,46.3z M177.2,35.6
		c-0.7-0.1-1.3-0.1-1.8-0.1c-1.9,0-3.2,0.7-3.8,2v12.4h-5.1v-19h4.8l0.1,2.3c1-1.8,2.4-2.6,4.2-2.6c0.6,0,1.1,0.1,1.6,0.2
		L177.2,35.6L177.2,35.6z M190.1,49.8c-0.3-0.5-0.4-1.1-0.5-1.7c-1.2,1.4-3,2.1-4.8,2c-1.9,0-3.4-0.5-4.6-1.6
		c-1.2-1-1.9-2.5-1.8-4.1c0-2,0.8-3.6,2.2-4.6c1.5-1.1,3.7-1.6,6.5-1.6h2.3v-1.1c0-0.9-0.2-1.6-0.7-2.1c-0.4-0.5-1.2-0.8-2.1-0.8
		c-0.9,0-1.5,0.2-2,0.6c-0.5,0.4-0.7,1-0.7,1.7h-5.1c0-1.1,0.3-2.1,1-3.1c0.7-1,1.7-1.7,2.9-2.2c1.3-0.5,2.7-0.8,4.2-0.8
		c2.4,0,4.2,0.6,5.6,1.8c1.4,1.2,2.1,2.8,2.1,5v8.2c0,1.8,0.3,3.2,0.8,4.1v0.3H190.1L190.1,49.8z M185.9,46.3c0.8,0,1.4-0.2,2.1-0.5
		c0.6-0.3,1.1-0.8,1.4-1.3v-3.3h-1.9c-2.5,0-3.9,0.9-4.1,2.6l0,0.3c0,0.6,0.2,1.2,0.7,1.6C184.6,46.1,185.3,46.4,185.9,46.3
		L185.9,46.3z M205.3,43.6l3.5-12.8h5.3l-6.4,19h-4.9l-6.4-19h5.3L205.3,43.6L205.3,43.6z M224.9,50.2c-2.8,0-5.1-0.8-6.8-2.6
		c-1.8-1.7-2.6-4-2.6-6.8v-0.5c0-1.9,0.4-3.6,1.1-5.1c0.7-1.4,1.8-2.7,3.1-3.5c1.4-0.8,3-1.2,4.6-1.2c2.6,0,4.6,0.8,6.1,2.5
		s2.2,4,2.2,7V42h-12.1c0.1,1.1,0.6,2.2,1.5,3c0.9,0.8,2,1.2,3.1,1.1c2,0,3.5-0.7,4.6-2.1l2.5,2.8c-0.8,1.1-1.9,2-3.1,2.5
		C227.9,49.9,226.5,50.2,224.9,50.2L224.9,50.2z M224.3,34.6c-1,0-1.8,0.3-2.5,1c-0.7,0.8-1.1,1.8-1.2,2.9h7.1v-0.4
		c0-1.1-0.3-2-0.9-2.6C226.2,34.9,225.4,34.6,224.3,34.6L224.3,34.6z M240.9,49.8h-5.1v-27h5.1V49.8z"/>
</g>
</svg>
